g OuterWall2
v -6.568764 0.4754536 -6.658221
v -6.568764 0.7608717 -6.658221
v -6.568764 0.4754536 6.519833
v -6.568764 0.7608717 6.519833
v -6.568764 0.4754536 6.519833
v -6.568764 0.7608717 6.519833
v 6.685815 0.4754536 6.566286
v 6.685815 0.7889204 6.566286
v 6.685815 0.4754536 6.566286
v 6.685815 0.7889204 6.566286
v 6.685815 0.4754536 -6.707176
v 6.685815 0.7889204 -6.707176
v 6.685815 0.4754536 -6.707176
v 6.685815 0.7889204 -6.707176
v -6.568764 0.4754536 -6.658221
v -6.568764 0.7608717 -6.658221
v -6.568764 0.7608717 -6.658221
v -6.388365 0.7608717 -6.384309
v -6.568764 0.7608717 6.519833
v -6.388364 0.7608717 6.327559
v 6.488978 0.7889198 6.374012
v 6.685815 0.7889204 6.566286
v 6.685815 0.7889204 -6.707176
v 6.433108 0.7889204 -6.509127
vt 0.7505165 0.7551941
vt 0.74629 0.7512643
vt 0.242939 0.7567738
vt 0.2485874 0.7517696
vt 0.242939 0.7567738
vt 0.2485874 0.7517696
vt 0.2471109 0.2508094
vt 0.2489603 0.252849
vt 0.2471109 0.2508094
vt 0.2489603 0.252849
vt 0.7477509 0.2523569
vt 0.7455418 0.2530544
vt 0.7477509 0.2523569
vt 0.7455418 0.2530544
vt 0.7505165 0.7551941
vt 0.74629 0.7512643
vt 0.74629 0.7512643
vt 0.7423114 0.7480974
vt 0.2485874 0.7517696
vt 0.2526426 0.7486312
vt 0.2525576 0.2574387
vt 0.2489603 0.252849
vt 0.7455418 0.2530544
vt 0.7410563 0.2579583
vn -1 0 0
vn -1 0 0
vn -1 0 0
vn -1 0 0
vn 0 0 1
vn 0 0 1
vn 0 0 1
vn 0 0 1
vn 1 0 0
vn 1 0 0
vn 1 0 0
vn 1 0 0
vn 0 0 -1
vn 0 0 -1
vn 0 0 -1
vn 0 0 -1
vn 0 1 0
vn 0 1 0
vn 0 1 0
vn 0 1 0
vn 0 1 0
vn -0.00212375 0.9999955 0.00216835
vn 0 1 0
vn 0 1 0
g OuterWall2_0
f 3/3/3 2/2/2 1/1/1
f 3/3/3 4/4/4 2/2/2
f 7/7/7 6/6/6 5/5/5
f 7/7/7 8/8/8 6/6/6
f 11/11/11 10/10/10 9/9/9
f 11/11/11 12/12/12 10/10/10
f 15/15/15 14/14/14 13/13/13
f 15/15/15 16/16/16 14/14/14
f 19/19/19 18/18/18 17/17/17
f 19/19/19 20/20/20 18/18/18
f 21/21/21 20/20/20 19/19/19
f 21/21/21 19/19/19 22/22/22
f 23/23/23 21/21/21 22/22/22
f 23/23/23 24/24/24 21/21/21
f 17/17/17 24/24/24 23/23/23
f 17/17/17 18/18/18 24/24/24
