g Boat2
v 0.09577162 -0.8219938 0.154824
v 0.07209119 -0.4575468 0.3836991
v 0.6201673 -0.4575468 -0.06159991
v 0.3912916 -0.8219938 -0.08527971
v 0.09128187 -0.5478642 0.1982097
v -0.1877208 -0.5478642 -0.1451851
v 0.1556752 -0.5478642 -0.4241866
v 0.4346778 -0.5478642 -0.08079179
v 0.5913319 -0.5478642 -0.4368258
v 0.5362415 -0.5478642 -0.5046309
v -0.3443736 -0.5478642 0.2108513
v -0.2892833 -0.5478642 0.2786565
v -0.3732079 -0.4575468 -0.1643746
v -0.1443321 -0.8219938 -0.1406948
v 0.1511879 -0.8219938 -0.3808016
v 0.1748659 -0.4575468 -0.6096773
v -0.1443321 -0.8219938 -0.1406948
v 0.09577162 -0.8219938 0.154824
v 0.3912916 -0.8219938 -0.08527971
v 0.1511879 -0.8219938 -0.3808016
v 0.478694 -0.8219938 -0.4500313
v 0.5261061 -0.8219938 -0.391678
v -0.2317369 -0.8219938 0.2240544
v -0.2791454 -0.8219938 0.1657023
v 0.5261061 -0.8219938 -0.391678
v 0.870193 -0.4575468 -0.6298512
v 0.782267 -0.4575468 -0.7380696
v 0.478694 -0.8219938 -0.4500313
v -0.8480955 -0.5866847 0.6279655
v -0.879044 -0.4966457 0.6117149
v -0.791118 -0.4966457 0.7199364
v -0.8006871 -0.5866847 0.686317
v 0.1511879 -0.8219938 -0.3808016
v 0.478694 -0.8219938 -0.4500313
v 0.782267 -0.4575468 -0.7380696
v 0.1748659 -0.4575468 -0.6096773
v 0.6201673 -0.4575468 -0.06159991
v 0.870193 -0.4575468 -0.6298512
v 0.5261061 -0.8219938 -0.391678
v 0.3912916 -0.8219938 -0.08527971
v 0.09577162 -0.8219938 0.154824
v -0.2317369 -0.8219938 0.2240544
v -0.5353075 -0.4575468 0.5120952
v 0.07209119 -0.4575468 0.3836991
v -0.3732079 -0.4575468 -0.1643746
v -0.6232347 -0.4575468 0.4038755
v -0.2791454 -0.8219938 0.1657023
v -0.1443321 -0.8219938 -0.1406948
v 0.07209119 -0.4575468 0.3836991
v 0.08453383 -0.4575468 0.2634544
v 0.499922 -0.4575468 -0.07404131
v 0.6201673 -0.4575468 -0.06159991
v 0.6894178 -0.4575468 -0.50472
v 0.870193 -0.4575468 -0.6298512
v 0.6227784 -0.4575468 -0.5867403
v 0.782267 -0.4575468 -0.7380696
v 0.1624269 -0.4575468 -0.4894307
v 0.1748659 -0.4575468 -0.6096773
v -0.2529637 -0.4575468 -0.1519344
v -0.3732079 -0.4575468 -0.1643746
v -0.4424596 -0.4575468 0.2787456
v -0.6232347 -0.4575468 0.4038755
v -0.3758202 -0.4575468 0.3607658
v -0.5353075 -0.4575468 0.5120952
v -0.7644078 -0.4546928 0.5185734
v -0.6764805 -0.4546928 0.6267936
v 0.08453383 -0.4575468 0.2634544
v 0.09128187 -0.5478642 0.1982097
v 0.4346778 -0.5478642 -0.08079179
v 0.499922 -0.4575468 -0.07404131
v 0.1624269 -0.4575468 -0.4894307
v 0.1556752 -0.5478642 -0.4241866
v -0.1877208 -0.5478642 -0.1451851
v -0.2529637 -0.4575468 -0.1519344
v 0.499922 -0.4575468 -0.07404131
v 0.4346778 -0.5478642 -0.08079179
v 0.5913319 -0.5478642 -0.4368258
v 0.6894178 -0.4575468 -0.50472
v 0.6894178 -0.4575468 -0.50472
v 0.5913319 -0.5478642 -0.4368258
v 0.5362415 -0.5478642 -0.5046309
v 0.6227784 -0.4575468 -0.5867403
v 0.6227784 -0.4575468 -0.5867403
v 0.5362415 -0.5478642 -0.5046309
v 0.1556752 -0.5478642 -0.4241866
v 0.1624269 -0.4575468 -0.4894307
v -0.2529637 -0.4575468 -0.1519344
v -0.1877208 -0.5478642 -0.1451851
v -0.3443736 -0.5478642 0.2108513
v -0.4424596 -0.4575468 0.2787456
v -0.4424596 -0.4575468 0.2787456
v -0.3443736 -0.5478642 0.2108513
v -0.2892833 -0.5478642 0.2786565
v -0.3758202 -0.4575468 0.3607658
v -0.3758202 -0.4575468 0.3607658
v -0.2892833 -0.5478642 0.2786565
v 0.09128187 -0.5478642 0.1982097
v 0.08453383 -0.4575468 0.2634544
v -0.2791454 -0.8219938 0.1657023
v -0.6511021 -0.5418983 0.4679112
v -0.6036937 -0.5418983 0.5262638
v -0.2317369 -0.8219938 0.2240544
v -0.2317369 -0.8219938 0.2240544
v -0.6036937 -0.5418983 0.5262638
v -0.6764805 -0.4546928 0.6267936
v -0.5353075 -0.4575468 0.5120952
v -0.6232347 -0.4575468 0.4038755
v -0.7644078 -0.4546928 0.5185734
v -0.6511021 -0.5418983 0.4679112
v -0.2791454 -0.8219938 0.1657023
v -0.6764805 -0.4546928 0.6267936
v -0.791118 -0.4966457 0.7199364
v -0.879044 -0.4966457 0.6117149
v -0.7644078 -0.4546928 0.5185734
v -0.6036937 -0.5418983 0.5262638
v -0.8006871 -0.5866847 0.686317
v -0.791118 -0.4966457 0.7199364
v -0.6764805 -0.4546928 0.6267936
v -0.6511021 -0.5418983 0.4679112
v -0.8480955 -0.5866847 0.6279655
v -0.8006871 -0.5866847 0.686317
v -0.6036937 -0.5418983 0.5262638
v -0.7644078 -0.4546928 0.5185734
v -0.879044 -0.4966457 0.6117149
v -0.8480955 -0.5866847 0.6279655
v -0.6511021 -0.5418983 0.4679112
v 0.3887281 0.6907839 0.3483451
v -0.2524352 0.6915398 -0.4289571
v -0.3462816 0.333862 -0.3521773
v 0.2948805 0.3331061 0.4251261
v -0.3496654 -0.02487419 -0.3495241
v 0.2914991 -0.0256295 0.4277799
v -0.2625169 -0.3733234 -0.4210396
v 0.3786476 -0.3740787 0.3562638
v 0.1327528 -0.6043648 -0.05159502
v 0.1327528 0.8219938 -0.05159502
v 0.2314247 0.8219938 -0.1317635
v 0.2314247 -0.6043648 -0.1317635
v 0.1327528 0.8219938 -0.05159502
v 0.1051796 0.8219938 -0.1711061
v 0.2314247 0.8219938 -0.1317635
v 0.1051796 -0.6043645 -0.1711061
v 0.1327528 -0.6043648 -0.05159502
v 0.2314247 -0.6043648 -0.1317635
v 0.2314247 -0.6043648 -0.1317635
v 0.2314247 0.8219938 -0.1317635
v 0.1051796 0.8219938 -0.1711061
v 0.1051796 -0.6043645 -0.1711061
v 0.1051796 -0.6043645 -0.1711061
v 0.1051796 0.8219938 -0.1711061
v 0.1327528 0.8219938 -0.05159502
v 0.1327528 -0.6043648 -0.05159502
v 0.4148634 0.6792067 0.3267735
v 0.3887281 0.6907839 0.3483451
v 0.2948805 0.3331061 0.4251261
v 0.3217604 0.3271001 0.4029478
v 0.2914991 -0.0256295 0.4277799
v 0.3184425 -0.02029098 0.4055583
v 0.3786476 -0.3740787 0.3562638
v 0.4049122 -0.3629667 0.3346073
v -0.3194017 0.327856 -0.374355
v -0.3462816 0.333862 -0.3521773
v -0.2524352 0.6915398 -0.4289571
v -0.2262999 0.6799626 -0.4505281
v -0.3227196 -0.01953567 -0.3717452
v -0.3496654 -0.02487419 -0.3495241
v -0.2362499 -0.3622114 -0.4426961
v -0.2625169 -0.3733234 -0.4210396
v -0.2262999 0.6799626 -0.4505281
v -0.2524352 0.6915398 -0.4289571
v 0.3887281 0.6907839 0.3483451
v 0.4148634 0.6792067 0.3267735
v 0.4049122 -0.3629667 0.3346073
v 0.3786476 -0.3740787 0.3562638
v -0.2625169 -0.3733234 -0.4210396
v -0.2362499 -0.3622114 -0.4426961
v 0.4049122 -0.3629667 0.3346073
v -0.2362499 -0.3622114 -0.4426961
v -0.3227196 -0.01953567 -0.3717452
v 0.3184425 -0.02029098 0.4055583
v -0.3194017 0.327856 -0.374355
v 0.3217604 0.3271001 0.4029478
v -0.2262999 0.6799626 -0.4505281
v 0.4148634 0.6792067 0.3267735
vt 0.7893497 0.6433678
vt 0.7982364 0.6425945
vt 0.7993726 0.5994222
vt 0.7890717 0.5887731
vt 0.8071396 0.6341627
vt 0.8327255 0.6347873
vt 0.833362 0.609238
vt 0.8078035 0.6086144
vt 0.8185689 0.5889194
vt 0.8236111 0.5890417
vt 0.8219515 0.6545602
vt 0.8168947 0.6544362
vt 0.8414892 0.6436518
vt 0.8492605 0.6432172
vt 0.8497412 0.5894275
vt 0.8425499 0.6004753
vt 0.031713 0.628197
vt 0.039624 0.628238
vt 0.039681 0.62032
vt 0.031749 0.62027
vt 0.034969 0.614062
vt 0.036538 0.614073
vt 0.036414 0.634387
vt 0.034856 0.634381
vt 0.8164499 0.5522326
vt 0.8175603 0.5661771
vt 0.826075 0.566385
vt 0.8266293 0.5524806
vt 0.8269091 0.6990139
vt 0.823511 0.6966519
vt 0.8149519 0.6964424
vt 0.810914 0.6989018
vt 0.8497412 0.5894275
vt 0.8266293 0.5524806
vt 0.826075 0.566385
vt 0.8425499 0.6004753
vt 0.7993726 0.5994222
vt 0.8175603 0.5661771
vt 0.8164499 0.5522326
vt 0.7890717 0.5887731
vt 0.7893497 0.6433678
vt 0.8098472 0.6776224
vt 0.8154856 0.6756266
vt 0.7982364 0.6425945
vt 0.8414892 0.6436518
vt 0.8240371 0.6758353
vt 0.8275147 0.6778714
vt 0.8492605 0.6432172
vt 0.7988662 0.642277
vt 0.8018886 0.6401219
vt 0.8029827 0.6041145
vt 0.8010143 0.6003315
vt 0.816881 0.5735428
vt 0.8171188 0.5689462
vt 0.8227736 0.5731885
vt 0.8235632 0.5691473
vt 0.8372237 0.6056663
vt 0.8399613 0.6037056
vt 0.8369431 0.6384744
vt 0.8402358 0.6422591
vt 0.8231534 0.664104
vt 0.8223672 0.6749644
vt 0.8154644 0.6636959
vt 0.8166697 0.6751526
vt 0.8223407 0.6859489
vt 0.8159863 0.686007
vt 0.8042069 0.636618
vt 0.8071396 0.6341627
vt 0.8078035 0.6086144
vt 0.8050171 0.6055714
vt 0.8360739 0.6063294
vt 0.833362 0.609238
vt 0.8327255 0.6347873
vt 0.835304 0.6373785
vt 0.8050171 0.6055714
vt 0.8078035 0.6086144
vt 0.8185689 0.5889194
vt 0.8169504 0.5795415
vt 0.8169504 0.5795415
vt 0.8185689 0.5889194
vt 0.8236111 0.5890417
vt 0.8230765 0.5796904
vt 0.8230765 0.5796904
vt 0.8236111 0.5890417
vt 0.833362 0.609238
vt 0.8360739 0.6063294
vt 0.835304 0.6373785
vt 0.8327255 0.6347873
vt 0.8219515 0.6545602
vt 0.8222089 0.6614161
vt 0.8222089 0.6614161
vt 0.8219515 0.6545602
vt 0.8168947 0.6544362
vt 0.8160623 0.6612655
vt 0.8160623 0.6612655
vt 0.8168947 0.6544362
vt 0.8071396 0.6341627
vt 0.8042069 0.636618
vt 0.034856 0.634381
vt 0.034742 0.643595
vt 0.036258 0.643599
vt 0.036414 0.634387
vt 0.8098472 0.6776224
vt 0.8123496 0.6838803
vt 0.8151854 0.6873357
vt 0.8154856 0.6756266
vt 0.8240371 0.6758353
vt 0.8237412 0.6875453
vt 0.8283181 0.6839924
vt 0.8275147 0.6778714
vt 0.8159863 0.686007
vt 0.8151067 0.6945935
vt 0.8234229 0.6947972
vt 0.8223407 0.6859489
vt 0.8123496 0.6838803
vt 0.810914 0.6989018
vt 0.8149519 0.6964424
vt 0.8151854 0.6873357
vt 0.034742 0.643595
vt 0.03471 0.648443
vt 0.03622 0.648446
vt 0.036258 0.643599
vt 0.8237412 0.6875453
vt 0.823511 0.6966519
vt 0.8269091 0.6990139
vt 0.8283181 0.6839924
vt 0.8977453 0.6598865
vt 0.97232 0.6590164
vt 0.9718914 0.6328427
vt 0.8978017 0.6337076
vt 0.9715833 0.6068024
vt 0.8975219 0.6076682
vt 0.9713899 0.5804167
vt 0.8969026 0.5812874
vt 0.8711516 0.5730355
vt 0.8711516 0.6714047
vt 0.8754409 0.6714047
vt 0.8754409 0.5730355
vt 0.8868788 0.6714047
vt 0.8815919 0.6714047
vt 0.8754409 0.6714047
vt 0.8815919 0.5730355
vt 0.8711516 0.5730355
vt 0.8754409 0.5730355
vt 0.8754409 0.5730355
vt 0.8754409 0.6714047
vt 0.8815919 0.6714047
vt 0.8815919 0.5730355
vt 0.8658646 0.5730355
vt 0.8658646 0.6714047
vt 0.8711516 0.6714047
vt 0.8711516 0.5730355
vt 0.8977453 0.6598865
vt 0.8977453 0.6598865
vt 0.8978017 0.6337076
vt 0.8978017 0.6337076
vt 0.8975219 0.6076682
vt 0.8975219 0.6076682
vt 0.8969026 0.5812874
vt 0.8969026 0.5812874
vt 0.9718914 0.6328427
vt 0.9718914 0.6328427
vt 0.97232 0.6590164
vt 0.97232 0.6590164
vt 0.9715833 0.6068024
vt 0.9715833 0.6068024
vt 0.9713899 0.5804167
vt 0.9713899 0.5804167
vt 0.97232 0.6590164
vt 0.97232 0.6590164
vt 0.8977453 0.6598865
vt 0.8977453 0.6598865
vt 0.8969026 0.5812874
vt 0.8969026 0.5812874
vt 0.9713899 0.5804167
vt 0.9713899 0.5804167
vt 0.8969026 0.5812874
vt 0.9713899 0.5804167
vt 0.9715833 0.6068024
vt 0.8975219 0.6076682
vt 0.9718914 0.6328427
vt 0.8978017 0.6337076
vt 0.97232 0.6590164
vt 0.8977453 0.6598865
vn 0.5758061 -0.4076584 0.7087044
vn 0.5758061 -0.4076584 0.7087044
vn 0.5758061 -0.4076584 0.7087044
vn 0.5758061 -0.4076584 0.7087044
vn 0 1 0
vn 0 1 0
vn 0 1 0
vn 0 1 0
vn 0 1 0
vn 0 1 0
vn 0 1 0
vn 0 1 0
vn -0.5758091 -0.4076613 -0.7087004
vn -0.5758091 -0.4076613 -0.7087004
vn -0.5758091 -0.4076613 -0.7087004
vn -0.5758091 -0.4076613 -0.7087004
vn 0 -1 0
vn 0 -1 0
vn 0 -1 0
vn 0 -1 0
vn 0 -1 0
vn 0 -1 0
vn 0 -1 0
vn 0 -1 0
vn 0.5105708 -0.7531469 -0.4148341
vn 0.5105708 -0.7531469 -0.4148341
vn 0.5105708 -0.7531469 -0.4148341
vn 0.5105708 -0.7531469 -0.4148341
vn -0.7672043 -0.1512004 0.6233265
vn -0.7672043 -0.1512004 0.6233265
vn -0.7672043 -0.1512004 0.6233265
vn -0.7672043 -0.1512004 0.6233265
vn -0.1772625 -0.5151207 -0.8385873
vn -0.1772625 -0.5151208 -0.8385872
vn -0.1772625 -0.5151208 -0.8385872
vn -0.1772625 -0.5151209 -0.8385872
vn 0.7845345 -0.5151209 0.3451898
vn 0.7845345 -0.5151209 0.3451898
vn 0.7845345 -0.5151209 0.3451898
vn 0.7845345 -0.5151209 0.3451898
vn 0.1772653 -0.5151201 0.8385871
vn 0.1772653 -0.5151202 0.838587
vn 0.1772653 -0.5151201 0.838587
vn 0.1772653 -0.5151201 0.8385871
vn -0.7845341 -0.5151213 -0.3451901
vn -0.7845341 -0.5151213 -0.3451901
vn -0.7845341 -0.5151213 -0.3451901
vn -0.7845341 -0.5151213 -0.3451901
vn 0 1 0
vn 0 1 0
vn 0 1 0
vn 0 1 0
vn 0 1 0
vn 0 1 0
vn 0 1 -4.543736E-07
vn 0 1 -4.543736E-07
vn 0 1 3.307292E-07
vn 0 1 3.307292E-07
vn 0 1 3.307292E-07
vn 0 1 3.307292E-07
vn 0 1 0
vn 0 1 0
vn 0 1 4.543719E-07
vn 0 1 4.54372E-07
vn 0.01217615 0.999877 -0.009893041
vn 0.01217615 0.999877 -0.009893041
vn -0.5609387 0.4568274 -0.6904032
vn -0.5609386 0.4568274 -0.6904032
vn -0.5609387 0.4568274 -0.6904032
vn -0.5609387 0.4568274 -0.6904032
vn 0.5609438 0.4568102 0.6904104
vn 0.5609439 0.4568102 0.6904104
vn 0.5609438 0.4568102 0.6904104
vn 0.5609438 0.4568102 0.6904104
vn -0.7529192 0.5686524 -0.3312809
vn -0.7529192 0.5686525 -0.3312809
vn -0.7529192 0.5686524 -0.3312809
vn -0.7529193 0.5686523 -0.3312809
vn -0.4693618 0.7964137 0.3813459
vn -0.4693618 0.7964138 0.3813458
vn -0.4693618 0.7964138 0.3813458
vn -0.4693618 0.7964138 0.3813458
vn 0.1701171 0.5686553 0.8047928
vn 0.170117 0.5686552 0.8047928
vn 0.170117 0.5686553 0.8047928
vn 0.1701171 0.5686553 0.8047928
vn 0.7529219 0.5686499 0.3312791
vn 0.7529219 0.5686498 0.3312791
vn 0.7529219 0.5686499 0.3312792
vn 0.7529219 0.5686498 0.3312792
vn 0.4693656 0.79641 -0.381349
vn 0.4693657 0.79641 -0.381349
vn 0.4693657 0.79641 -0.381349
vn 0.4693656 0.79641 -0.381349
vn -0.1701214 0.5686569 -0.8047907
vn -0.1701215 0.5686569 -0.8047907
vn -0.1701215 0.5686569 -0.8047907
vn -0.1701215 0.5686569 -0.8047907
vn -0.3916251 -0.8633612 0.3181781
vn -0.3916251 -0.8633611 0.3181781
vn -0.3916251 -0.8633612 0.3181781
vn -0.3916251 -0.8633612 0.3181781
vn 0.509649 -0.2763176 0.8148046
vn 0.509649 -0.2763176 0.8148046
vn 0.509649 -0.2763175 0.8148045
vn 0.509649 -0.2763175 0.8148045
vn -0.6932073 -0.2763254 -0.6656635
vn -0.6932073 -0.2763254 -0.6656635
vn -0.6932073 -0.2763253 -0.6656635
vn -0.6932073 -0.2763254 -0.6656635
vn -0.2120524 0.9619513 0.1722886
vn -0.2120524 0.9619513 0.1722886
vn -0.2120525 0.9619513 0.1722886
vn -0.2120525 0.9619513 0.1722887
vn 0.650567 -0.2969882 0.6989712
vn 0.650567 -0.2969882 0.6989712
vn 0.6505669 -0.2969882 0.6989712
vn 0.650567 -0.2969882 0.6989712
vn 0.1348666 -0.9847866 -0.1095731
vn 0.1348666 -0.9847866 -0.1095731
vn 0.1348666 -0.9847866 -0.1095731
vn 0.1348666 -0.9847866 -0.1095731
vn -0.5509759 -0.2970126 -0.7798777
vn -0.5509759 -0.2970126 -0.7798775
vn -0.5509759 -0.2970126 -0.7798777
vn -0.5509759 -0.2970126 -0.7798777
vn 0.7304362 -0.3210525 -0.6028168
vn 0.7304362 -0.3210526 -0.6028168
vn 0.7597662 -0.1726122 -0.6268655
vn 0.7597646 -0.1726241 -0.6268642
vn 0.7625996 0.1514648 -0.6288881
vn 0.762576 0.1516655 -0.6288684
vn 0.7341158 0.3078259 -0.6052415
vn 0.7341158 0.3078259 -0.6052415
vn 0.630582 0 0.7761227
vn 0.630582 0 0.7761227
vn 0.630582 0 0.7761227
vn 0.630582 0 0.7761227
vn 0 1 0
vn 0 1 0
vn 0 1 0
vn -1.747168E-06 -1 -1.743497E-06
vn -1.747168E-06 -1 -1.743497E-06
vn -1.747168E-06 -1 -1.743497E-06
vn 0.2975227 0 -0.9547148
vn 0.2975228 0 -0.9547148
vn 0.2975228 0 -0.9547148
vn 0.2975227 0 -0.9547148
vn -0.9744023 0 0.2248113
vn -0.9744023 0 0.2248113
vn -0.9744023 0 0.2248113
vn -0.9744023 0 0.2248112
vn -0.6362253 0.001320254 -0.7715022
vn -0.6362253 0.001320254 -0.7715022
vn -0.6362785 0.0008232603 -0.771459
vn -0.6362785 0.0008228028 -0.771459
vn -0.6362113 -0.0002343136 -0.7715148
vn -0.6362115 -0.0002338706 -0.7715147
vn -0.6360922 -0.0007339533 -0.7716126
vn -0.6360922 -0.0007339533 -0.7716126
vn 0.6362695 -0.0008237463 0.7714664
vn 0.6362695 -0.0008242049 0.7714665
vn 0.6362198 -0.001320263 0.7715067
vn 0.6362198 -0.001320263 0.7715067
vn 0.6361861 0.0002241574 0.7715356
vn 0.636186 0.0002245904 0.7715358
vn 0.6360548 0.0007168078 0.7716435
vn 0.6360548 0.0007168078 0.7716435
vn -0.2498397 -0.9463029 0.2051609
vn -0.2498397 -0.9463029 0.2051609
vn -0.2498397 -0.9463029 0.2051609
vn -0.2498397 -0.9463029 0.2051609
vn -0.238923 0.9506375 0.1980006
vn -0.2389229 0.9506375 0.1980006
vn -0.238923 0.9506375 0.1980006
vn -0.2389229 0.9506375 0.1980006
vn -0.7334982 -0.3102985 0.6047274
vn -0.7334981 -0.3102984 0.6047274
vn -0.7622985 -0.1540079 0.6286355
vn -0.7622738 -0.1542138 0.628615
vn -0.7594068 0.1752425 0.6265712
vn -0.7594052 0.1752537 0.6265699
vn -0.7298475 0.3232904 0.6023337
vn -0.7298476 0.3232903 0.6023337
g Boat2_0
f 3/3/3 2/2/2 1/1/1
f 4/4/4 3/3/3 1/1/1
f 7/7/7 6/6/6 5/5/5
f 8/8/8 7/7/7 5/5/5
f 8/8/8 9/9/9 7/7/7
f 9/9/9 10/10/10 7/7/7
f 6/6/6 11/11/11 5/5/5
f 11/11/11 12/12/12 5/5/5
f 15/15/15 14/14/14 13/13/13
f 16/16/16 15/15/15 13/13/13
f 19/19/19 18/18/18 17/17/17
f 20/20/20 19/19/19 17/17/17
f 20/20/20 21/21/21 19/19/19
f 21/21/21 22/22/22 19/19/19
f 18/18/18 23/23/23 17/17/17
f 23/23/23 24/24/24 17/17/17
f 27/27/27 26/26/26 25/25/25
f 28/28/28 27/27/27 25/25/25
f 31/31/31 30/30/30 29/29/29
f 32/32/32 31/31/31 29/29/29
f 35/35/35 34/34/34 33/33/33
f 36/36/36 35/35/35 33/33/33
f 39/39/39 38/38/38 37/37/37
f 40/40/40 39/39/39 37/37/37
f 43/43/43 42/42/42 41/41/41
f 44/44/44 43/43/43 41/41/41
f 47/47/47 46/46/46 45/45/45
f 48/48/48 47/47/47 45/45/45
f 51/51/51 50/50/50 49/49/49
f 52/52/52 51/51/51 49/49/49
f 53/53/53 51/51/51 52/52/52
f 54/54/54 53/53/53 52/52/52
f 55/55/55 53/53/53 54/54/54
f 56/56/56 55/55/55 54/54/54
f 57/57/57 55/55/55 56/56/56
f 58/58/58 57/57/57 56/56/56
f 59/59/59 57/57/57 58/58/58
f 60/60/60 59/59/59 58/58/58
f 61/61/61 59/59/59 60/60/60
f 62/62/62 61/61/61 60/60/60
f 63/63/63 61/61/61 62/62/62
f 64/64/64 63/63/63 62/62/62
f 50/50/50 63/63/63 64/64/64
f 49/49/49 50/50/50 64/64/64
f 62/62/62 65/65/65 64/64/64
f 65/65/65 66/66/66 64/64/64
f 69/69/69 68/68/68 67/67/67
f 70/70/70 69/69/69 67/67/67
f 73/73/73 72/72/72 71/71/71
f 74/74/74 73/73/73 71/71/71
f 77/77/77 76/76/76 75/75/75
f 78/78/78 77/77/77 75/75/75
f 81/81/81 80/80/80 79/79/79
f 82/82/82 81/81/81 79/79/79
f 85/85/85 84/84/84 83/83/83
f 86/86/86 85/85/85 83/83/83
f 89/89/89 88/88/88 87/87/87
f 90/90/90 89/89/89 87/87/87
f 93/93/93 92/92/92 91/91/91
f 94/94/94 93/93/93 91/91/91
f 97/97/97 96/96/96 95/95/95
f 98/98/98 97/97/97 95/95/95
f 101/101/101 100/100/100 99/99/99
f 102/102/102 101/101/101 99/99/99
f 105/105/105 104/104/104 103/103/103
f 106/106/106 105/105/105 103/103/103
f 109/109/109 108/108/108 107/107/107
f 110/110/110 109/109/109 107/107/107
f 113/113/113 112/112/112 111/111/111
f 114/114/114 113/113/113 111/111/111
f 117/117/117 116/116/116 115/115/115
f 118/118/118 117/117/117 115/115/115
f 121/121/121 120/120/120 119/119/119
f 122/122/122 121/121/121 119/119/119
f 125/125/125 124/124/124 123/123/123
f 126/126/126 125/125/125 123/123/123
f 129/129/129 128/128/128 127/127/127
f 130/130/130 129/129/129 127/127/127
f 131/131/131 129/129/129 130/130/130
f 132/132/132 131/131/131 130/130/130
f 133/133/133 131/131/131 132/132/132
f 134/134/134 133/133/133 132/132/132
f 137/137/137 136/136/136 135/135/135
f 138/138/138 137/137/137 135/135/135
f 141/141/141 140/140/140 139/139/139
f 144/144/144 143/143/143 142/142/142
f 147/147/147 146/146/146 145/145/145
f 148/148/148 147/147/147 145/145/145
f 151/151/151 150/150/150 149/149/149
f 152/152/152 151/151/151 149/149/149
f 155/155/155 154/154/154 153/153/153
f 156/156/156 155/155/155 153/153/153
f 157/157/157 155/155/155 156/156/156
f 158/158/158 157/157/157 156/156/156
f 159/159/159 157/157/157 158/158/158
f 160/160/160 159/159/159 158/158/158
f 163/163/163 162/162/162 161/161/161
f 164/164/164 163/163/163 161/161/161
f 161/161/161 162/162/162 165/165/165
f 162/162/162 166/166/166 165/165/165
f 165/165/165 166/166/166 167/167/167
f 166/166/166 168/168/168 167/167/167
f 171/171/171 170/170/170 169/169/169
f 172/172/172 171/171/171 169/169/169
f 175/175/175 174/174/174 173/173/173
f 176/176/176 175/175/175 173/173/173
f 179/179/179 178/178/178 177/177/177
f 180/180/180 179/179/179 177/177/177
f 181/181/181 179/179/179 180/180/180
f 182/182/182 181/181/181 180/180/180
f 183/183/183 181/181/181 182/182/182
f 184/184/184 183/183/183 182/182/182
