g Boat3
v 0.1811432 -0.8219938 -0.01816338
v 0.3764447 -0.4575468 0.1034998
v 0.2166425 -0.4575468 -0.5843536
v 0.09497864 -0.8219938 -0.3890514
v 0.2181647 -0.5478642 0.004899063
v -0.2128082 -0.5478642 0.1050239
v -0.3129327 -0.5478642 -0.3259487
v 0.1180402 -0.5478642 -0.4260738
v -0.1332159 -0.5478642 -0.7230099
v -0.2183136 -0.5478642 -0.70324
v 0.0384491 -0.5478642 0.4019611
v 0.1235467 -0.5478642 0.3821911
v -0.3114081 -0.4575468 0.2633041
v -0.1897443 -0.8219938 0.0680024
v -0.2759112 -0.8219938 -0.3028863
v -0.4712127 -0.4575468 -0.4245498
v -0.1897443 -0.8219938 0.0680024
v 0.1811432 -0.8219938 -0.01816338
v 0.09497864 -0.8219938 -0.3890514
v -0.2759112 -0.8219938 -0.3028863
v -0.1944842 -0.8219938 -0.6275765
v -0.1212494 -0.8219938 -0.6445904
v 0.09971619 -0.8219938 0.3065272
v 0.02648254 -0.8219938 0.3235409
v -0.1212494 -0.8219938 -0.6445904
v -0.1843768 -0.4575468 -1.058279
v -0.3201959 -0.4575468 -1.026724
v -0.1944842 -0.8219938 -0.6275765
v 0.1923736 -0.5866847 1.037594
v 0.1641962 -0.4966457 1.058279
v 0.3000177 -0.4966457 1.026725
v 0.2656073 -0.5866847 1.02058
v -0.2759112 -0.8219938 -0.3028863
v -0.1944842 -0.8219938 -0.6275765
v -0.3201959 -0.4575468 -1.026724
v -0.4712127 -0.4575468 -0.4245498
v 0.2166425 -0.4575468 -0.5843536
v -0.1843768 -0.4575468 -1.058279
v -0.1212494 -0.8219938 -0.6445904
v 0.09497864 -0.8219938 -0.3890514
v 0.1811432 -0.8219938 -0.01816338
v 0.09971619 -0.8219938 0.3065272
v 0.2254303 -0.4575468 0.7056752
v 0.3764447 -0.4575468 0.1034998
v -0.3114081 -0.4575468 0.2633041
v 0.08960998 -0.4575468 0.7372295
v 0.02648254 -0.8219938 0.3235409
v -0.1897443 -0.8219938 0.0680024
v 0.3764447 -0.4575468 0.1034998
v 0.2738385 -0.4575468 0.03958076
v 0.1527228 -0.4575468 -0.481747
v 0.2166425 -0.4575468 -0.5843536
v -0.1512115 -0.4575468 -0.8409371
v -0.1843768 -0.4575468 -1.058279
v -0.2541498 -0.4575468 -0.8170223
v -0.3201959 -0.4575468 -1.026724
v -0.3686053 -0.4575468 -0.3606307
v -0.4712127 -0.4575468 -0.4245498
v -0.2474896 -0.4575468 0.1606974
v -0.3114081 -0.4575468 0.2633041
v 0.0564447 -0.4575468 0.519888
v 0.08960998 -0.4575468 0.7372295
v 0.1593829 -0.4575468 0.4959727
v 0.2254303 -0.4575468 0.7056752
v 0.1307709 -0.4546928 0.9144043
v 0.2665912 -0.4546928 0.8828501
v 0.2738385 -0.4575468 0.03958076
v 0.2181647 -0.5478642 0.004899063
v 0.1180402 -0.5478642 -0.4260738
v 0.1527228 -0.4575468 -0.481747
v -0.3686053 -0.4575468 -0.3606307
v -0.3129327 -0.5478642 -0.3259487
v -0.2128082 -0.5478642 0.1050239
v -0.2474896 -0.4575468 0.1606974
v 0.1527228 -0.4575468 -0.481747
v 0.1180402 -0.5478642 -0.4260738
v -0.1332159 -0.5478642 -0.7230099
v -0.1512115 -0.4575468 -0.8409371
v -0.1512115 -0.4575468 -0.8409371
v -0.1332159 -0.5478642 -0.7230099
v -0.2183136 -0.5478642 -0.70324
v -0.2541498 -0.4575468 -0.8170223
v -0.2541498 -0.4575468 -0.8170223
v -0.2183136 -0.5478642 -0.70324
v -0.3129327 -0.5478642 -0.3259487
v -0.3686053 -0.4575468 -0.3606307
v -0.2474896 -0.4575468 0.1606974
v -0.2128082 -0.5478642 0.1050239
v 0.0384491 -0.5478642 0.4019611
v 0.0564447 -0.4575468 0.519888
v 0.0564447 -0.4575468 0.519888
v 0.0384491 -0.5478642 0.4019611
v 0.1235467 -0.5478642 0.3821911
v 0.1593829 -0.4575468 0.4959727
v 0.1593829 -0.4575468 0.4959727
v 0.1235467 -0.5478642 0.3821911
v 0.2181647 -0.5478642 0.004899063
v 0.2738385 -0.4575468 0.03958076
v 0.02648254 -0.8219938 0.3235409
v 0.1349359 -0.5418983 0.7903597
v 0.2081695 -0.5418983 0.7733457
v 0.09971619 -0.8219938 0.3065272
v 0.09971619 -0.8219938 0.3065272
v 0.2081695 -0.5418983 0.7733457
v 0.2665912 -0.4546928 0.8828501
v 0.2254303 -0.4575468 0.7056752
v 0.08960998 -0.4575468 0.7372295
v 0.1307709 -0.4546928 0.9144043
v 0.1349359 -0.5418983 0.7903597
v 0.02648254 -0.8219938 0.3235409
v 0.2665912 -0.4546928 0.8828501
v 0.3000177 -0.4966457 1.026725
v 0.1641962 -0.4966457 1.058279
v 0.1307709 -0.4546928 0.9144043
v 0.2081695 -0.5418983 0.7733457
v 0.2656073 -0.5866847 1.02058
v 0.3000177 -0.4966457 1.026725
v 0.2665912 -0.4546928 0.8828501
v 0.1349359 -0.5418983 0.7903597
v 0.1923736 -0.5866847 1.037594
v 0.2656073 -0.5866847 1.02058
v 0.2081695 -0.5418983 0.7733457
v 0.1307709 -0.4546928 0.9144043
v 0.1641962 -0.4966457 1.058279
v 0.1923736 -0.5866847 1.037594
v 0.1349359 -0.5418983 0.7903597
v 0.4835455 0.6907839 -0.1965618
v -0.496214 0.6915398 0.0387217
v -0.4683734 0.333862 0.1567359
v 0.5113873 0.3331061 -0.07854698
v -0.4674725 -0.02487419 0.1609394
v 0.5122882 -0.0256295 -0.0743441
v -0.4935199 -0.3733234 0.05125404
v 0.4862408 -0.3740787 -0.1840292
v 0.0118573 -0.6043648 -0.1419326
v 0.0118573 0.8219938 -0.1419326
v -0.01691223 0.8219938 -0.2657681
v -0.01691223 -0.6043648 -0.2657681
v 0.0118573 0.8219938 -0.1419326
v -0.1076398 0.8219938 -0.1695684
v -0.01691223 0.8219938 -0.2657681
v -0.1076398 -0.6043645 -0.1695684
v 0.0118573 -0.6043648 -0.1419326
v -0.01691223 -0.6043648 -0.2657681
v -0.01691223 -0.6043648 -0.2657681
v -0.01691223 0.8219938 -0.2657681
v -0.1076398 0.8219938 -0.1695684
v -0.1076398 -0.6043645 -0.1695684
v -0.1076398 -0.6043645 -0.1695684
v -0.1076398 0.8219938 -0.1695684
v 0.0118573 0.8219938 -0.1419326
v 0.0118573 -0.6043648 -0.1419326
v 0.4756232 0.6792067 -0.2295104
v 0.4835455 0.6907839 -0.1965618
v 0.5113873 0.3331061 -0.07854698
v 0.5032452 0.3271001 -0.1124303
v 0.5122882 -0.0256295 -0.0743441
v 0.5041363 -0.02029098 -0.108305
v 0.4862408 -0.3740787 -0.1840292
v 0.4782989 -0.3629667 -0.2171328
v -0.4765155 0.327856 0.1228525
v -0.4683734 0.333862 0.1567359
v -0.496214 0.6915398 0.0387217
v -0.5041363 0.6799626 0.005773087
v -0.4756244 -0.01953567 0.1269785
v -0.4674725 -0.02487419 0.1609394
v -0.5014618 -0.3622114 0.01815041
v -0.4935199 -0.3733234 0.05125404
v -0.5041363 0.6799626 0.005773087
v -0.496214 0.6915398 0.0387217
v 0.4835455 0.6907839 -0.1965618
v 0.4756232 0.6792067 -0.2295104
v 0.4782989 -0.3629667 -0.2171328
v 0.4862408 -0.3740787 -0.1840292
v -0.4935199 -0.3733234 0.05125404
v -0.5014618 -0.3622114 0.01815041
v 0.4782989 -0.3629667 -0.2171328
v -0.5014618 -0.3622114 0.01815041
v -0.4756244 -0.01953567 0.1269785
v 0.5041363 -0.02029098 -0.108305
v -0.4765155 0.327856 0.1228525
v 0.5032452 0.3271001 -0.1124303
v -0.5041363 0.6799626 0.005773087
v 0.4756232 0.6792067 -0.2295104
vt 0.7893497 0.6433679
vt 0.7982364 0.6425945
vt 0.7993726 0.5994223
vt 0.7890717 0.5887732
vt 0.8071396 0.6341628
vt 0.8327255 0.6347874
vt 0.833362 0.6092381
vt 0.8078035 0.6086146
vt 0.8185689 0.5889195
vt 0.8236111 0.5890418
vt 0.8219515 0.6545603
vt 0.8168947 0.6544362
vt 0.8414892 0.6436518
vt 0.8492605 0.6432173
vt 0.8497412 0.5894276
vt 0.8425499 0.6004753
vt 0.031713 0.628197
vt 0.039624 0.628238
vt 0.039681 0.62032
vt 0.031749 0.62027
vt 0.034969 0.614062
vt 0.036538 0.614073
vt 0.036414 0.634387
vt 0.034856 0.634381
vt 0.8164499 0.5522327
vt 0.8175603 0.5661771
vt 0.826075 0.566385
vt 0.8266293 0.5524808
vt 0.8269091 0.6990139
vt 0.8235109 0.6966521
vt 0.8149519 0.6964425
vt 0.810914 0.6989018
vt 0.8497412 0.5894276
vt 0.8266293 0.5524808
vt 0.826075 0.566385
vt 0.8425499 0.6004753
vt 0.7993726 0.5994223
vt 0.8175603 0.5661771
vt 0.8164499 0.5522327
vt 0.7890717 0.5887732
vt 0.7893497 0.6433679
vt 0.8098472 0.6776225
vt 0.8154856 0.6756266
vt 0.7982364 0.6425945
vt 0.8414892 0.6436518
vt 0.8240371 0.6758354
vt 0.8275147 0.6778716
vt 0.8492605 0.6432173
vt 0.7988662 0.6422771
vt 0.8018885 0.6401221
vt 0.8029827 0.6041145
vt 0.8010143 0.6003316
vt 0.816881 0.5735428
vt 0.8171189 0.5689463
vt 0.8227736 0.5731887
vt 0.8235632 0.5691474
vt 0.8372236 0.6056664
vt 0.8399613 0.6037057
vt 0.8369431 0.6384745
vt 0.8402359 0.6422592
vt 0.8231534 0.6641042
vt 0.8223672 0.6749645
vt 0.8154644 0.6636959
vt 0.8166698 0.6751527
vt 0.8223405 0.685949
vt 0.8159863 0.6860071
vt 0.8042069 0.6366181
vt 0.8071396 0.6341628
vt 0.8078035 0.6086146
vt 0.8050171 0.6055715
vt 0.8360739 0.6063296
vt 0.833362 0.6092381
vt 0.8327255 0.6347874
vt 0.835304 0.6373786
vt 0.8050171 0.6055715
vt 0.8078035 0.6086146
vt 0.8185689 0.5889195
vt 0.8169504 0.5795416
vt 0.8169504 0.5795416
vt 0.8185689 0.5889195
vt 0.8236111 0.5890418
vt 0.8230765 0.5796905
vt 0.8230765 0.5796905
vt 0.8236111 0.5890418
vt 0.833362 0.6092381
vt 0.8360739 0.6063296
vt 0.835304 0.6373786
vt 0.8327255 0.6347874
vt 0.8219515 0.6545603
vt 0.8222089 0.6614162
vt 0.8222089 0.6614162
vt 0.8219515 0.6545603
vt 0.8168947 0.6544362
vt 0.8160623 0.6612656
vt 0.8160623 0.6612656
vt 0.8168947 0.6544362
vt 0.8071396 0.6341628
vt 0.8042069 0.6366181
vt 0.034856 0.634381
vt 0.034742 0.643595
vt 0.036258 0.643599
vt 0.036414 0.634387
vt 0.8098472 0.6776225
vt 0.8123496 0.6838804
vt 0.8151854 0.6873358
vt 0.8154856 0.6756266
vt 0.8240371 0.6758354
vt 0.8237412 0.6875454
vt 0.8283181 0.6839924
vt 0.8275147 0.6778716
vt 0.8159863 0.6860071
vt 0.8151067 0.6945936
vt 0.8234229 0.6947973
vt 0.8223405 0.685949
vt 0.8123496 0.6838804
vt 0.810914 0.6989018
vt 0.8149519 0.6964425
vt 0.8151854 0.6873358
vt 0.034742 0.643595
vt 0.03471 0.648443
vt 0.03622 0.648446
vt 0.036258 0.643599
vt 0.8237412 0.6875454
vt 0.8235109 0.6966521
vt 0.8269091 0.6990139
vt 0.8283181 0.6839924
vt 0.8977452 0.6598865
vt 0.97232 0.6590165
vt 0.9718914 0.6328427
vt 0.8978017 0.6337077
vt 0.9715833 0.6068025
vt 0.897522 0.6076683
vt 0.9713898 0.5804167
vt 0.8969026 0.5812876
vt 0.8711516 0.5730357
vt 0.8711516 0.6714048
vt 0.8754409 0.6714048
vt 0.8754409 0.5730357
vt 0.8868787 0.6714048
vt 0.8815919 0.6714048
vt 0.8754409 0.6714048
vt 0.8815919 0.5730357
vt 0.8711516 0.5730357
vt 0.8754409 0.5730357
vt 0.8754409 0.5730357
vt 0.8754409 0.6714048
vt 0.8815919 0.6714048
vt 0.8815919 0.5730357
vt 0.8658646 0.5730357
vt 0.8658646 0.6714048
vt 0.8711516 0.6714048
vt 0.8711516 0.5730357
vt 0.8977452 0.6598865
vt 0.8977452 0.6598865
vt 0.8978017 0.6337077
vt 0.8978017 0.6337077
vt 0.897522 0.6076683
vt 0.897522 0.6076683
vt 0.8969026 0.5812876
vt 0.8969026 0.5812876
vt 0.9718914 0.6328427
vt 0.9718914 0.6328427
vt 0.97232 0.6590165
vt 0.97232 0.6590165
vt 0.9715833 0.6068025
vt 0.9715833 0.6068025
vt 0.9713898 0.5804167
vt 0.9713898 0.5804167
vt 0.97232 0.6590165
vt 0.97232 0.6590165
vt 0.8977452 0.6598865
vt 0.8977452 0.6598865
vt 0.8969026 0.5812876
vt 0.8969026 0.5812876
vt 0.9713898 0.5804167
vt 0.9713898 0.5804167
vt 0.8969026 0.5812876
vt 0.9713898 0.5804167
vt 0.9715833 0.6068025
vt 0.897522 0.6076683
vt 0.9718914 0.6328427
vt 0.8978017 0.6337077
vt 0.97232 0.6590165
vt 0.8977452 0.6598865
vn 0.8894483 -0.4076555 -0.2066367
vn 0.8894483 -0.4076556 -0.2066367
vn 0.8894483 -0.4076556 -0.2066367
vn 0.8894483 -0.4076555 -0.2066367
vn 0 1 1.247125E-07
vn 0 1 1.247125E-07
vn 0 1 1.247125E-07
vn 0 1 1.247125E-07
vn 0 1 0
vn 0 1 0
vn 0 1 0
vn 0 1 0
vn -0.8894457 -0.4076596 0.2066398
vn -0.8894457 -0.4076596 0.2066398
vn -0.8894457 -0.4076596 0.2066398
vn -0.8894457 -0.4076596 0.2066398
vn 0 -1 0
vn 0 -1 0
vn 0 -1 0
vn 0 -1 0
vn 0 -1 0
vn 0 -1 0
vn 0 -1 0
vn 0 -1 0
vn -0.1488706 -0.7531461 -0.6407874
vn -0.1488706 -0.7531461 -0.6407874
vn -0.1488706 -0.753146 -0.6407875
vn -0.1488706 -0.7531461 -0.6407874
vn 0.2236908 -0.1512061 0.9628599
vn 0.2236908 -0.1512061 0.9628599
vn 0.2236908 -0.1512061 0.9628599
vn 0.2236908 -0.1512061 0.9628599
vn -0.8313723 -0.515121 -0.2084958
vn -0.8313722 -0.515121 -0.2084958
vn -0.8313723 -0.515121 -0.2084958
vn -0.8313722 -0.5151211 -0.2084958
vn 0.6543066 -0.5151242 -0.5536513
vn 0.6543066 -0.5151242 -0.5536513
vn 0.6543066 -0.5151242 -0.5536513
vn 0.6543067 -0.5151243 -0.5536513
vn 0.8313739 -0.5151193 0.2084937
vn 0.8313739 -0.5151193 0.2084937
vn 0.8313739 -0.5151193 0.2084937
vn 0.8313739 -0.5151193 0.2084937
vn -0.6543086 -0.5151222 0.553651
vn -0.6543086 -0.5151221 0.553651
vn -0.6543087 -0.5151222 0.553651
vn -0.6543086 -0.5151222 0.553651
vn 0 1 0
vn 0 1 0
vn 0 1 0
vn 0 1 0
vn 0 1 1.944E-07
vn 0 1 1.944E-07
vn 0 1 0
vn 0 1 0
vn 0 1 0
vn 0 1 0
vn 0 1 0
vn 0 1 0
vn 0 1 0
vn 0 1 0
vn 0 1 0
vn 0 1 0
vn -0.003550256 0.999877 -0.01528164
vn -0.003550256 0.999877 -0.01528164
vn -0.8664847 0.4568165 0.2013032
vn -0.8664847 0.4568164 0.2013032
vn -0.8664847 0.4568164 0.2013032
vn -0.8664847 0.4568164 0.2013032
vn 0.8664831 0.4568197 -0.2013028
vn 0.8664831 0.4568197 -0.2013028
vn 0.8664831 0.4568197 -0.2013028
vn 0.8664831 0.4568197 -0.2013028
vn -0.6279409 0.5686536 0.5313412
vn -0.6279409 0.5686536 0.5313412
vn -0.6279409 0.5686536 0.5313412
vn -0.6279408 0.5686536 0.5313412
vn 0.1368508 0.7964149 0.5890631
vn 0.1368508 0.7964149 0.589063
vn 0.1368508 0.7964147 0.5890631
vn 0.1368508 0.7964149 0.5890631
vn 0.7978703 0.5686523 0.2000935
vn 0.7978703 0.5686524 0.2000935
vn 0.7978703 0.5686524 0.2000935
vn 0.7978703 0.5686524 0.2000935
vn 0.6279421 0.5686512 -0.5313421
vn 0.6279422 0.5686513 -0.5313421
vn 0.6279421 0.5686513 -0.531342
vn 0.6279422 0.5686512 -0.5313421
vn -0.1368556 0.7964095 -0.5890692
vn -0.1368556 0.7964095 -0.5890692
vn -0.1368556 0.7964095 -0.5890692
vn -0.1368556 0.7964095 -0.5890692
vn -0.7978634 0.5686631 -0.2000904
vn -0.7978634 0.5686632 -0.2000904
vn -0.7978634 0.5686632 -0.2000904
vn -0.7978634 0.5686632 -0.2000904
vn 0.1141835 -0.8633661 0.4914887
vn 0.1141835 -0.8633661 0.4914888
vn 0.1141835 -0.8633661 0.4914888
vn 0.1141835 -0.8633661 0.4914888
vn 0.9557774 -0.2763341 -0.1006429
vn 0.9557774 -0.2763341 -0.1006429
vn 0.9557774 -0.2763341 -0.1006429
vn 0.9557774 -0.2763341 -0.1006429
vn -0.9022611 -0.2763111 0.3310242
vn -0.9022611 -0.276311 0.3310242
vn -0.9022611 -0.2763111 0.3310242
vn -0.9022611 -0.276311 0.3310242
vn 0.06182891 0.9619504 0.2661364
vn 0.06182892 0.9619504 0.2661364
vn 0.06182891 0.9619504 0.2661364
vn 0.06182892 0.9619504 0.2661364
vn 0.913486 -0.2969999 -0.2780906
vn 0.9134859 -0.297 -0.2780906
vn 0.913486 -0.2969999 -0.2780906
vn 0.913486 -0.2969999 -0.2780906
vn -0.0393237 -0.9847865 -0.169261
vn -0.0393237 -0.9847865 -0.1692609
vn -0.0393237 -0.9847865 -0.169261
vn -0.0393237 -0.9847865 -0.1692609
vn -0.942521 -0.2970089 0.1531002
vn -0.9425212 -0.2970088 0.1531001
vn -0.9425212 -0.2970089 0.1531002
vn -0.9425212 -0.2970088 0.1531002
vn -0.2213776 -0.3210545 -0.9208235
vn -0.2213775 -0.3210545 -0.9208235
vn -0.230126 -0.1726119 -0.9577302
vn -0.2301255 -0.1726237 -0.9577282
vn -0.2307007 0.1514654 -0.9611636
vn -0.2306934 0.1516661 -0.9611336
vn -0.2219427 0.3078246 -0.9251948
vn -0.2219427 0.3078245 -0.9251948
vn 0.9740592 0 -0.2262938
vn 0.9740592 0 -0.2262938
vn 0.9740592 0 -0.2262938
vn 0.9740592 0 -0.2262938
vn 0 1 -3.487018E-06
vn 0 1 -3.487018E-06
vn 0 1 -3.487018E-06
vn -2.698853E-06 -1 8.717545E-07
vn -2.698852E-06 -1 8.717545E-07
vn -2.698853E-06 -1 8.717545E-07
vn -0.7274951 0 -0.686113
vn -0.7274951 0 -0.6861129
vn -0.7274951 0 -0.6861129
vn -0.7274951 0 -0.6861129
vn -0.2253215 0 0.9742845
vn -0.2253215 0 0.9742845
vn -0.2253215 0 0.9742845
vn -0.2253215 0 0.9742845
vn -0.9723833 0.001323941 0.2333857
vn -0.9723833 0.001323942 0.2333857
vn -0.9723679 0.0008242143 0.2334526
vn -0.9723679 0.0008237523 0.2334526
vn -0.9723929 -0.0002333338 0.2333495
vn -0.9723929 -0.0002328955 0.2333496
vn -0.9724329 -0.0007301333 0.2331817
vn -0.9724329 -0.0007301333 0.2331817
vn 0.9723682 -0.0008227971 -0.2334513
vn 0.9723682 -0.0008232584 -0.2334512
vn 0.9723837 -0.001322098 -0.2333844
vn 0.9723837 -0.001322098 -0.2333844
vn 0.972393 0.0002251314 -0.233349
vn 0.972393 0.0002255635 -0.2333489
vn 0.9724329 0.0007149226 -0.2331818
vn 0.9724329 0.0007149227 -0.2331818
vn 0.07479938 -0.9463004 0.3145162
vn 0.07479938 -0.9463004 0.3145161
vn 0.07479938 -0.9463004 0.3145162
vn 0.07479938 -0.9463004 0.3145161
vn 0.07314911 0.9506392 0.301553
vn 0.07314911 0.9506392 0.301553
vn 0.07314911 0.9506392 0.301553
vn 0.07314911 0.9506392 0.301553
vn 0.2217533 -0.310297 0.924414
vn 0.2217533 -0.310297 0.924414
vn 0.230607 -0.1540077 0.9607819
vn 0.2305993 -0.154214 0.9607508
vn 0.2300192 0.1752425 0.957278
vn 0.2300188 0.1752537 0.9572762
vn 0.2212013 0.3232918 0.9200827
vn 0.2212013 0.3232918 0.9200827
g Boat3_0
f 3/3/3 2/2/2 1/1/1
f 4/4/4 3/3/3 1/1/1
f 7/7/7 6/6/6 5/5/5
f 8/8/8 7/7/7 5/5/5
f 8/8/8 9/9/9 7/7/7
f 9/9/9 10/10/10 7/7/7
f 6/6/6 11/11/11 5/5/5
f 11/11/11 12/12/12 5/5/5
f 15/15/15 14/14/14 13/13/13
f 16/16/16 15/15/15 13/13/13
f 19/19/19 18/18/18 17/17/17
f 20/20/20 19/19/19 17/17/17
f 20/20/20 21/21/21 19/19/19
f 21/21/21 22/22/22 19/19/19
f 18/18/18 23/23/23 17/17/17
f 23/23/23 24/24/24 17/17/17
f 27/27/27 26/26/26 25/25/25
f 28/28/28 27/27/27 25/25/25
f 31/31/31 30/30/30 29/29/29
f 32/32/32 31/31/31 29/29/29
f 35/35/35 34/34/34 33/33/33
f 36/36/36 35/35/35 33/33/33
f 39/39/39 38/38/38 37/37/37
f 40/40/40 39/39/39 37/37/37
f 43/43/43 42/42/42 41/41/41
f 44/44/44 43/43/43 41/41/41
f 47/47/47 46/46/46 45/45/45
f 48/48/48 47/47/47 45/45/45
f 51/51/51 50/50/50 49/49/49
f 52/52/52 51/51/51 49/49/49
f 53/53/53 51/51/51 52/52/52
f 54/54/54 53/53/53 52/52/52
f 55/55/55 53/53/53 54/54/54
f 56/56/56 55/55/55 54/54/54
f 57/57/57 55/55/55 56/56/56
f 58/58/58 57/57/57 56/56/56
f 59/59/59 57/57/57 58/58/58
f 60/60/60 59/59/59 58/58/58
f 61/61/61 59/59/59 60/60/60
f 62/62/62 61/61/61 60/60/60
f 63/63/63 61/61/61 62/62/62
f 64/64/64 63/63/63 62/62/62
f 50/50/50 63/63/63 64/64/64
f 49/49/49 50/50/50 64/64/64
f 62/62/62 65/65/65 64/64/64
f 65/65/65 66/66/66 64/64/64
f 69/69/69 68/68/68 67/67/67
f 70/70/70 69/69/69 67/67/67
f 73/73/73 72/72/72 71/71/71
f 74/74/74 73/73/73 71/71/71
f 77/77/77 76/76/76 75/75/75
f 78/78/78 77/77/77 75/75/75
f 81/81/81 80/80/80 79/79/79
f 82/82/82 81/81/81 79/79/79
f 85/85/85 84/84/84 83/83/83
f 86/86/86 85/85/85 83/83/83
f 89/89/89 88/88/88 87/87/87
f 90/90/90 89/89/89 87/87/87
f 93/93/93 92/92/92 91/91/91
f 94/94/94 93/93/93 91/91/91
f 97/97/97 96/96/96 95/95/95
f 98/98/98 97/97/97 95/95/95
f 101/101/101 100/100/100 99/99/99
f 102/102/102 101/101/101 99/99/99
f 105/105/105 104/104/104 103/103/103
f 106/106/106 105/105/105 103/103/103
f 109/109/109 108/108/108 107/107/107
f 110/110/110 109/109/109 107/107/107
f 113/113/113 112/112/112 111/111/111
f 114/114/114 113/113/113 111/111/111
f 117/117/117 116/116/116 115/115/115
f 118/118/118 117/117/117 115/115/115
f 121/121/121 120/120/120 119/119/119
f 122/122/122 121/121/121 119/119/119
f 125/125/125 124/124/124 123/123/123
f 126/126/126 125/125/125 123/123/123
f 129/129/129 128/128/128 127/127/127
f 130/130/130 129/129/129 127/127/127
f 131/131/131 129/129/129 130/130/130
f 132/132/132 131/131/131 130/130/130
f 133/133/133 131/131/131 132/132/132
f 134/134/134 133/133/133 132/132/132
f 137/137/137 136/136/136 135/135/135
f 138/138/138 137/137/137 135/135/135
f 141/141/141 140/140/140 139/139/139
f 144/144/144 143/143/143 142/142/142
f 147/147/147 146/146/146 145/145/145
f 148/148/148 147/147/147 145/145/145
f 151/151/151 150/150/150 149/149/149
f 152/152/152 151/151/151 149/149/149
f 155/155/155 154/154/154 153/153/153
f 156/156/156 155/155/155 153/153/153
f 157/157/157 155/155/155 156/156/156
f 158/158/158 157/157/157 156/156/156
f 159/159/159 157/157/157 158/158/158
f 160/160/160 159/159/159 158/158/158
f 163/163/163 162/162/162 161/161/161
f 164/164/164 163/163/163 161/161/161
f 161/161/161 162/162/162 165/165/165
f 162/162/162 166/166/166 165/165/165
f 165/165/165 166/166/166 167/167/167
f 166/166/166 168/168/168 167/167/167
f 171/171/171 170/170/170 169/169/169
f 172/172/172 171/171/171 169/169/169
f 175/175/175 174/174/174 173/173/173
f 176/176/176 175/175/175 173/173/173
f 179/179/179 178/178/178 177/177/177
f 180/180/180 179/179/179 177/177/177
f 181/181/181 179/179/179 180/180/180
f 182/182/182 181/181/181 180/180/180
f 183/183/183 181/181/181 182/182/182
f 184/184/184 183/183/183 182/182/182
