g Sheep9
v -7.850169 3.228672 -15.25407
v -7.984018 3.171176 -15.28461
v -8.010692 3.239331 -15.15864
v -7.872532 3.320013 -15.19623
v -8.000663 3.410992 -15.16955
v -8.097904 3.353713 -15.17346
v -7.942622 3.166821 -15.35685
v -8.109481 3.180344 -15.34578
v -8.057487 3.218595 -15.19778
v -8.279775 3.303568 -15.33835
v -8.182867 3.301115 -15.25688
v -8.214715 3.363108 -15.28514
v -8.206518 3.43914 -15.36862
v -8.059934 3.193803 -15.43833
v -7.907027 3.236147 -15.47204
v -8.138737 3.314718 -15.18016
v -8.021979 3.254724 -15.49532
v -8.120919 3.310137 -15.54687
v -8.244322 3.380945 -15.42609
v -8.155368 3.231243 -15.42651
v -7.984697 3.393889 -15.5565
v -8.138296 3.394446 -15.49381
v -7.861286 3.211091 -15.36327
v -7.802011 3.276977 -15.35749
v -7.826048 3.329452 -15.40903
v -7.815018 3.261925 -15.26817
v -7.94561 3.339647 -15.51896
v -7.901019 3.255391 -15.51913
v -7.843954 3.378807 -15.41944
v -7.953221 3.432377 -15.48705
v -8.000663 3.410992 -15.16955
v -7.983471 3.520077 -15.32544
v -7.904834 3.451904 -15.25156
v -7.834154 3.427111 -15.30212
v -8.096169 3.519377 -15.26464
v -8.188257 3.417618 -15.23487
v -8.097904 3.353713 -15.17346
v -8.206518 3.43914 -15.36862
v -8.080054 3.495167 -15.38844
v -8.007352 3.482594 -15.45554
v -8.092889 3.496745 -15.45764
v -8.171425 3.447732 -15.42752
v -7.915388 3.490217 -15.44757
v -7.845455 3.42627 -15.36816
v -7.843954 3.378807 -15.41944
v -8.140053 3.45712 -15.50069
v -8.138296 3.394446 -15.49381
v -8.045797 3.430643 -15.52995
v -8.067883 3.468295 -15.50778
v -8.244322 3.380945 -15.42609
v -7.953221 3.432377 -15.48705
v -8.214715 3.363108 -15.28514
v -7.984697 3.393889 -15.5565
v -8.22764 3.363396 -15.22557
v -8.182867 3.301115 -15.25688
v -8.167587 3.336929 -15.16627
v -8.138737 3.314718 -15.18016
v -7.748266 3.308368 -15.40858
v -7.638742 3.287894 -15.36245
v -7.711032 3.351906 -15.41117
v -7.655673 3.390522 -15.34313
v -7.627078 3.310558 -15.2569
v -7.659256 3.241019 -15.2607
v -7.694062 3.235292 -15.35109
v -7.802011 3.276977 -15.35749
v -7.826048 3.329452 -15.40903
v -7.722559 3.301015 -15.49848
v -7.780385 3.344024 -15.50494
v -7.717054 3.374018 -15.4921
v -7.795834 3.426128 -15.43098
v -7.843954 3.378807 -15.41944
v -7.845455 3.42627 -15.36816
v -7.765381 3.44928 -15.2912
v -7.744833 3.417862 -15.38411
v -7.696482 3.41455 -15.24855
v -7.784446 3.403754 -15.20643
v -7.67976 3.322675 -15.18921
v -7.764356 3.331251 -15.17793
v -7.723755 3.253663 -15.20667
v -7.860893 3.389351 -15.21792
v -7.834154 3.427111 -15.30212
v -7.79058 3.330346 -15.10272
v -7.810929 3.258352 -15.12048
v -7.853699 3.312123 -15.11422
v -7.815608 3.406455 -15.17575
v -7.872532 3.320013 -15.19623
v -7.80975 3.298871 -15.21303
v -7.815018 3.261925 -15.26817
v -7.740406 3.22245 -15.283
v -7.872532 3.320013 -15.19623
v -7.860893 3.389351 -15.21792
vt 0.497016 0.9733425
vt 0.4948352 0.9720853
vt 0.4953181 0.9728737
vt 0.4970185 0.9747004
vt 0.4951356 0.9758675
vt 0.4936721 0.9746318
vt 0.4949095 0.9722933
vt 0.4924422 0.9720341
vt 0.4943151 0.972479
vt 0.4896588 0.9736289
vt 0.4917827 0.9736743
vt 0.4909754 0.9747086
vt 0.4903753 0.9761861
vt 0.4924934 0.9726045
vt 0.4944687 0.973775
vt 0.4930382 0.9738625
vt 0.4925586 0.9738278
vt 0.4906196 0.9745848
vt 0.4894673 0.9752113
vt 0.4910711 0.9729405
vt 0.4924686 0.9763132
vt 0.4906023 0.9758328
vt 0.4960123 0.9732558
vt 0.4968451 0.9744849
vt 0.4960155 0.9753863
vt 0.4973833 0.974021
vt 0.4934014 0.9754565
vt 0.494179 0.9741985
vt 0.4956012 0.9761729
vt 0.493389 0.9769043
vt 0.4632477 0.9472071
vt 0.4797691 0.9484807
vt 0.4729773 0.9380504
vt 0.481358 0.9313064
vt 0.4732208 0.9584233
vt 0.4670654 0.9675305
vt 0.461851 0.9566742
vt 0.4787571 0.9715868
vt 0.4841844 0.9584621
vt 0.4910653 0.9552321
vt 0.4890587 0.9618596
vt 0.4860235 0.9691096
vt 0.4920576 0.9441009
vt 0.4858411 0.9344556
vt 0.4910249 0.9354312
vt 0.4913287 0.9662048
vt 0.4926296 0.9681099
vt 0.4960791 0.9600445
vt 0.4935466 0.9621188
vt 0.4837172 0.9765708
vt 0.4949573 0.9490165
vt 0.4722228 0.9704773
vt 0.5022337 0.9547343
vt 0.4650794 0.9711477
vt 0.465403 0.9707001
vt 0.4597627 0.9633843
vt 0.4618073 0.9604894
vt 0.4934385 0.9083821
vt 0.4904355 0.9002143
vt 0.494699 0.9059932
vt 0.4891388 0.9032519
vt 0.482191 0.8974085
vt 0.4815776 0.8991106
vt 0.4889241 0.9035062
vt 0.4878535 0.9137821
vt 0.4926626 0.9159102
vt 0.5010443 0.9024785
vt 0.5053135 0.9057729
vt 0.5017368 0.9030158
vt 0.4959685 0.9156551
vt 0.4929326 0.9174133
vt 0.4883348 0.9196305
vt 0.4836297 0.9129872
vt 0.4925834 0.9101584
vt 0.4807629 0.9053733
vt 0.4752753 0.9123649
vt 0.4760743 0.9011891
vt 0.4736096 0.908666
vt 0.4765787 0.9041005
vt 0.4749088 0.9190543
vt 0.4832459 0.9188628
vt 0.4648986 0.9023744
vt 0.4656424 0.9042615
vt 0.4596207 0.9091943
vt 0.4719298 0.9147034
vt 0.4724746 0.9182437
vt 0.4749831 0.9125869
vt 0.4796287 0.9131879
vt 0.4820291 0.9062003
vt 0.4696994 0.9347024
vt 0.4726636 0.9339198
vn 0.4672424 -0.7067802 0.5311745
vn 0.06974678 -0.9448563 0.3199718
vn 0.1091256 -0.4002671 0.909878
vn 0.1175913 -0.2316758 0.9656597
vn 0.08010008 0.4291317 0.8996832
vn -0.2049432 0.2435111 0.9479982
vn 0.2029591 -0.9646938 -0.1678493
vn -0.4345766 -0.8874735 0.1534077
vn -0.4057071 -0.7519438 0.5195982
vn -0.8903013 -0.4546983 0.02475735
vn -0.6505252 -0.4916151 0.5789055
vn -0.895168 0.2700493 0.3546092
vn -0.7027926 0.7106311 0.03295483
vn -0.1120862 -0.8712609 -0.4778504
vn 0.3898759 -0.7964714 -0.4622014
vn -0.4570605 -0.5892519 0.6662416
vn 0.05802571 -0.5655848 -0.8226463
vn -0.3769677 -0.2562197 -0.8900825
vn -0.8569866 0.07649724 -0.5096294
vn -0.5750276 -0.6928165 -0.4351419
vn 0.2251851 0.1008789 -0.9690796
vn -0.495204 0.3265182 -0.8050832
vn 0.5950165 -0.7772074 -0.2047047
vn 0.3068058 -0.7971444 -0.5200299
vn 0.391372 -0.438371 -0.8091098
vn 0.1062842 -0.9412018 0.3206913
vn 0.4596142 0.06163319 -0.8859775
vn 0.487626 -0.1862101 -0.8529635
vn 0.2736597 0.337224 -0.900772
vn 0.4917067 0.4308628 -0.7566913
vn 0.08010008 0.4291317 0.8996832
vn 0.2339927 0.9525787 0.1945283
vn 0.345246 0.7799297 0.5220296
vn 0.1971664 0.9649577 0.1731532
vn -0.2245979 0.8607056 0.4568826
vn -0.5268525 0.6035224 0.5984874
vn -0.2049432 0.2435111 0.9479982
vn -0.7027926 0.7106311 0.03295483
vn -0.2498011 0.9519152 -0.177361
vn 0.06248022 0.9062349 -0.4181322
vn -0.2120905 0.9651923 -0.1530405
vn -0.5867323 0.7394496 -0.3300903
vn 0.4924913 0.7944766 -0.3553296
vn 0.3941364 0.9079574 -0.1423721
vn 0.2736597 0.337224 -0.900772
vn -0.6343563 0.3922962 -0.666105
vn -0.495204 0.3265182 -0.8050832
vn -0.06630164 0.4097421 -0.9097887
vn 0.08086481 0.7270856 -0.6817679
vn -0.8569866 0.07649724 -0.5096294
vn 0.4917067 0.4308628 -0.7566913
vn -0.895168 0.2700493 0.3546092
vn 0.2251851 0.1008789 -0.9690796
vn -0.7435393 0.1171385 0.6583523
vn -0.6505252 -0.4916151 0.5789055
vn -0.5227831 0.02729444 0.8520287
vn -0.4570605 -0.5892519 0.6662416
vn 0.05361744 -0.8640204 -0.5005937
vn 0.8297797 -0.2193928 -0.5131593
vn 0.8524126 0.1217464 -0.5084983
vn 0.7749233 0.5833855 -0.2432185
vn 0.9601242 0.09264693 0.2637767
vn 0.6249083 -0.7366933 0.2584037
vn 0.1767494 -0.8395553 -0.5137185
vn 0.3068058 -0.7971444 -0.5200299
vn 0.391372 -0.438371 -0.8091098
vn 0.3141094 -0.8143731 -0.4879875
vn -0.5158804 -0.1091476 -0.8496789
vn 0.6093099 0.5291485 -0.5905448
vn -0.1415592 0.8716772 -0.4691907
vn 0.2736597 0.337224 -0.900772
vn 0.3941364 0.9079574 -0.1423721
vn 0.1120647 0.9882283 0.104147
vn 0.466997 0.8350975 -0.2907336
vn 0.5364184 0.7349749 0.4148098
vn 0.1796277 0.7912536 0.5845098
vn 0.5346702 0.1352172 0.8341727
vn 0.6030911 -0.09443696 0.7920623
vn 0.03477654 -0.6964044 0.7168064
vn 0.03122884 0.6774011 0.7349507
vn 0.1971664 0.9649577 0.1731532
vn 0.4506989 0.2557831 0.8552458
vn 0.1464452 -0.9531453 0.2647035
vn -0.7422048 0.03130349 0.6694416
vn -0.2075333 0.833646 0.5118244
vn 0.1175913 -0.2316758 0.9656597
vn -0.1606218 -0.9470387 0.2780618
vn 0.1062842 -0.9412018 0.3206913
vn -0.2034126 -0.9789504 0.01671805
vn 0.1175913 -0.2316758 0.9656597
vn 0.03122884 0.6774011 0.7349507
g Sheep9_0
f 3/3/3 2/2/2 1/1/1
f 3/3/3 1/1/1 4/4/4
f 3/3/3 4/4/4 5/5/5
f 3/3/3 5/5/5 6/6/6
f 1/1/1 2/2/2 7/7/7
f 2/2/2 8/8/8 7/7/7
f 2/2/2 9/9/9 8/8/8
f 3/3/3 9/9/9 2/2/2
f 6/6/6 9/9/9 3/3/3
f 10/10/10 8/8/8 9/9/9
f 10/10/10 9/9/9 11/11/11
f 10/10/10 11/11/11 12/12/12
f 10/10/10 12/12/12 13/13/13
f 7/7/7 8/8/8 14/14/14
f 15/15/15 7/7/7 14/14/14
f 16/16/16 11/11/11 9/9/9
f 16/16/16 9/9/9 6/6/6
f 15/15/15 14/14/14 17/17/17
f 18/18/18 17/17/17 14/14/14
f 18/18/18 10/10/10 19/19/19
f 13/13/13 19/19/19 10/10/10
f 20/20/20 10/10/10 18/18/18
f 14/14/14 20/20/20 18/18/18
f 14/14/14 8/8/8 20/20/20
f 20/20/20 8/8/8 10/10/10
f 21/21/21 17/17/17 18/18/18
f 18/18/18 22/22/22 21/21/21
f 22/22/22 18/18/18 19/19/19
f 23/23/23 7/7/7 15/15/15
f 23/23/23 15/15/15 24/24/24
f 25/25/25 24/24/24 15/15/15
f 23/23/23 24/24/24 26/26/26
f 21/21/21 27/27/27 17/17/17
f 28/28/28 27/27/27 25/25/25
f 27/27/27 28/28/28 17/17/17
f 28/28/28 25/25/25 15/15/15
f 28/28/28 15/15/15 17/17/17
f 29/29/29 25/25/25 27/27/27
f 29/29/29 27/27/27 30/30/30
f 30/30/30 27/27/27 21/21/21
f 26/26/26 1/1/1 23/23/23
f 1/1/1 7/7/7 23/23/23
f 1/1/1 26/26/26 4/4/4
f 33/33/33 32/32/32 31/31/31
f 32/32/32 33/33/33 34/34/34
f 31/31/31 32/32/32 35/35/35
f 36/36/36 31/31/31 35/35/35
f 36/36/36 37/37/37 31/31/31
f 35/35/35 38/38/38 36/36/36
f 39/39/39 38/38/38 35/35/35
f 39/39/39 35/35/35 32/32/32
f 40/40/40 39/39/39 32/32/32
f 41/41/41 39/39/39 40/40/40
f 39/39/39 41/41/41 42/42/42
f 42/42/42 38/38/38 39/39/39
f 32/32/32 43/43/43 40/40/40
f 32/32/32 44/44/44 43/43/43
f 34/34/34 44/44/44 32/32/32
f 43/43/43 44/44/44 45/45/45
f 41/41/41 46/46/46 42/42/42
f 46/46/46 47/47/47 42/42/42
f 48/48/48 47/47/47 46/46/46
f 40/40/40 48/48/48 49/49/49
f 48/48/48 46/46/46 49/49/49
f 46/46/46 41/41/41 49/49/49
f 49/49/49 41/41/41 40/40/40
f 42/42/42 47/47/47 50/50/50
f 50/50/50 38/38/38 42/42/42
f 48/48/48 40/40/40 51/51/51
f 43/43/43 51/51/51 40/40/40
f 43/43/43 45/45/45 51/51/51
f 38/38/38 52/52/52 36/36/36
f 47/47/47 48/48/48 53/53/53
f 48/48/48 51/51/51 53/53/53
f 52/52/52 54/54/54 36/36/36
f 55/55/55 54/54/54 52/52/52
f 56/56/56 54/54/54 55/55/55
f 57/57/57 56/56/56 55/55/55
f 37/37/37 56/56/56 57/57/57
f 54/54/54 56/56/56 37/37/37
f 36/36/36 54/54/54 37/37/37
f 60/60/60 59/59/59 58/58/58
f 59/59/59 60/60/60 61/61/61
f 61/61/61 62/62/62 59/59/59
f 62/62/62 63/63/63 59/59/59
f 59/59/59 63/63/63 64/64/64
f 59/59/59 64/64/64 58/58/58
f 64/64/64 65/65/65 58/58/58
f 65/65/65 66/66/66 58/58/58
f 66/66/66 67/67/67 58/58/58
f 67/67/67 60/60/60 58/58/58
f 67/67/67 66/66/66 68/68/68
f 60/60/60 67/67/67 69/69/69
f 69/69/69 67/67/67 68/68/68
f 69/69/69 68/68/68 70/70/70
f 70/70/70 68/68/68 71/71/71
f 68/68/68 66/66/66 71/71/71
f 70/70/70 71/71/71 72/72/72
f 73/73/73 70/70/70 72/72/72
f 74/74/74 73/73/73 61/61/61
f 70/70/70 73/73/73 74/74/74
f 74/74/74 69/69/69 70/70/70
f 69/69/69 74/74/74 60/60/60
f 61/61/61 60/60/60 74/74/74
f 75/75/75 62/62/62 61/61/61
f 61/61/61 73/73/73 75/75/75
f 75/75/75 73/73/73 76/76/76
f 77/77/77 75/75/75 76/76/76
f 77/77/77 62/62/62 75/75/75
f 63/63/63 62/62/62 77/77/77
f 76/76/76 78/78/78 77/77/77
f 79/79/79 77/77/77 78/78/78
f 76/76/76 73/73/73 80/80/80
f 80/80/80 73/73/73 81/81/81
f 81/81/81 73/73/73 72/72/72
f 76/76/76 82/82/82 78/78/78
f 82/82/82 83/83/83 78/78/78
f 84/84/84 83/83/83 82/82/82
f 85/85/85 80/80/80 84/84/84
f 82/82/82 85/85/85 84/84/84
f 76/76/76 85/85/85 82/82/82
f 85/85/85 76/76/76 80/80/80
f 80/80/80 86/86/86 84/84/84
f 86/86/86 83/83/83 84/84/84
f 87/87/87 83/83/83 86/86/86
f 87/87/87 78/78/78 83/83/83
f 79/79/79 78/78/78 87/87/87
f 88/88/88 79/79/79 87/87/87
f 88/88/88 87/87/87 86/86/86
f 79/79/79 88/88/88 89/89/89
f 65/65/65 89/89/89 88/88/88
f 89/89/89 63/63/63 79/79/79
f 79/79/79 63/63/63 77/77/77
f 64/64/64 89/89/89 65/65/65
f 63/63/63 89/89/89 64/64/64
f 91/91/91 31/31/31 90/90/90
f 91/91/91 33/33/33 31/31/31
f 91/91/91 34/34/34 33/33/33
