g Sheep12
v -13.15277 3.678322 3.799545
v -13.18157 3.613672 3.930485
v -13.06146 3.689706 3.962395
v -13.10222 3.77269 3.826516
v -13.08473 3.860382 3.958465
v -13.08628 3.799283 4.05342
v -13.25249 3.605683 3.887391
v -13.24562 3.613562 4.054836
v -13.09986 3.664407 4.007529
v -13.25049 3.730378 4.229679
v -13.16722 3.737556 4.134546
v -13.20055 3.79607 4.168034
v -13.2892 3.866109 4.160827
v -13.33795 3.622166 4.003813
v -13.37175 3.66779 3.851871
v -13.09088 3.758367 4.092631
v -13.39852 3.680207 3.966896
v -13.45586 3.727901 4.066664
v -13.34297 3.802494 4.195197
v -13.33073 3.656677 4.100797
v -13.46901 3.815898 3.933443
v -13.40946 3.815107 4.088289
v -13.26058 3.652457 3.807622
v -13.25852 3.720814 3.750955
v -13.31421 3.768453 3.77578
v -13.1686 3.711788 3.765344
v -13.42685 3.766059 3.893211
v -13.42 3.683785 3.845551
v -13.32855 3.816201 3.795263
v -13.40197 3.860498 3.904929
v -13.08473 3.860382 3.958465
v -13.24783 3.958458 3.94191
v -13.16767 3.898886 3.862443
v -13.21492 3.873223 3.789811
v -13.1893 3.957846 4.055804
v -13.15392 3.855056 4.144706
v -13.08628 3.799283 4.05342
v -13.2892 3.866109 4.160827
v -13.31066 3.92536 4.036113
v -13.37526 3.910754 3.96155
v -13.38003 3.921424 4.047484
v -13.3479 3.871748 4.124798
v -13.36613 3.922457 3.870125
v -13.28093 3.867164 3.79963
v -13.32855 3.816201 3.795263
v -13.42095 3.877003 4.092205
v -13.40946 3.815107 4.088289
v -13.44639 3.852109 3.996422
v -13.42746 3.890394 4.020359
v -13.34297 3.802494 4.195197
v -13.40197 3.860498 3.904929
v -13.20055 3.79607 4.168034
v -13.46901 3.815898 3.933443
v -13.14142 3.80018 4.182258
v -13.16722 3.737556 4.134546
v -13.07921 3.780403 4.122577
v -13.09088 3.758367 4.092631
v -13.31074 3.750457 3.697303
v -13.26116 3.737596 3.588132
v -13.3158 3.795089 3.661652
v -13.24972 3.84063 3.609251
v -13.15734 3.768283 3.579615
v -13.15665 3.697469 3.609117
v -13.24702 3.683873 3.64171
v -13.25852 3.720814 3.750955
v -13.31421 3.768453 3.77578
v -13.39935 3.737597 3.669388
v -13.41005 3.777775 3.728606
v -13.39823 3.811029 3.666719
v -13.34261 3.864371 3.748679
v -13.32855 3.816201 3.795263
v -13.28093 3.867164 3.79963
v -13.20435 3.898746 3.722157
v -13.2943 3.861487 3.698443
v -13.15796 3.869868 3.652971
v -13.11684 3.858788 3.741375
v -13.09174 3.783246 3.634172
v -13.08273 3.789366 3.719252
v -13.10493 3.711513 3.675201
v -13.12871 3.840668 3.816971
v -13.21492 3.873223 3.789811
v -13.00817 3.792911 3.74706
v -13.021 3.71909 3.764349
v -13.01951 3.771493 3.809198
v -13.08705 3.862509 3.773277
v -13.10222 3.77269 3.826516
v -13.11622 3.75281 3.762645
v -13.1686 3.711788 3.765344
v -13.17907 3.674233 3.689022
v -13.10222 3.77269 3.826516
v -13.12871 3.840668 3.816971
vt 0.497016 0.9733425
vt 0.4948352 0.9720853
vt 0.4953181 0.9728737
vt 0.4970185 0.9747004
vt 0.4951356 0.9758675
vt 0.4936721 0.9746318
vt 0.4949095 0.9722933
vt 0.4924422 0.9720341
vt 0.4943151 0.972479
vt 0.4896588 0.9736289
vt 0.4917827 0.9736743
vt 0.4909754 0.9747086
vt 0.4903753 0.9761861
vt 0.4924934 0.9726045
vt 0.4944687 0.973775
vt 0.4930382 0.9738625
vt 0.4925586 0.9738278
vt 0.4906196 0.9745848
vt 0.4894673 0.9752113
vt 0.4910711 0.9729405
vt 0.4924686 0.9763132
vt 0.4906023 0.9758328
vt 0.4960123 0.9732558
vt 0.4968451 0.9744849
vt 0.4960155 0.9753863
vt 0.4973833 0.974021
vt 0.4934014 0.9754565
vt 0.494179 0.9741985
vt 0.4956012 0.9761729
vt 0.493389 0.9769043
vt 0.4632477 0.9472071
vt 0.4797691 0.9484807
vt 0.4729773 0.9380504
vt 0.481358 0.9313064
vt 0.4732208 0.9584233
vt 0.4670654 0.9675305
vt 0.461851 0.9566742
vt 0.4787571 0.9715868
vt 0.4841844 0.9584621
vt 0.4910653 0.9552321
vt 0.4890587 0.9618596
vt 0.4860235 0.9691096
vt 0.4920576 0.9441009
vt 0.4858411 0.9344556
vt 0.4910249 0.9354312
vt 0.4913287 0.9662048
vt 0.4926296 0.9681099
vt 0.4960791 0.9600445
vt 0.4935466 0.9621188
vt 0.4837172 0.9765708
vt 0.4949573 0.9490165
vt 0.4722228 0.9704773
vt 0.5022337 0.9547343
vt 0.4650794 0.9711477
vt 0.465403 0.9707001
vt 0.4597627 0.9633843
vt 0.4618073 0.9604894
vt 0.4934385 0.9083821
vt 0.4904355 0.9002143
vt 0.494699 0.9059932
vt 0.4891388 0.9032519
vt 0.482191 0.8974085
vt 0.4815776 0.8991106
vt 0.4889241 0.9035062
vt 0.4878535 0.9137821
vt 0.4926626 0.9159102
vt 0.5010443 0.9024785
vt 0.5053135 0.9057729
vt 0.5017368 0.9030158
vt 0.4959685 0.9156551
vt 0.4929326 0.9174133
vt 0.4883348 0.9196305
vt 0.4836297 0.9129872
vt 0.4925834 0.9101584
vt 0.4807629 0.9053733
vt 0.4752753 0.9123649
vt 0.4760743 0.9011891
vt 0.4736096 0.908666
vt 0.4765787 0.9041005
vt 0.4749088 0.9190543
vt 0.4832459 0.9188628
vt 0.4648986 0.9023744
vt 0.4656424 0.9042615
vt 0.4596207 0.9091943
vt 0.4719298 0.9147034
vt 0.4724746 0.9182437
vt 0.4749831 0.9125869
vt 0.4796287 0.9131879
vt 0.4820291 0.9062003
vt 0.4696994 0.9347024
vt 0.4726636 0.9339198
vn 0.5903423 -0.6479636 -0.481289
vn 0.3896035 -0.9158037 -0.09753303
vn 0.9386734 -0.3287702 -0.1039345
vn 0.9821045 -0.1563814 -0.1049562
vn 0.8671914 0.4959749 -0.0445864
vn 0.9235318 0.3035541 0.2344013
vn -0.09282523 -0.9658274 -0.2419934
vn 0.2096994 -0.8900306 0.4048106
vn 0.5654621 -0.7273036 0.3889499
vn 0.04102352 -0.485523 0.8732608
vn 0.6008604 -0.4729489 0.6444269
vn 0.3167449 0.2605102 0.9120346
vn -0.03259938 0.6836684 0.7290643
vn -0.4147851 -0.9072651 0.06945104
vn -0.3950917 -0.8123408 -0.428958
vn 0.6987826 -0.5565032 0.4494521
vn -0.777746 -0.6210862 -0.09676365
vn -0.875948 -0.3343334 0.3477589
vn -0.5301096 0.006432196 0.8479047
vn -0.3940983 -0.7440886 0.5394614
vn -0.9693964 0.03892681 -0.2423948
vn -0.8361331 0.2480769 0.4892231
vn -0.1358336 -0.7666073 -0.6275846
vn -0.4542941 -0.8203838 -0.3472568
vn -0.767211 -0.4805339 -0.4248228
vn 0.3907526 -0.910704 -0.1339058
vn -0.8791867 0.01482979 -0.4762464
vn -0.8275753 -0.2287097 -0.512651
vn -0.9176792 0.2812756 -0.2806224
vn -0.7767076 0.3934188 -0.491881
vn 0.8671914 0.4959749 -0.0445864
vn 0.1286437 0.9724469 -0.1944167
vn 0.4699791 0.828389 -0.3047804
vn 0.1057206 0.9818209 -0.1576415
vn 0.3882312 0.8823143 0.2660789
vn 0.5425119 0.6246763 0.5616585
vn 0.9235318 0.3035541 0.2344013
vn -0.03259938 0.6836684 0.7290643
vn -0.2513568 0.9262687 0.2807956
vn -0.482132 0.8752683 -0.03813473
vn -0.2273578 0.9427127 0.2441338
vn -0.3945078 0.6905262 0.6062485
vn -0.4031283 0.7849306 -0.4705013
vn -0.2009735 0.9096964 -0.3634035
vn -0.9176792 0.2812756 -0.2806224
vn -0.7050283 0.3183747 0.6336976
vn -0.8361331 0.2480769 0.4892231
vn -0.9384614 0.3398634 0.06150646
vn -0.7315459 0.6783062 -0.06885753
vn -0.5301096 0.006432196 0.8479047
vn -0.7767076 0.3934188 -0.491881
vn 0.3167449 0.2605102 0.9120346
vn -0.9693964 0.03892681 -0.2423948
vn 0.6337056 0.1359595 0.7615328
vn 0.6008604 -0.4729489 0.6444269
vn 0.8376195 0.06891742 0.5418892
vn 0.6987826 -0.5565032 0.4494521
vn -0.4348373 -0.8953404 -0.09634449
vn -0.4797952 -0.2240297 -0.8482968
vn -0.4997096 0.1171693 -0.8582318
vn -0.2704849 0.5935077 -0.7580148
vn 0.2745349 0.1482768 -0.950076
vn 0.3235452 -0.6915107 -0.6458572
vn -0.4473672 -0.8671877 -0.2187419
vn -0.4542941 -0.8203838 -0.3472568
vn -0.767211 -0.4805339 -0.4248228
vn -0.4209383 -0.8349549 -0.3544872
vn -0.8490742 -0.1901697 0.4928575
vn -0.6159925 0.5079279 -0.6021316
vn -0.5344065 0.8292949 0.1633391
vn -0.9176792 0.2812756 -0.2806224
vn -0.2009735 0.9096964 -0.3634035
vn 0.03358652 0.9967469 -0.07326329
vn -0.3421784 0.8291167 -0.4421306
vn 0.3699997 0.7831386 -0.499794
vn 0.5282922 0.8378481 -0.1375419
vn 0.8320684 0.2157364 -0.5109989
vn 0.8082041 -0.01357346 -0.5887461
vn 0.7664325 -0.6407616 -0.04478566
vn 0.6838197 0.7295852 0.009801628
vn 0.1057206 0.9818209 -0.1576415
vn 0.8426437 0.3341984 -0.4222121
vn 0.3365619 -0.92513 -0.1756721
vn 0.6510744 0.05124736 0.7572818
vn 0.4453165 0.8599818 0.2492478
vn 0.9821045 -0.1563814 -0.1049562
vn 0.3435787 -0.9298539 0.1316265
vn 0.3907526 -0.910704 -0.1339058
vn 0.08451886 -0.982242 0.1675028
vn 0.9821045 -0.1563814 -0.1049562
vn 0.6838197 0.7295852 0.009801628
g Sheep12_0
f 3/3/3 2/2/2 1/1/1
f 3/3/3 1/1/1 4/4/4
f 3/3/3 4/4/4 5/5/5
f 3/3/3 5/5/5 6/6/6
f 1/1/1 2/2/2 7/7/7
f 2/2/2 8/8/8 7/7/7
f 2/2/2 9/9/9 8/8/8
f 3/3/3 9/9/9 2/2/2
f 6/6/6 9/9/9 3/3/3
f 10/10/10 8/8/8 9/9/9
f 10/10/10 9/9/9 11/11/11
f 10/10/10 11/11/11 12/12/12
f 10/10/10 12/12/12 13/13/13
f 7/7/7 8/8/8 14/14/14
f 15/15/15 7/7/7 14/14/14
f 16/16/16 11/11/11 9/9/9
f 16/16/16 9/9/9 6/6/6
f 15/15/15 14/14/14 17/17/17
f 18/18/18 17/17/17 14/14/14
f 18/18/18 10/10/10 19/19/19
f 13/13/13 19/19/19 10/10/10
f 20/20/20 10/10/10 18/18/18
f 14/14/14 20/20/20 18/18/18
f 14/14/14 8/8/8 20/20/20
f 20/20/20 8/8/8 10/10/10
f 21/21/21 17/17/17 18/18/18
f 18/18/18 22/22/22 21/21/21
f 22/22/22 18/18/18 19/19/19
f 23/23/23 7/7/7 15/15/15
f 23/23/23 15/15/15 24/24/24
f 25/25/25 24/24/24 15/15/15
f 23/23/23 24/24/24 26/26/26
f 21/21/21 27/27/27 17/17/17
f 28/28/28 27/27/27 25/25/25
f 27/27/27 28/28/28 17/17/17
f 28/28/28 25/25/25 15/15/15
f 28/28/28 15/15/15 17/17/17
f 29/29/29 25/25/25 27/27/27
f 29/29/29 27/27/27 30/30/30
f 30/30/30 27/27/27 21/21/21
f 26/26/26 1/1/1 23/23/23
f 1/1/1 7/7/7 23/23/23
f 1/1/1 26/26/26 4/4/4
f 33/33/33 32/32/32 31/31/31
f 32/32/32 33/33/33 34/34/34
f 31/31/31 32/32/32 35/35/35
f 36/36/36 31/31/31 35/35/35
f 36/36/36 37/37/37 31/31/31
f 35/35/35 38/38/38 36/36/36
f 39/39/39 38/38/38 35/35/35
f 39/39/39 35/35/35 32/32/32
f 40/40/40 39/39/39 32/32/32
f 41/41/41 39/39/39 40/40/40
f 39/39/39 41/41/41 42/42/42
f 42/42/42 38/38/38 39/39/39
f 32/32/32 43/43/43 40/40/40
f 32/32/32 44/44/44 43/43/43
f 34/34/34 44/44/44 32/32/32
f 43/43/43 44/44/44 45/45/45
f 41/41/41 46/46/46 42/42/42
f 46/46/46 47/47/47 42/42/42
f 48/48/48 47/47/47 46/46/46
f 40/40/40 48/48/48 49/49/49
f 48/48/48 46/46/46 49/49/49
f 46/46/46 41/41/41 49/49/49
f 49/49/49 41/41/41 40/40/40
f 42/42/42 47/47/47 50/50/50
f 50/50/50 38/38/38 42/42/42
f 48/48/48 40/40/40 51/51/51
f 43/43/43 51/51/51 40/40/40
f 43/43/43 45/45/45 51/51/51
f 38/38/38 52/52/52 36/36/36
f 47/47/47 48/48/48 53/53/53
f 48/48/48 51/51/51 53/53/53
f 52/52/52 54/54/54 36/36/36
f 55/55/55 54/54/54 52/52/52
f 56/56/56 54/54/54 55/55/55
f 57/57/57 56/56/56 55/55/55
f 37/37/37 56/56/56 57/57/57
f 54/54/54 56/56/56 37/37/37
f 36/36/36 54/54/54 37/37/37
f 60/60/60 59/59/59 58/58/58
f 59/59/59 60/60/60 61/61/61
f 61/61/61 62/62/62 59/59/59
f 62/62/62 63/63/63 59/59/59
f 59/59/59 63/63/63 64/64/64
f 59/59/59 64/64/64 58/58/58
f 64/64/64 65/65/65 58/58/58
f 65/65/65 66/66/66 58/58/58
f 66/66/66 67/67/67 58/58/58
f 67/67/67 60/60/60 58/58/58
f 67/67/67 66/66/66 68/68/68
f 60/60/60 67/67/67 69/69/69
f 69/69/69 67/67/67 68/68/68
f 69/69/69 68/68/68 70/70/70
f 70/70/70 68/68/68 71/71/71
f 68/68/68 66/66/66 71/71/71
f 70/70/70 71/71/71 72/72/72
f 73/73/73 70/70/70 72/72/72
f 74/74/74 73/73/73 61/61/61
f 70/70/70 73/73/73 74/74/74
f 74/74/74 69/69/69 70/70/70
f 69/69/69 74/74/74 60/60/60
f 61/61/61 60/60/60 74/74/74
f 75/75/75 62/62/62 61/61/61
f 61/61/61 73/73/73 75/75/75
f 75/75/75 73/73/73 76/76/76
f 77/77/77 75/75/75 76/76/76
f 77/77/77 62/62/62 75/75/75
f 63/63/63 62/62/62 77/77/77
f 76/76/76 78/78/78 77/77/77
f 79/79/79 77/77/77 78/78/78
f 76/76/76 73/73/73 80/80/80
f 80/80/80 73/73/73 81/81/81
f 81/81/81 73/73/73 72/72/72
f 76/76/76 82/82/82 78/78/78
f 82/82/82 83/83/83 78/78/78
f 84/84/84 83/83/83 82/82/82
f 85/85/85 80/80/80 84/84/84
f 82/82/82 85/85/85 84/84/84
f 76/76/76 85/85/85 82/82/82
f 85/85/85 76/76/76 80/80/80
f 80/80/80 86/86/86 84/84/84
f 86/86/86 83/83/83 84/84/84
f 87/87/87 83/83/83 86/86/86
f 87/87/87 78/78/78 83/83/83
f 79/79/79 78/78/78 87/87/87
f 88/88/88 79/79/79 87/87/87
f 88/88/88 87/87/87 86/86/86
f 79/79/79 88/88/88 89/89/89
f 65/65/65 89/89/89 88/88/88
f 89/89/89 63/63/63 79/79/79
f 79/79/79 63/63/63 77/77/77
f 64/64/64 89/89/89 65/65/65
f 63/63/63 89/89/89 64/64/64
f 91/91/91 31/31/31 90/90/90
f 91/91/91 33/33/33 31/31/31
f 91/91/91 34/34/34 33/33/33
