g Sheep14
v -11.96905 3.646893 5.519096
v -12.05859 3.598866 5.627858
v -11.96162 3.676896 5.703573
v -11.93034 3.743277 5.556515
v -11.96933 3.846086 5.671913
v -12.01804 3.796938 5.76115
v -12.10237 3.586493 5.557995
v -12.1722 3.614488 5.707952
v -12.01794 3.657658 5.728246
v -12.2487 3.751635 5.847875
v -12.13093 3.746354 5.801666
v -12.17197 3.808846 5.809832
v -12.24277 3.878455 5.755442
v -12.23028 3.617858 5.619533
v -12.18793 3.645138 5.46535
v -12.0427 3.761116 5.797782
v -12.26338 3.671662 5.553129
v -12.35669 3.731688 5.609755
v -12.31032 3.820049 5.767463
v -12.26589 3.663763 5.70482
v -12.3018 3.803067 5.477258
v -12.3197 3.820361 5.641282
v -12.07009 3.623364 5.479163
v -12.03793 3.68434 5.423166
v -12.09557 3.735232 5.414496
v -11.9653 3.676148 5.478226
v -12.24928 3.748276 5.466329
v -12.22682 3.660773 5.435896
v -12.11407 3.785138 5.420173
v -12.22639 3.843163 5.47846
v -11.96933 3.846086 5.671913
v -12.10009 3.943202 5.572094
v -11.99658 3.873593 5.545094
v -12.00703 3.839848 5.461914
v -12.10019 3.955732 5.699533
v -12.11609 3.864069 5.80473
v -12.01804 3.796938 5.76115
v -12.24277 3.878455 5.755442
v -12.20101 3.92242 5.629552
v -12.22525 3.899605 5.535541
v -12.26801 3.920639 5.607998
v -12.27804 3.880331 5.696045
v -12.17465 3.900066 5.457965
v -12.07047 3.835736 5.440762
v -12.11407 3.785138 5.420173
v -12.32763 3.882397 5.633103
v -12.3197 3.820361 5.641282
v -12.30811 3.846381 5.539494
v -12.29974 3.887072 5.565399
v -12.31032 3.820049 5.767463
v -12.22639 3.843163 5.47846
v -12.17197 3.808846 5.809832
v -12.3018 3.803067 5.477258
v -12.12572 3.814005 5.849207
v -12.13093 3.746354 5.801666
v -12.04457 3.786484 5.827304
v -12.0427 3.761116 5.797782
v -12.05784 3.707841 5.348764
v -11.96485 3.681338 5.276706
v -12.04314 3.747887 5.310438
v -11.95762 3.78604 5.290048
v -11.86684 3.709644 5.313917
v -11.88431 3.642914 5.347489
v -11.98027 3.634338 5.335948
v -12.03793 3.68434 5.423166
v -12.09557 3.735232 5.414496
v -12.12456 3.692661 5.284625
v -12.15847 3.739818 5.327779
v -12.11756 3.765214 5.275271
v -12.10213 3.827471 5.3677
v -12.11407 3.785138 5.420173
v -12.07047 3.835736 5.440762
v -11.9651 3.856887 5.404541
v -12.03652 3.81801 5.345984
v -11.89424 3.819355 5.367897
v -11.89883 3.818601 5.465912
v -11.83256 3.730383 5.390717
v -11.863 3.746648 5.469241
v -11.86768 3.664284 5.428143
v -11.94505 3.809885 5.528933
v -12.00703 3.839848 5.461914
v -11.8093 3.752722 5.527763
v -11.83339 3.681677 5.544645
v -11.84912 3.7391 5.579502
v -11.88671 3.825829 5.507388
v -11.93034 3.743277 5.556515
v -11.91491 3.715972 5.495794
v -11.9653 3.676148 5.478226
v -11.9422 3.629755 5.409967
v -11.93034 3.743277 5.556515
v -11.94505 3.809885 5.528933
vt 0.497016 0.9733425
vt 0.4948352 0.9720853
vt 0.4953181 0.9728737
vt 0.4970185 0.9747004
vt 0.4951356 0.9758675
vt 0.4936721 0.9746318
vt 0.4949095 0.9722933
vt 0.4924422 0.9720341
vt 0.4943151 0.972479
vt 0.4896588 0.9736289
vt 0.4917827 0.9736743
vt 0.4909754 0.9747086
vt 0.4903753 0.9761861
vt 0.4924934 0.9726045
vt 0.4944687 0.973775
vt 0.4930382 0.9738625
vt 0.4925586 0.9738278
vt 0.4906196 0.9745848
vt 0.4894673 0.9752113
vt 0.4910711 0.9729405
vt 0.4924686 0.9763132
vt 0.4906023 0.9758328
vt 0.4960123 0.9732558
vt 0.4968451 0.9744849
vt 0.4960155 0.9753863
vt 0.4973833 0.974021
vt 0.4934014 0.9754565
vt 0.494179 0.9741985
vt 0.4956012 0.9761729
vt 0.493389 0.9769043
vt 0.4632477 0.9472071
vt 0.4797691 0.9484807
vt 0.4729773 0.9380504
vt 0.481358 0.9313064
vt 0.4732208 0.9584233
vt 0.4670654 0.9675305
vt 0.461851 0.9566742
vt 0.4787571 0.9715868
vt 0.4841844 0.9584621
vt 0.4910653 0.9552321
vt 0.4890587 0.9618596
vt 0.4860235 0.9691096
vt 0.4920576 0.9441009
vt 0.4858411 0.9344556
vt 0.4910249 0.9354312
vt 0.4913287 0.9662048
vt 0.4926296 0.9681099
vt 0.4960791 0.9600445
vt 0.4935466 0.9621188
vt 0.4837172 0.9765708
vt 0.4949573 0.9490165
vt 0.4722228 0.9704773
vt 0.5022337 0.9547343
vt 0.4650794 0.9711477
vt 0.465403 0.9707001
vt 0.4597627 0.9633843
vt 0.4618073 0.9604894
vt 0.4934385 0.9083821
vt 0.4904355 0.9002143
vt 0.494699 0.9059932
vt 0.4891388 0.9032519
vt 0.482191 0.8974085
vt 0.4815776 0.8991106
vt 0.4889241 0.9035062
vt 0.4878535 0.9137821
vt 0.4926626 0.9159102
vt 0.5010443 0.9024785
vt 0.5053135 0.9057729
vt 0.5017368 0.9030158
vt 0.4959685 0.9156551
vt 0.4929326 0.9174133
vt 0.4883348 0.9196305
vt 0.4836297 0.9129872
vt 0.4925834 0.9101584
vt 0.4807629 0.9053733
vt 0.4752753 0.9123649
vt 0.4760743 0.9011891
vt 0.4736096 0.908666
vt 0.4765787 0.9041005
vt 0.4749088 0.9190543
vt 0.4832459 0.9188628
vt 0.4648986 0.9023744
vt 0.4656424 0.9042615
vt 0.4596207 0.9091943
vt 0.4719298 0.9147034
vt 0.4724746 0.9182437
vt 0.4749831 0.9125869
vt 0.4796287 0.9131879
vt 0.4820291 0.9062003
vt 0.4696994 0.9347024
vt 0.4726636 0.9339198
vn 0.7012206 -0.7077658 -0.08577468
vn 0.3304345 -0.9250436 0.1873698
vn 0.8588971 -0.3490685 0.3747626
vn 0.9091571 -0.1785414 0.3762397
vn 0.8222216 0.4775284 0.3097066
vn 0.7322996 0.3196544 0.6012971
vn -0.03495929 -0.9869402 -0.1572472
vn -0.05682259 -0.8367664 0.5446038
vn 0.2767197 -0.6810185 0.6779676
vn -0.3939237 -0.3767769 0.8383694
vn 0.2081211 -0.3980347 0.8934506
vn -0.1182607 0.3654358 0.9232936
vn -0.3170946 0.7671219 0.5576512
vn -0.4589931 -0.8876634 -0.03713664
vn -0.2078096 -0.8539239 -0.4771049
vn 0.3785636 -0.505592 0.7752846
vn -0.6865007 -0.6197706 -0.3802645
vn -0.9578302 -0.2803324 -0.06304761
vn -0.8570131 0.1146787 0.5023716
vn -0.644531 -0.6690888 0.3699999
vn -0.7469879 0.01982065 -0.6645422
vn -0.94906 0.3144347 0.02039406
vn 0.1159017 -0.8353563 -0.5373515
vn -0.2981549 -0.8513898 -0.4315544
vn -0.5182264 -0.5200346 -0.6789737
vn 0.3483976 -0.9243897 0.1553156
vn -0.5617654 -0.03335404 -0.826624
vn -0.5152602 -0.2800411 -0.8099902
vn -0.6678265 0.255208 -0.6991972
vn -0.4389821 0.3394387 -0.8319112
vn 0.8222216 0.4775284 0.3097066
vn 0.2663876 0.940352 -0.2116032
vn 0.6102414 0.7803164 -0.1367911
vn 0.2298747 0.9543509 -0.1907143
vn 0.2806392 0.9037578 0.3232083
vn 0.2657918 0.682092 0.6812528
vn 0.7322996 0.3196544 0.6012971
vn -0.3170946 0.7671219 0.5576512
vn -0.2907359 0.9560941 0.03683316
vn -0.3532567 0.8694037 -0.3454664
vn -0.2516349 0.9677225 0.01389561
vn -0.5817119 0.7630006 0.2818531
vn -0.09168491 0.7265962 -0.6809199
vn 0.04695055 0.8612013 -0.5060908
vn -0.6678265 0.255208 -0.6991972
vn -0.894092 0.4002536 0.2009888
vn -0.94906 0.3144347 0.02039406
vn -0.8386039 0.3549796 -0.4131984
vn -0.5734052 0.6728863 -0.4673654
vn -0.8570131 0.1146787 0.5023716
vn -0.4389821 0.3394387 -0.8319112
vn -0.1182607 0.3654358 0.9232936
vn -0.7469879 0.01982065 -0.6645422
vn 0.223572 0.220162 0.9494969
vn 0.2081211 -0.3980347 0.8934506
vn 0.5003917 0.1248555 0.8567492
vn 0.3785636 -0.505592 0.7752846
vn -0.400314 -0.8956637 -0.1937403
vn -0.05313538 -0.3197578 -0.9460083
vn -0.0439925 0.01794358 -0.9988707
vn 0.1447535 0.5003855 -0.8536163
vn 0.6869782 0.02931987 -0.7260864
vn 0.5367669 -0.7679955 -0.3493769
vn -0.3537323 -0.8823796 -0.3102897
vn -0.2981549 -0.8513898 -0.4315544
vn -0.5182264 -0.5200346 -0.6789737
vn -0.2662078 -0.8670885 -0.4210592
vn -0.9908087 -0.1199724 0.06248725
vn -0.2385756 0.4380279 -0.8667256
vn -0.4946145 0.848698 -0.1872648
vn -0.6678265 0.255208 -0.6991972
vn 0.04695055 0.8612013 -0.5060908
vn 0.128322 0.9801518 -0.1511155
vn -0.04766561 0.7732251 -0.6323376
vn 0.6075828 0.7129115 -0.3501432
vn 0.5862562 0.8093013 0.03654093
vn 0.9856698 0.1433384 -0.08893339
vn 0.9850116 -0.09340706 -0.1450079
vn 0.6586891 -0.6497402 0.3794291
vn 0.6499315 0.7179765 0.2491964
vn 0.2298747 0.9543509 -0.1907143
vn 0.9622545 0.2715612 -0.01791101
vn 0.3184336 -0.9431733 0.09499571
vn 0.2353891 0.1353973 0.9624238
vn 0.3375269 0.8789327 0.3369762
vn 0.9091571 -0.1785414 0.3762397
vn 0.1840711 -0.9107797 0.3695921
vn 0.3483976 -0.9243897 0.1553156
vn -0.06559596 -0.9556366 0.2871512
vn 0.9091571 -0.1785414 0.3762397
vn 0.6499315 0.7179765 0.2491964
g Sheep14_0
f 3/3/3 2/2/2 1/1/1
f 3/3/3 1/1/1 4/4/4
f 3/3/3 4/4/4 5/5/5
f 3/3/3 5/5/5 6/6/6
f 1/1/1 2/2/2 7/7/7
f 2/2/2 8/8/8 7/7/7
f 2/2/2 9/9/9 8/8/8
f 3/3/3 9/9/9 2/2/2
f 6/6/6 9/9/9 3/3/3
f 10/10/10 8/8/8 9/9/9
f 10/10/10 9/9/9 11/11/11
f 10/10/10 11/11/11 12/12/12
f 10/10/10 12/12/12 13/13/13
f 7/7/7 8/8/8 14/14/14
f 15/15/15 7/7/7 14/14/14
f 16/16/16 11/11/11 9/9/9
f 16/16/16 9/9/9 6/6/6
f 15/15/15 14/14/14 17/17/17
f 18/18/18 17/17/17 14/14/14
f 18/18/18 10/10/10 19/19/19
f 13/13/13 19/19/19 10/10/10
f 20/20/20 10/10/10 18/18/18
f 14/14/14 20/20/20 18/18/18
f 14/14/14 8/8/8 20/20/20
f 20/20/20 8/8/8 10/10/10
f 21/21/21 17/17/17 18/18/18
f 18/18/18 22/22/22 21/21/21
f 22/22/22 18/18/18 19/19/19
f 23/23/23 7/7/7 15/15/15
f 23/23/23 15/15/15 24/24/24
f 25/25/25 24/24/24 15/15/15
f 23/23/23 24/24/24 26/26/26
f 21/21/21 27/27/27 17/17/17
f 28/28/28 27/27/27 25/25/25
f 27/27/27 28/28/28 17/17/17
f 28/28/28 25/25/25 15/15/15
f 28/28/28 15/15/15 17/17/17
f 29/29/29 25/25/25 27/27/27
f 29/29/29 27/27/27 30/30/30
f 30/30/30 27/27/27 21/21/21
f 26/26/26 1/1/1 23/23/23
f 1/1/1 7/7/7 23/23/23
f 1/1/1 26/26/26 4/4/4
f 33/33/33 32/32/32 31/31/31
f 32/32/32 33/33/33 34/34/34
f 31/31/31 32/32/32 35/35/35
f 36/36/36 31/31/31 35/35/35
f 36/36/36 37/37/37 31/31/31
f 35/35/35 38/38/38 36/36/36
f 39/39/39 38/38/38 35/35/35
f 39/39/39 35/35/35 32/32/32
f 40/40/40 39/39/39 32/32/32
f 41/41/41 39/39/39 40/40/40
f 39/39/39 41/41/41 42/42/42
f 42/42/42 38/38/38 39/39/39
f 32/32/32 43/43/43 40/40/40
f 32/32/32 44/44/44 43/43/43
f 34/34/34 44/44/44 32/32/32
f 43/43/43 44/44/44 45/45/45
f 41/41/41 46/46/46 42/42/42
f 46/46/46 47/47/47 42/42/42
f 48/48/48 47/47/47 46/46/46
f 40/40/40 48/48/48 49/49/49
f 48/48/48 46/46/46 49/49/49
f 46/46/46 41/41/41 49/49/49
f 49/49/49 41/41/41 40/40/40
f 42/42/42 47/47/47 50/50/50
f 50/50/50 38/38/38 42/42/42
f 48/48/48 40/40/40 51/51/51
f 43/43/43 51/51/51 40/40/40
f 43/43/43 45/45/45 51/51/51
f 38/38/38 52/52/52 36/36/36
f 47/47/47 48/48/48 53/53/53
f 48/48/48 51/51/51 53/53/53
f 52/52/52 54/54/54 36/36/36
f 55/55/55 54/54/54 52/52/52
f 56/56/56 54/54/54 55/55/55
f 57/57/57 56/56/56 55/55/55
f 37/37/37 56/56/56 57/57/57
f 54/54/54 56/56/56 37/37/37
f 36/36/36 54/54/54 37/37/37
f 60/60/60 59/59/59 58/58/58
f 59/59/59 60/60/60 61/61/61
f 61/61/61 62/62/62 59/59/59
f 62/62/62 63/63/63 59/59/59
f 59/59/59 63/63/63 64/64/64
f 59/59/59 64/64/64 58/58/58
f 64/64/64 65/65/65 58/58/58
f 65/65/65 66/66/66 58/58/58
f 66/66/66 67/67/67 58/58/58
f 67/67/67 60/60/60 58/58/58
f 67/67/67 66/66/66 68/68/68
f 60/60/60 67/67/67 69/69/69
f 69/69/69 67/67/67 68/68/68
f 69/69/69 68/68/68 70/70/70
f 70/70/70 68/68/68 71/71/71
f 68/68/68 66/66/66 71/71/71
f 70/70/70 71/71/71 72/72/72
f 73/73/73 70/70/70 72/72/72
f 74/74/74 73/73/73 61/61/61
f 70/70/70 73/73/73 74/74/74
f 74/74/74 69/69/69 70/70/70
f 69/69/69 74/74/74 60/60/60
f 61/61/61 60/60/60 74/74/74
f 75/75/75 62/62/62 61/61/61
f 61/61/61 73/73/73 75/75/75
f 75/75/75 73/73/73 76/76/76
f 77/77/77 75/75/75 76/76/76
f 77/77/77 62/62/62 75/75/75
f 63/63/63 62/62/62 77/77/77
f 76/76/76 78/78/78 77/77/77
f 79/79/79 77/77/77 78/78/78
f 76/76/76 73/73/73 80/80/80
f 80/80/80 73/73/73 81/81/81
f 81/81/81 73/73/73 72/72/72
f 76/76/76 82/82/82 78/78/78
f 82/82/82 83/83/83 78/78/78
f 84/84/84 83/83/83 82/82/82
f 85/85/85 80/80/80 84/84/84
f 82/82/82 85/85/85 84/84/84
f 76/76/76 85/85/85 82/82/82
f 85/85/85 76/76/76 80/80/80
f 80/80/80 86/86/86 84/84/84
f 86/86/86 83/83/83 84/84/84
f 87/87/87 83/83/83 86/86/86
f 87/87/87 78/78/78 83/83/83
f 79/79/79 78/78/78 87/87/87
f 88/88/88 79/79/79 87/87/87
f 88/88/88 87/87/87 86/86/86
f 79/79/79 88/88/88 89/89/89
f 65/65/65 89/89/89 88/88/88
f 89/89/89 63/63/63 79/79/79
f 79/79/79 63/63/63 77/77/77
f 64/64/64 89/89/89 65/65/65
f 63/63/63 89/89/89 64/64/64
f 91/91/91 31/31/31 90/90/90
f 91/91/91 33/33/33 31/31/31
f 91/91/91 34/34/34 33/33/33
