g Sheep8
v 16.72176 2.872889 -7.521645
v 16.83209 2.797984 -7.455532
v 16.90497 2.869865 -7.559196
v 16.77038 2.964179 -7.560243
v 16.90813 3.040521 -7.535661
v 16.99283 2.97183 -7.506351
v 16.76904 2.794316 -7.401111
v 16.93075 2.78831 -7.356852
v 16.93413 2.841341 -7.509323
v 17.10484 2.890378 -7.297549
v 17.04031 2.904488 -7.405583
v 17.06679 2.960394 -7.362812
v 17.03881 3.031717 -7.279463
v 16.85504 2.802056 -7.284182
v 16.70426 2.860388 -7.297283
v 17.02533 2.927876 -7.49071
v 16.80638 2.863573 -7.236767
v 16.88764 2.903491 -7.151209
v 17.04997 2.966057 -7.218774
v 16.95214 2.828387 -7.261192
v 16.76435 3.002291 -7.177693
v 16.92935 2.988128 -7.187578
v 16.69466 2.847583 -7.416846
v 16.64706 2.920347 -7.43494
v 16.65765 2.966364 -7.373637
v 16.68722 2.909222 -7.51641
v 16.73485 2.955494 -7.23079
v 16.68495 2.877356 -7.25297
v 16.67571 3.012493 -7.353363
v 16.76122 3.04838 -7.249536
v 16.90813 3.040521 -7.535661
v 16.85102 3.141337 -7.383777
v 16.79498 3.08767 -7.485109
v 16.7096 3.068572 -7.462446
v 16.97684 3.130734 -7.405088
v 17.06358 3.020606 -7.413433
v 16.99283 2.97183 -7.506351
v 17.03881 3.031717 -7.279463
v 16.91873 3.101258 -7.295879
v 16.82717 3.09352 -7.257103
v 16.9082 3.097128 -7.226387
v 16.98728 3.04092 -7.234345
v 16.74409 3.112613 -7.293307
v 16.69844 3.06242 -7.396665
v 16.67571 3.012493 -7.353363
v 16.93464 3.049609 -7.174522
v 16.92935 2.988128 -7.187578
v 16.83396 3.032955 -7.179645
v 16.86554 3.068937 -7.189861
v 17.04997 2.966057 -7.218774
v 16.76122 3.04838 -7.249536
v 17.06679 2.960394 -7.362812
v 16.76435 3.002291 -7.177693
v 17.09854 2.962697 -7.414793
v 17.04031 2.904488 -7.405583
v 17.0591 2.947248 -7.492441
v 17.02533 2.927876 -7.49071
v 16.58272 2.954854 -7.40097
v 16.49302 2.950505 -7.481462
v 16.55098 3.002321 -7.406275
v 16.52495 3.051325 -7.484423
v 16.51889 2.980696 -7.582513
v 16.54133 2.90769 -7.5753
v 16.54379 2.892408 -7.479515
v 16.64706 2.920347 -7.43494
v 16.65765 2.966364 -7.373637
v 16.52832 2.945269 -7.32517
v 16.58459 2.980545 -7.296449
v 16.53213 3.018655 -7.325946
v 16.63115 3.064481 -7.353348
v 16.67571 3.012493 -7.353363
v 16.69844 3.06242 -7.396665
v 16.65065 3.099467 -7.49262
v 16.59785 3.065234 -7.414636
v 16.59665 3.075897 -7.558205
v 16.69214 3.057144 -7.570794
v 16.59178 2.990425 -7.62829
v 16.67579 2.989424 -7.611032
v 16.62089 2.9157 -7.60437
v 16.75885 3.032987 -7.536875
v 16.7096 3.068572 -7.462446
v 16.72507 2.989883 -7.673618
v 16.73158 2.915029 -7.657263
v 16.77889 2.963543 -7.644325
v 16.73176 3.057912 -7.589475
v 16.77038 2.964179 -7.560243
v 16.70387 2.949774 -7.566528
v 16.68722 2.909222 -7.51641
v 16.60851 2.878191 -7.530097
v 16.77038 2.964179 -7.560243
v 16.75885 3.032987 -7.536875
vt 0.497016 0.9733425
vt 0.4948352 0.9720853
vt 0.4953181 0.9728737
vt 0.4970185 0.9747004
vt 0.4951356 0.9758675
vt 0.4936721 0.9746318
vt 0.4949095 0.9722933
vt 0.4924422 0.9720341
vt 0.4943151 0.972479
vt 0.4896588 0.9736289
vt 0.4917827 0.9736743
vt 0.4909754 0.9747086
vt 0.4903753 0.9761861
vt 0.4924934 0.9726045
vt 0.4944687 0.973775
vt 0.4930382 0.9738625
vt 0.4925586 0.9738278
vt 0.4906196 0.9745848
vt 0.4894673 0.9752113
vt 0.4910711 0.9729405
vt 0.4924686 0.9763132
vt 0.4906023 0.9758328
vt 0.4960123 0.9732558
vt 0.4968451 0.9744849
vt 0.4960155 0.9753863
vt 0.4973833 0.974021
vt 0.4934014 0.9754565
vt 0.494179 0.9741985
vt 0.4956012 0.9761729
vt 0.493389 0.9769043
vt 0.4632477 0.9472071
vt 0.4797691 0.9484807
vt 0.4729773 0.9380504
vt 0.481358 0.9313064
vt 0.4732208 0.9584233
vt 0.4670654 0.9675305
vt 0.461851 0.9566742
vt 0.4787571 0.9715868
vt 0.4841844 0.9584621
vt 0.4910653 0.9552321
vt 0.4890587 0.9618596
vt 0.4860235 0.9691096
vt 0.4920576 0.9441009
vt 0.4858411 0.9344556
vt 0.4910249 0.9354312
vt 0.4913287 0.9662048
vt 0.4926296 0.9681099
vt 0.4960791 0.9600445
vt 0.4935466 0.9621188
vt 0.4837172 0.9765708
vt 0.4949573 0.9490165
vt 0.4722228 0.9704773
vt 0.5022337 0.9547343
vt 0.4650794 0.9711477
vt 0.465403 0.9707001
vt 0.4597627 0.9633843
vt 0.4618073 0.9604894
vt 0.4934385 0.9083821
vt 0.4904355 0.9002143
vt 0.494699 0.9059932
vt 0.4891388 0.9032519
vt 0.482191 0.8974085
vt 0.4815776 0.8991106
vt 0.4889241 0.9035062
vt 0.4878535 0.9137821
vt 0.4926626 0.9159102
vt 0.5010443 0.9024785
vt 0.5053135 0.9057729
vt 0.5017368 0.9030158
vt 0.4959685 0.9156551
vt 0.4929326 0.9174133
vt 0.4883348 0.9196305
vt 0.4836297 0.9129872
vt 0.4925834 0.9101584
vt 0.4807629 0.9053733
vt 0.4752753 0.9123649
vt 0.4760743 0.9011891
vt 0.4736096 0.908666
vt 0.4765787 0.9041005
vt 0.4749088 0.9190543
vt 0.4832459 0.9188628
vt 0.4648986 0.9023744
vt 0.4656424 0.9042615
vt 0.4596207 0.9091943
vt 0.4719298 0.9147034
vt 0.4724746 0.9182437
vt 0.4749831 0.9125869
vt 0.4796287 0.9131879
vt 0.4820291 0.9062003
vt 0.4696994 0.9347024
vt 0.4726636 0.9339198
vn -0.3311 -0.6123136 -0.7179448
vn -0.04937993 -0.9087108 -0.4144952
vn 0.1587726 -0.3289526 -0.9309035
vn 0.1850273 -0.1575287 -0.9700255
vn 0.2608145 0.4888151 -0.8324876
vn 0.5270768 0.2734873 -0.8046085
vn -0.3367476 -0.9415946 0.0007691224
vn 0.375222 -0.9224953 -0.09061386
vn 0.4812038 -0.7627621 -0.4320149
vn 0.8019699 -0.5561774 0.21797
vn 0.7552825 -0.5306702 -0.3846264
vn 0.9832057 0.1811832 -0.02188846
vn 0.7382112 0.6216235 0.2619699
vn -0.1337595 -0.9054917 0.4027321
vn -0.5932935 -0.7700652 0.2345257
vn 0.59298 -0.5989248 -0.5382042
vn -0.3781556 -0.6027952 0.7025926
vn 0.03760415 -0.3526058 0.9350161
vn 0.645074 -0.05784024 0.7619278
vn 0.3321198 -0.7817926 0.5277278
vn -0.5205878 0.06894877 0.8510197
vn 0.2315417 0.2157294 0.9486038
vn -0.6996344 -0.7108662 -0.0719787
vn -0.5342996 -0.7841901 0.3155471
vn -0.6749833 -0.4358371 0.5953518
vn -0.08315456 -0.900645 -0.4265257
vn -0.7172823 0.06323657 0.6939072
vn -0.7560985 -0.1770124 0.6300648
vn -0.5214346 0.3130452 0.7937939
vn -0.6701778 0.4407253 0.5971792
vn 0.2608145 0.4888151 -0.8324876
vn -0.06624343 0.9837463 -0.166898
vn -0.07942062 0.8456824 -0.5277439
vn -0.03749784 0.9903005 -0.133786
vn 0.4422728 0.8532786 -0.2762438
vn 0.7486315 0.5705618 -0.337654
vn 0.5270768 0.2734873 -0.8046085
vn 0.7382112 0.6216235 0.2619699
vn 0.2661217 0.9025953 0.3383799
vn -0.1107758 0.8804599 0.4609979
vn 0.2399226 0.9217485 0.3046585
vn 0.512541 0.6423788 0.5697819
vn -0.5047669 0.8251975 0.2534946
vn -0.3316602 0.9385908 0.09512611
vn -0.5214346 0.3130452 0.7937939
vn 0.414177 0.2724994 0.8684477
vn 0.2315417 0.2157294 0.9486038
vn -0.1980843 0.3434948 0.9180272
vn -0.2315671 0.689326 0.6864448
vn 0.645074 -0.05784024 0.7619278
vn -0.6701778 0.4407253 0.5971792
vn 0.9832057 0.1811832 -0.02188846
vn -0.5205878 0.06894877 0.8510197
vn 0.9261279 0.0661054 -0.3713721
vn 0.7552825 -0.5306702 -0.3846264
vn 0.7738566 0.01523428 -0.6331776
vn 0.59298 -0.5989248 -0.5382042
vn -0.296284 -0.8797483 0.3718314
vn -0.9690896 -0.1483632 0.1971134
vn -0.9566995 0.1926726 0.218182
vn -0.7532188 0.6567175 0.03719493
vn -0.8068667 0.2230988 -0.5469856
vn -0.571722 -0.6393528 -0.5141615
vn -0.4139992 -0.8414793 0.3471559
vn -0.5342996 -0.7841901 0.3155471
vn -0.6749833 -0.4358371 0.5953518
vn -0.5322621 -0.7984562 0.281362
vn 0.1952924 -0.2211642 0.9554827
vn -0.7168326 0.5622305 0.4123686
vn 0.06094483 0.8186065 0.5711121
vn -0.5214346 0.3130452 0.7937939
vn -0.3316602 0.9385908 0.09512611
vn 0.02198552 0.9989865 -0.03927573
vn -0.4557525 0.8662595 0.2046564
vn -0.298568 0.8176941 -0.4921722
vn 0.09781787 0.8407297 -0.5325459
vn -0.2155776 0.2483127 -0.9443871
vn -0.3153487 0.02643926 -0.9486075
vn 0.1372941 -0.6429228 -0.7535254
vn 0.2759749 0.7190845 -0.6377738
vn -0.03749784 0.9903005 -0.133786
vn -0.118391 0.3589555 -0.9258156
vn -0.1404057 -0.9110057 -0.3877562
vn 0.920436 -0.01810338 -0.3904739
vn 0.4417371 0.8318222 -0.3360659
vn 0.1850273 -0.1575287 -0.9700255
vn 0.1531317 -0.9410955 -0.3014798
vn -0.08315456 -0.900645 -0.4265257
vn 0.1044528 -0.9935324 -0.04452911
vn 0.1850273 -0.1575287 -0.9700255
vn 0.2759749 0.7190845 -0.6377738
g Sheep8_0
f 3/3/3 2/2/2 1/1/1
f 3/3/3 1/1/1 4/4/4
f 3/3/3 4/4/4 5/5/5
f 3/3/3 5/5/5 6/6/6
f 1/1/1 2/2/2 7/7/7
f 2/2/2 8/8/8 7/7/7
f 2/2/2 9/9/9 8/8/8
f 3/3/3 9/9/9 2/2/2
f 6/6/6 9/9/9 3/3/3
f 10/10/10 8/8/8 9/9/9
f 10/10/10 9/9/9 11/11/11
f 10/10/10 11/11/11 12/12/12
f 10/10/10 12/12/12 13/13/13
f 7/7/7 8/8/8 14/14/14
f 15/15/15 7/7/7 14/14/14
f 16/16/16 11/11/11 9/9/9
f 16/16/16 9/9/9 6/6/6
f 15/15/15 14/14/14 17/17/17
f 18/18/18 17/17/17 14/14/14
f 18/18/18 10/10/10 19/19/19
f 13/13/13 19/19/19 10/10/10
f 20/20/20 10/10/10 18/18/18
f 14/14/14 20/20/20 18/18/18
f 14/14/14 8/8/8 20/20/20
f 20/20/20 8/8/8 10/10/10
f 21/21/21 17/17/17 18/18/18
f 18/18/18 22/22/22 21/21/21
f 22/22/22 18/18/18 19/19/19
f 23/23/23 7/7/7 15/15/15
f 23/23/23 15/15/15 24/24/24
f 25/25/25 24/24/24 15/15/15
f 23/23/23 24/24/24 26/26/26
f 21/21/21 27/27/27 17/17/17
f 28/28/28 27/27/27 25/25/25
f 27/27/27 28/28/28 17/17/17
f 28/28/28 25/25/25 15/15/15
f 28/28/28 15/15/15 17/17/17
f 29/29/29 25/25/25 27/27/27
f 29/29/29 27/27/27 30/30/30
f 30/30/30 27/27/27 21/21/21
f 26/26/26 1/1/1 23/23/23
f 1/1/1 7/7/7 23/23/23
f 1/1/1 26/26/26 4/4/4
f 33/33/33 32/32/32 31/31/31
f 32/32/32 33/33/33 34/34/34
f 31/31/31 32/32/32 35/35/35
f 36/36/36 31/31/31 35/35/35
f 36/36/36 37/37/37 31/31/31
f 35/35/35 38/38/38 36/36/36
f 39/39/39 38/38/38 35/35/35
f 39/39/39 35/35/35 32/32/32
f 40/40/40 39/39/39 32/32/32
f 41/41/41 39/39/39 40/40/40
f 39/39/39 41/41/41 42/42/42
f 42/42/42 38/38/38 39/39/39
f 32/32/32 43/43/43 40/40/40
f 32/32/32 44/44/44 43/43/43
f 34/34/34 44/44/44 32/32/32
f 43/43/43 44/44/44 45/45/45
f 41/41/41 46/46/46 42/42/42
f 46/46/46 47/47/47 42/42/42
f 48/48/48 47/47/47 46/46/46
f 40/40/40 48/48/48 49/49/49
f 48/48/48 46/46/46 49/49/49
f 46/46/46 41/41/41 49/49/49
f 49/49/49 41/41/41 40/40/40
f 42/42/42 47/47/47 50/50/50
f 50/50/50 38/38/38 42/42/42
f 48/48/48 40/40/40 51/51/51
f 43/43/43 51/51/51 40/40/40
f 43/43/43 45/45/45 51/51/51
f 38/38/38 52/52/52 36/36/36
f 47/47/47 48/48/48 53/53/53
f 48/48/48 51/51/51 53/53/53
f 52/52/52 54/54/54 36/36/36
f 55/55/55 54/54/54 52/52/52
f 56/56/56 54/54/54 55/55/55
f 57/57/57 56/56/56 55/55/55
f 37/37/37 56/56/56 57/57/57
f 54/54/54 56/56/56 37/37/37
f 36/36/36 54/54/54 37/37/37
f 60/60/60 59/59/59 58/58/58
f 59/59/59 60/60/60 61/61/61
f 61/61/61 62/62/62 59/59/59
f 62/62/62 63/63/63 59/59/59
f 59/59/59 63/63/63 64/64/64
f 59/59/59 64/64/64 58/58/58
f 64/64/64 65/65/65 58/58/58
f 65/65/65 66/66/66 58/58/58
f 66/66/66 67/67/67 58/58/58
f 67/67/67 60/60/60 58/58/58
f 67/67/67 66/66/66 68/68/68
f 60/60/60 67/67/67 69/69/69
f 69/69/69 67/67/67 68/68/68
f 69/69/69 68/68/68 70/70/70
f 70/70/70 68/68/68 71/71/71
f 68/68/68 66/66/66 71/71/71
f 70/70/70 71/71/71 72/72/72
f 73/73/73 70/70/70 72/72/72
f 74/74/74 73/73/73 61/61/61
f 70/70/70 73/73/73 74/74/74
f 74/74/74 69/69/69 70/70/70
f 69/69/69 74/74/74 60/60/60
f 61/61/61 60/60/60 74/74/74
f 75/75/75 62/62/62 61/61/61
f 61/61/61 73/73/73 75/75/75
f 75/75/75 73/73/73 76/76/76
f 77/77/77 75/75/75 76/76/76
f 77/77/77 62/62/62 75/75/75
f 63/63/63 62/62/62 77/77/77
f 76/76/76 78/78/78 77/77/77
f 79/79/79 77/77/77 78/78/78
f 76/76/76 73/73/73 80/80/80
f 80/80/80 73/73/73 81/81/81
f 81/81/81 73/73/73 72/72/72
f 76/76/76 82/82/82 78/78/78
f 82/82/82 83/83/83 78/78/78
f 84/84/84 83/83/83 82/82/82
f 85/85/85 80/80/80 84/84/84
f 82/82/82 85/85/85 84/84/84
f 76/76/76 85/85/85 82/82/82
f 85/85/85 76/76/76 80/80/80
f 80/80/80 86/86/86 84/84/84
f 86/86/86 83/83/83 84/84/84
f 87/87/87 83/83/83 86/86/86
f 87/87/87 78/78/78 83/83/83
f 79/79/79 78/78/78 87/87/87
f 88/88/88 79/79/79 87/87/87
f 88/88/88 87/87/87 86/86/86
f 79/79/79 88/88/88 89/89/89
f 65/65/65 89/89/89 88/88/88
f 89/89/89 63/63/63 79/79/79
f 79/79/79 63/63/63 77/77/77
f 64/64/64 89/89/89 65/65/65
f 63/63/63 89/89/89 64/64/64
f 91/91/91 31/31/31 90/90/90
f 91/91/91 33/33/33 31/31/31
f 91/91/91 34/34/34 33/33/33
