g Sheep10
v -9.453057 3.220529 -16.11108
v -9.37575 3.17023 -15.99426
v -9.273452 3.245772 -16.06535
v -9.403634 3.315714 -16.13726
v -9.301579 3.415755 -16.06667
v -9.23132 3.364611 -15.99456
v -9.455515 3.159884 -15.97233
v -9.33113 3.184421 -15.86245
v -9.266433 3.226218 -16.00436
v -9.215424 3.318367 -15.74882
v -9.226126 3.313625 -15.87491
v -9.228419 3.376111 -15.83312
v -9.298963 3.447471 -15.7807
v -9.432348 3.190365 -15.8321
v -9.567206 3.22134 -15.91674
v -9.204218 3.328001 -15.96053
v -9.504025 3.246025 -15.81927
v -9.47492 3.305094 -15.71353
v -9.308293 3.389146 -15.71265
v -9.359651 3.234271 -15.77348
v -9.584269 3.379532 -15.8039
v -9.43183 3.39273 -15.73977
v -9.520827 3.198579 -16.02575
v -9.563677 3.260788 -16.07245
v -9.587148 3.312198 -16.0196
v -9.49037 3.250797 -16.12631
v -9.581137 3.324752 -15.85746
v -9.606138 3.237933 -15.88787
v -9.585704 3.362042 -16.00014
v -9.560499 3.419173 -15.87572
v -9.301579 3.415755 -16.06667
v -9.432076 3.516098 -15.96974
v -9.430133 3.446638 -16.07679
v -9.513676 3.415085 -16.09065
v -9.309711 3.525372 -15.93315
v -9.215881 3.431141 -15.88801
v -9.23132 3.364611 -15.99456
v -9.298963 3.447471 -15.7807
v -9.406454 3.494407 -15.85664
v -9.50403 3.474132 -15.86036
v -9.446315 3.493542 -15.79861
v -9.365897 3.451055 -15.76389
v -9.563847 3.476298 -15.93105
v -9.552194 3.41186 -16.03592
v -9.585704 3.362042 -16.00014
v -9.440321 3.454998 -15.73438
v -9.43183 3.39273 -15.73977
v -9.525335 3.421277 -15.77995
v -9.49707 3.461247 -15.78047
v -9.308293 3.389146 -15.71265
v -9.560499 3.419173 -15.87572
v -9.228419 3.376111 -15.83312
v -9.584269 3.379532 -15.8039
v -9.17734 3.380011 -15.86615
v -9.226126 3.313625 -15.87491
v -9.175816 3.352617 -15.95024
v -9.204218 3.328001 -15.96053
v -9.640027 3.286289 -16.07462
v -9.68313 3.261127 -16.1844
v -9.671489 3.32722 -16.09959
v -9.665559 3.365414 -16.18729
v -9.618711 3.28794 -16.2676
v -9.59329 3.220471 -16.24139
v -9.632022 3.212715 -16.15276
v -9.563677 3.260788 -16.07245
v -9.587148 3.312198 -16.0196
v -9.720947 3.273115 -16.02907
v -9.688084 3.319339 -15.98414
v -9.726014 3.345844 -16.03831
v -9.631448 3.405636 -16.02651
v -9.585704 3.362042 -16.00014
v -9.552194 3.41186 -16.03592
v -9.556189 3.433355 -16.14721
v -9.633723 3.396375 -16.09561
v -9.57199 3.396384 -16.22567
v -9.479441 3.393154 -16.19322
v -9.534801 3.306524 -16.27843
v -9.467874 3.320945 -16.22676
v -9.51072 3.239684 -16.23421
v -9.432528 3.383084 -16.13092
v -9.513676 3.415085 -16.09065
v -9.396297 3.32523 -16.26145
v -9.388868 3.25391 -16.23368
v -9.358487 3.310509 -16.20852
v -9.436059 3.399255 -16.19295
v -9.403634 3.315714 -16.13726
v -9.458091 3.289885 -16.16948
v -9.49037 3.250797 -16.12631
v -9.55035 3.206037 -16.16807
v -9.403634 3.315714 -16.13726
v -9.432528 3.383084 -16.13092
vt 0.497016 0.9733425
vt 0.4948352 0.9720853
vt 0.4953181 0.9728737
vt 0.4970185 0.9747004
vt 0.4951356 0.9758675
vt 0.4936721 0.9746318
vt 0.4949095 0.9722933
vt 0.4924422 0.9720341
vt 0.4943151 0.972479
vt 0.4896588 0.9736289
vt 0.4917827 0.9736743
vt 0.4909754 0.9747086
vt 0.4903753 0.9761861
vt 0.4924934 0.9726045
vt 0.4944687 0.973775
vt 0.4930382 0.9738625
vt 0.4925586 0.9738278
vt 0.4906196 0.9745848
vt 0.4894673 0.9752113
vt 0.4910711 0.9729405
vt 0.4924686 0.9763132
vt 0.4906023 0.9758328
vt 0.4960123 0.9732558
vt 0.4968451 0.9744849
vt 0.4960155 0.9753863
vt 0.4973833 0.974021
vt 0.4934014 0.9754565
vt 0.494179 0.9741985
vt 0.4956012 0.9761729
vt 0.493389 0.9769043
vt 0.4632477 0.9472071
vt 0.4797691 0.9484807
vt 0.4729773 0.9380504
vt 0.481358 0.9313064
vt 0.4732208 0.9584233
vt 0.4670654 0.9675305
vt 0.461851 0.9566742
vt 0.4787571 0.9715868
vt 0.4841844 0.9584621
vt 0.4910653 0.9552321
vt 0.4890587 0.9618596
vt 0.4860235 0.9691096
vt 0.4920576 0.9441009
vt 0.4858411 0.9344556
vt 0.4910249 0.9354312
vt 0.4913287 0.9662048
vt 0.4926296 0.9681099
vt 0.4960791 0.9600445
vt 0.4935466 0.9621188
vt 0.4837172 0.9765708
vt 0.4949573 0.9490165
vt 0.4722228 0.9704773
vt 0.5022337 0.9547343
vt 0.4650794 0.9711477
vt 0.465403 0.9707001
vt 0.4597627 0.9633843
vt 0.4618073 0.9604894
vt 0.4934385 0.9083821
vt 0.4904355 0.9002143
vt 0.494699 0.9059932
vt 0.4891388 0.9032519
vt 0.482191 0.8974085
vt 0.4815776 0.8991106
vt 0.4889241 0.9035062
vt 0.4878535 0.9137821
vt 0.4926626 0.9159102
vt 0.5010443 0.9024785
vt 0.5053135 0.9057729
vt 0.5017368 0.9030158
vt 0.4959685 0.9156551
vt 0.4929326 0.9174133
vt 0.4883348 0.9196305
vt 0.4836297 0.9129872
vt 0.4925834 0.9101584
vt 0.4807629 0.9053733
vt 0.4752753 0.9123649
vt 0.4760743 0.9011891
vt 0.4736096 0.908666
vt 0.4765787 0.9041005
vt 0.4749088 0.9190543
vt 0.4832459 0.9188628
vt 0.4648986 0.9023744
vt 0.4656424 0.9042615
vt 0.4596207 0.9091943
vt 0.4719298 0.9147034
vt 0.4724746 0.9182437
vt 0.4749831 0.9125869
vt 0.4796287 0.9131879
vt 0.4820291 0.9062003
vt 0.4696994 0.9347024
vt 0.4726636 0.9339198
vn 0.1000468 -0.7091542 -0.6979191
vn 0.2499446 -0.9313105 -0.2649309
vn 0.5956212 -0.3631984 -0.7164651
vn 0.6158404 -0.1930477 -0.7638541
vn 0.5443191 0.464977 -0.6982213
vn 0.7937834 0.3002016 -0.528949
vn -0.1863012 -0.9823992 -0.01355449
vn 0.4836122 -0.8500763 0.2085413
vn 0.7108452 -0.6995953 -0.07256468
vn 0.6805191 -0.3959092 0.6165628
vn 0.9049779 -0.4218348 0.05541299
vn 0.8600487 0.3423834 0.3782721
vn 0.4633796 0.7543545 0.4650038
vn -0.1899887 -0.8839125 0.4273209
vn -0.5386683 -0.8403201 0.06081611
vn 0.8377543 -0.5272768 -0.1419403
vn -0.5767673 -0.6061174 0.5476872
vn -0.3417241 -0.273406 0.8991517
vn 0.2389802 0.1064564 0.9651712
vn 0.1525962 -0.6747862 0.7220651
vn -0.8497277 0.04085679 0.5256363
vn -0.2438159 0.3189841 0.9158619
vn -0.5032718 -0.8219891 -0.2665548
vn -0.5208136 -0.8384613 0.160424
vn -0.8121438 -0.4997087 0.3011872
vn 0.2243965 -0.9299371 -0.291313
vn -0.9533685 -0.009177489 0.3016687
vn -0.9305534 -0.2564574 0.2613425
vn -0.8541491 0.2766133 0.4403571
vn -0.9136046 0.3629545 0.1832777
vn 0.5443191 0.464977 -0.6982213
vn -0.1020014 0.9439808 -0.3138408
vn 0.06387486 0.7802158 -0.6222406
vn -0.09207253 0.9576429 -0.2728422
vn 0.4133905 0.8936704 -0.1745321
vn 0.7463279 0.6630191 -0.05831373
vn 0.7937834 0.3002016 -0.528949
vn 0.4633796 0.7543545 0.4650038
vn -0.02302473 0.9564131 0.2911078
vn -0.4093564 0.8798491 0.2414389
vn -0.03350244 0.9684094 0.247105
vn 0.1234016 0.7587103 0.6396334
vn -0.6595365 0.7442345 -0.1054825
vn -0.4489116 0.8735735 -0.18801
vn -0.8541491 0.2766133 0.4403571
vn -0.05286176 0.3998795 0.9150421
vn -0.2438159 0.3189841 0.9158619
vn -0.626483 0.3699473 0.6860452
vn -0.594203 0.6877202 0.4170896
vn 0.2389802 0.1064564 0.9651712
vn -0.9136046 0.3629545 0.1832777
vn 0.8600487 0.3423834 0.3782721
vn -0.8497277 0.04085679 0.5256363
vn 0.9791637 0.1946317 0.05793902
vn 0.9049779 -0.4218348 0.05541299
vn 0.9670466 0.1002171 -0.2340457
vn 0.8377543 -0.5272768 -0.1419403
vn -0.3234158 -0.8882269 0.3262746
vn -0.9296515 -0.2952113 -0.2204504
vn -0.9688853 0.04366637 -0.2436279
vn -0.7631971 0.5212137 -0.3819247
vn -0.4981597 0.0440973 -0.8659632
vn -0.2010669 -0.7617416 -0.6158912
vn -0.4213752 -0.8722281 0.2483167
vn -0.5208136 -0.8384613 0.160424
vn -0.8121438 -0.4997087 0.3011872
vn -0.5020472 -0.8545848 0.1327905
vn -0.2267526 -0.1161277 0.9670045
vn -0.8870512 0.4613005 -0.01849212
vn -0.2988016 0.8558857 0.4221105
vn -0.8541491 0.2766133 0.4403571
vn -0.4489116 0.8735735 -0.18801
vn -0.08252566 0.9829759 -0.1641581
vn -0.5992037 0.7893609 -0.1336573
vn -0.1429965 0.7182921 -0.6808881
vn 0.2237896 0.8048971 -0.5495989
vn 0.2005653 0.1401885 -0.9695982
vn 0.1405053 -0.09505675 -0.9855062
vn 0.5349789 -0.6627926 -0.5239308
vn 0.4433132 0.7078289 -0.549956
vn -0.09207253 0.9576429 -0.2728422
vn 0.2652158 0.2666686 -0.9265789
vn 0.157553 -0.9470122 -0.2799017
vn 0.9927209 0.1095045 0.05013962
vn 0.4422108 0.8681903 -0.2251557
vn 0.6158404 -0.1930477 -0.7638541
vn 0.3829749 -0.9209078 -0.07251934
vn 0.2243965 -0.9299371 -0.291313
vn 0.2314128 -0.9622837 0.143032
vn 0.6158404 -0.1930477 -0.7638541
vn 0.4433132 0.7078289 -0.549956
g Sheep10_0
f 3/3/3 2/2/2 1/1/1
f 3/3/3 1/1/1 4/4/4
f 3/3/3 4/4/4 5/5/5
f 3/3/3 5/5/5 6/6/6
f 1/1/1 2/2/2 7/7/7
f 2/2/2 8/8/8 7/7/7
f 2/2/2 9/9/9 8/8/8
f 3/3/3 9/9/9 2/2/2
f 6/6/6 9/9/9 3/3/3
f 10/10/10 8/8/8 9/9/9
f 10/10/10 9/9/9 11/11/11
f 10/10/10 11/11/11 12/12/12
f 10/10/10 12/12/12 13/13/13
f 7/7/7 8/8/8 14/14/14
f 15/15/15 7/7/7 14/14/14
f 16/16/16 11/11/11 9/9/9
f 16/16/16 9/9/9 6/6/6
f 15/15/15 14/14/14 17/17/17
f 18/18/18 17/17/17 14/14/14
f 18/18/18 10/10/10 19/19/19
f 13/13/13 19/19/19 10/10/10
f 20/20/20 10/10/10 18/18/18
f 14/14/14 20/20/20 18/18/18
f 14/14/14 8/8/8 20/20/20
f 20/20/20 8/8/8 10/10/10
f 21/21/21 17/17/17 18/18/18
f 18/18/18 22/22/22 21/21/21
f 22/22/22 18/18/18 19/19/19
f 23/23/23 7/7/7 15/15/15
f 23/23/23 15/15/15 24/24/24
f 25/25/25 24/24/24 15/15/15
f 23/23/23 24/24/24 26/26/26
f 21/21/21 27/27/27 17/17/17
f 28/28/28 27/27/27 25/25/25
f 27/27/27 28/28/28 17/17/17
f 28/28/28 25/25/25 15/15/15
f 28/28/28 15/15/15 17/17/17
f 29/29/29 25/25/25 27/27/27
f 29/29/29 27/27/27 30/30/30
f 30/30/30 27/27/27 21/21/21
f 26/26/26 1/1/1 23/23/23
f 1/1/1 7/7/7 23/23/23
f 1/1/1 26/26/26 4/4/4
f 33/33/33 32/32/32 31/31/31
f 32/32/32 33/33/33 34/34/34
f 31/31/31 32/32/32 35/35/35
f 36/36/36 31/31/31 35/35/35
f 36/36/36 37/37/37 31/31/31
f 35/35/35 38/38/38 36/36/36
f 39/39/39 38/38/38 35/35/35
f 39/39/39 35/35/35 32/32/32
f 40/40/40 39/39/39 32/32/32
f 41/41/41 39/39/39 40/40/40
f 39/39/39 41/41/41 42/42/42
f 42/42/42 38/38/38 39/39/39
f 32/32/32 43/43/43 40/40/40
f 32/32/32 44/44/44 43/43/43
f 34/34/34 44/44/44 32/32/32
f 43/43/43 44/44/44 45/45/45
f 41/41/41 46/46/46 42/42/42
f 46/46/46 47/47/47 42/42/42
f 48/48/48 47/47/47 46/46/46
f 40/40/40 48/48/48 49/49/49
f 48/48/48 46/46/46 49/49/49
f 46/46/46 41/41/41 49/49/49
f 49/49/49 41/41/41 40/40/40
f 42/42/42 47/47/47 50/50/50
f 50/50/50 38/38/38 42/42/42
f 48/48/48 40/40/40 51/51/51
f 43/43/43 51/51/51 40/40/40
f 43/43/43 45/45/45 51/51/51
f 38/38/38 52/52/52 36/36/36
f 47/47/47 48/48/48 53/53/53
f 48/48/48 51/51/51 53/53/53
f 52/52/52 54/54/54 36/36/36
f 55/55/55 54/54/54 52/52/52
f 56/56/56 54/54/54 55/55/55
f 57/57/57 56/56/56 55/55/55
f 37/37/37 56/56/56 57/57/57
f 54/54/54 56/56/56 37/37/37
f 36/36/36 54/54/54 37/37/37
f 60/60/60 59/59/59 58/58/58
f 59/59/59 60/60/60 61/61/61
f 61/61/61 62/62/62 59/59/59
f 62/62/62 63/63/63 59/59/59
f 59/59/59 63/63/63 64/64/64
f 59/59/59 64/64/64 58/58/58
f 64/64/64 65/65/65 58/58/58
f 65/65/65 66/66/66 58/58/58
f 66/66/66 67/67/67 58/58/58
f 67/67/67 60/60/60 58/58/58
f 67/67/67 66/66/66 68/68/68
f 60/60/60 67/67/67 69/69/69
f 69/69/69 67/67/67 68/68/68
f 69/69/69 68/68/68 70/70/70
f 70/70/70 68/68/68 71/71/71
f 68/68/68 66/66/66 71/71/71
f 70/70/70 71/71/71 72/72/72
f 73/73/73 70/70/70 72/72/72
f 74/74/74 73/73/73 61/61/61
f 70/70/70 73/73/73 74/74/74
f 74/74/74 69/69/69 70/70/70
f 69/69/69 74/74/74 60/60/60
f 61/61/61 60/60/60 74/74/74
f 75/75/75 62/62/62 61/61/61
f 61/61/61 73/73/73 75/75/75
f 75/75/75 73/73/73 76/76/76
f 77/77/77 75/75/75 76/76/76
f 77/77/77 62/62/62 75/75/75
f 63/63/63 62/62/62 77/77/77
f 76/76/76 78/78/78 77/77/77
f 79/79/79 77/77/77 78/78/78
f 76/76/76 73/73/73 80/80/80
f 80/80/80 73/73/73 81/81/81
f 81/81/81 73/73/73 72/72/72
f 76/76/76 82/82/82 78/78/78
f 82/82/82 83/83/83 78/78/78
f 84/84/84 83/83/83 82/82/82
f 85/85/85 80/80/80 84/84/84
f 82/82/82 85/85/85 84/84/84
f 76/76/76 85/85/85 82/82/82
f 85/85/85 76/76/76 80/80/80
f 80/80/80 86/86/86 84/84/84
f 86/86/86 83/83/83 84/84/84
f 87/87/87 83/83/83 86/86/86
f 87/87/87 78/78/78 83/83/83
f 79/79/79 78/78/78 87/87/87
f 88/88/88 79/79/79 87/87/87
f 88/88/88 87/87/87 86/86/86
f 79/79/79 88/88/88 89/89/89
f 65/65/65 89/89/89 88/88/88
f 89/89/89 63/63/63 79/79/79
f 79/79/79 63/63/63 77/77/77
f 64/64/64 89/89/89 65/65/65
f 63/63/63 89/89/89 64/64/64
f 91/91/91 31/31/31 90/90/90
f 91/91/91 33/33/33 31/31/31
f 91/91/91 34/34/34 33/33/33
