g Sheep13
v -12.53209 3.667874 4.301311
v -12.66163 3.606815 4.341879
v -12.63715 3.697563 4.453194
v -12.53438 3.76861 4.346423
v -12.6453 3.864058 4.409602
v -12.73051 3.807886 4.457942
v -12.65466 3.588668 4.260808
v -12.80149 3.605438 4.340218
v -12.69449 3.670267 4.442285
v -12.961 3.729316 4.398973
v -12.83876 3.74133 4.429767
v -12.88404 3.797208 4.407779
v -12.91769 3.856203 4.317202
v -12.79711 3.600918 4.234567
v -12.67657 3.634908 4.131487
v -12.76734 3.768674 4.476339
v -12.79154 3.649774 4.157221
v -12.90677 3.695399 4.144672
v -12.97196 3.788603 4.292634
v -12.88093 3.640717 4.279723
v -12.79409 3.77471 4.062967
v -12.90607 3.788293 4.184618
v -12.58724 3.630263 4.212423
v -12.53613 3.69556 4.180619
v -12.58356 3.737665 4.136286
v -12.50881 3.6976 4.26793
v -12.7389 3.728123 4.08872
v -12.69257 3.644947 4.083868
v -12.60775 3.78435 4.126275
v -12.73899 3.825246 4.104268
v -12.6453 3.864058 4.409602
v -12.70402 3.941895 4.245321
v -12.59668 3.888086 4.288601
v -12.55259 3.85367 4.217622
v -12.77981 3.953542 4.347878
v -12.8428 3.859935 4.431492
v -12.73051 3.807886 4.457942
v -12.91769 3.856203 4.317202
v -12.81611 3.906455 4.235463
v -12.77811 3.880931 4.146858
v -12.85722 3.895163 4.179428
v -12.91169 3.853321 4.248417
v -12.69231 3.88913 4.112946
v -12.59079 3.840582 4.164153
v -12.60775 3.78435 4.126275
v -12.91516 3.848584 4.168473
v -12.90607 3.788293 4.184618
v -12.84062 3.816301 4.106489
v -12.85388 3.857622 4.12915
v -12.97196 3.788603 4.292634
v -12.73899 3.825246 4.104268
v -12.88404 3.797208 4.407779
v -12.79409 3.77471 4.062967
v -12.87041 3.808747 4.466059
v -12.83876 3.74133 4.429767
v -12.78909 3.793336 4.49725
v -12.76734 3.768674 4.476339
v -12.51165 3.716379 4.106783
v -12.39173 3.70397 4.103949
v -12.48234 3.758347 4.080933
v -12.4063 3.808542 4.110669
v -12.33801 3.745888 4.188498
v -12.36357 3.677142 4.210995
v -12.43296 3.654896 4.146937
v -12.53613 3.69556 4.180619
v -12.58356 3.737665 4.136286
v -12.52612 3.692115 4.01735
v -12.58419 3.733643 4.029141
v -12.52378 3.764973 4.008039
v -12.5727 3.828266 4.087147
v -12.60775 3.78435 4.126275
v -12.59079 3.840582 4.164153
v -12.48752 3.876907 4.19382
v -12.50616 3.828484 4.108093
v -12.40469 3.85019 4.207883
v -12.46536 3.848214 4.284976
v -12.35766 3.770904 4.269067
v -12.42982 3.782157 4.314054
v -12.39972 3.700219 4.284471
v -12.53817 3.832563 4.310237
v -12.55259 3.85367 4.217622
v -12.42145 3.795565 4.392128
v -12.44209 3.721693 4.397582
v -12.48195 3.776047 4.412296
v -12.48064 3.856872 4.325111
v -12.53438 3.76861 4.346423
v -12.48332 3.744167 4.308124
v -12.50881 3.6976 4.26793
v -12.4449 3.655417 4.229439
v -12.53438 3.76861 4.346423
v -12.53817 3.832563 4.310237
vt 0.497016 0.9733425
vt 0.4948352 0.9720853
vt 0.4953181 0.9728737
vt 0.4970185 0.9747004
vt 0.4951356 0.9758675
vt 0.4936721 0.9746318
vt 0.4949095 0.9722933
vt 0.4924422 0.9720341
vt 0.4943151 0.972479
vt 0.4896588 0.9736289
vt 0.4917827 0.9736743
vt 0.4909754 0.9747086
vt 0.4903753 0.9761861
vt 0.4924934 0.9726045
vt 0.4944687 0.973775
vt 0.4930382 0.9738625
vt 0.4925586 0.9738278
vt 0.4906196 0.9745848
vt 0.4894673 0.9752113
vt 0.4910711 0.9729405
vt 0.4924686 0.9763132
vt 0.4906023 0.9758328
vt 0.4960123 0.9732558
vt 0.4968451 0.9744849
vt 0.4960155 0.9753863
vt 0.4973833 0.974021
vt 0.4934014 0.9754565
vt 0.494179 0.9741985
vt 0.4956012 0.9761729
vt 0.493389 0.9769043
vt 0.4632477 0.9472071
vt 0.4797691 0.9484807
vt 0.4729773 0.9380504
vt 0.481358 0.9313064
vt 0.4732208 0.9584233
vt 0.4670654 0.9675305
vt 0.461851 0.9566742
vt 0.4787571 0.9715868
vt 0.4841844 0.9584621
vt 0.4910653 0.9552321
vt 0.4890587 0.9618596
vt 0.4860235 0.9691096
vt 0.4920576 0.9441009
vt 0.4858411 0.9344556
vt 0.4910249 0.9354312
vt 0.4913287 0.9662048
vt 0.4926296 0.9681099
vt 0.4960791 0.9600445
vt 0.4935466 0.9621188
vt 0.4837172 0.9765708
vt 0.4949573 0.9490165
vt 0.4722228 0.9704773
vt 0.5022337 0.9547343
vt 0.4650794 0.9711477
vt 0.465403 0.9707001
vt 0.4597627 0.9633843
vt 0.4618073 0.9604894
vt 0.4934385 0.9083821
vt 0.4904355 0.9002143
vt 0.494699 0.9059932
vt 0.4891388 0.9032519
vt 0.482191 0.8974085
vt 0.4815776 0.8991106
vt 0.4889241 0.9035062
vt 0.4878535 0.9137821
vt 0.4926626 0.9159102
vt 0.5010443 0.9024785
vt 0.5053135 0.9057729
vt 0.5017368 0.9030158
vt 0.4959685 0.9156551
vt 0.4929326 0.9174133
vt 0.4883348 0.9196305
vt 0.4836297 0.9129872
vt 0.4925834 0.9101584
vt 0.4807629 0.9053733
vt 0.4752753 0.9123649
vt 0.4760743 0.9011891
vt 0.4736096 0.908666
vt 0.4765787 0.9041005
vt 0.4749088 0.9190543
vt 0.4832459 0.9188628
vt 0.4648986 0.9023744
vt 0.4656424 0.9042615
vt 0.4596207 0.9091943
vt 0.4719298 0.9147034
vt 0.4724746 0.9182437
vt 0.4749831 0.9125869
vt 0.4796287 0.9131879
vt 0.4820291 0.9062003
vt 0.4696994 0.9347024
vt 0.4726636 0.9339198
vn 0.6990205 -0.5988234 0.3908719
vn 0.2680396 -0.8688438 0.4162513
vn 0.514415 -0.2238358 0.8278132
vn 0.5334216 -0.04786468 0.8444942
vn 0.4232095 0.5892183 0.68827
vn 0.2001453 0.4183449 0.8859624
vn 0.1823723 -0.9807487 -0.06980266
vn -0.2619675 -0.8393697 0.4762686
vn -0.09021664 -0.6379566 0.7647695
vn -0.7594771 -0.4344684 0.4841813
vn -0.3049375 -0.3690587 0.8779571
vn -0.6767237 0.3392123 0.6534371
vn -0.6720844 0.7101765 0.2096469
vn -0.2404585 -0.9443083 -0.2246365
vn 0.2136149 -0.8721754 -0.4400897
vn -0.08613699 -0.4502615 0.8887322
vn -0.2558622 -0.7100087 -0.6560656
vn -0.6996239 -0.4150561 -0.5815968
vn -0.9953868 -0.01295345 -0.0950652
vn -0.6530412 -0.7571084 -0.01799812
vn -0.2160413 -0.08416477 -0.9727499
vn -0.8128213 0.1742745 -0.5558326
vn 0.5067254 -0.8068056 -0.3037995
vn 0.1141419 -0.8829476 -0.4553846
vn 0.0413465 -0.5853306 -0.8097398
vn 0.3010615 -0.8654266 0.4004982
vn 0.03366392 -0.1091556 -0.9934546
vn 0.09110899 -0.3466648 -0.9335538
vn -0.1605737 0.1603636 -0.9739094
vn 0.09054763 0.277461 -0.9564604
vn 0.4232095 0.5892183 0.68827
vn 0.2240855 0.9701346 -0.09286854
vn 0.4762626 0.8608915 0.178997
vn 0.1808713 0.9786064 -0.09805691
vn -0.07145221 0.9328745 0.3530435
vn -0.2651612 0.7093124 0.6531196
vn 0.2001453 0.4183449 0.8859624
vn -0.6720844 0.7101765 0.2096469
vn -0.3704075 0.903992 -0.2135341
vn -0.1876275 0.8114137 -0.5535375
vn -0.3270163 0.9212656 -0.2105468
vn -0.7237538 0.6695707 -0.1668995
vn 0.2352106 0.7097396 -0.6640373
vn 0.2286595 0.8619001 -0.4525959
vn -0.1605737 0.1603636 -0.9739094
vn -0.8841196 0.2660655 -0.3841115
vn -0.8128213 0.1742745 -0.5558326
vn -0.4764296 0.2328167 -0.8478274
vn -0.2699765 0.58594 -0.7640596
vn -0.9953868 -0.01295345 -0.0950652
vn 0.09054763 0.277461 -0.9564604
vn -0.6767237 0.3392123 0.6534371
vn -0.2160413 -0.08416477 -0.9727499
vn -0.3996399 0.2445819 0.8834408
vn -0.3049375 -0.3690587 0.8779571
vn -0.1115824 0.190706 0.9752849
vn -0.08613699 -0.4502615 0.8887322
vn -0.101138 -0.9428599 -0.3174683
vn 0.5466378 -0.3185864 -0.7743964
vn 0.5440831 0.0172027 -0.838855
vn 0.5531272 0.5209669 -0.6501105
vn 0.9715869 0.1322124 -0.1963129
vn 0.7275379 -0.6805966 0.08646886
vn 0.002585509 -0.9223257 -0.3864048
vn 0.1141419 -0.8829476 -0.4553846
vn 0.0413465 -0.5853306 -0.8097398
vn 0.1356148 -0.8939384 -0.42718
vn -0.8185576 -0.2618443 -0.5112741
vn 0.2600692 0.4041071 -0.8769615
vn -0.3909026 0.7696424 -0.5048225
vn -0.1605737 0.1603636 -0.9739094
vn 0.2286595 0.8619001 -0.4525959
vn 0.0730634 0.9892726 -0.1264967
vn 0.2366941 0.7619467 -0.6028374
vn 0.6064923 0.7950343 0.009354731
vn 0.3525686 0.8851057 0.3037816
vn 0.8270064 0.2843823 0.4849609
vn 0.8876498 0.0503387 0.4577598
vn 0.3869542 -0.5502324 0.7399397
vn 0.2909419 0.8026814 0.5206298
vn 0.1808713 0.9786064 -0.09805691
vn 0.7513869 0.4074569 0.5190341
vn 0.3143604 -0.8879801 0.3356616
vn -0.3874571 0.1623065 0.9074876
vn -0.03073992 0.9164331 0.3990056
vn 0.5334216 -0.04786468 0.8444942
vn 0.04254005 -0.8768743 0.4788338
vn 0.3010615 -0.8654266 0.4004982
vn -0.1047906 -0.9567658 0.2713263
vn 0.5334216 -0.04786468 0.8444942
vn 0.2909419 0.8026814 0.5206298
g Sheep13_0
f 3/3/3 2/2/2 1/1/1
f 3/3/3 1/1/1 4/4/4
f 3/3/3 4/4/4 5/5/5
f 3/3/3 5/5/5 6/6/6
f 1/1/1 2/2/2 7/7/7
f 2/2/2 8/8/8 7/7/7
f 2/2/2 9/9/9 8/8/8
f 3/3/3 9/9/9 2/2/2
f 6/6/6 9/9/9 3/3/3
f 10/10/10 8/8/8 9/9/9
f 10/10/10 9/9/9 11/11/11
f 10/10/10 11/11/11 12/12/12
f 10/10/10 12/12/12 13/13/13
f 7/7/7 8/8/8 14/14/14
f 15/15/15 7/7/7 14/14/14
f 16/16/16 11/11/11 9/9/9
f 16/16/16 9/9/9 6/6/6
f 15/15/15 14/14/14 17/17/17
f 18/18/18 17/17/17 14/14/14
f 18/18/18 10/10/10 19/19/19
f 13/13/13 19/19/19 10/10/10
f 20/20/20 10/10/10 18/18/18
f 14/14/14 20/20/20 18/18/18
f 14/14/14 8/8/8 20/20/20
f 20/20/20 8/8/8 10/10/10
f 21/21/21 17/17/17 18/18/18
f 18/18/18 22/22/22 21/21/21
f 22/22/22 18/18/18 19/19/19
f 23/23/23 7/7/7 15/15/15
f 23/23/23 15/15/15 24/24/24
f 25/25/25 24/24/24 15/15/15
f 23/23/23 24/24/24 26/26/26
f 21/21/21 27/27/27 17/17/17
f 28/28/28 27/27/27 25/25/25
f 27/27/27 28/28/28 17/17/17
f 28/28/28 25/25/25 15/15/15
f 28/28/28 15/15/15 17/17/17
f 29/29/29 25/25/25 27/27/27
f 29/29/29 27/27/27 30/30/30
f 30/30/30 27/27/27 21/21/21
f 26/26/26 1/1/1 23/23/23
f 1/1/1 7/7/7 23/23/23
f 1/1/1 26/26/26 4/4/4
f 33/33/33 32/32/32 31/31/31
f 32/32/32 33/33/33 34/34/34
f 31/31/31 32/32/32 35/35/35
f 36/36/36 31/31/31 35/35/35
f 36/36/36 37/37/37 31/31/31
f 35/35/35 38/38/38 36/36/36
f 39/39/39 38/38/38 35/35/35
f 39/39/39 35/35/35 32/32/32
f 40/40/40 39/39/39 32/32/32
f 41/41/41 39/39/39 40/40/40
f 39/39/39 41/41/41 42/42/42
f 42/42/42 38/38/38 39/39/39
f 32/32/32 43/43/43 40/40/40
f 32/32/32 44/44/44 43/43/43
f 34/34/34 44/44/44 32/32/32
f 43/43/43 44/44/44 45/45/45
f 41/41/41 46/46/46 42/42/42
f 46/46/46 47/47/47 42/42/42
f 48/48/48 47/47/47 46/46/46
f 40/40/40 48/48/48 49/49/49
f 48/48/48 46/46/46 49/49/49
f 46/46/46 41/41/41 49/49/49
f 49/49/49 41/41/41 40/40/40
f 42/42/42 47/47/47 50/50/50
f 50/50/50 38/38/38 42/42/42
f 48/48/48 40/40/40 51/51/51
f 43/43/43 51/51/51 40/40/40
f 43/43/43 45/45/45 51/51/51
f 38/38/38 52/52/52 36/36/36
f 47/47/47 48/48/48 53/53/53
f 48/48/48 51/51/51 53/53/53
f 52/52/52 54/54/54 36/36/36
f 55/55/55 54/54/54 52/52/52
f 56/56/56 54/54/54 55/55/55
f 57/57/57 56/56/56 55/55/55
f 37/37/37 56/56/56 57/57/57
f 54/54/54 56/56/56 37/37/37
f 36/36/36 54/54/54 37/37/37
f 60/60/60 59/59/59 58/58/58
f 59/59/59 60/60/60 61/61/61
f 61/61/61 62/62/62 59/59/59
f 62/62/62 63/63/63 59/59/59
f 59/59/59 63/63/63 64/64/64
f 59/59/59 64/64/64 58/58/58
f 64/64/64 65/65/65 58/58/58
f 65/65/65 66/66/66 58/58/58
f 66/66/66 67/67/67 58/58/58
f 67/67/67 60/60/60 58/58/58
f 67/67/67 66/66/66 68/68/68
f 60/60/60 67/67/67 69/69/69
f 69/69/69 67/67/67 68/68/68
f 69/69/69 68/68/68 70/70/70
f 70/70/70 68/68/68 71/71/71
f 68/68/68 66/66/66 71/71/71
f 70/70/70 71/71/71 72/72/72
f 73/73/73 70/70/70 72/72/72
f 74/74/74 73/73/73 61/61/61
f 70/70/70 73/73/73 74/74/74
f 74/74/74 69/69/69 70/70/70
f 69/69/69 74/74/74 60/60/60
f 61/61/61 60/60/60 74/74/74
f 75/75/75 62/62/62 61/61/61
f 61/61/61 73/73/73 75/75/75
f 75/75/75 73/73/73 76/76/76
f 77/77/77 75/75/75 76/76/76
f 77/77/77 62/62/62 75/75/75
f 63/63/63 62/62/62 77/77/77
f 76/76/76 78/78/78 77/77/77
f 79/79/79 77/77/77 78/78/78
f 76/76/76 73/73/73 80/80/80
f 80/80/80 73/73/73 81/81/81
f 81/81/81 73/73/73 72/72/72
f 76/76/76 82/82/82 78/78/78
f 82/82/82 83/83/83 78/78/78
f 84/84/84 83/83/83 82/82/82
f 85/85/85 80/80/80 84/84/84
f 82/82/82 85/85/85 84/84/84
f 76/76/76 85/85/85 82/82/82
f 85/85/85 76/76/76 80/80/80
f 80/80/80 86/86/86 84/84/84
f 86/86/86 83/83/83 84/84/84
f 87/87/87 83/83/83 86/86/86
f 87/87/87 78/78/78 83/83/83
f 79/79/79 78/78/78 87/87/87
f 88/88/88 79/79/79 87/87/87
f 88/88/88 87/87/87 86/86/86
f 79/79/79 88/88/88 89/89/89
f 65/65/65 89/89/89 88/88/88
f 89/89/89 63/63/63 79/79/79
f 79/79/79 63/63/63 77/77/77
f 64/64/64 89/89/89 65/65/65
f 63/63/63 89/89/89 64/64/64
f 91/91/91 31/31/31 90/90/90
f 91/91/91 33/33/33 31/31/31
f 91/91/91 34/34/34 33/33/33
