g Sheep6
v 16.41717 2.859551 -5.848284
v 16.54384 2.793144 -5.889502
v 16.51367 2.872346 -6.008003
v 16.41751 2.955126 -5.903543
v 16.52528 3.042311 -5.98223
v 16.60728 2.980496 -6.029208
v 16.54134 2.783446 -5.806735
v 16.68356 2.790288 -5.895468
v 16.57136 2.845628 -5.99755
v 16.84025 2.90563 -5.975371
v 16.71655 2.915885 -6.000406
v 16.76333 2.973175 -5.98681
v 16.80239 3.0407 -5.904764
v 16.68511 2.796623 -5.789832
v 16.57079 2.842377 -5.684253
v 16.64278 2.939178 -6.045504
v 16.68421 2.853177 -5.717713
v 16.80024 2.898478 -5.716319
v 16.85755 2.975323 -5.876444
v 16.76649 2.830613 -5.843409
v 16.69283 2.987039 -5.637052
v 16.79785 2.986814 -5.765477
v 16.47701 2.830556 -5.759205
v 16.42817 2.899357 -5.731478
v 16.47828 2.945201 -5.694394
v 16.39598 2.892802 -5.816886
v 16.63599 2.938723 -5.654791
v 16.58951 2.857031 -5.638875
v 16.50328 2.992374 -5.69058
v 16.6358 3.033746 -5.680196
v 16.52528 3.042311 -5.98223
v 16.59364 3.135801 -5.830307
v 16.48371 3.079131 -5.861821
v 16.44348 3.052661 -5.785351
v 16.6636 3.136027 -5.937563
v 16.7212 3.033639 -6.014504
v 16.60728 2.980496 -6.029208
v 16.80239 3.0407 -5.904764
v 16.70589 3.100228 -5.8231
v 16.67279 3.084329 -5.730374
v 16.75002 3.094226 -5.76857
v 16.80026 3.044923 -5.835821
v 16.58909 3.096959 -5.692775
v 16.48455 3.044645 -5.733024
v 16.50328 2.992374 -5.69058
v 16.80821 3.048326 -5.756129
v 16.79785 2.986814 -5.765477
v 16.73708 3.023419 -5.687122
v 16.7493 3.062052 -5.714602
v 16.85755 2.975323 -5.876444
v 16.6358 3.033746 -5.680196
v 16.76333 2.973175 -5.98681
v 16.69283 2.987039 -5.637052
v 16.74651 2.978869 -6.045118
v 16.71655 2.915885 -6.000406
v 16.66347 2.961319 -6.070006
v 16.64278 2.939178 -6.045504
v 16.40802 2.927887 -5.658921
v 16.28838 2.917253 -5.648182
v 16.38047 2.972618 -5.635924
v 16.30318 3.020414 -5.666386
v 16.23023 2.950959 -5.733471
v 16.25406 2.879979 -5.750186
v 16.32682 2.863564 -5.688133
v 16.42817 2.899357 -5.731478
v 16.47828 2.945201 -5.694394
v 16.42736 2.912705 -5.568414
v 16.48492 2.952123 -5.587602
v 16.426 2.986156 -5.566505
v 16.47076 3.040464 -5.654277
v 16.50328 2.992374 -5.69058
v 16.48455 3.044645 -5.733024
v 16.38 3.078973 -5.760485
v 16.40315 3.039331 -5.671412
v 16.29634 3.051943 -5.767117
v 16.35256 3.041394 -5.846848
v 16.24546 2.96739 -5.817146
v 16.31503 2.97314 -5.866983
v 16.28616 2.89501 -5.827532
v 16.42373 3.022387 -5.874371
v 16.44348 3.052661 -5.785351
v 16.30236 2.978612 -5.945436
v 16.32221 2.90433 -5.944424
v 16.36151 2.956423 -5.966822
v 16.3656 3.045731 -5.888445
v 16.41751 2.955126 -5.903543
v 16.36855 2.935323 -5.860167
v 16.39598 2.892802 -5.816886
v 16.33409 2.855525 -5.770788
v 16.41751 2.955126 -5.903543
v 16.42373 3.022387 -5.874371
vt 0.497016 0.9733425
vt 0.4948352 0.9720853
vt 0.4953181 0.9728737
vt 0.4970185 0.9747004
vt 0.4951356 0.9758675
vt 0.4936721 0.9746318
vt 0.4949095 0.9722933
vt 0.4924422 0.9720341
vt 0.4943151 0.972479
vt 0.4896588 0.9736289
vt 0.4917827 0.9736743
vt 0.4909754 0.9747086
vt 0.4903753 0.9761861
vt 0.4924934 0.9726045
vt 0.4944687 0.973775
vt 0.4930382 0.9738625
vt 0.4925586 0.9738278
vt 0.4906196 0.9745848
vt 0.4894673 0.9752113
vt 0.4910711 0.9729405
vt 0.4924686 0.9763132
vt 0.4906023 0.9758328
vt 0.4960123 0.9732558
vt 0.4968451 0.9744849
vt 0.4960155 0.9753863
vt 0.4973833 0.974021
vt 0.4934014 0.9754565
vt 0.494179 0.9741985
vt 0.4956012 0.9761729
vt 0.493389 0.9769043
vt 0.4632477 0.9472071
vt 0.4797691 0.9484807
vt 0.4729773 0.9380504
vt 0.481358 0.9313064
vt 0.4732208 0.9584233
vt 0.4670654 0.9675305
vt 0.461851 0.9566742
vt 0.4787571 0.9715868
vt 0.4841844 0.9584621
vt 0.4910653 0.9552321
vt 0.4890587 0.9618596
vt 0.4860235 0.9691096
vt 0.4920576 0.9441009
vt 0.4858411 0.9344556
vt 0.4910249 0.9354312
vt 0.4913287 0.9662048
vt 0.4926296 0.9681099
vt 0.4960791 0.9600445
vt 0.4935466 0.9621188
vt 0.4837172 0.9765708
vt 0.4949573 0.9490165
vt 0.4722228 0.9704773
vt 0.5022337 0.9547343
vt 0.4650794 0.9711477
vt 0.465403 0.9707001
vt 0.4597627 0.9633843
vt 0.4618073 0.9604894
vt 0.4934385 0.9083821
vt 0.4904355 0.9002143
vt 0.494699 0.9059932
vt 0.4891388 0.9032519
vt 0.482191 0.8974085
vt 0.4815776 0.8991106
vt 0.4889241 0.9035062
vt 0.4878535 0.9137821
vt 0.4926626 0.9159102
vt 0.5010443 0.9024785
vt 0.5053135 0.9057729
vt 0.5017368 0.9030158
vt 0.4959685 0.9156551
vt 0.4929326 0.9174133
vt 0.4883348 0.9196305
vt 0.4836297 0.9129872
vt 0.4925834 0.9101584
vt 0.4807629 0.9053733
vt 0.4752753 0.9123649
vt 0.4760743 0.9011891
vt 0.4736096 0.908666
vt 0.4765787 0.9041005
vt 0.4749088 0.9190543
vt 0.4832459 0.9188628
vt 0.4648986 0.9023744
vt 0.4656424 0.9042615
vt 0.4596207 0.9091943
vt 0.4719298 0.9147034
vt 0.4724746 0.9182437
vt 0.4749831 0.9125869
vt 0.4796287 0.9131879
vt 0.4820291 0.9062003
vt 0.4696994 0.9347024
vt 0.4726636 0.9339198
vn -0.7235844 -0.6272651 -0.2880352
vn -0.2963764 -0.903543 -0.3094689
vn -0.5616285 -0.3010162 -0.7706897
vn -0.580472 -0.1274573 -0.804243
vn -0.4577511 0.5208906 -0.7205115
vn -0.2472421 0.3281115 -0.9117096
vn -0.1841151 -0.9662833 0.1799949
vn 0.229573 -0.8866184 -0.4015022
vn 0.04306059 -0.7136718 -0.6991555
vn 0.728303 -0.4905585 -0.4784632
vn 0.252694 -0.4602919 -0.8510447
vn 0.6408499 0.2627546 -0.7212984
vn 0.6635076 0.6770799 -0.3183089
vn 0.2469814 -0.9192441 0.3065786
vn -0.1937706 -0.8201344 0.5383608
vn 0.03312895 -0.539571 -0.841288
vn 0.2881183 -0.6423501 0.710193
vn 0.7287667 -0.3618004 0.5813772
vn 0.9990658 -0.0149929 0.04053111
vn 0.6483924 -0.7589957 0.05927084
vn 0.2700291 0.01296175 0.9627649
vn 0.843914 0.2204631 0.4890861
vn -0.4936944 -0.7655466 0.4125583
vn -0.09366027 -0.8304679 0.5491364
vn 0.0008180569 -0.4991404 0.8665208
vn -0.3284411 -0.8981438 -0.2923428
vn 0.02175367 -0.006831544 0.9997401
vn -0.04042368 -0.2485146 0.9677843
vn 0.2162113 0.2569843 0.9419192
vn -0.03477316 0.3746416 0.9265174
vn -0.4577511 0.5208906 -0.7205115
vn -0.2125746 0.977131 0.005202365
vn -0.4803421 0.8437153 -0.2396166
vn -0.1690942 0.9855744 0.007094629
vn 0.0571108 0.8910756 -0.4502474
vn 0.2322268 0.6357868 -0.7361017
vn -0.2472421 0.3281115 -0.9117096
vn 0.6635076 0.6770799 -0.3183089
vn 0.3873631 0.9166123 0.09885147
vn 0.2234836 0.861374 0.4561688
vn 0.3439825 0.9340026 0.0965149
vn 0.7360818 0.6744907 0.0569724
vn -0.1930641 0.7765173 0.5997893
vn -0.1975227 0.9062234 0.3738235
vn 0.2162113 0.2569843 0.9419192
vn 0.9059765 0.2934085 0.3051524
vn 0.843914 0.2204631 0.4890861
vn 0.5248947 0.3124205 0.7917569
vn 0.3162034 0.6575911 0.683805
vn 0.9990658 -0.0149929 0.04053111
vn -0.03477316 0.3746416 0.9265174
vn 0.6408499 0.2627546 -0.7212984
vn 0.2700291 0.01296175 0.9627649
vn 0.3506705 0.1484224 -0.9246626
vn 0.252694 -0.4602919 -0.8510447
vn 0.05757155 0.08885764 -0.9943791
vn 0.03312895 -0.539571 -0.841288
vn 0.1131323 -0.9066822 0.4063601
vn -0.5040305 -0.2314244 0.8321034
vn -0.4957859 0.1091351 0.8615602
vn -0.5124012 0.5910828 0.6229495
vn -0.9581465 0.1630516 0.2353073
vn -0.7353919 -0.677208 0.0242509
vn 0.01358516 -0.8780009 0.4784662
vn -0.09366027 -0.8304679 0.5491364
vn 0.0008180569 -0.4991404 0.8665208
vn -0.1167503 -0.8440264 0.5234394
vn 0.8444694 -0.2179943 0.4892342
vn -0.2077301 0.4945078 0.8439847
vn 0.4234274 0.8124501 0.4007918
vn 0.2162113 0.2569843 0.9419192
vn -0.1975227 0.9062234 0.3738235
vn -0.05978411 0.9978111 0.0282633
vn -0.1976717 0.8222195 0.5337425
vn -0.6011928 0.7970567 -0.05716446
vn -0.3637446 0.8536005 -0.3729023
vn -0.851289 0.2432034 -0.4649293
vn -0.9117309 0.01387508 -0.4105535
vn -0.4314131 -0.618232 -0.6570175
vn -0.31495 0.7487554 -0.5832424
vn -0.1690942 0.9855744 0.007094629
vn -0.7769569 0.3612694 -0.5155798
vn -0.3381981 -0.913807 -0.2248972
vn 0.336644 0.06429235 -0.9394346
vn 0.01376617 0.8705032 -0.4919701
vn -0.580472 -0.1274573 -0.804243
vn -0.07481378 -0.9205889 -0.3833001
vn -0.3284411 -0.8981438 -0.2923428
vn 0.08348995 -0.9806275 -0.1771978
vn -0.580472 -0.1274573 -0.804243
vn -0.31495 0.7487554 -0.5832424
g Sheep6_0
f 3/3/3 2/2/2 1/1/1
f 3/3/3 1/1/1 4/4/4
f 3/3/3 4/4/4 5/5/5
f 3/3/3 5/5/5 6/6/6
f 1/1/1 2/2/2 7/7/7
f 2/2/2 8/8/8 7/7/7
f 2/2/2 9/9/9 8/8/8
f 3/3/3 9/9/9 2/2/2
f 6/6/6 9/9/9 3/3/3
f 10/10/10 8/8/8 9/9/9
f 10/10/10 9/9/9 11/11/11
f 10/10/10 11/11/11 12/12/12
f 10/10/10 12/12/12 13/13/13
f 7/7/7 8/8/8 14/14/14
f 15/15/15 7/7/7 14/14/14
f 16/16/16 11/11/11 9/9/9
f 16/16/16 9/9/9 6/6/6
f 15/15/15 14/14/14 17/17/17
f 18/18/18 17/17/17 14/14/14
f 18/18/18 10/10/10 19/19/19
f 13/13/13 19/19/19 10/10/10
f 20/20/20 10/10/10 18/18/18
f 14/14/14 20/20/20 18/18/18
f 14/14/14 8/8/8 20/20/20
f 20/20/20 8/8/8 10/10/10
f 21/21/21 17/17/17 18/18/18
f 18/18/18 22/22/22 21/21/21
f 22/22/22 18/18/18 19/19/19
f 23/23/23 7/7/7 15/15/15
f 23/23/23 15/15/15 24/24/24
f 25/25/25 24/24/24 15/15/15
f 23/23/23 24/24/24 26/26/26
f 21/21/21 27/27/27 17/17/17
f 28/28/28 27/27/27 25/25/25
f 27/27/27 28/28/28 17/17/17
f 28/28/28 25/25/25 15/15/15
f 28/28/28 15/15/15 17/17/17
f 29/29/29 25/25/25 27/27/27
f 29/29/29 27/27/27 30/30/30
f 30/30/30 27/27/27 21/21/21
f 26/26/26 1/1/1 23/23/23
f 1/1/1 7/7/7 23/23/23
f 1/1/1 26/26/26 4/4/4
f 33/33/33 32/32/32 31/31/31
f 32/32/32 33/33/33 34/34/34
f 31/31/31 32/32/32 35/35/35
f 36/36/36 31/31/31 35/35/35
f 36/36/36 37/37/37 31/31/31
f 35/35/35 38/38/38 36/36/36
f 39/39/39 38/38/38 35/35/35
f 39/39/39 35/35/35 32/32/32
f 40/40/40 39/39/39 32/32/32
f 41/41/41 39/39/39 40/40/40
f 39/39/39 41/41/41 42/42/42
f 42/42/42 38/38/38 39/39/39
f 32/32/32 43/43/43 40/40/40
f 32/32/32 44/44/44 43/43/43
f 34/34/34 44/44/44 32/32/32
f 43/43/43 44/44/44 45/45/45
f 41/41/41 46/46/46 42/42/42
f 46/46/46 47/47/47 42/42/42
f 48/48/48 47/47/47 46/46/46
f 40/40/40 48/48/48 49/49/49
f 48/48/48 46/46/46 49/49/49
f 46/46/46 41/41/41 49/49/49
f 49/49/49 41/41/41 40/40/40
f 42/42/42 47/47/47 50/50/50
f 50/50/50 38/38/38 42/42/42
f 48/48/48 40/40/40 51/51/51
f 43/43/43 51/51/51 40/40/40
f 43/43/43 45/45/45 51/51/51
f 38/38/38 52/52/52 36/36/36
f 47/47/47 48/48/48 53/53/53
f 48/48/48 51/51/51 53/53/53
f 52/52/52 54/54/54 36/36/36
f 55/55/55 54/54/54 52/52/52
f 56/56/56 54/54/54 55/55/55
f 57/57/57 56/56/56 55/55/55
f 37/37/37 56/56/56 57/57/57
f 54/54/54 56/56/56 37/37/37
f 36/36/36 54/54/54 37/37/37
f 60/60/60 59/59/59 58/58/58
f 59/59/59 60/60/60 61/61/61
f 61/61/61 62/62/62 59/59/59
f 62/62/62 63/63/63 59/59/59
f 59/59/59 63/63/63 64/64/64
f 59/59/59 64/64/64 58/58/58
f 64/64/64 65/65/65 58/58/58
f 65/65/65 66/66/66 58/58/58
f 66/66/66 67/67/67 58/58/58
f 67/67/67 60/60/60 58/58/58
f 67/67/67 66/66/66 68/68/68
f 60/60/60 67/67/67 69/69/69
f 69/69/69 67/67/67 68/68/68
f 69/69/69 68/68/68 70/70/70
f 70/70/70 68/68/68 71/71/71
f 68/68/68 66/66/66 71/71/71
f 70/70/70 71/71/71 72/72/72
f 73/73/73 70/70/70 72/72/72
f 74/74/74 73/73/73 61/61/61
f 70/70/70 73/73/73 74/74/74
f 74/74/74 69/69/69 70/70/70
f 69/69/69 74/74/74 60/60/60
f 61/61/61 60/60/60 74/74/74
f 75/75/75 62/62/62 61/61/61
f 61/61/61 73/73/73 75/75/75
f 75/75/75 73/73/73 76/76/76
f 77/77/77 75/75/75 76/76/76
f 77/77/77 62/62/62 75/75/75
f 63/63/63 62/62/62 77/77/77
f 76/76/76 78/78/78 77/77/77
f 79/79/79 77/77/77 78/78/78
f 76/76/76 73/73/73 80/80/80
f 80/80/80 73/73/73 81/81/81
f 81/81/81 73/73/73 72/72/72
f 76/76/76 82/82/82 78/78/78
f 82/82/82 83/83/83 78/78/78
f 84/84/84 83/83/83 82/82/82
f 85/85/85 80/80/80 84/84/84
f 82/82/82 85/85/85 84/84/84
f 76/76/76 85/85/85 82/82/82
f 85/85/85 76/76/76 80/80/80
f 80/80/80 86/86/86 84/84/84
f 86/86/86 83/83/83 84/84/84
f 87/87/87 83/83/83 86/86/86
f 87/87/87 78/78/78 83/83/83
f 79/79/79 78/78/78 87/87/87
f 88/88/88 79/79/79 87/87/87
f 88/88/88 87/87/87 86/86/86
f 79/79/79 88/88/88 89/89/89
f 65/65/65 89/89/89 88/88/88
f 89/89/89 63/63/63 79/79/79
f 79/79/79 63/63/63 77/77/77
f 64/64/64 89/89/89 65/65/65
f 63/63/63 89/89/89 64/64/64
f 91/91/91 31/31/31 90/90/90
f 91/91/91 33/33/33 31/31/31
f 91/91/91 34/34/34 33/33/33
