g Sheep11
v -8.703456 3.218352 -14.68709
v -8.807874 3.163766 -14.77804
v -8.889454 3.237619 -14.68256
v -8.746987 3.31254 -14.64938
v -8.867548 3.408334 -14.69055
v -8.953033 3.35391 -14.74038
v -8.736753 3.155313 -14.82071
v -8.887002 3.174299 -14.8929
v -8.91211 3.216777 -14.73916
v -9.033464 3.302811 -14.97211
v -8.988824 3.30065 -14.85363
v -8.999976 3.362413 -14.89507
v -8.948645 3.434806 -14.96536
v -8.798055 3.182588 -14.94966
v -8.646375 3.218927 -14.90513
v -8.987145 3.315932 -14.76541
v -8.734387 3.240035 -14.98201
v -8.792974 3.296334 -15.07642
v -8.956229 3.375555 -15.03282
v -8.885308 3.223333 -14.98675
v -8.665691 3.375484 -15.01987
v -8.830151 3.38316 -15.04031
v -8.660692 3.196816 -14.78741
v -8.608823 3.261056 -14.75469
v -8.602244 3.312157 -14.81243
v -8.664413 3.249944 -14.68286
v -8.652402 3.321611 -14.96695
v -8.61729 3.236105 -14.94364
v -8.610525 3.361581 -14.83123
v -8.670363 3.415716 -14.94467
v -8.867548 3.408334 -14.69055
v -8.771552 3.510607 -14.82024
v -8.742139 3.443059 -14.71603
v -8.656991 3.414163 -14.72508
v -8.899487 3.515716 -14.82231
v -8.998937 3.418041 -14.83937
v -8.953033 3.35391 -14.74038
v -8.948645 3.434806 -14.96536
v -8.826167 3.486157 -14.92192
v -8.730633 3.468753 -14.94464
v -8.80353 3.485388 -14.98858
v -8.888927 3.44 -14.99974
v -8.653993 3.473901 -14.89289
v -8.634674 3.411056 -14.78818
v -8.610525 3.361581 -14.83123
v -8.825464 3.445537 -15.0484
v -8.830151 3.38316 -15.04031
v -8.730231 3.415088 -15.02731
v -8.758577 3.454237 -15.01952
v -8.956229 3.375555 -15.03282
v -8.670363 3.415716 -14.94467
v -8.999976 3.362413 -14.89507
v -8.665691 3.375484 -15.01987
v -9.040283 3.365444 -14.84944
v -8.988824 3.30065 -14.85363
v -9.018058 3.339536 -14.76784
v -8.987145 3.315932 -14.76541
v -8.535616 3.288766 -14.77359
v -8.463565 3.266829 -14.67941
v -8.499906 3.331023 -14.7585
v -8.483065 3.370605 -14.67285
v -8.503841 3.293282 -14.5821
v -8.533216 3.224652 -14.59978
v -8.519739 3.216413 -14.69551
v -8.608823 3.261056 -14.75469
v -8.602244 3.312157 -14.81243
v -8.469696 3.277094 -14.83928
v -8.514993 3.321542 -14.87404
v -8.464675 3.350093 -14.83246
v -8.560782 3.406933 -14.8187
v -8.610525 3.361581 -14.83123
v -8.634674 3.411056 -14.78818
v -8.601348 3.434657 -14.68237
v -8.539556 3.398987 -14.75273
v -8.563671 3.399573 -14.6108
v -8.661396 3.393112 -14.61686
v -8.582228 3.30965 -14.54907
v -8.661091 3.321218 -14.58076
v -8.615218 3.241364 -14.58444
v -8.723095 3.380584 -14.66398
v -8.656991 3.414163 -14.72508
v -8.720676 3.324077 -14.52797
v -8.73304 3.252085 -14.55199
v -8.770926 3.30733 -14.5685
v -8.7034 3.397964 -14.60539
v -8.746987 3.31254 -14.64938
v -8.685026 3.288864 -14.63292
v -8.664413 3.249944 -14.68286
v -8.593938 3.207677 -14.65853
v -8.746987 3.31254 -14.64938
v -8.723095 3.380584 -14.66398
vt 0.497016 0.9733425
vt 0.4948352 0.9720853
vt 0.4953181 0.9728737
vt 0.4970185 0.9747004
vt 0.4951356 0.9758675
vt 0.4936721 0.9746318
vt 0.4949095 0.9722933
vt 0.4924422 0.9720341
vt 0.4943151 0.972479
vt 0.4896588 0.9736289
vt 0.4917827 0.9736743
vt 0.4909754 0.9747086
vt 0.4903753 0.9761861
vt 0.4924934 0.9726045
vt 0.4944687 0.973775
vt 0.4930382 0.9738625
vt 0.4925586 0.9738278
vt 0.4906196 0.9745848
vt 0.4894673 0.9752113
vt 0.4910711 0.9729405
vt 0.4924686 0.9763132
vt 0.4906023 0.9758328
vt 0.4960123 0.9732558
vt 0.4968451 0.9744849
vt 0.4960155 0.9753863
vt 0.4973833 0.974021
vt 0.4934014 0.9754565
vt 0.494179 0.9741985
vt 0.4956012 0.9761729
vt 0.493389 0.9769043
vt 0.4632477 0.9472071
vt 0.4797691 0.9484807
vt 0.4729773 0.9380504
vt 0.481358 0.9313064
vt 0.4732208 0.9584233
vt 0.4670654 0.9675305
vt 0.461851 0.9566742
vt 0.4787571 0.9715868
vt 0.4841844 0.9584621
vt 0.4910653 0.9552321
vt 0.4890587 0.9618596
vt 0.4860235 0.9691096
vt 0.4920576 0.9441009
vt 0.4858411 0.9344556
vt 0.4910249 0.9354312
vt 0.4913287 0.9662048
vt 0.4926296 0.9681099
vt 0.4960791 0.9600445
vt 0.4935466 0.9621188
vt 0.4837172 0.9765708
vt 0.4949573 0.9490165
vt 0.4722228 0.9704773
vt 0.5022337 0.9547343
vt 0.4650794 0.9711477
vt 0.465403 0.9707001
vt 0.4597627 0.9633843
vt 0.4618073 0.9604894
vt 0.4934385 0.9083821
vt 0.4904355 0.9002143
vt 0.494699 0.9059932
vt 0.4891388 0.9032519
vt 0.482191 0.8974085
vt 0.4815776 0.8991106
vt 0.4889241 0.9035062
vt 0.4878535 0.9137821
vt 0.4926626 0.9159102
vt 0.5010443 0.9024785
vt 0.5053135 0.9057729
vt 0.5017368 0.9030158
vt 0.4959685 0.9156551
vt 0.4929326 0.9174133
vt 0.4883348 0.9196305
vt 0.4836297 0.9129872
vt 0.4925834 0.9101584
vt 0.4807629 0.9053733
vt 0.4752753 0.9123649
vt 0.4760743 0.9011891
vt 0.4736096 0.908666
vt 0.4765787 0.9041005
vt 0.4749088 0.9190543
vt 0.4832459 0.9188628
vt 0.4648986 0.9023744
vt 0.4656424 0.9042615
vt 0.4596207 0.9091943
vt 0.4719298 0.9147034
vt 0.4724746 0.9182437
vt 0.4749831 0.9125869
vt 0.4796287 0.9131879
vt 0.4820291 0.9062003
vt 0.4696994 0.9347024
vt 0.4726636 0.9339198
vn 0.1160021 -0.6990425 0.7056082
vn -0.138405 -0.9331565 0.3317574
vn -0.3669071 -0.3671292 0.8547487
vn -0.3790263 -0.1967973 0.9042177
vn -0.3493571 0.4617146 0.8153338
vn -0.6299006 0.2868553 0.7217612
vn 0.214745 -0.9762641 -0.02815741
vn -0.4942199 -0.8671797 -0.06120528
vn -0.6414583 -0.7182258 0.2695977
vn -0.8090121 -0.4262501 -0.4047349
vn -0.8719233 -0.4484802 0.1965079
vn -0.9410289 0.3107795 -0.1337193
vn -0.5963182 0.7322937 -0.3288625
vn 0.09553652 -0.8856695 -0.4543812
vn 0.5289409 -0.8255265 -0.1967928
vn -0.7503188 -0.5483863 0.3691802
vn 0.4259757 -0.5991324 -0.677927
vn 0.09376311 -0.2796656 -0.9555081
vn -0.4950834 0.08218499 -0.8649496
vn -0.3207211 -0.6917732 -0.6469837
vn 0.6735585 0.05567452 -0.7370341
vn -0.02416719 0.3092896 -0.9506608
vn 0.583076 -0.8023199 0.127692
vn 0.4846989 -0.8259691 -0.2878228
vn 0.7157987 -0.4816092 -0.5056527
vn -0.1067221 -0.9305782 0.3501923
vn 0.8356124 0.01266749 -0.5491734
vn 0.8326157 -0.2344033 -0.5018029
vn 0.6932911 0.2929522 -0.6584272
vn 0.8174031 0.385578 -0.4279976
vn -0.3493571 0.4617146 0.8153338
vn 0.1526267 0.9520123 0.265288
vn 0.08200099 0.7891526 0.6086987
vn 0.1315104 0.9646438 0.2284018
vn -0.379319 0.8844755 0.2716988
vn -0.7236324 0.6423461 0.2524829
vn -0.6299006 0.2868553 0.7217612
vn -0.5963182 0.7322937 -0.3288625
vn -0.08780566 0.9512815 -0.2955562
vn 0.2997891 0.8867086 -0.3519581
vn -0.06618269 0.9643633 -0.2561705
vn -0.3167506 0.7432294 -0.5893039
vn 0.6389473 0.7645678 -0.08474914
vn 0.4545124 0.8892994 0.05064695
vn 0.6932911 0.2929522 -0.6584272
vn -0.2102476 0.3846711 -0.8987904
vn -0.02416719 0.3092896 -0.9506608
vn 0.4046225 0.3753147 -0.8339183
vn 0.4362144 0.6968133 -0.5693576
vn -0.4950834 0.08218499 -0.8649496
vn 0.8174031 0.385578 -0.4279976
vn -0.9410289 0.3107795 -0.1337193
vn 0.6735585 0.05567452 -0.7370341
vn -0.9639583 0.165476 0.2083314
vn -0.8719233 -0.4484802 0.1965079
vn -0.8700652 0.0767226 0.4869294
vn -0.7503188 -0.5483863 0.3691802
vn 0.2514319 -0.8843457 -0.3933379
vn 0.963662 -0.2644756 -0.03752568
vn 0.9967023 0.07574491 -0.02910643
vn 0.8208542 0.5496267 0.1552698
vn 0.7126292 0.07392171 0.6976354
vn 0.3851299 -0.7444637 0.5453886
vn 0.3662905 -0.8641496 -0.345075
vn 0.4846989 -0.8259691 -0.2878228
vn 0.7157987 -0.4816092 -0.5056527
vn 0.4746536 -0.8421299 -0.2559716
vn -0.04034988 -0.1269834 -0.9910837
vn 0.843387 0.4867496 -0.2275373
vn 0.1452202 0.8563422 -0.4955697
vn 0.6932911 0.2929522 -0.6584272
vn 0.4545124 0.8892994 0.05064695
vn 0.09203725 0.9877316 0.1261568
vn 0.587075 0.8084591 -0.04167579
vn 0.2989241 0.7342304 0.609549
vn -0.09233516 0.8079319 0.5819969
vn 0.06547364 0.1518345 0.9862351
vn 0.1351634 -0.08126718 0.987485
vn -0.3510704 -0.6682838 0.6558555
vn -0.3002831 0.7046455 0.6428879
vn 0.1315104 0.9646438 0.2284018
vn -0.01251525 0.2756184 0.9611857
vn -0.04497017 -0.9459353 0.3212228
vn -0.9721286 0.08013458 0.2203277
vn -0.3924819 0.8591045 0.3284774
vn -0.3790263 -0.1967973 0.9042177
vn -0.3188973 -0.9300281 0.182626
vn -0.1067221 -0.9305782 0.3501923
vn -0.2301986 -0.9709314 -0.06558215
vn -0.3790263 -0.1967973 0.9042177
vn -0.3002831 0.7046455 0.6428879
g Sheep11_0
f 3/3/3 2/2/2 1/1/1
f 3/3/3 1/1/1 4/4/4
f 3/3/3 4/4/4 5/5/5
f 3/3/3 5/5/5 6/6/6
f 1/1/1 2/2/2 7/7/7
f 2/2/2 8/8/8 7/7/7
f 2/2/2 9/9/9 8/8/8
f 3/3/3 9/9/9 2/2/2
f 6/6/6 9/9/9 3/3/3
f 10/10/10 8/8/8 9/9/9
f 10/10/10 9/9/9 11/11/11
f 10/10/10 11/11/11 12/12/12
f 10/10/10 12/12/12 13/13/13
f 7/7/7 8/8/8 14/14/14
f 15/15/15 7/7/7 14/14/14
f 16/16/16 11/11/11 9/9/9
f 16/16/16 9/9/9 6/6/6
f 15/15/15 14/14/14 17/17/17
f 18/18/18 17/17/17 14/14/14
f 18/18/18 10/10/10 19/19/19
f 13/13/13 19/19/19 10/10/10
f 20/20/20 10/10/10 18/18/18
f 14/14/14 20/20/20 18/18/18
f 14/14/14 8/8/8 20/20/20
f 20/20/20 8/8/8 10/10/10
f 21/21/21 17/17/17 18/18/18
f 18/18/18 22/22/22 21/21/21
f 22/22/22 18/18/18 19/19/19
f 23/23/23 7/7/7 15/15/15
f 23/23/23 15/15/15 24/24/24
f 25/25/25 24/24/24 15/15/15
f 23/23/23 24/24/24 26/26/26
f 21/21/21 27/27/27 17/17/17
f 28/28/28 27/27/27 25/25/25
f 27/27/27 28/28/28 17/17/17
f 28/28/28 25/25/25 15/15/15
f 28/28/28 15/15/15 17/17/17
f 29/29/29 25/25/25 27/27/27
f 29/29/29 27/27/27 30/30/30
f 30/30/30 27/27/27 21/21/21
f 26/26/26 1/1/1 23/23/23
f 1/1/1 7/7/7 23/23/23
f 1/1/1 26/26/26 4/4/4
f 33/33/33 32/32/32 31/31/31
f 32/32/32 33/33/33 34/34/34
f 31/31/31 32/32/32 35/35/35
f 36/36/36 31/31/31 35/35/35
f 36/36/36 37/37/37 31/31/31
f 35/35/35 38/38/38 36/36/36
f 39/39/39 38/38/38 35/35/35
f 39/39/39 35/35/35 32/32/32
f 40/40/40 39/39/39 32/32/32
f 41/41/41 39/39/39 40/40/40
f 39/39/39 41/41/41 42/42/42
f 42/42/42 38/38/38 39/39/39
f 32/32/32 43/43/43 40/40/40
f 32/32/32 44/44/44 43/43/43
f 34/34/34 44/44/44 32/32/32
f 43/43/43 44/44/44 45/45/45
f 41/41/41 46/46/46 42/42/42
f 46/46/46 47/47/47 42/42/42
f 48/48/48 47/47/47 46/46/46
f 40/40/40 48/48/48 49/49/49
f 48/48/48 46/46/46 49/49/49
f 46/46/46 41/41/41 49/49/49
f 49/49/49 41/41/41 40/40/40
f 42/42/42 47/47/47 50/50/50
f 50/50/50 38/38/38 42/42/42
f 48/48/48 40/40/40 51/51/51
f 43/43/43 51/51/51 40/40/40
f 43/43/43 45/45/45 51/51/51
f 38/38/38 52/52/52 36/36/36
f 47/47/47 48/48/48 53/53/53
f 48/48/48 51/51/51 53/53/53
f 52/52/52 54/54/54 36/36/36
f 55/55/55 54/54/54 52/52/52
f 56/56/56 54/54/54 55/55/55
f 57/57/57 56/56/56 55/55/55
f 37/37/37 56/56/56 57/57/57
f 54/54/54 56/56/56 37/37/37
f 36/36/36 54/54/54 37/37/37
f 60/60/60 59/59/59 58/58/58
f 59/59/59 60/60/60 61/61/61
f 61/61/61 62/62/62 59/59/59
f 62/62/62 63/63/63 59/59/59
f 59/59/59 63/63/63 64/64/64
f 59/59/59 64/64/64 58/58/58
f 64/64/64 65/65/65 58/58/58
f 65/65/65 66/66/66 58/58/58
f 66/66/66 67/67/67 58/58/58
f 67/67/67 60/60/60 58/58/58
f 67/67/67 66/66/66 68/68/68
f 60/60/60 67/67/67 69/69/69
f 69/69/69 67/67/67 68/68/68
f 69/69/69 68/68/68 70/70/70
f 70/70/70 68/68/68 71/71/71
f 68/68/68 66/66/66 71/71/71
f 70/70/70 71/71/71 72/72/72
f 73/73/73 70/70/70 72/72/72
f 74/74/74 73/73/73 61/61/61
f 70/70/70 73/73/73 74/74/74
f 74/74/74 69/69/69 70/70/70
f 69/69/69 74/74/74 60/60/60
f 61/61/61 60/60/60 74/74/74
f 75/75/75 62/62/62 61/61/61
f 61/61/61 73/73/73 75/75/75
f 75/75/75 73/73/73 76/76/76
f 77/77/77 75/75/75 76/76/76
f 77/77/77 62/62/62 75/75/75
f 63/63/63 62/62/62 77/77/77
f 76/76/76 78/78/78 77/77/77
f 79/79/79 77/77/77 78/78/78
f 76/76/76 73/73/73 80/80/80
f 80/80/80 73/73/73 81/81/81
f 81/81/81 73/73/73 72/72/72
f 76/76/76 82/82/82 78/78/78
f 82/82/82 83/83/83 78/78/78
f 84/84/84 83/83/83 82/82/82
f 85/85/85 80/80/80 84/84/84
f 82/82/82 85/85/85 84/84/84
f 76/76/76 85/85/85 82/82/82
f 85/85/85 76/76/76 80/80/80
f 80/80/80 86/86/86 84/84/84
f 86/86/86 83/83/83 84/84/84
f 87/87/87 83/83/83 86/86/86
f 87/87/87 78/78/78 83/83/83
f 79/79/79 78/78/78 87/87/87
f 88/88/88 79/79/79 87/87/87
f 88/88/88 87/87/87 86/86/86
f 79/79/79 88/88/88 89/89/89
f 65/65/65 89/89/89 88/88/88
f 89/89/89 63/63/63 79/79/79
f 79/79/79 63/63/63 77/77/77
f 64/64/64 89/89/89 65/65/65
f 63/63/63 89/89/89 64/64/64
f 91/91/91 31/31/31 90/90/90
f 91/91/91 33/33/33 31/31/31
f 91/91/91 34/34/34 33/33/33
