g SmallCloud6
v -6.110498 7.687675 -12.94314
v -6.361299 7.637512 -12.76851
v -6.334209 7.754641 -13.04083
v -6.797041 7.695585 -12.94451
v -6.654658 7.723039 -13.13832
v -7.050879 7.600222 -13.12668
v -6.807724 7.57231 -12.74078
v -6.59291 7.411986 -12.59645
v -6.108096 7.428114 -12.66582
v -5.850898 7.563757 -12.90686
v -6.418105 7.170962 -12.52346
v -6.88792 7.212881 -12.54877
v -6.913447 6.878469 -12.54309
v -6.312568 6.782157 -12.5524
v -5.964844 7.152604 -12.62679
v -7.279033 7.010737 -12.64
v -7.311377 6.815291 -12.70418
v -7.504902 7.009738 -12.82426
v -7.389394 7.206145 -12.75787
v -7.133613 7.372297 -12.67558
v -7.072832 7.594133 -12.89769
v -7.351133 7.39873 -12.89742
v -7.322305 7.436894 -13.09304
v -7.437812 6.688135 -12.9105
v -6.686396 6.629747 -12.61278
v -7.154287 6.618231 -12.74062
v -6.835938 6.439641 -12.81203
v -6.511201 6.36239 -12.65956
v -6.628388 6.223973 -12.88829
v -6.282793 6.596666 -12.5482
v -7.16502 6.500005 -12.92952
v -5.965976 6.84771 -12.65524
v -6.006143 6.540833 -12.65265
v -5.717461 6.60397 -12.8618
v -5.638594 6.969963 -12.79429
v -5.288877 6.769311 -12.78447
v -5.36541 6.493469 -12.88175
v -5.028457 6.57457 -12.91209
v -6.03917 6.283127 -12.77896
v -5.062431 6.414146 -13.03621
v -4.751396 6.610734 -13.16763
v -4.960097 6.397159 -13.23434
v -5.71498 6.425972 -13.01177
v -5.319424 6.303664 -13.12248
v -6.230303 6.41014 -12.61274
v -6.361084 6.206246 -12.77596
v -5.164717 6.977113 -12.80272
v -5.564277 7.180418 -12.85369
v -5.15624 7.239234 -12.92116
v -5.531562 7.321727 -12.9607
v -5.84541 7.36387 -12.74568
v -4.873525 7.024209 -12.9453
v -4.896318 6.742937 -12.91381
v -4.68497 6.94151 -13.15859
v -5.117412 7.370423 -13.10408
v -4.835049 7.161482 -13.06504
v -4.83834 7.253214 -13.23686
v -5.140595 7.407887 -13.28155
v -5.523164 7.401028 -13.09592
v -5.88208 7.639836 -13.10958
v -5.824619 6.67839 -13.48594
v -5.545596 6.719656 -13.61954
v -5.79708 7.077441 -13.5144
v -6.103359 7.112172 -13.56107
v -6.187744 6.566507 -13.58218
v -5.362685 6.511206 -13.60058
v -5.956162 7.378353 -13.48213
v -5.64082 7.312423 -13.41415
v -5.258018 7.213348 -13.60309
v -5.434736 6.95791 -13.6685
v -5.263838 7.382905 -13.40403
v -5.561543 7.412553 -13.25521
v -5.973877 7.623601 -13.28993
v -5.88208 7.639836 -13.10958
v -6.334209 7.754641 -13.04083
v -4.958115 7.248363 -13.46517
v -6.348115 7.501111 -13.46548
v -6.366572 7.268366 -13.54597
v -6.432138 7.683242 -13.27985
v -6.848086 7.549655 -13.34802
v -6.805869 7.249809 -13.49942
v -5.523164 7.401028 -13.09592
v -5.140595 7.407887 -13.28155
v -4.83834 7.253214 -13.23686
v -7.2225 7.330308 -13.31844
v -7.13413 7.092349 -13.40772
v -6.915742 6.892068 -13.49064
v -6.447813 7.009973 -13.56541
v -7.050879 7.600222 -13.12668
v -6.654658 7.723039 -13.13832
v -4.757705 7.088765 -13.39146
v -4.68497 6.94151 -13.15859
v -6.610507 6.751831 -13.51667
v -6.475449 6.484676 -13.55816
v -6.189101 6.328691 -13.49992
v -5.780019 6.501297 -13.41312
v -6.47082 6.265062 -13.41965
v -6.794326 6.567194 -13.40323
v -6.6475 6.279287 -13.32748
v -7.118437 6.638937 -13.32516
v -7.217734 6.858226 -13.37531
v -7.477939 6.800039 -13.15093
v -7.23459 6.532207 -13.12092
v -7.437812 6.688135 -12.9105
v -7.554101 6.957336 -12.95764
v -7.514658 7.125511 -13.11804
v -7.39374 7.038278 -13.272
v -7.506728 7.223541 -12.95228
v -7.322305 7.436894 -13.09304
v -6.865019 6.439423 -13.24494
v -6.88413 6.37538 -13.04786
v -6.629971 6.181172 -13.10492
v -7.16502 6.500005 -12.92952
v -6.835938 6.439641 -12.81203
v -6.628388 6.223973 -12.88829
v -6.426719 6.119804 -12.95914
v -6.426123 6.126139 -13.22454
v -6.361084 6.206246 -12.77596
v -6.079043 6.148558 -12.97923
v -6.03917 6.283127 -12.77896
v -5.71498 6.425972 -13.01177
v -5.740654 6.370254 -13.16765
v -5.319424 6.303664 -13.12248
v -5.321113 6.289229 -13.30062
v -4.960097 6.397159 -13.23434
v -6.262412 6.100737 -13.1082
v -5.046377 6.415959 -13.43949
v -6.041103 6.164571 -13.18696
v -6.153838 6.194719 -13.36206
v -5.755283 6.402953 -13.3017
v -5.392646 6.364518 -13.45374
v -5.015547 6.647456 -13.6168
v -5.212578 6.843945 -13.70027
v -4.923183 7.015154 -13.59577
v -4.841895 6.71714 -13.53244
v -4.725371 6.904986 -13.44133
v -4.687754 6.751498 -13.32307
v -4.864433 6.519007 -13.40406
v -4.751396 6.610734 -13.16763
v -7.506728 7.223541 -12.95228
v -7.554101 6.957336 -12.95764
vt 0.9076851 0.3180773
vt 0.8961093 0.3149762
vt 0.8951829 0.3226818
vt 0.8720327 0.3202251
vt 0.8781492 0.3224064
vt 0.8573937 0.3169295
vt 0.8728586 0.3128989
vt 0.8846271 0.3040658
vt 0.9097513 0.3035031
vt 0.9213037 0.3109011
vt 0.893827 0.2924831
vt 0.8689939 0.2948385
vt 0.867053 0.2790716
vt 0.8989251 0.2745676
vt 0.9170991 0.2904667
vt 0.8482983 0.2848226
vt 0.8463334 0.2753634
vt 0.8357296 0.2859904
vt 0.8421435 0.295292
vt 0.8560212 0.302885
vt 0.857871 0.3151703
vt 0.8434698 0.3056149
vt 0.8437349 0.3087921
vt 0.8386825 0.2704781
vt 0.8787224 0.267581
vt 0.8540925 0.2661962
vt 0.8699904 0.2585186
vt 0.8879911 0.2539757
vt 0.8805294 0.2482697
vt 0.9003991 0.2660541
vt 0.852382 0.2614935
vt 0.9166301 0.2769292
vt 0.9145076 0.2624025
vt 0.9279701 0.2657299
vt 0.9323626 0.2819778
vt 0.9505035 0.2707322
vt 0.9458589 0.2588713
vt 0.9629928 0.2619353
vt 0.9121321 0.2500684
vt 0.9602396 0.2553093
vt 0.9750664 0.2651764
vt 0.9637712 0.2558856
vt 0.9268742 0.2583296
vt 0.9463461 0.2516127
vt 0.9030372 0.2562119
vt 0.8954223 0.246282
vt 0.9565077 0.2805468
vt 0.9358595 0.2915866
vt 0.9559171 0.2941474
vt 0.9367747 0.2985457
vt 0.9225966 0.3004001
vt 0.9703206 0.2836475
vt 0.969602 0.2698227
vt 0.9781801 0.2809157
vt 0.9564383 0.3018001
vt 0.9713791 0.2912029
vt 0.9697604 0.2968442
vt 0.9537315 0.3047611
vt 0.9361997 0.3031403
vt 0.9179599 0.3162717
vt 0.8327799 0.2753804
vt 0.8339407 0.2755973
vt 0.8328943 0.2770506
vt 0.8315288 0.2772546
vt 0.8311038 0.2750339
vt 0.8347737 0.2746918
vt 0.832226 0.2782975
vt 0.8336685 0.2779495
vt 0.8352385 0.277599
vt 0.8344067 0.2765987
vt 0.8353545 0.2781968
vt 0.8341469 0.2782677
vt 0.8322967 0.2792131
vt 0.8328411 0.2791734
vt 0.830893 0.279661
vt 0.8366322 0.2776442
vt 0.8305285 0.2788358
vt 0.8303642 0.2779279
vt 0.8302929 0.2794991
vt 0.8284734 0.2790075
vt 0.8285255 0.2778584
vt 0.8344441 0.2781227
vt 0.8359783 0.2782255
vt 0.8373305 0.2775249
vt 0.8268816 0.2781104
vt 0.8271759 0.2771804
vt 0.8280646 0.2763836
vt 0.8300099 0.2768774
vt 0.8277303 0.2791123
vt 0.829456 0.2795983
vt 0.837559 0.2769163
vt 0.8380655 0.2761461
vt 0.8293447 0.2757945
vt 0.8299462 0.274689
vt 0.8311884 0.2739791
vt 0.8330273 0.2745872
vt 0.8300635 0.273674
vt 0.8286668 0.2749571
vt 0.8293685 0.2736804
vt 0.8273369 0.2752281
vt 0.8268758 0.276185
vt 0.8259007 0.2758099
vt 0.8269691 0.2746426
vt 0.8262045 0.2751667
vt 0.8256685 0.2763472
vt 0.8257496 0.2771553
vt 0.8261769 0.2768821
vt 0.8258697 0.2774617
vt 0.826588 0.2784278
vt 0.8284711 0.2743139
vt 0.8285168 0.2738972
vt 0.829596 0.2730926
vt 0.8273772 0.2743594
vt 0.8288832 0.2739809
vt 0.829747 0.2731009
vt 0.8305809 0.272694
vt 0.8303922 0.2729365
vt 0.8309814 0.2729119
vt 0.8320726 0.272799
vt 0.8323916 0.2732097
vt 0.8336558 0.2739574
vt 0.8334091 0.2738459
vt 0.8353149 0.2734779
vt 0.8351802 0.273546
vt 0.8368006 0.2739185
vt 0.8311814 0.2727197
vt 0.8362695 0.2741497
vt 0.8320733 0.2730315
vt 0.8314514 0.2733088
vt 0.8332329 0.2740879
vt 0.834744 0.2739833
vt 0.8362703 0.2752328
vt 0.8353646 0.2761188
vt 0.8366838 0.2767434
vt 0.8370831 0.2754535
vt 0.8376597 0.2761723
vt 0.8379188 0.2754484
vt 0.8370853 0.2745405
vt 0.8377666 0.2747558
vt 0.8349961 0.2974711
vt 0.8324567 0.2843476
vn 0.2553723 0.8911594 0.3749934
vn 0.07241455 0.758296 0.647876
vn 0.05887831 0.9969312 0.05159022
vn -0.1867947 0.947289 0.2602909
vn -0.1792746 0.9484822 -0.2612321
vn -0.4253276 0.839905 -0.337129
vn -0.1581178 0.7045958 0.6917684
vn -0.01441293 0.4624795 0.8865128
vn 0.2390756 0.4818538 0.8430064
vn 0.4473863 0.7293649 0.5175638
vn 0.08918984 0.09816043 0.9911658
vn -0.1580722 0.1959492 0.9677898
vn -0.1506524 -0.1789994 0.9722464
vn 0.09498484 -0.05472204 0.9939736
vn 0.3308093 0.0855503 0.9398119
vn -0.4127478 0.01823371 0.9106628
vn -0.4945769 -0.3519074 0.7947043
vn -0.8005783 -0.04307387 0.5976781
vn -0.6147861 0.3439038 0.7097663
vn -0.359454 0.4843235 0.7976363
vn -0.4175282 0.8397883 0.3470241
vn -0.6293207 0.6898019 0.3579508
vn -0.6502285 0.6901156 -0.3177158
vn -0.7514725 -0.6064091 0.2599173
vn -0.1873318 -0.386613 0.9030156
vn -0.3337256 -0.5887158 0.7362343
vn -0.3775374 -0.7014911 0.6044633
vn -0.2724176 -0.5106477 0.8154923
vn -0.4661613 -0.7778502 0.4214769
vn 0.05833547 -0.1311904 0.9896394
vn -0.4275124 -0.8598354 0.2791345
vn 0.410114 -0.1059858 0.9058551
vn 0.4994462 -0.2307168 0.8350587
vn 0.2833371 -0.3599033 0.8889262
vn 0.2193957 -0.0363372 0.974959
vn 0.06888024 -0.1603493 0.9846541
vn 0.0159232 -0.5779381 0.8159251
vn 0.3899287 -0.4593417 0.7980981
vn 0.4573647 -0.6543753 0.6021715
vn 0.3761327 -0.7596702 0.5304953
vn 0.8230395 -0.4647234 0.3265549
vn 0.5147662 -0.8549393 0.06398994
vn 0.2768509 -0.7864128 0.5521852
vn 0.03625139 -0.9269274 0.3734854
vn 0.1540905 -0.482939 0.8619896
vn -0.009724909 -0.7950737 0.6064349
vn 0.2165068 0.1888981 0.957832
vn 0.2661088 0.3343022 0.9041173
vn 0.2286972 0.5857279 0.7775734
vn 0.3294244 0.6753571 0.6598275
vn 0.4522502 0.4141274 0.7899166
vn 0.5730191 0.2247174 0.7881315
vn 0.5924064 -0.1771562 0.7859201
vn 0.9349706 0.09829493 0.3408345
vn 0.2765299 0.8705997 0.4069242
vn 0.6467694 0.5623524 0.5152175
vn 0.6788715 0.7338916 0.02316371
vn 0.2509205 0.9638215 -0.08992746
vn 0.3236537 0.9121067 0.2516141
vn 0.4126543 0.9098582 -0.04329418
vn -0.007132746 -0.152605 -0.9882615
vn -0.328319 -0.1725516 -0.9286724
vn -0.06691527 0.1587119 -0.9850547
vn 0.107701 0.07706373 -0.991192
vn 0.1259331 -0.1044697 -0.9865226
vn -0.07836153 -0.5030628 -0.8606901
vn 0.1943359 0.4408013 -0.8763148
vn 0.02984623 0.6153958 -0.787653
vn 0.005517538 0.5289786 -0.8486173
vn -0.2348263 0.1836984 -0.9545216
vn 0.02717225 0.8581583 -0.5126655
vn 0.2447081 0.9126596 -0.3273686
vn 0.2451663 0.8106309 -0.5317622
vn 0.4126543 0.9098582 -0.04329418
vn 0.05887831 0.9969312 0.05159022
vn 0.4382145 0.6825572 -0.5848792
vn -0.01140028 0.5424684 -0.8399989
vn -0.03676343 0.2269315 -0.9732165
vn -0.009963511 0.8362365 -0.5482784
vn -0.2656545 0.614558 -0.7427961
vn -0.2152537 0.2412568 -0.946288
vn 0.3236537 0.9121067 0.2516141
vn 0.2509205 0.9638215 -0.08992746
vn 0.6788715 0.7338916 0.02316371
vn -0.4959356 0.4419035 -0.7475086
vn -0.3827128 0.1108933 -0.9171879
vn -0.2486459 -0.119745 -0.9611641
vn -0.08465058 0.03238238 -0.9958844
vn -0.4253276 0.839905 -0.337129
vn -0.1792746 0.9484822 -0.2612321
vn 0.8267128 0.441648 -0.3485582
vn 0.9349706 0.09829493 0.3408345
vn -0.2653566 -0.1152931 -0.9572321
vn -0.2411726 -0.2364242 -0.9412435
vn 0.188859 -0.5103018 -0.839002
vn 0.01542815 -0.5465316 -0.8372964
vn -0.2232801 -0.6741768 -0.7040113
vn -0.3892639 -0.4007894 -0.829362
vn -0.5238361 -0.6462534 -0.5549346
vn -0.4069295 -0.5197429 -0.7511828
vn -0.4676903 -0.2208999 -0.8558441
vn -0.7882037 -0.4076075 -0.461076
vn -0.5366194 -0.7711778 -0.3425265
vn -0.7514725 -0.6064091 0.2599173
vn -0.988487 -0.1454633 0.0416401
vn -0.857325 0.2530069 -0.4483094
vn -0.643759 0.06200989 -0.7627118
vn -0.8874015 0.448141 0.1081126
vn -0.6502285 0.6901156 -0.3177158
vn -0.472915 -0.7214428 -0.5058376
vn -0.4897219 -0.8718774 0.00151227
vn -0.5068608 -0.8574358 -0.08885932
vn -0.4275124 -0.8598354 0.2791345
vn -0.3775374 -0.7014911 0.6044633
vn -0.4661613 -0.7778502 0.4214769
vn -0.1374654 -0.9549273 0.2630914
vn -0.1757316 -0.9271798 -0.3308415
vn -0.009724909 -0.7950737 0.6064349
vn 0.3983047 -0.8703669 0.2895077
vn 0.4573647 -0.6543753 0.6021715
vn 0.2768509 -0.7864128 0.5521852
vn 0.2218263 -0.9737607 0.05082359
vn 0.03625139 -0.9269274 0.3734854
vn 0.03252722 -0.984848 -0.1703425
vn 0.5147662 -0.8549393 0.06398994
vn 0.08195692 -0.9948851 -0.0590465
vn 0.312905 -0.7750886 -0.5489337
vn 0.4439151 -0.8729765 -0.2021176
vn 0.2390901 -0.7917572 -0.5621002
vn 0.1128226 -0.8634946 -0.4915772
vn -0.1214684 -0.8029301 -0.5835655
vn 0.3065169 -0.3499362 -0.8852074
vn 0.09941528 -0.01454169 -0.9949398
vn 0.4122207 0.2456792 -0.8773345
vn 0.6309851 -0.2426056 -0.7368855
vn 0.8447238 0.08255382 -0.5287973
vn 0.9476384 -0.259991 -0.185435
vn 0.6704378 -0.6217639 -0.4048738
vn 0.8230395 -0.4647234 0.3265549
vn -0.8874015 0.448141 0.1081126
vn -0.988487 -0.1454633 0.0416401
g SmallCloud6_0
f 3/3/3 2/2/2 1/1/1
f 4/4/4 2/2/2 3/3/3
f 4/4/4 3/3/3 5/5/5
f 6/6/6 4/4/4 5/5/5
f 7/7/7 2/2/2 4/4/4
f 7/7/7 8/8/8 2/2/2
f 2/2/2 8/8/8 9/9/9
f 10/10/10 2/2/2 9/9/9
f 10/10/10 1/1/1 2/2/2
f 9/9/9 8/8/8 11/11/11
f 8/8/8 12/12/12 11/11/11
f 13/13/13 11/11/11 12/12/12
f 13/13/13 14/14/14 11/11/11
f 14/14/14 15/15/15 11/11/11
f 9/9/9 11/11/11 15/15/15
f 12/12/12 16/16/16 13/13/13
f 13/13/13 16/16/16 17/17/17
f 16/16/16 18/18/18 17/17/17
f 19/19/19 18/18/18 16/16/16
f 19/19/19 16/16/16 20/20/20
f 20/20/20 12/12/12 8/8/8
f 20/20/20 16/16/16 12/12/12
f 20/20/20 8/8/8 7/7/7
f 21/21/21 20/20/20 7/7/7
f 20/20/20 21/21/21 22/22/22
f 22/22/22 19/19/19 20/20/20
f 22/22/22 21/21/21 23/23/23
f 17/17/17 18/18/18 24/24/24
f 13/13/13 25/25/25 14/14/14
f 26/26/26 25/25/25 13/13/13
f 24/24/24 26/26/26 17/17/17
f 17/17/17 26/26/26 13/13/13
f 26/26/26 27/27/27 25/25/25
f 27/27/27 28/28/28 25/25/25
f 27/27/27 29/29/29 28/28/28
f 28/28/28 30/30/30 25/25/25
f 27/27/27 26/26/26 31/31/31
f 24/24/24 31/31/31 26/26/26
f 23/23/23 21/21/21 6/6/6
f 14/14/14 25/25/25 30/30/30
f 14/14/14 30/30/30 32/32/32
f 30/30/30 33/33/33 32/32/32
f 33/33/33 34/34/34 32/32/32
f 34/34/34 35/35/35 32/32/32
f 34/34/34 36/36/36 35/35/35
f 34/34/34 37/37/37 36/36/36
f 37/37/37 38/38/38 36/36/36
f 39/39/39 34/34/34 33/33/33
f 38/38/38 37/37/37 40/40/40
f 41/41/41 38/38/38 40/40/40
f 41/41/41 40/40/40 42/42/42
f 39/39/39 43/43/43 34/34/34
f 43/43/43 37/37/37 34/34/34
f 43/43/43 44/44/44 37/37/37
f 44/44/44 42/42/42 40/40/40
f 44/44/44 40/40/40 37/37/37
f 33/33/33 45/45/45 39/39/39
f 45/45/45 46/46/46 39/39/39
f 35/35/35 36/36/36 47/47/47
f 48/48/48 35/35/35 47/47/47
f 48/48/48 47/47/47 49/49/49
f 49/49/49 50/50/50 48/48/48
f 51/51/51 48/48/48 50/50/50
f 50/50/50 10/10/10 51/51/51
f 49/49/49 47/47/47 52/52/52
f 47/47/47 53/53/53 52/52/52
f 41/41/41 54/54/54 53/53/53
f 54/54/54 52/52/52 53/53/53
f 51/51/51 15/15/15 48/48/48
f 55/55/55 50/50/50 49/49/49
f 56/56/56 55/55/55 49/49/49
f 54/54/54 56/56/56 52/52/52
f 56/56/56 49/49/49 52/52/52
f 57/57/57 55/55/55 56/56/56
f 56/56/56 54/54/54 57/57/57
f 58/58/58 55/55/55 57/57/57
f 55/55/55 58/58/58 59/59/59
f 50/50/50 59/59/59 10/10/10
f 55/55/55 59/59/59 50/50/50
f 15/15/15 35/35/35 48/48/48
f 60/60/60 10/10/10 59/59/59
f 32/32/32 35/35/35 15/15/15
f 32/32/32 15/15/15 14/14/14
f 60/60/60 1/1/1 10/10/10
f 3/3/3 1/1/1 60/60/60
f 36/36/36 53/53/53 47/47/47
f 38/38/38 53/53/53 36/36/36
f 38/38/38 41/41/41 53/53/53
f 63/63/63 62/62/62 61/61/61
f 63/63/63 61/61/61 64/64/64
f 64/64/64 61/61/61 65/65/65
f 66/66/66 61/61/61 62/62/62
f 63/63/63 64/64/64 67/67/67
f 68/68/68 63/63/63 67/67/67
f 63/63/63 68/68/68 69/69/69
f 70/70/70 63/63/63 69/69/69
f 70/70/70 62/62/62 63/63/63
f 68/68/68 71/71/71 69/69/69
f 68/68/68 72/72/72 71/71/71
f 68/68/68 73/73/73 72/72/72
f 67/67/67 73/73/73 68/68/68
f 73/73/73 74/74/74 72/72/72
f 75/75/75 74/74/74 73/73/73
f 69/69/69 71/71/71 76/76/76
f 77/77/77 73/73/73 67/67/67
f 67/67/67 78/78/78 77/77/77
f 67/67/67 64/64/64 78/78/78
f 77/77/77 79/79/79 73/73/73
f 75/75/75 73/73/73 79/79/79
f 80/80/80 79/79/79 77/77/77
f 81/81/81 80/80/80 77/77/77
f 77/77/77 78/78/78 81/81/81
f 74/74/74 82/82/82 72/72/72
f 83/83/83 72/72/72 82/82/82
f 71/71/71 83/83/83 76/76/76
f 72/72/72 83/83/83 71/71/71
f 76/76/76 83/83/83 84/84/84
f 81/81/81 85/85/85 80/80/80
f 85/85/85 81/81/81 86/86/86
f 81/81/81 87/87/87 86/86/86
f 88/88/88 87/87/87 81/81/81
f 78/78/78 88/88/88 81/81/81
f 80/80/80 85/85/85 89/89/89
f 89/89/89 90/90/90 80/80/80
f 75/75/75 79/79/79 90/90/90
f 80/80/80 90/90/90 79/79/79
f 76/76/76 84/84/84 91/91/91
f 92/92/92 91/91/91 84/84/84
f 88/88/88 93/93/93 87/87/87
f 88/88/88 94/94/94 93/93/93
f 94/94/94 88/88/88 65/65/65
f 65/65/65 95/95/95 94/94/94
f 65/65/65 96/96/96 95/95/95
f 94/94/94 95/95/95 97/97/97
f 93/93/93 94/94/94 98/98/98
f 93/93/93 98/98/98 87/87/87
f 98/98/98 94/94/94 99/99/99
f 94/94/94 97/97/97 99/99/99
f 98/98/98 100/100/100 87/87/87
f 101/101/101 87/87/87 100/100/100
f 102/102/102 101/101/101 100/100/100
f 102/102/102 100/100/100 103/103/103
f 102/102/102 103/103/103 104/104/104
f 104/104/104 105/105/105 102/102/102
f 106/106/106 102/102/102 105/105/105
f 106/106/106 107/107/107 102/102/102
f 107/107/107 101/101/101 102/102/102
f 85/85/85 107/107/107 106/106/106
f 108/108/108 106/106/106 105/105/105
f 109/109/109 106/106/106 108/108/108
f 85/85/85 106/106/106 109/109/109
f 100/100/100 110/110/110 103/103/103
f 99/99/99 110/110/110 98/98/98
f 98/98/98 110/110/110 100/100/100
f 110/110/110 111/111/111 103/103/103
f 110/110/110 99/99/99 111/111/111
f 99/99/99 112/112/112 111/111/111
f 111/111/111 113/113/113 103/103/103
f 103/103/103 113/113/113 104/104/104
f 111/111/111 114/114/114 113/113/113
f 111/111/111 115/115/115 114/114/114
f 112/112/112 115/115/115 111/111/111
f 85/85/85 109/109/109 89/89/89
f 86/86/86 107/107/107 85/85/85
f 101/101/101 107/107/107 86/86/86
f 86/86/86 87/87/87 101/101/101
f 116/116/116 115/115/115 112/112/112
f 117/117/117 116/116/116 112/112/112
f 117/117/117 112/112/112 99/99/99
f 115/115/115 116/116/116 118/118/118
f 119/119/119 118/118/118 116/116/116
f 120/120/120 118/118/118 119/119/119
f 119/119/119 121/121/121 120/120/120
f 119/119/119 122/122/122 121/121/121
f 121/121/121 122/122/122 123/123/123
f 124/124/124 123/123/123 122/122/122
f 124/124/124 125/125/125 123/123/123
f 119/119/119 116/116/116 126/126/126
f 126/126/126 116/116/116 117/117/117
f 127/127/127 125/125/125 124/124/124
f 119/119/119 126/126/126 128/128/128
f 128/128/128 122/122/122 119/119/119
f 128/128/128 126/126/126 129/129/129
f 129/129/129 126/126/126 117/117/117
f 129/129/129 130/130/130 128/128/128
f 130/130/130 124/124/124 122/122/122
f 122/122/122 128/128/128 130/130/130
f 96/96/96 130/130/130 129/129/129
f 131/131/131 130/130/130 96/96/96
f 131/131/131 124/124/124 130/130/130
f 127/127/127 124/124/124 131/131/131
f 66/66/66 131/131/131 96/96/96
f 66/66/66 127/127/127 131/131/131
f 132/132/132 127/127/127 66/66/66
f 132/132/132 66/66/66 133/133/133
f 133/133/133 134/134/134 132/132/132
f 69/69/69 134/134/134 133/133/133
f 76/76/76 134/134/134 69/69/69
f 76/76/76 91/91/91 134/134/134
f 96/96/96 61/61/61 66/66/66
f 61/61/61 96/96/96 65/65/65
f 62/62/62 133/133/133 66/66/66
f 69/69/69 133/133/133 70/70/70
f 62/62/62 70/70/70 133/133/133
f 95/95/95 96/96/96 129/129/129
f 97/97/97 95/95/95 129/129/129
f 134/134/134 135/135/135 132/132/132
f 134/134/134 136/136/136 135/135/135
f 134/134/134 91/91/91 136/136/136
f 136/136/136 137/137/137 135/135/135
f 92/92/92 137/137/137 136/136/136
f 92/92/92 136/136/136 91/91/91
f 135/135/135 137/137/137 138/138/138
f 92/92/92 139/139/139 137/137/137
f 138/138/138 137/137/137 139/139/139
f 138/138/138 139/139/139 125/125/125
f 135/135/135 138/138/138 132/132/132
f 132/132/132 138/138/138 127/127/127
f 127/127/127 138/138/138 125/125/125
f 129/129/129 117/117/117 97/97/97
f 97/97/97 117/117/117 99/99/99
f 64/64/64 65/65/65 88/88/88
f 64/64/64 88/88/88 78/78/78
f 140/140/140 18/18/18 19/19/19
f 19/19/19 22/22/22 140/140/140
f 22/22/22 23/23/23 140/140/140
f 141/141/141 18/18/18 140/140/140
f 24/24/24 18/18/18 141/141/141
f 28/28/28 29/29/29 46/46/46
f 28/28/28 46/46/46 45/45/45
f 28/28/28 45/45/45 30/30/30
f 30/30/30 45/45/45 33/33/33
f 51/51/51 10/10/10 9/9/9
f 9/9/9 15/15/15 51/51/51
f 21/21/21 7/7/7 4/4/4
f 21/21/21 4/4/4 6/6/6
