g Tree2
v 0.122688 0.1902121 0.3501451
v 0.05776489 0.2619314 0.22041
v 0.1135059 0.03428039 0.3030095
v -0.05971435 0.3229223 0.3767284
v 0.01420166 0.4108987 0.2983565
v 0.01512695 0.5026755 0.1459517
v 0.1337268 0.4562564 0.0128511
v 0.1045666 0.09373932 0.2037428
v 0.1523645 0.3020923 0.1405809
v 0.287677 0.3984695 0.1851701
v 0.308894 0.1964902 0.1731898
v 0.4475476 0.289274 0.1167339
v 0.3091516 0.5054538 0.01794113
v 0.2671509 0.4574417 -0.1218089
v 0.1371167 0.5677719 -0.2309404
v 0.02728882 0.5083084 -0.1427708
v -0.00725708 0.6056882 0.0229863
v -0.06835693 0.5769776 -0.1104735
v -0.02456909 0.4724774 -0.2761723
v 0.4061829 0.4400558 -0.08259689
v 0.4103467 0.4429224 0.08624374
v 0.4910461 0.3121268 -0.01369766
v -0.1725818 0.450932 -0.1672505
v 0.2684558 0.4688574 -0.2909428
v 0.1220508 0.4621509 -0.3789052
v 0.3140869 0.3234555 -0.2015321
v 0.2097815 0.3018823 -0.3788493
v 0.05630859 0.3858536 -0.3944337
v 0.2566394 0.2080911 -0.1632249
v 0.1190503 0.2818115 -0.5173753
v -0.07622924 0.2979346 -0.4657234
v 0.006688232 0.1174915 -0.5201365
v 0.4280286 0.2681714 -0.1365059
v 0.1703064 0.06930267 -0.4627806
v 0.2448523 0.1887707 -0.3919264
v 0.3480786 0.03727875 -0.4400227
v -0.04122559 -0.04634918 -0.2988658
v -0.1683228 0.2324167 -0.4178419
v 0.103822 -0.09688903 -0.3002727
v 0.2425232 -0.108233 -0.4160948
v 0.2306494 -0.1549777 -0.2185283
v 0.3725024 -0.1173758 -0.3113567
v 0.4344189 0.06779968 -0.318604
v 0.3524829 0.1892581 -0.3193309
v 0.4160022 0.09060547 -0.1880824
v 0.3540625 0.05165527 -0.1041756
v 0.4008838 -0.06814667 -0.2077144
v 0.2803601 -0.09941528 -0.07679489
v 0.4036853 -0.005036621 0.05097305
v 0.2600671 -0.07143249 0.1535448
v 0.1349194 -0.2053317 -0.0009724426
v 0.1828833 -0.2610058 0.1889821
v -0.01669067 -0.2766251 0.1661397
v 0.05417358 -0.1900183 0.3348671
v -0.06705444 -0.1601794 0.03567367
v 0.05787353 -0.2183563 -0.1646889
v -0.1531775 -0.2950787 -0.07536057
v -0.1058289 -0.2078864 -0.2856105
v 0.1943848 -0.08873749 0.3072698
v 0.1997375 -0.2179944 -0.09060318
v 0.334956 0.07152527 0.1916106
v 0.4079871 0.1518622 0.05456924
v 0.3643445 0.1508896 -0.07657516
v 0.04350342 -0.040224 0.3525856
v -0.1869775 -0.04849548 -0.3090205
v -0.3298511 -0.1157352 -0.2451546
v -0.2239148 -0.2299411 -0.2367583
v -0.3810596 -0.0006234741 -0.3866267
v -0.4858716 0.03460388 -0.2733665
v -0.4348938 0.1831595 -0.324352
v -0.4601648 0.2048917 -0.2008488
v -0.4837732 0.3442035 -0.3106563
v -0.3611169 0.3270251 -0.4355308
v -0.3515662 0.4795163 -0.3231328
v -0.229552 0.3803845 -0.4121028
v -0.1879871 0.4829321 -0.2800469
v -0.3849097 0.4634112 -0.1659035
v -0.3366345 0.3545267 -0.06320602
v -0.2669543 0.4446341 0.04585586
v -0.4604736 0.3057556 -0.1504655
v -0.1933069 0.5823261 -0.03549057
v -0.4795789 0.02636078 -0.1310228
v -0.328352 -0.1007568 -0.1376173
v -0.3272949 0.1717081 -0.3882082
v -0.135177 0.09674499 -0.318232
v -0.2443201 0.05319153 -0.3908647
v -0.00725708 0.6056882 0.0229863
v -0.2768359 -0.2083585 -0.1020442
v -0.09997314 0.4528647 -0.3929356
v -0.3316687 0.3818308 0.1702064
v -0.2669543 0.4446341 0.04585586
v -0.2475488 0.5413705 0.2344356
v -0.4109326 0.3355911 0.03224503
v -0.3366345 0.3545267 -0.06320602
v -0.2758411 0.4191342 0.3556804
v -0.0712854 0.5240188 0.3023061
v -0.1396033 0.5572461 0.1338319
v -0.1933069 0.5823261 -0.03549057
v -0.3892712 0.2027115 0.1897975
v -0.4026184 0.1667215 0.05477402
v -0.4910461 0.06531066 0.1351579
v -0.4212683 0.02984894 0.3063164
v -0.2524463 0.1022797 0.3024388
v -0.364259 0.2332401 -0.07797897
v -0.3591479 0.02732849 -0.04490585
v -0.4388794 -0.0242746 -0.001796722
v -0.2574451 -0.1305859 0.01759018
v -0.328352 -0.1007568 -0.1376173
v -0.4795789 0.02636078 -0.1310228
v -0.3578223 -0.160954 0.09672043
v -0.4601648 0.2048917 -0.2008488
v -0.2271643 -0.1546823 0.1870842
v -0.1203638 -0.05832397 0.1072853
v -0.1974268 -0.00472168 0.3068538
v -0.06729736 -0.06609771 0.3098796
v -0.09720092 -0.1852597 0.2203828
v -0.3597253 -0.1277768 0.2736461
v -0.478894 -0.07122101 0.1256792
v -0.1531775 -0.2950787 -0.07536057
v -0.07938354 -0.02243439 0.4677501
v -0.1895178 0.06693146 0.4622539
v -0.05386108 0.1865118 0.5201365
v 0.08116211 0.07839295 0.4548228
v 0.03727417 0.2445422 0.4460801
v -0.2001794 0.2009164 0.441245
v -0.2076831 0.2520325 0.3404311
v -0.1089966 0.4279217 0.3838936
v -0.3052319 0.2671094 0.2338487
v -0.2182764 0.1748541 0.2335658
v 0.1902698 0.04570129 0.2288789
v -0.4604736 0.3057556 -0.1504655
v -0.3849097 0.4634112 -0.1659035
v -0.2768359 -0.2083585 -0.1020442
v -0.06872559 -0.01542053 0.05248306
v -0.06703125 -0.6042517 0.06475998
v -0.02761597 -0.01882141 -0.1163005
v 0.07369506 -0.6056882 -0.02355331
v 0.1282727 -0.01640961 -0.02213394
v -0.0252002 -0.5969345 -0.1073372
vt 0.3126165 0.9396715
vt 0.3119768 0.9457589
vt 0.3128404 0.9264758
vt 0.3027071 0.9505019
vt 0.307443 0.9573619
vt 0.3104108 0.9645343
vt 0.3325793 0.9609069
vt 0.3155461 0.9314495
vt 0.3223392 0.9488586
vt 0.3258556 0.9563906
vt 0.326892 0.9410794
vt 0.3325446 0.947857
vt 0.3358119 0.9647513
vt 0.3455077 0.9609989
vt 0.3584187 0.969621
vt 0.3618717 0.9649744
vt 0.3146285 0.9725844
vt 0.386331 0.9702668
vt 0.3759355 0.9620943
vt 0.3418247 0.9596404
vt 0.333391 0.9598644
vt 0.3385453 0.9496425
vt 0.398426 0.9603158
vt 0.3553303 0.9618912
vt 0.3661077 0.96134
vt 0.3494381 0.9505278
vt 0.3619273 0.9488057
vt 0.3714122 0.955322
vt 0.3485814 0.9415125
vt 0.370473 0.9471755
vt 0.381312 0.9483656
vt 0.3766229 0.9317924
vt 0.3443263 0.9462078
vt 0.3666432 0.9276233
vt 0.3609169 0.9384102
vt 0.3582894 0.9252709
vt 0.3790482 0.9181288
vt 0.3881286 0.9431878
vt 0.365481 0.9124953
vt 0.361857 0.9118583
vt 0.3526576 0.9089997
vt 0.352787 0.9123564
vt 0.3518295 0.9287734
vt 0.3538954 0.9390778
vt 0.3467221 0.9311327
vt 0.3430226 0.9277831
vt 0.3476491 0.9172027
vt 0.3416137 0.9147131
vt 0.3344569 0.9233301
vt 0.3256889 0.9183077
vt 0.3334118 0.9060789
vt 0.3200581 0.9021875
vt 0.3051697 0.9005348
vt 0.3083527 0.9075745
vt 0.2950502 0.9107472
vt 0.3605228 0.9022353
vt 0.4093041 0.9011399
vt 0.3855914 0.9052048
vt 0.3164601 0.9164362
vt 0.3436067 0.9040546
vt 0.3265014 0.9304636
vt 0.3346539 0.9362037
vt 0.3415512 0.9359477
vt 0.3077694 0.9203779
vt 0.3921849 0.9196027
vt 0.4044137 0.915175
vt 0.3979824 0.9047986
vt 0.3992776 0.9237624
vt 0.4077981 0.9275182
vt 0.4048668 0.9387028
vt 0.4109282 0.9413381
vt 0.4048581 0.9518968
vt 0.3967369 0.9505635
vt 0.3985832 0.9625656
vt 0.3908213 0.9547847
vt 0.3917257 0.9628496
vt 0.4081219 0.9612827
vt 0.4156095 0.9527188
vt 0.4129516 0.9584026
vt 0.4122059 0.9488648
vt 0.4038677 0.9692469
vt 0.414264 0.9268126
vt 0.4112138 0.9166783
vt 0.3979252 0.9369763
vt 0.3878804 0.9313671
vt 0.3927873 0.9280139
vt 0.3979365 0.9703927
vt 0.4112711 0.908051
vt 0.3822877 0.9605215
vt 0.2820151 0.9556354
vt 0.276616 0.9604242
vt 0.2895669 0.9675585
vt 0.2717576 0.9523585
vt 0.2658854 0.9537856
vt 0.2916155 0.9581786
vt 0.3017644 0.9662018
vt 0.2925382 0.9687989
vt 0.2701249 0.970759
vt 0.2797001 0.9422287
vt 0.2717203 0.938293
vt 0.2736725 0.9299123
vt 0.2822807 0.927125
vt 0.2893326 0.9330875
vt 0.2637978 0.9447685
vt 0.26406 0.926922
vt 0.266789 0.9217755
vt 0.2712768 0.9121655
vt 0.2573745 0.9148216
vt 0.2595914 0.9270651
vt 0.2746899 0.9096969
vt 0.2576878 0.9426427
vt 0.2860046 0.9107472
vt 0.2907023 0.9195585
vt 0.2921944 0.9242597
vt 0.3006637 0.9188197
vt 0.2974052 0.9085562
vt 0.2832668 0.9131716
vt 0.2731352 0.9177938
vt 0.2633109 0.9016259
vt 0.3006725 0.922541
vt 0.2956422 0.9304149
vt 0.3026221 0.9394172
vt 0.3087841 0.9303949
vt 0.307338 0.9444899
vt 0.2954365 0.9417
vt 0.2935833 0.9454569
vt 0.3001768 0.9586926
vt 0.2853379 0.9469091
vt 0.2893308 0.9388096
vt 0.3193533 0.9279124
vt 0.2612024 0.950159
vt 0.2606869 0.961866
vt 0.2633665 0.9099554
vt 0.3416033 0.8972285
vt 0.3416242 0.8751259
vt 0.3448263 0.8971417
vt 0.3380557 0.8746676
vt 0.3351113 0.8971356
vt 0.3448949 0.8750399
vn 0.9312835 0.359479 0.05904108
vn 0.8293756 0.3728959 0.4160345
vn 0.8945506 0.1241231 0.4293864
vn 0.2624643 0.4892688 0.8317022
vn 0.8587056 0.2442538 0.4505162
vn 0.6880689 0.5833032 0.4316464
vn 0.3146126 0.845561 0.4313302
vn 0.5548458 0.4089414 0.7245088
vn -0.04510567 0.3856569 0.9215391
vn -0.06498444 0.4286288 0.9011406
vn 0.2681596 0.09304504 0.9588706
vn 0.7383264 -0.06269254 0.6715234
vn 0.00642994 0.9874452 0.1578307
vn 0.4493121 0.8891026 -0.08726517
vn 0.1049407 0.992093 -0.0688383
vn 0.0184805 0.9916889 -0.1273251
vn 0.3835565 0.9154595 0.1217301
vn -0.005553302 0.7918963 -0.6106302
vn -0.1572883 0.9469721 -0.2801864
vn 0.6291443 0.6381766 -0.4437431
vn 0.6307086 0.6386861 0.4407797
vn 0.9944149 -0.002478482 -0.1055116
vn -0.3335748 0.9380277 -0.09397846
vn 0.7586874 0.4849547 -0.4349856
vn 0.07481588 0.576183 -0.8138892
vn 0.7816567 -0.04751154 -0.6218967
vn 0.7925705 0.2556668 -0.5535941
vn 0.08716925 0.6380016 -0.7650852
vn 0.9011273 0.1824867 -0.3932788
vn 0.2654973 0.3535353 -0.8969526
vn -0.22393 0.2879559 -0.9310943
vn -0.3022842 -0.468532 -0.8301218
vn 0.7247906 -0.2107031 -0.6559594
vn 0.08666442 -0.3659474 -0.9265915
vn 0.6636255 0.4409453 -0.6042916
vn 0.5163504 -0.02290052 -0.8560711
vn -0.1426166 -0.5393432 -0.8299213
vn -0.3575275 -0.3681471 -0.8582784
vn -0.2638629 -0.7136266 -0.6489326
vn -0.08593779 -0.6838814 -0.7245142
vn 0.2302315 -0.9507932 -0.2073299
vn 0.6004221 -0.7494866 -0.2788607
vn 0.9470993 0.1083982 -0.3020809
vn 0.5278596 0.8240629 -0.2056322
vn 0.8399335 0.3849011 0.3825739
vn 0.9902871 -0.07612052 0.1163491
vn 0.8339189 -0.4673307 0.2935665
vn 0.6880966 -0.7091431 0.1537502
vn 0.8498009 -0.5137416 0.1179318
vn 0.794682 -0.5333703 0.2898216
vn 0.2930977 -0.9516767 -0.09168082
vn 0.5754383 -0.8121367 0.09646086
vn -0.288215 -0.9565196 -0.04474747
vn 0.01725423 -0.5970036 0.802053
vn -0.22266 -0.9540488 0.2005324
vn 0.1894313 -0.9443518 -0.2689153
vn 0.04647766 -0.9584955 0.2812937
vn 0.1874698 -0.6256588 -0.7572358
vn 0.7034143 -0.14888 0.695013
vn 0.4670706 -0.8831492 0.04350276
vn 0.6140445 -0.1192584 0.7802094
vn 0.9475155 -0.2591208 0.1872719
vn 0.7871325 -0.290731 -0.543965
vn 0.3286666 -0.4622026 0.8236182
vn 0.03983807 -0.3634562 -0.9307591
vn -0.4919873 -0.757082 -0.429855
vn -0.3907885 -0.7700054 -0.5043572
vn -0.3906593 -0.4702329 -0.7913699
vn -0.9017363 -0.33025 -0.2789384
vn -0.8017225 -0.05929298 -0.5947481
vn -0.9715502 0.06465647 0.2278373
vn -0.9016964 0.2814851 -0.3281916
vn -0.3692915 0.1403448 -0.9186551
vn -0.3288321 0.8646437 -0.3798167
vn -0.0650161 0.4701675 -0.8801792
vn 0.003808342 0.993127 -0.11698
vn -0.4383219 0.8012767 0.407222
vn -0.6398777 0.7347186 0.2252666
vn -0.7351863 0.6613203 -0.1488506
vn -0.8652096 0.1582737 0.4757749
vn -0.6470518 0.7420794 -0.1750492
vn -0.8578567 -0.2619554 0.4421101
vn -0.7717457 -0.5900514 0.2371666
vn -0.1818833 -0.1973493 -0.9633128
vn -0.09751562 -0.4117018 -0.9060863
vn 0.312293 -0.1261251 -0.941576
vn 0.3835565 0.9154595 0.1217301
vn -0.7578133 -0.633704 0.1553647
vn 0.02656711 0.7515534 -0.6591371
vn -0.8872789 0.4153806 0.2004874
vn -0.7351863 0.6613203 -0.1488506
vn -0.529604 0.8216141 0.210879
vn -0.916549 0.3980114 -0.03905006
vn -0.6398777 0.7347186 0.2252666
vn -0.6311514 0.2602114 0.7307106
vn 0.2743971 0.8223176 0.4984979
vn -0.1801395 0.9720445 0.1505965
vn -0.6470518 0.7420794 -0.1750492
vn -0.738261 0.4187436 0.5287954
vn -0.9543699 0.1523564 -0.2568378
vn -0.9649514 0.2602592 0.03367503
vn -0.5632136 0.08050833 0.8223799
vn -0.5760726 0.2845657 0.7662655
vn -0.9595941 0.05653578 0.2756503
vn -0.9536505 -0.2773798 0.1166674
vn -0.6659927 -0.2302475 -0.709535
vn -0.347295 -0.8988042 0.2674646
vn -0.7717457 -0.5900514 0.2371666
vn -0.8578567 -0.2619554 0.4421101
vn -0.3227257 -0.9213191 -0.2168392
vn -0.9715502 0.06465647 0.2278373
vn 0.4559011 -0.8377699 0.3004927
vn -0.2329772 -0.8826871 0.4081484
vn -0.203895 -0.7282097 0.654322
vn -0.5347171 -0.716891 0.4473757
vn -0.8412364 -0.442371 0.3108528
vn -0.2775034 -0.6588504 0.6992195
vn -0.872441 -0.4861319 0.05022399
vn 0.04647766 -0.9584955 0.2812937
vn -0.06945407 -0.6634725 0.7449701
vn -0.6499518 -0.3080977 0.6947219
vn 0.003459395 0.2343844 0.9721377
vn 0.6457506 -0.2489851 0.7218121
vn 0.5561882 0.5986082 0.5764746
vn -0.6697996 0.4043969 0.6227612
vn -0.7052589 0.03286299 0.7081877
vn 0.08152898 0.3370418 0.937953
vn -0.7216182 -0.1752563 0.6697405
vn -0.6809976 0.2481014 0.688976
vn 0.3728056 0.2658652 0.889006
vn -0.8652096 0.1582737 0.4757749
vn -0.4383219 0.8012767 0.407222
vn -0.7578133 -0.633704 0.1553647
vn -0.5282866 -0.03987246 0.8481294
vn -0.5899594 0.01512917 0.8072911
vn -0.3747173 -0.04270866 -0.9261549
vn 0.9596971 -0.008716445 0.2809013
vn 0.9651754 -0.08998193 0.2456414
vn -0.5218279 -0.01540609 -0.8529116
g Tree2_0
f 3/3/3 2/2/2 1/1/1
f 2/2/2 4/4/4 1/1/1
f 5/5/5 4/4/4 2/2/2
f 6/6/6 5/5/5 2/2/2
f 6/6/6 2/2/2 7/7/7
f 3/3/3 8/8/8 2/2/2
f 2/2/2 8/8/8 9/9/9
f 7/7/7 2/2/2 9/9/9
f 7/7/7 9/9/9 10/10/10
f 9/9/9 11/11/11 10/10/10
f 12/12/12 10/10/10 11/11/11
f 13/13/13 7/7/7 10/10/10
f 7/7/7 13/13/13 14/14/14
f 15/15/15 7/7/7 14/14/14
f 7/7/7 15/15/15 16/16/16
f 16/16/16 17/17/17 7/7/7
f 6/6/6 7/7/7 17/17/17
f 18/18/18 17/17/17 16/16/16
f 16/16/16 15/15/15 19/19/19
f 14/14/14 13/13/13 20/20/20
f 10/10/10 12/12/12 21/21/21
f 20/20/20 13/13/13 21/21/21
f 21/21/21 13/13/13 10/10/10
f 20/20/20 21/21/21 22/22/22
f 21/21/21 12/12/12 22/22/22
f 23/23/23 18/18/18 16/16/16
f 16/16/16 19/19/19 23/23/23
f 24/24/24 15/15/15 14/14/14
f 15/15/15 25/25/25 19/19/19
f 15/15/15 24/24/24 25/25/25
f 14/14/14 26/26/26 24/24/24
f 26/26/26 14/14/14 20/20/20
f 26/26/26 27/27/27 24/24/24
f 24/24/24 27/27/27 25/25/25
f 25/25/25 27/27/27 28/28/28
f 19/19/19 25/25/25 28/28/28
f 29/29/29 27/27/27 26/26/26
f 30/30/30 28/28/28 27/27/27
f 28/28/28 30/30/30 31/31/31
f 30/30/30 32/32/32 31/31/31
f 29/29/29 26/26/26 33/33/33
f 33/33/33 26/26/26 20/20/20
f 33/33/33 20/20/20 22/22/22
f 32/32/32 30/30/30 34/34/34
f 35/35/35 34/34/34 30/30/30
f 27/27/27 35/35/35 30/30/30
f 29/29/29 35/35/35 27/27/27
f 35/35/35 36/36/36 34/34/34
f 37/37/37 32/32/32 34/34/34
f 32/32/32 37/37/37 38/38/38
f 38/38/38 31/31/31 32/32/32
f 34/34/34 39/39/39 37/37/37
f 40/40/40 39/39/39 34/34/34
f 34/34/34 36/36/36 40/40/40
f 40/40/40 41/41/41 39/39/39
f 40/40/40 42/42/42 41/41/41
f 36/36/36 42/42/42 40/40/40
f 42/42/42 36/36/36 43/43/43
f 43/43/43 36/36/36 44/44/44
f 35/35/35 44/44/44 36/36/36
f 29/29/29 44/44/44 35/35/35
f 29/29/29 45/45/45 44/44/44
f 44/44/44 45/45/45 43/43/43
f 29/29/29 46/46/46 45/45/45
f 45/45/45 46/46/46 47/47/47
f 47/47/47 43/43/43 45/45/45
f 42/42/42 43/43/43 47/47/47
f 46/46/46 48/48/48 47/47/47
f 48/48/48 41/41/41 42/42/42
f 42/42/42 47/47/47 48/48/48
f 49/49/49 48/48/48 46/46/46
f 48/48/48 49/49/49 50/50/50
f 50/50/50 51/51/51 48/48/48
f 52/52/52 51/51/51 50/50/50
f 51/51/51 52/52/52 53/53/53
f 54/54/54 53/53/53 52/52/52
f 51/51/51 53/53/53 55/55/55
f 55/55/55 56/56/56 51/51/51
f 55/55/55 57/57/57 56/56/56
f 56/56/56 57/57/57 58/58/58
f 59/59/59 54/54/54 52/52/52
f 50/50/50 59/59/59 52/52/52
f 56/56/56 58/58/58 37/37/37
f 60/60/60 51/51/51 56/56/56
f 51/51/51 60/60/60 48/48/48
f 37/37/37 39/39/39 56/56/56
f 56/56/56 39/39/39 41/41/41
f 41/41/41 48/48/48 60/60/60
f 41/41/41 60/60/60 56/56/56
f 61/61/61 50/50/50 49/49/49
f 61/61/61 49/49/49 62/62/62
f 63/63/63 62/62/62 49/49/49
f 33/33/33 62/62/62 63/63/63
f 29/29/29 33/33/33 63/63/63
f 59/59/59 64/64/64 54/54/54
f 62/62/62 33/33/33 22/22/22
f 65/65/65 37/37/37 58/58/58
f 65/65/65 58/58/58 66/66/66
f 66/66/66 58/58/58 67/67/67
f 68/68/68 65/65/65 66/66/66
f 68/68/68 66/66/66 69/69/69
f 68/68/68 69/69/69 70/70/70
f 70/70/70 69/69/69 71/71/71
f 71/71/71 72/72/72 70/70/70
f 73/73/73 70/70/70 72/72/72
f 73/73/73 72/72/72 74/74/74
f 73/73/73 74/74/74 75/75/75
f 74/74/74 76/76/76 75/75/75
f 77/77/77 76/76/76 74/74/74
f 74/74/74 72/72/72 77/77/77
f 76/76/76 77/77/77 23/23/23
f 77/77/77 78/78/78 23/23/23
f 78/78/78 79/79/79 23/23/23
f 72/72/72 80/80/80 77/77/77
f 80/80/80 72/72/72 71/71/71
f 81/81/81 23/23/23 79/79/79
f 82/82/82 71/71/71 69/69/69
f 69/69/69 66/66/66 82/82/82
f 66/66/66 83/83/83 82/82/82
f 75/75/75 38/38/38 73/73/73
f 73/73/73 38/38/38 84/84/84
f 84/84/84 38/38/38 85/85/85
f 85/85/85 86/86/86 84/84/84
f 85/85/85 38/38/38 37/37/37
f 65/65/65 86/86/86 85/85/85
f 85/85/85 37/37/37 65/65/65
f 83/83/83 66/66/66 67/67/67
f 81/81/81 18/18/18 23/23/23
f 81/81/81 87/87/87 18/18/18
f 86/86/86 68/68/68 84/84/84
f 86/86/86 65/65/65 68/68/68
f 70/70/70 84/84/84 68/68/68
f 73/73/73 84/84/84 70/70/70
f 67/67/67 88/88/88 83/83/83
f 67/67/67 57/57/57 88/88/88
f 67/67/67 58/58/58 57/57/57
f 75/75/75 31/31/31 38/38/38
f 89/89/89 31/31/31 75/75/75
f 31/31/31 89/89/89 28/28/28
f 76/76/76 89/89/89 75/75/75
f 28/28/28 89/89/89 19/19/19
f 76/76/76 19/19/19 89/89/89
f 23/23/23 19/19/19 76/76/76
f 92/92/92 91/91/91 90/90/90
f 93/93/93 90/90/90 91/91/91
f 94/94/94 93/93/93 91/91/91
f 95/95/95 92/92/92 90/90/90
f 95/95/95 96/96/96 92/92/92
f 92/92/92 97/97/97 91/91/91
f 97/97/97 92/92/92 96/96/96
f 6/6/6 97/97/97 96/96/96
f 91/91/91 97/97/97 98/98/98
f 97/97/97 17/17/17 98/98/98
f 6/6/6 17/17/17 97/97/97
f 93/93/93 99/99/99 90/90/90
f 100/100/100 99/99/99 93/93/93
f 99/99/99 100/100/100 101/101/101
f 99/99/99 101/101/101 102/102/102
f 99/99/99 102/102/102 103/103/103
f 93/93/93 104/104/104 100/100/100
f 94/94/94 104/104/104 93/93/93
f 104/104/104 105/105/105 100/100/100
f 105/105/105 106/106/106 100/100/100
f 100/100/100 106/106/106 101/101/101
f 105/105/105 107/107/107 106/106/106
f 105/105/105 108/108/108 107/107/107
f 109/109/109 108/108/108 105/105/105
f 109/109/109 105/105/105 104/104/104
f 107/107/107 110/110/110 106/106/106
f 104/104/104 111/111/111 109/109/109
f 110/110/110 107/107/107 112/112/112
f 113/113/113 112/112/112 107/107/107
f 114/114/114 112/112/112 113/113/113
f 103/103/103 102/102/102 114/114/114
f 113/113/113 115/115/115 114/114/114
f 113/113/113 116/116/116 115/115/115
f 114/114/114 102/102/102 117/117/117
f 110/110/110 112/112/112 117/117/117
f 117/117/117 112/112/112 114/114/114
f 102/102/102 118/118/118 117/117/117
f 110/110/110 117/117/117 118/118/118
f 106/106/106 110/110/110 118/118/118
f 107/107/107 119/119/119 113/113/113
f 114/114/114 115/115/115 120/120/120
f 114/114/114 120/120/120 121/121/121
f 121/121/121 120/120/120 122/122/122
f 120/120/120 115/115/115 64/64/64
f 64/64/64 123/123/123 120/120/120
f 120/120/120 123/123/123 122/122/122
f 115/115/115 116/116/116 54/54/54
f 115/115/115 54/54/54 64/64/64
f 55/55/55 116/116/116 113/113/113
f 55/55/55 113/113/113 119/119/119
f 121/121/121 103/103/103 114/114/114
f 101/101/101 118/118/118 102/102/102
f 116/116/116 53/53/53 54/54/54
f 55/55/55 53/53/53 116/116/116
f 124/124/124 122/122/122 123/123/123
f 123/123/123 1/1/1 124/124/124
f 1/1/1 4/4/4 124/124/124
f 124/124/124 4/4/4 122/122/122
f 122/122/122 4/4/4 125/125/125
f 125/125/125 121/121/121 122/122/122
f 125/125/125 103/103/103 121/121/121
f 4/4/4 126/126/126 125/125/125
f 126/126/126 103/103/103 125/125/125
f 95/95/95 126/126/126 4/4/4
f 95/95/95 4/4/4 127/127/127
f 128/128/128 126/126/126 95/95/95
f 129/129/129 126/126/126 128/128/128
f 129/129/129 103/103/103 126/126/126
f 3/3/3 1/1/1 123/123/123
f 99/99/99 129/129/129 128/128/128
f 103/103/103 129/129/129 99/99/99
f 4/4/4 5/5/5 127/127/127
f 127/127/127 96/96/96 95/95/95
f 96/96/96 127/127/127 5/5/5
f 6/6/6 96/96/96 5/5/5
f 95/95/95 90/90/90 128/128/128
f 99/99/99 128/128/128 90/90/90
f 130/130/130 3/3/3 59/59/59
f 59/59/59 50/50/50 130/130/130
f 50/50/50 61/61/61 130/130/130
f 11/11/11 130/130/130 61/61/61
f 11/11/11 9/9/9 130/130/130
f 11/11/11 61/61/61 62/62/62
f 62/62/62 12/12/12 11/11/11
f 12/12/12 62/62/62 22/22/22
f 3/3/3 64/64/64 59/59/59
f 123/123/123 64/64/64 3/3/3
f 8/8/8 130/130/130 9/9/9
f 130/130/130 8/8/8 3/3/3
f 132/132/132 131/131/131 94/94/94
f 131/131/131 104/104/104 94/94/94
f 131/131/131 111/111/111 104/104/104
f 119/119/119 107/107/107 133/133/133
f 108/108/108 133/133/133 107/107/107
f 106/106/106 118/118/118 101/101/101
f 46/46/46 29/29/29 63/63/63
f 49/49/49 46/46/46 63/63/63
f 136/136/136 135/135/135 134/134/134
f 137/137/137 134/134/134 135/135/135
f 137/137/137 136/136/136 138/138/138
f 137/137/137 138/138/138 134/134/134
f 137/137/137 139/139/139 136/136/136
f 136/136/136 139/139/139 135/135/135
