g Tree8
v -0.4112738 0.1902118 -0.03009705
v -0.2665423 0.2619314 -0.04003357
v -0.3642389 0.03428039 -0.02041321
v -0.3655414 0.3229221 -0.2086627
v -0.3216913 0.4108984 -0.1102606
v -0.1814044 0.5026752 -0.05069885
v -0.1042633 0.4562564 0.1100214
v -0.26919 0.09373932 0.009577027
v -0.2293146 0.302092 0.07801697
v -0.3225885 0.3984692 0.1857111
v -0.3197052 0.1964902 0.2099054
v -0.3210187 0.289274 0.3596063
v -0.1765375 0.5054538 0.2699469
v -0.03139221 0.4574414 0.2850226
v 0.1194086 0.5677716 0.2070636
v 0.08035095 0.5083081 0.07174622
v -0.05930725 0.6056882 -0.02398621
v 0.08739074 0.5769776 -0.02896057
v 0.2234332 0.4724771 0.07527893
v -0.1211359 0.4400558 0.3982184
v -0.2785504 0.4429224 0.3370221
v -0.2174091 0.3121265 0.4499921
v 0.1799347 0.450932 -0.1032697
v 0.1241852 0.4688574 0.35138
v 0.2617572 0.4621509 0.2501581
v 0.02409729 0.3234552 0.3590472
v 0.2279108 0.301882 0.3310968
v 0.301413 0.3858536 0.1954718
v 0.01087585 0.2080911 0.2912762
v 0.3906976 0.2818115 0.3007294
v 0.4182562 0.2979346 0.1006244
v 0.4365289 0.1174915 0.1981024
v -0.07980286 0.2681714 0.4391449
v 0.3205707 0.06930267 0.3270001
v 0.2264679 0.1887707 0.3684991
v 0.2310883 0.03727844 0.4822858
v 0.2507916 -0.04634918 0.06865051
v 0.4095465 0.2324167 -0.002807007
v 0.1962152 -0.09688903 0.203045
v 0.2496686 -0.1082333 0.3756598
v 0.07192322 -0.154978 0.2885956
v 0.1029437 -0.1173758 0.4552606
v 0.08578064 0.06779937 0.515191
v 0.1180145 0.1892578 0.4398578
v -0.02757385 0.09060547 0.4479156
v -0.08114563 0.05165527 0.3584332
v -0.003633423 -0.06814667 0.4415265
v -0.07802185 -0.09941559 0.2798724
v -0.2434357 -0.005036621 0.3444611
v -0.282768 -0.07143249 0.1724139
v -0.09196594 -0.205332 0.1164471
v -0.2857367 -0.2610061 0.08753601
v -0.1877777 -0.2766254 -0.08783752
v -0.3707818 -0.1900183 -0.08743835
v -0.04798035 -0.1601797 -0.08405578
v 0.08879577 -0.2183563 0.1084137
v 0.08766174 -0.295079 -0.1207611
v 0.2634454 -0.2078864 0.003926392
v -0.3993268 -0.08873779 0.0525824
v -0.03422058 -0.2179947 0.2107904
v -0.3467438 0.07152527 0.2268597
v -0.2484113 0.1518619 0.3470453
v -0.1105768 0.1508896 0.3572894
v -0.3830231 -0.0402243 -0.1041107
v 0.3163092 -0.04849579 -0.06194153
v 0.312409 -0.1157352 -0.2183917
v 0.2638531 -0.2299414 -0.1238654
v 0.4626898 -0.0006237793 -0.2111505
v 0.3985455 0.03460388 -0.3515033
v 0.4259601 0.1831592 -0.2848199
v 0.3217218 0.2048914 -0.3557159
v 0.4321502 0.3442035 -0.3352032
v 0.5001373 0.3270251 -0.1739081
v 0.392735 0.479516 -0.2083929
v 0.4278375 0.3803845 -0.0615216
v 0.2899603 0.4829321 -0.07403503
v 0.260484 0.4634109 -0.2997296
v 0.1471161 0.3545264 -0.2947418
v 0.0196283 0.4446338 -0.2724518
v 0.2753461 0.3057556 -0.3754095
v 0.06632751 0.5823258 -0.1731512
v 0.2647638 0.02636078 -0.4005304
v 0.2125946 -0.1007568 -0.2584344
v 0.4434381 0.1717078 -0.1609259
v 0.3048553 0.09674499 -0.01059021
v 0.4139264 0.05319122 -0.08333191
v -0.05930725 0.6056882 -0.02398621
v 0.1599213 -0.2083585 -0.2245966
v 0.3602325 0.4528647 0.05067444
v -0.07019592 0.3818304 -0.3800738
v 0.0196283 0.4446338 -0.2724518
v -0.1618732 0.5413705 -0.3271869
v 0.08765198 0.3355908 -0.4000751
v 0.1471161 0.3545264 -0.2947418
v -0.2628619 0.4191342 -0.4000018
v -0.2924054 0.5240185 -0.190672
v -0.1106158 0.5572458 -0.1888177
v 0.06632751 0.5823258 -0.1731512
v -0.06608582 0.2027115 -0.440777
v 0.06365906 0.1667215 -0.4010809
v 0.02354309 0.06531036 -0.5136505
v -0.161286 0.02984894 -0.515191
v -0.2227411 0.1022797 -0.3579034
v 0.171391 0.2332397 -0.3145441
v 0.1389008 0.02732819 -0.3225677
v 0.1298321 -0.0242749 -0.4127508
v 0.04205017 -0.1305859 -0.2527875
v 0.2125946 -0.1007568 -0.2584344
v 0.2647638 0.02636078 -0.4005304
v 0.007693481 -0.1609543 -0.3759003
v 0.3217218 0.2048914 -0.3557159
v -0.1260284 -0.1546823 -0.2901361
v -0.09352966 -0.05832428 -0.1608368
v -0.2480096 -0.004721985 -0.3088312
v -0.3009308 -0.06609802 -0.1899091
v -0.2068207 -0.18526 -0.1830304
v -0.1548444 -0.1277768 -0.4458112
v 0.02760925 -0.07122131 -0.4987848
v 0.08766174 -0.295079 -0.1207611
v -0.4419611 -0.02243439 -0.261878
v -0.3944635 0.06693146 -0.3613946
v -0.5001373 0.1865115 -0.2585053
v -0.4918768 0.07839295 -0.1087421
v -0.4669025 0.2445422 -0.1458746
v -0.3709698 0.2009164 -0.3631403
v -0.2750458 0.2520325 -0.3312299
v -0.3531696 0.4279214 -0.2569012
v -0.1391107 0.2671094 -0.3801935
v -0.1723468 0.1748541 -0.2998395
v -0.3253998 0.04570129 0.07898254
v 0.2753461 0.3057556 -0.3754095
v 0.260484 0.4634109 -0.2997296
v 0.1599213 -0.2083585 -0.2245966
v -0.06284851 -0.01542084 -0.09207336
v -0.07483093 -0.6042517 -0.09523986
v 0.07707337 -0.01882141 0.01088074
v -0.04754211 -0.6056882 0.06864563
v -0.06987732 -0.01640961 0.118465
v 0.0678717 -0.5969345 0.009657593
vt 0.3126165 0.9396715
vt 0.3119768 0.9457589
vt 0.3128404 0.9264758
vt 0.3027071 0.9505019
vt 0.307443 0.9573619
vt 0.3104108 0.9645343
vt 0.3325793 0.9609069
vt 0.3155461 0.9314495
vt 0.3223392 0.9488586
vt 0.3258556 0.9563906
vt 0.326892 0.9410794
vt 0.3325446 0.947857
vt 0.3358119 0.9647513
vt 0.3455077 0.9609989
vt 0.3584187 0.969621
vt 0.3618717 0.9649744
vt 0.3146285 0.9725844
vt 0.386331 0.9702668
vt 0.3759355 0.9620943
vt 0.3418247 0.9596404
vt 0.333391 0.9598644
vt 0.3385453 0.9496425
vt 0.398426 0.9603158
vt 0.3553303 0.9618912
vt 0.3661077 0.96134
vt 0.3494381 0.9505278
vt 0.3619273 0.9488057
vt 0.3714122 0.955322
vt 0.3485814 0.9415125
vt 0.370473 0.9471755
vt 0.381312 0.9483656
vt 0.3766229 0.9317924
vt 0.3443263 0.9462078
vt 0.3666432 0.9276233
vt 0.3609169 0.9384102
vt 0.3582894 0.9252709
vt 0.3790482 0.9181288
vt 0.3881286 0.9431878
vt 0.365481 0.9124953
vt 0.361857 0.9118583
vt 0.3526576 0.9089997
vt 0.352787 0.9123564
vt 0.3518295 0.9287734
vt 0.3538954 0.9390778
vt 0.3467221 0.9311327
vt 0.3430226 0.9277831
vt 0.3476491 0.9172027
vt 0.3416137 0.9147131
vt 0.3344569 0.9233301
vt 0.3256889 0.9183077
vt 0.3334118 0.9060789
vt 0.3200581 0.9021875
vt 0.3051697 0.9005348
vt 0.3083527 0.9075745
vt 0.2950502 0.9107472
vt 0.3605228 0.9022353
vt 0.4093041 0.9011399
vt 0.3855914 0.9052048
vt 0.3164601 0.9164362
vt 0.3436067 0.9040546
vt 0.3265014 0.9304636
vt 0.3346539 0.9362037
vt 0.3415512 0.9359477
vt 0.3077694 0.9203779
vt 0.3921849 0.9196027
vt 0.4044137 0.915175
vt 0.3979824 0.9047986
vt 0.3992776 0.9237624
vt 0.4077981 0.9275182
vt 0.4048668 0.9387028
vt 0.4109282 0.9413381
vt 0.4048581 0.9518968
vt 0.3967369 0.9505635
vt 0.3985832 0.9625656
vt 0.3908213 0.9547847
vt 0.3917257 0.9628496
vt 0.4081219 0.9612827
vt 0.4156095 0.9527188
vt 0.4129516 0.9584026
vt 0.4122059 0.9488648
vt 0.4038677 0.9692469
vt 0.414264 0.9268126
vt 0.4112138 0.9166783
vt 0.3979252 0.9369763
vt 0.3878804 0.9313671
vt 0.3927873 0.9280139
vt 0.3979365 0.9703927
vt 0.4112711 0.908051
vt 0.3822877 0.9605215
vt 0.2820151 0.9556354
vt 0.276616 0.9604242
vt 0.2895669 0.9675585
vt 0.2717576 0.9523585
vt 0.2658854 0.9537856
vt 0.2916155 0.9581786
vt 0.3017644 0.9662018
vt 0.2925382 0.9687989
vt 0.2701249 0.970759
vt 0.2797001 0.9422287
vt 0.2717203 0.938293
vt 0.2736725 0.9299123
vt 0.2822807 0.927125
vt 0.2893326 0.9330875
vt 0.2637978 0.9447685
vt 0.26406 0.926922
vt 0.266789 0.9217755
vt 0.2712768 0.9121655
vt 0.2573745 0.9148216
vt 0.2595914 0.9270651
vt 0.2746899 0.9096969
vt 0.2576878 0.9426427
vt 0.2860046 0.9107472
vt 0.2907023 0.9195585
vt 0.2921944 0.9242597
vt 0.3006637 0.9188197
vt 0.2974052 0.9085562
vt 0.2832668 0.9131716
vt 0.2731352 0.9177938
vt 0.2633109 0.9016259
vt 0.3006725 0.922541
vt 0.2956422 0.9304149
vt 0.3026221 0.9394172
vt 0.3087841 0.9303949
vt 0.307338 0.9444899
vt 0.2954365 0.9417
vt 0.2935833 0.9454569
vt 0.3001768 0.9586926
vt 0.2853379 0.9469091
vt 0.2893308 0.9388096
vt 0.3193533 0.9279124
vt 0.2612024 0.950159
vt 0.2606869 0.961866
vt 0.2633665 0.9099554
vt 0.3416033 0.8972285
vt 0.3416242 0.8751259
vt 0.3448263 0.8971417
vt 0.3380557 0.8746676
vt 0.3351113 0.8971356
vt 0.3448949 0.8750399
vn -0.4132326 0.3594798 0.8366678
vn -0.7034177 0.372898 0.6051039
vn -0.7408463 0.1241215 0.6601065
vn -0.8686202 0.4892721 -0.07817819
vn -0.7465329 0.2442545 0.6188929
vn -0.6633903 0.5833041 0.4686892
vn -0.5192365 0.8455614 0.1241746
vn -0.8823299 0.4089412 0.2329402
vn -0.8330511 0.3856477 -0.3966128
vn -0.8065652 0.4286247 -0.4071037
vn -0.9881706 0.09303921 -0.1219121
vn -0.9041151 -0.06269334 0.4226646
vn -0.1481256 0.9874451 -0.05487155
vn -0.09254833 0.8891032 0.4482524
vn 0.02310341 0.992093 0.1233596
vn 0.1103791 0.9916889 0.06610338
vn -0.2600907 0.9154595 0.3070613
vn 0.5656436 0.7918972 0.2301001
vn 0.3191517 0.9469726 -0.03721772
vn 0.1671415 0.6381769 0.7515278
vn -0.6497189 0.6386867 0.4122435
vn -0.2856914 -0.002482675 0.9583185
vn 0.215226 0.9380266 -0.2716318
vn 0.1091523 0.4849558 0.8677003
vn 0.7222532 0.5761895 0.3825648
vn 0.2727903 -0.0475186 0.9608994
vn 0.2055594 0.2556759 0.9446561
vn 0.6724575 0.6380069 0.375164
vn 0.01579033 0.1824763 0.9830835
vn 0.7254624 0.3535267 0.5905277
vn 0.9455005 0.2879528 0.152026
vn 0.8825023 -0.4685332 0.04081923
vn 0.3261309 -0.2107058 0.9215431
vn 0.821696 -0.3659523 0.436915
vn 0.3020179 0.4409448 0.8451939
vn 0.5910959 -0.02290306 0.8062761
vn 0.8208104 -0.5393452 0.1880877
vn 0.9297678 -0.3681458 0.0006875239
vn 0.7004967 -0.7136262 0.006478998
vn 0.7017024 -0.683884 0.1997909
vn 0.1026416 -0.9507937 0.2923285
vn 0.02604651 -0.7494869 0.6615066
vn -0.08607437 0.1084015 0.9903738
vn -0.01357908 0.8240616 0.5663376
vn -0.6766065 0.384902 0.6277373
vn -0.4888496 -0.07611562 0.8690411
vn -0.5921524 -0.4673236 0.6564786
vn -0.4069521 -0.7091416 0.5757673
vn -0.4361901 -0.5137402 0.738789
vn -0.5735843 -0.5333673 0.6217075
vn -0.02830253 -0.9516761 0.3057965
vn -0.3106884 -0.8121367 0.4938692
vn 0.1523179 -0.9565203 -0.2487333
vn -0.7467993 -0.5970067 -0.2930422
vn -0.09928422 -0.9540492 -0.2827241
vn 0.1751915 -0.9443515 0.2784029
vn -0.2774892 -0.9584954 -0.0654702
vn 0.6265819 -0.6256585 0.4647005
vn -0.9123451 -0.1488775 0.3813946
vn -0.2200683 -0.8831495 0.4142667
vn -0.9565389 -0.1192542 0.2661048
vn -0.5378179 -0.2591234 0.8022512
vn 0.1987651 -0.290728 0.9359325
vn -0.8866625 -0.462206 -0.01397032
vn 0.8435789 -0.3634645 0.3953075
vn 0.5861997 -0.757085 -0.2884308
vn 0.6159829 -0.7699971 -0.1663418
vn 0.8807844 -0.4702346 -0.05566124
vn 0.6047746 -0.3302574 -0.7246915
vn 0.8576856 -0.05929952 -0.5107438
vn 0.1640122 0.06465477 -0.9843372
vn 0.6502137 0.2814838 -0.7056834
vn 0.9900159 0.1403462 0.01309275
vn 0.4771782 0.8646433 -0.1571402
vn 0.8373004 0.4701632 0.2790602
vn 0.1064873 0.9931266 0.04857806
vn -0.2069498 0.8012756 -0.5613638
vn 0.03860727 0.7347177 -0.6772734
vn 0.420568 0.6613193 -0.6211113
vn -0.1057571 0.1582718 -0.9817155
vn 0.410791 0.7420807 -0.5296855
vn -0.0775236 -0.2619575 -0.9619607
vn 0.07842364 -0.5900558 -0.8035447
vn 0.9590346 -0.1973469 0.2032408
vn 0.873723 -0.4117051 0.2590502
vn 0.7486094 -0.1261303 0.6509034
vn -0.2600907 0.9154595 0.3070613
vn 0.1485531 -0.6337076 -0.759175
vn 0.5980294 0.7515575 0.278428
vn 0.156779 0.4153761 -0.8960374
vn 0.420568 0.6613193 -0.6211113
vn 0.009407888 0.8216144 -0.5699658
vn 0.3891036 0.3980076 -0.8307758
vn 0.03860727 0.7347177 -0.6772734
vn -0.431185 0.260213 -0.8639264
vn -0.5657313 0.8223161 0.06119207
vn -0.06958535 0.9720437 -0.2242518
vn 0.410791 0.7420807 -0.5296855
vn -0.2035947 0.4187442 -0.8849872
vn 0.6046531 0.1523537 -0.7817819
vn 0.3406437 0.2602645 -0.9034513
vn -0.5419534 0.08050738 -0.8365435
vn -0.4852156 0.2845704 -0.8267923
vn 0.1152717 0.05653728 -0.9917237
vn 0.2596946 -0.2773707 -0.9249995
vn 0.9113303 -0.230245 -0.3412686
vn -0.1130433 -0.8988056 -0.4235207
vn 0.07842364 -0.5900558 -0.8035447
vn -0.0775236 -0.2619575 -0.9619607
vn 0.3244245 -0.9213194 -0.2142876
vn 0.1640122 0.06465477 -0.9843372
vn -0.4529265 -0.8377684 0.3049618
vn -0.286907 -0.8826855 -0.3722239
vn -0.5252802 -0.7282091 -0.4402183
vn -0.2068654 -0.7168915 -0.6657878
vn 0.03720148 -0.4423684 -0.8960615
vn -0.5383562 -0.6588516 -0.5254401
vn 0.2897331 -0.4861324 -0.8244575
vn -0.2774892 -0.9584954 -0.0654702
vn -0.6607208 -0.6634743 -0.3510697
vn -0.3907298 -0.3080985 -0.8674131
vn -0.8984473 0.2343838 -0.3712903
vn -0.9148614 -0.2489844 0.3178604
vn -0.746239 0.5986081 0.2911967
vn -0.316683 0.4043973 -0.8580062
vn -0.381853 0.03286251 -0.9236386
vn -0.8969732 0.3370443 -0.2860774
vn -0.3400727 -0.1752528 -0.9239248
vn -0.3734644 0.2480904 -0.8938543
vn -0.9640088 0.2658657 0.0015748
vn -0.1057571 0.1582718 -0.9817155
vn -0.2069498 0.8012756 -0.5613638
vn 0.1485531 -0.6337076 -0.759175
vn -0.5791738 -0.03987462 -0.8142284
vn -0.5177304 0.01513374 -0.85541
vn 0.9990274 -0.04270578 0.0109768
vn -0.6289086 -0.008715629 0.7774304
vn -0.5984786 -0.08998603 0.796069
vn 0.9881045 -0.0154029 -0.1530103
g Tree8_0
f 3/3/3 2/2/2 1/1/1
f 2/2/2 4/4/4 1/1/1
f 5/5/5 4/4/4 2/2/2
f 6/6/6 5/5/5 2/2/2
f 6/6/6 2/2/2 7/7/7
f 3/3/3 8/8/8 2/2/2
f 2/2/2 8/8/8 9/9/9
f 7/7/7 2/2/2 9/9/9
f 7/7/7 9/9/9 10/10/10
f 9/9/9 11/11/11 10/10/10
f 12/12/12 10/10/10 11/11/11
f 13/13/13 7/7/7 10/10/10
f 7/7/7 13/13/13 14/14/14
f 15/15/15 7/7/7 14/14/14
f 7/7/7 15/15/15 16/16/16
f 16/16/16 17/17/17 7/7/7
f 6/6/6 7/7/7 17/17/17
f 18/18/18 17/17/17 16/16/16
f 16/16/16 15/15/15 19/19/19
f 14/14/14 13/13/13 20/20/20
f 10/10/10 12/12/12 21/21/21
f 20/20/20 13/13/13 21/21/21
f 21/21/21 13/13/13 10/10/10
f 20/20/20 21/21/21 22/22/22
f 21/21/21 12/12/12 22/22/22
f 23/23/23 18/18/18 16/16/16
f 16/16/16 19/19/19 23/23/23
f 24/24/24 15/15/15 14/14/14
f 15/15/15 25/25/25 19/19/19
f 15/15/15 24/24/24 25/25/25
f 14/14/14 26/26/26 24/24/24
f 26/26/26 14/14/14 20/20/20
f 26/26/26 27/27/27 24/24/24
f 24/24/24 27/27/27 25/25/25
f 25/25/25 27/27/27 28/28/28
f 19/19/19 25/25/25 28/28/28
f 29/29/29 27/27/27 26/26/26
f 30/30/30 28/28/28 27/27/27
f 28/28/28 30/30/30 31/31/31
f 30/30/30 32/32/32 31/31/31
f 29/29/29 26/26/26 33/33/33
f 33/33/33 26/26/26 20/20/20
f 33/33/33 20/20/20 22/22/22
f 32/32/32 30/30/30 34/34/34
f 35/35/35 34/34/34 30/30/30
f 27/27/27 35/35/35 30/30/30
f 29/29/29 35/35/35 27/27/27
f 35/35/35 36/36/36 34/34/34
f 37/37/37 32/32/32 34/34/34
f 32/32/32 37/37/37 38/38/38
f 38/38/38 31/31/31 32/32/32
f 34/34/34 39/39/39 37/37/37
f 40/40/40 39/39/39 34/34/34
f 34/34/34 36/36/36 40/40/40
f 40/40/40 41/41/41 39/39/39
f 40/40/40 42/42/42 41/41/41
f 36/36/36 42/42/42 40/40/40
f 42/42/42 36/36/36 43/43/43
f 43/43/43 36/36/36 44/44/44
f 35/35/35 44/44/44 36/36/36
f 29/29/29 44/44/44 35/35/35
f 29/29/29 45/45/45 44/44/44
f 44/44/44 45/45/45 43/43/43
f 29/29/29 46/46/46 45/45/45
f 45/45/45 46/46/46 47/47/47
f 47/47/47 43/43/43 45/45/45
f 42/42/42 43/43/43 47/47/47
f 46/46/46 48/48/48 47/47/47
f 48/48/48 41/41/41 42/42/42
f 42/42/42 47/47/47 48/48/48
f 49/49/49 48/48/48 46/46/46
f 48/48/48 49/49/49 50/50/50
f 50/50/50 51/51/51 48/48/48
f 52/52/52 51/51/51 50/50/50
f 51/51/51 52/52/52 53/53/53
f 54/54/54 53/53/53 52/52/52
f 51/51/51 53/53/53 55/55/55
f 55/55/55 56/56/56 51/51/51
f 55/55/55 57/57/57 56/56/56
f 56/56/56 57/57/57 58/58/58
f 59/59/59 54/54/54 52/52/52
f 50/50/50 59/59/59 52/52/52
f 56/56/56 58/58/58 37/37/37
f 60/60/60 51/51/51 56/56/56
f 51/51/51 60/60/60 48/48/48
f 37/37/37 39/39/39 56/56/56
f 56/56/56 39/39/39 41/41/41
f 41/41/41 48/48/48 60/60/60
f 41/41/41 60/60/60 56/56/56
f 61/61/61 50/50/50 49/49/49
f 61/61/61 49/49/49 62/62/62
f 63/63/63 62/62/62 49/49/49
f 33/33/33 62/62/62 63/63/63
f 29/29/29 33/33/33 63/63/63
f 59/59/59 64/64/64 54/54/54
f 62/62/62 33/33/33 22/22/22
f 65/65/65 37/37/37 58/58/58
f 65/65/65 58/58/58 66/66/66
f 66/66/66 58/58/58 67/67/67
f 68/68/68 65/65/65 66/66/66
f 68/68/68 66/66/66 69/69/69
f 68/68/68 69/69/69 70/70/70
f 70/70/70 69/69/69 71/71/71
f 71/71/71 72/72/72 70/70/70
f 73/73/73 70/70/70 72/72/72
f 73/73/73 72/72/72 74/74/74
f 73/73/73 74/74/74 75/75/75
f 74/74/74 76/76/76 75/75/75
f 77/77/77 76/76/76 74/74/74
f 74/74/74 72/72/72 77/77/77
f 76/76/76 77/77/77 23/23/23
f 77/77/77 78/78/78 23/23/23
f 78/78/78 79/79/79 23/23/23
f 72/72/72 80/80/80 77/77/77
f 80/80/80 72/72/72 71/71/71
f 81/81/81 23/23/23 79/79/79
f 82/82/82 71/71/71 69/69/69
f 69/69/69 66/66/66 82/82/82
f 66/66/66 83/83/83 82/82/82
f 75/75/75 38/38/38 73/73/73
f 73/73/73 38/38/38 84/84/84
f 84/84/84 38/38/38 85/85/85
f 85/85/85 86/86/86 84/84/84
f 85/85/85 38/38/38 37/37/37
f 65/65/65 86/86/86 85/85/85
f 85/85/85 37/37/37 65/65/65
f 83/83/83 66/66/66 67/67/67
f 81/81/81 18/18/18 23/23/23
f 81/81/81 87/87/87 18/18/18
f 86/86/86 68/68/68 84/84/84
f 86/86/86 65/65/65 68/68/68
f 70/70/70 84/84/84 68/68/68
f 73/73/73 84/84/84 70/70/70
f 67/67/67 88/88/88 83/83/83
f 67/67/67 57/57/57 88/88/88
f 67/67/67 58/58/58 57/57/57
f 75/75/75 31/31/31 38/38/38
f 89/89/89 31/31/31 75/75/75
f 31/31/31 89/89/89 28/28/28
f 76/76/76 89/89/89 75/75/75
f 28/28/28 89/89/89 19/19/19
f 76/76/76 19/19/19 89/89/89
f 23/23/23 19/19/19 76/76/76
f 92/92/92 91/91/91 90/90/90
f 93/93/93 90/90/90 91/91/91
f 94/94/94 93/93/93 91/91/91
f 95/95/95 92/92/92 90/90/90
f 95/95/95 96/96/96 92/92/92
f 92/92/92 97/97/97 91/91/91
f 97/97/97 92/92/92 96/96/96
f 6/6/6 97/97/97 96/96/96
f 91/91/91 97/97/97 98/98/98
f 97/97/97 17/17/17 98/98/98
f 6/6/6 17/17/17 97/97/97
f 93/93/93 99/99/99 90/90/90
f 100/100/100 99/99/99 93/93/93
f 99/99/99 100/100/100 101/101/101
f 99/99/99 101/101/101 102/102/102
f 99/99/99 102/102/102 103/103/103
f 93/93/93 104/104/104 100/100/100
f 94/94/94 104/104/104 93/93/93
f 104/104/104 105/105/105 100/100/100
f 105/105/105 106/106/106 100/100/100
f 100/100/100 106/106/106 101/101/101
f 105/105/105 107/107/107 106/106/106
f 105/105/105 108/108/108 107/107/107
f 109/109/109 108/108/108 105/105/105
f 109/109/109 105/105/105 104/104/104
f 107/107/107 110/110/110 106/106/106
f 104/104/104 111/111/111 109/109/109
f 110/110/110 107/107/107 112/112/112
f 113/113/113 112/112/112 107/107/107
f 114/114/114 112/112/112 113/113/113
f 103/103/103 102/102/102 114/114/114
f 113/113/113 115/115/115 114/114/114
f 113/113/113 116/116/116 115/115/115
f 114/114/114 102/102/102 117/117/117
f 110/110/110 112/112/112 117/117/117
f 117/117/117 112/112/112 114/114/114
f 102/102/102 118/118/118 117/117/117
f 110/110/110 117/117/117 118/118/118
f 106/106/106 110/110/110 118/118/118
f 107/107/107 119/119/119 113/113/113
f 114/114/114 115/115/115 120/120/120
f 114/114/114 120/120/120 121/121/121
f 121/121/121 120/120/120 122/122/122
f 120/120/120 115/115/115 64/64/64
f 64/64/64 123/123/123 120/120/120
f 120/120/120 123/123/123 122/122/122
f 115/115/115 116/116/116 54/54/54
f 115/115/115 54/54/54 64/64/64
f 55/55/55 116/116/116 113/113/113
f 55/55/55 113/113/113 119/119/119
f 121/121/121 103/103/103 114/114/114
f 101/101/101 118/118/118 102/102/102
f 116/116/116 53/53/53 54/54/54
f 55/55/55 53/53/53 116/116/116
f 124/124/124 122/122/122 123/123/123
f 123/123/123 1/1/1 124/124/124
f 1/1/1 4/4/4 124/124/124
f 124/124/124 4/4/4 122/122/122
f 122/122/122 4/4/4 125/125/125
f 125/125/125 121/121/121 122/122/122
f 125/125/125 103/103/103 121/121/121
f 4/4/4 126/126/126 125/125/125
f 126/126/126 103/103/103 125/125/125
f 95/95/95 126/126/126 4/4/4
f 95/95/95 4/4/4 127/127/127
f 128/128/128 126/126/126 95/95/95
f 129/129/129 126/126/126 128/128/128
f 129/129/129 103/103/103 126/126/126
f 3/3/3 1/1/1 123/123/123
f 99/99/99 129/129/129 128/128/128
f 103/103/103 129/129/129 99/99/99
f 4/4/4 5/5/5 127/127/127
f 127/127/127 96/96/96 95/95/95
f 96/96/96 127/127/127 5/5/5
f 6/6/6 96/96/96 5/5/5
f 95/95/95 90/90/90 128/128/128
f 99/99/99 128/128/128 90/90/90
f 130/130/130 3/3/3 59/59/59
f 59/59/59 50/50/50 130/130/130
f 50/50/50 61/61/61 130/130/130
f 11/11/11 130/130/130 61/61/61
f 11/11/11 9/9/9 130/130/130
f 11/11/11 61/61/61 62/62/62
f 62/62/62 12/12/12 11/11/11
f 12/12/12 62/62/62 22/22/22
f 3/3/3 64/64/64 59/59/59
f 123/123/123 64/64/64 3/3/3
f 8/8/8 130/130/130 9/9/9
f 130/130/130 8/8/8 3/3/3
f 132/132/132 131/131/131 94/94/94
f 131/131/131 104/104/104 94/94/94
f 131/131/131 111/111/111 104/104/104
f 119/119/119 107/107/107 133/133/133
f 108/108/108 133/133/133 107/107/107
f 106/106/106 118/118/118 101/101/101
f 46/46/46 29/29/29 63/63/63
f 49/49/49 46/46/46 63/63/63
f 136/136/136 135/135/135 134/134/134
f 137/137/137 134/134/134 135/135/135
f 137/137/137 136/136/136 138/138/138
f 137/137/137 138/138/138 134/134/134
f 137/137/137 139/139/139 136/136/136
f 136/136/136 139/139/139 135/135/135
