g Tree1
v -0.2896448 0.1902118 0.3151861
v -0.1990503 0.2619314 0.2018774
v -0.2506934 0.03428039 0.2870984
v -0.3902099 0.3229221 0.1607074
v -0.2880786 0.4108984 0.1949829
v -0.1493091 0.5026752 0.1319635
v 0.02123779 0.4562561 0.18388
v -0.1643066 0.09373901 0.2373883
v -0.08692871 0.302092 0.2543225
v -0.07071777 0.3984692 0.3958673
v -0.05094971 0.1964902 0.4101117
v 0.0584082 0.2892737 0.5123517
v 0.09012084 0.5054535 0.3452954
v 0.1994128 0.4574414 0.2486023
v 0.2440161 0.5677716 0.08480713
v 0.1179407 0.5083081 0.02202942
v -0.04703857 0.6056882 0.06011597
v 0.04853882 0.5769776 -0.05128357
v 0.2173376 0.4724771 -0.08095398
v 0.2220642 0.4400555 0.3912708
v 0.07050537 0.4429224 0.4657983
v 0.1950647 0.3121265 0.4971954
v 0.05641968 0.450932 -0.169707
v 0.3535303 0.4688571 0.1789191
v 0.3720532 0.4621509 0.009127808
v 0.2914673 0.3234552 0.2578149
v 0.4087622 0.301882 0.08880981
v 0.358606 0.3858533 -0.05707031
v 0.2326135 0.2080908 0.2217047
v 0.4965234 0.2818115 -0.05161682
v 0.3678003 0.2979346 -0.2072839
v 0.4519507 0.1174911 -0.1547967
v 0.280166 0.2681714 0.3885181
v 0.4684302 0.06930237 0.01779907
v 0.4353308 0.1887704 0.115174
v 0.5222546 0.03727844 0.1887488
v 0.2309643 -0.04634918 -0.1055859
v 0.2857373 0.2324164 -0.2708398
v 0.2930176 -0.09688903 0.0255249
v 0.4563001 -0.1082333 0.1029321
v 0.2719373 -0.154978 0.1749335
v 0.4156616 -0.1173758 0.264837
v 0.448186 0.06779937 0.31802
v 0.4145142 0.1892578 0.2433185
v 0.321958 0.09060547 0.3559881
v 0.2198181 0.05165497 0.3349054
v 0.3334485 -0.06814697 0.3340344
v 0.1640759 -0.09941559 0.279458
v 0.09973877 -0.005036926 0.4449701
v -0.05357178 -0.07143249 0.357547
v 0.03428955 -0.205332 0.1791711
v -0.1180884 -0.2610061 0.3023138
v -0.1809717 -0.2766254 0.1115326
v -0.30448 -0.1900183 0.2465747
v -0.08361328 -0.1601797 0.01113709
v 0.150658 -0.2183563 0.04061523
v -0.01888306 -0.295079 -0.1135858
v 0.1918591 -0.2078867 -0.1586908
v -0.2206726 -0.08873779 0.3623199
v 0.1428308 -0.2179947 0.2004675
v -0.05675537 0.07152496 0.4414947
v 0.09827636 0.1518619 0.4503833
v 0.1990662 0.1508893 0.3558057
v -0.3250403 -0.0402243 0.2443103
v 0.1791125 -0.04849579 -0.2421808
v 0.06125854 -0.1157355 -0.3451471
v 0.09802246 -0.2299414 -0.2454413
v 0.1682556 -0.0006237793 -0.4509222
v 0.02150024 0.03460388 -0.4986322
v 0.08915405 0.1831592 -0.4737091
v -0.033573 0.2048914 -0.4449054
v 0.05623779 0.3442035 -0.5123517
v 0.2210156 0.3270251 -0.4533057
v 0.1229626 0.479516 -0.3975385
v 0.2548706 0.3803845 -0.3240308
v 0.1523828 0.4829318 -0.2309576
v -0.03377075 0.4634109 -0.3619324
v -0.1067896 0.3545264 -0.2750683
v -0.1766199 0.4446338 -0.1661023
v -0.07944946 0.3057556 -0.4240741
v -0.07189941 0.5823258 -0.1333167
v -0.1051086 0.02636078 -0.4332751
v -0.03575562 -0.1007568 -0.2987274
v 0.1922192 0.1717078 -0.4027673
v 0.2091821 0.09674469 -0.199007
v 0.2293982 0.05319122 -0.3285407
v -0.04703857 0.6056882 0.06011597
v -0.04646973 -0.2083588 -0.2370459
v 0.2917627 0.4528647 -0.1983441
v -0.3166431 0.3818304 -0.1727576
v -0.1766199 0.4446338 -0.1661023
v -0.3397156 0.5413705 -0.06946472
v -0.2245898 0.3355908 -0.3025348
v -0.1067896 0.3545264 -0.2750683
v -0.4616577 0.4191339 -0.04435119
v -0.3274841 0.5240185 0.1190173
v -0.2031384 0.5572458 -0.01360657
v -0.07189941 0.5823258 -0.1333167
v -0.3585681 0.2027112 -0.21685
v -0.2415613 0.1667215 -0.2855456
v -0.3516015 0.06531036 -0.3321551
v -0.4777722 0.02984894 -0.1970807
v -0.4035132 0.1022794 -0.04541809
v -0.1049512 0.2332397 -0.3063416
v -0.1328394 0.02732819 -0.2878424
v -0.2053906 -0.0242749 -0.3421735
v -0.1469702 -0.1305862 -0.1693115
v -0.03575562 -0.1007568 -0.2987274
v -0.1051086 0.02636078 -0.4332751
v -0.2608777 -0.1609543 -0.2272955
v -0.033573 0.2048914 -0.4449054
v -0.2881799 -0.1546826 -0.07079712
v -0.1709729 -0.05832428 -0.007260132
v -0.3844678 -0.004721985 0.006387939
v -0.3326892 -0.06609802 0.1258118
v -0.2639587 -0.18526 0.06115906
v -0.4223205 -0.1277771 -0.1548895
v -0.3379028 -0.07122131 -0.3250928
v -0.01888306 -0.295079 -0.1135858
v -0.4810974 -0.02243439 0.1809863
v -0.5222546 0.06693115 0.07868347
v -0.51797 0.1865115 0.2261108
v -0.4020898 0.07839264 0.3213422
v -0.4125403 0.2445419 0.2778302
v -0.5076452 0.2009164 0.0602008
v -0.4192529 0.2520325 0.01114502
v -0.4173657 0.4279214 0.1189624
v -0.363352 0.2671094 -0.1220862
v -0.3266602 0.1748538 -0.04325073
v -0.1512195 0.04570129 0.3257373
v -0.07944946 0.3057556 -0.4240741
v -0.03377075 0.4634109 -0.3619324
v -0.04646973 -0.2083588 -0.2370459
v -0.09957641 -0.01542084 0.01666321
v -0.1100146 -0.6042517 0.02334534
v 0.07090088 -0.01882172 -0.01673279
v 0.02913818 -0.6056882 0.114118
v 0.05071777 -0.01640991 0.1642688
v 0.06377441 -0.5969348 -0.01078369
vt 0.3126165 0.9396715
vt 0.3119768 0.9457589
vt 0.3128404 0.9264758
vt 0.3027071 0.9505019
vt 0.307443 0.9573619
vt 0.3104108 0.9645343
vt 0.3325793 0.9609069
vt 0.3155461 0.9314495
vt 0.3223392 0.9488586
vt 0.3258556 0.9563906
vt 0.326892 0.9410794
vt 0.3325446 0.947857
vt 0.3358119 0.9647513
vt 0.3455077 0.9609989
vt 0.3584187 0.969621
vt 0.3618717 0.9649744
vt 0.3146285 0.9725844
vt 0.386331 0.9702668
vt 0.3759355 0.9620943
vt 0.3418247 0.9596404
vt 0.333391 0.9598644
vt 0.3385453 0.9496425
vt 0.398426 0.9603158
vt 0.3553303 0.9618912
vt 0.3661077 0.96134
vt 0.3494381 0.9505278
vt 0.3619273 0.9488057
vt 0.3714122 0.955322
vt 0.3485814 0.9415125
vt 0.370473 0.9471755
vt 0.381312 0.9483656
vt 0.3766229 0.9317924
vt 0.3443263 0.9462078
vt 0.3666432 0.9276233
vt 0.3609169 0.9384102
vt 0.3582894 0.9252709
vt 0.3790482 0.9181288
vt 0.3881286 0.9431878
vt 0.365481 0.9124953
vt 0.361857 0.9118583
vt 0.3526576 0.9089997
vt 0.352787 0.9123564
vt 0.3518295 0.9287734
vt 0.3538954 0.9390778
vt 0.3467221 0.9311327
vt 0.3430226 0.9277831
vt 0.3476491 0.9172027
vt 0.3416137 0.9147131
vt 0.3344569 0.9233301
vt 0.3256889 0.9183077
vt 0.3334118 0.9060789
vt 0.3200581 0.9021875
vt 0.3051697 0.9005348
vt 0.3083527 0.9075745
vt 0.2950502 0.9107472
vt 0.3605228 0.9022353
vt 0.4093041 0.9011399
vt 0.3855914 0.9052048
vt 0.3164601 0.9164362
vt 0.3436067 0.9040546
vt 0.3265014 0.9304636
vt 0.3346539 0.9362037
vt 0.3415512 0.9359477
vt 0.3077694 0.9203779
vt 0.3921849 0.9196027
vt 0.4044137 0.915175
vt 0.3979824 0.9047986
vt 0.3992776 0.9237624
vt 0.4077981 0.9275182
vt 0.4048668 0.9387028
vt 0.4109282 0.9413381
vt 0.4048581 0.9518968
vt 0.3967369 0.9505635
vt 0.3985832 0.9625656
vt 0.3908213 0.9547847
vt 0.3917257 0.9628496
vt 0.4081219 0.9612827
vt 0.4156095 0.9527188
vt 0.4129516 0.9584026
vt 0.4122059 0.9488648
vt 0.4038677 0.9692469
vt 0.414264 0.9268126
vt 0.4112138 0.9166783
vt 0.3979252 0.9369763
vt 0.3878804 0.9313671
vt 0.3927873 0.9280139
vt 0.3979365 0.9703927
vt 0.4112711 0.908051
vt 0.3822877 0.9605215
vt 0.2820151 0.9556354
vt 0.276616 0.9604242
vt 0.2895669 0.9675585
vt 0.2717576 0.9523585
vt 0.2658854 0.9537856
vt 0.2916155 0.9581786
vt 0.3017644 0.9662018
vt 0.2925382 0.9687989
vt 0.2701249 0.970759
vt 0.2797001 0.9422287
vt 0.2717203 0.938293
vt 0.2736725 0.9299123
vt 0.2822807 0.927125
vt 0.2893326 0.9330875
vt 0.2637978 0.9447685
vt 0.26406 0.926922
vt 0.266789 0.9217755
vt 0.2712768 0.9121655
vt 0.2573745 0.9148216
vt 0.2595914 0.9270651
vt 0.2746899 0.9096969
vt 0.2576878 0.9426427
vt 0.2860046 0.9107472
vt 0.2907023 0.9195585
vt 0.2921944 0.9242597
vt 0.3006637 0.9188197
vt 0.2974052 0.9085562
vt 0.2832668 0.9131716
vt 0.2731352 0.9177938
vt 0.2633109 0.9016259
vt 0.3006725 0.922541
vt 0.2956422 0.9304149
vt 0.3026221 0.9394172
vt 0.3087841 0.9303949
vt 0.307338 0.9444899
vt 0.2954365 0.9417
vt 0.2935833 0.9454569
vt 0.3001768 0.9586926
vt 0.2853379 0.9469091
vt 0.2893308 0.9388096
vt 0.3193533 0.9279124
vt 0.2612024 0.950159
vt 0.2606869 0.961866
vt 0.2633665 0.9099554
vt 0.3416033 0.8972285
vt 0.3416242 0.8751259
vt 0.3448263 0.8971417
vt 0.3380557 0.8746676
vt 0.3351113 0.8971356
vt 0.3448949 0.8750399
vn 0.3366076 0.3594791 0.8703276
vn -0.03023506 0.3728937 0.9273814
vn -0.01505106 0.1241257 0.9921523
vn -0.645195 0.4892693 0.586804
vn -0.04924982 0.244255 0.9684595
vn -0.10362 0.5833012 0.8056194
vn -0.2598161 0.8455607 0.4663934
vn -0.4253476 0.4089451 0.8073681
vn -0.8556432 0.3856513 0.3451782
vn -0.8454493 0.4286267 0.3185822
vn -0.7582762 0.09304567 0.6452594
vn -0.3003669 -0.06269478 0.9517611
vn -0.1406157 0.987445 0.07196908
vn 0.2675017 0.8891026 0.3714017
vn 0.1064756 0.992093 0.06644066
vn 0.1233543 0.9916887 -0.03656897
vn 0.05018167 0.9154604 0.399267
vn 0.5521176 0.7918931 -0.2609049
vn 0.1884964 0.9469733 -0.2602125
vn 0.6665268 0.6381797 0.3853162
vn -0.1359465 0.6386856 0.7573634
vn 0.512474 -0.002481877 0.8586991
vn -0.05443859 0.9380278 -0.3422576
vn 0.7128544 0.4849587 0.50661
vn 0.7703416 0.576187 -0.2730978
vn 0.892191 -0.04751597 0.449152
vn 0.8347488 0.2556682 0.4876763
vn 0.7312066 0.6380033 -0.2414305
vn 0.7346687 0.1824824 0.6534232
vn 0.9256628 0.353534 -0.1347665
vn 0.7515892 0.2879528 -0.5934616
vn 0.6270741 -0.4685316 -0.6222992
vn 0.8992939 -0.2106999 0.3832441
vn 0.8776404 -0.3659504 -0.3095603
vn 0.8267549 0.4409405 0.3493534
vn 0.9936528 -0.02289679 0.1101349
vn 0.6937931 -0.5393452 -0.4772399
vn 0.6294926 -0.3681459 -0.6842571
vn 0.4786549 -0.7136281 -0.5114924
vn 0.6218367 -0.6838823 -0.3816075
vn 0.2847208 -0.9507934 0.122172
vn 0.5047833 -0.7494883 0.4283235
vn 0.6711264 0.1084013 0.7333747
vn 0.4078919 0.824062 0.3931235
vn 0.004571901 0.3849041 0.9229451
vn 0.3092966 -0.07612431 0.9479138
vn 0.08286831 -0.4673294 0.880191
vn 0.148719 -0.7091398 0.6892049
vn 0.2489974 -0.5137426 0.821017
vn 0.0698234 -0.5333641 0.8429991
vn 0.2060579 -0.9516755 0.2277144
vn 0.1535286 -0.8121356 0.5629073
vn -0.08013574 -0.9565198 -0.2804427
vn -0.7210184 -0.5970048 0.3517352
vn -0.275371 -0.9540508 -0.1181439
vn 0.3235458 -0.9443511 0.05932162
vn -0.2359353 -0.9584952 0.1600672
vn 0.7661085 -0.6256576 -0.1470725
vn -0.3363255 -0.1488748 0.9299041
vn 0.1562068 -0.8831523 0.4423138
vn -0.451124 -0.1192537 0.8844578
vn 0.2269798 -0.2591269 0.9387936
vn 0.8237254 -0.2907286 0.4867785
vn -0.610111 -0.4622148 0.6435232
vn 0.8618042 -0.3634554 -0.3538269
vn 0.1841535 -0.7570835 -0.6268271
vn 0.2942035 -0.7700014 -0.5661644
vn 0.5548584 -0.4702342 -0.6863031
vn -0.1245622 -0.3302505 -0.9356381
vn 0.2040918 -0.05929283 -0.9771546
vn -0.6139621 0.06465424 -0.7866832
vn -0.07982969 0.2814841 -0.9562395
vn 0.6793861 0.1403467 -0.7202342
vn 0.2070852 0.8646435 -0.4577197
vn 0.771946 0.4701643 -0.4278375
vn 0.1078119 0.9931269 -0.04555844
vn -0.5534118 0.8012762 -0.2273582
vn -0.4726497 0.7347212 -0.4866076
vn -0.1728995 0.661319 -0.7299061
vn -0.7945282 0.1582696 -0.5862384
vn -0.1121814 0.7420809 -0.6608564
vn -0.7608772 -0.2619555 -0.593671
vn -0.5387123 -0.5900539 -0.601353
vn 0.7984595 -0.1973511 -0.5687839
vn 0.7818542 -0.4116991 -0.4681965
vn 0.9857876 -0.1261254 -0.1109742
vn 0.05018167 0.9154604 0.399267
vn -0.4585974 -0.6337088 -0.6229779
vn 0.6096167 0.7515535 -0.2520611
vn -0.5538223 0.4153767 -0.7216253
vn -0.1728995 0.661319 -0.7299061
vn -0.413387 0.8216149 -0.3925051
vn -0.3485917 0.3980099 -0.8485705
vn -0.4726497 0.7347212 -0.4866076
vn -0.9279305 0.2602115 -0.2668988
vn -0.3376499 0.8223169 0.4580255
vn -0.2122236 0.9720436 -0.1004608
vn -0.1121814 0.7420809 -0.6608564
vn -0.7894757 0.4187458 -0.4487538
vn -0.166692 0.1523506 -0.9741678
vn -0.434903 0.2602597 -0.8620466
vn -0.9826981 0.08051034 -0.1668008
vn -0.9371327 0.2845739 -0.2019904
vn -0.6523646 0.05653735 -0.7557936
vn -0.5055181 -0.27738 -0.8170139
vn 0.3651869 -0.2302463 -0.9020118
vn -0.3883719 -0.8988056 -0.2032628
vn -0.5387123 -0.5900539 -0.601353
vn -0.7608772 -0.2619555 -0.593671
vn 0.06166108 -0.9213188 -0.3838874
vn -0.6139621 0.06465424 -0.7866832
vn -0.08181591 -0.8377684 0.5398616
vn -0.4682126 -0.8826862 -0.04052296
vn -0.6795484 -0.7282078 0.08903602
vn -0.6302604 -0.716891 -0.2980589
vn -0.6347368 -0.4423667 -0.6335779
vn -0.7511547 -0.6588512 0.04101078
vn -0.4111645 -0.4861335 -0.7711148
vn -0.2359353 -0.9584952 0.1600672
vn -0.7055175 -0.6634778 0.2490828
vn -0.9031307 -0.3080967 -0.299051
vn -0.8812335 0.2343875 0.4104753
vn -0.3848164 -0.2489886 0.8887749
vn -0.2903794 0.5986077 0.7465579
vn -0.8461063 0.4044029 -0.3472212
vn -0.9385327 0.03286419 -0.3436223
vn -0.8174814 0.3370507 0.4670342
vn -0.9104785 -0.1752505 -0.3745878
vn -0.9109272 0.2480873 -0.329643
vn -0.6509908 0.2658688 0.7110026
vn -0.7945282 0.1582696 -0.5862384
vn -0.5534118 0.8012762 -0.2273582
vn -0.4585974 -0.6337088 -0.6229779
vn -0.9914435 -0.03987014 -0.1242988
vn -0.9802037 0.01513446 -0.197412
vn 0.683924 -0.04270473 -0.7283024
vn 0.1470707 -0.008717208 0.9890876
vn 0.1813882 -0.08998172 0.9792864
vn 0.5557719 -0.01540521 -0.8311921
g Tree1_0
f 3/3/3 2/2/2 1/1/1
f 2/2/2 4/4/4 1/1/1
f 5/5/5 4/4/4 2/2/2
f 6/6/6 5/5/5 2/2/2
f 6/6/6 2/2/2 7/7/7
f 3/3/3 8/8/8 2/2/2
f 2/2/2 8/8/8 9/9/9
f 7/7/7 2/2/2 9/9/9
f 7/7/7 9/9/9 10/10/10
f 9/9/9 11/11/11 10/10/10
f 12/12/12 10/10/10 11/11/11
f 13/13/13 7/7/7 10/10/10
f 7/7/7 13/13/13 14/14/14
f 15/15/15 7/7/7 14/14/14
f 7/7/7 15/15/15 16/16/16
f 16/16/16 17/17/17 7/7/7
f 6/6/6 7/7/7 17/17/17
f 18/18/18 17/17/17 16/16/16
f 16/16/16 15/15/15 19/19/19
f 14/14/14 13/13/13 20/20/20
f 10/10/10 12/12/12 21/21/21
f 20/20/20 13/13/13 21/21/21
f 21/21/21 13/13/13 10/10/10
f 20/20/20 21/21/21 22/22/22
f 21/21/21 12/12/12 22/22/22
f 23/23/23 18/18/18 16/16/16
f 16/16/16 19/19/19 23/23/23
f 24/24/24 15/15/15 14/14/14
f 15/15/15 25/25/25 19/19/19
f 15/15/15 24/24/24 25/25/25
f 14/14/14 26/26/26 24/24/24
f 26/26/26 14/14/14 20/20/20
f 26/26/26 27/27/27 24/24/24
f 24/24/24 27/27/27 25/25/25
f 25/25/25 27/27/27 28/28/28
f 19/19/19 25/25/25 28/28/28
f 29/29/29 27/27/27 26/26/26
f 30/30/30 28/28/28 27/27/27
f 28/28/28 30/30/30 31/31/31
f 30/30/30 32/32/32 31/31/31
f 29/29/29 26/26/26 33/33/33
f 33/33/33 26/26/26 20/20/20
f 33/33/33 20/20/20 22/22/22
f 32/32/32 30/30/30 34/34/34
f 35/35/35 34/34/34 30/30/30
f 27/27/27 35/35/35 30/30/30
f 29/29/29 35/35/35 27/27/27
f 35/35/35 36/36/36 34/34/34
f 37/37/37 32/32/32 34/34/34
f 32/32/32 37/37/37 38/38/38
f 38/38/38 31/31/31 32/32/32
f 34/34/34 39/39/39 37/37/37
f 40/40/40 39/39/39 34/34/34
f 34/34/34 36/36/36 40/40/40
f 40/40/40 41/41/41 39/39/39
f 40/40/40 42/42/42 41/41/41
f 36/36/36 42/42/42 40/40/40
f 42/42/42 36/36/36 43/43/43
f 43/43/43 36/36/36 44/44/44
f 35/35/35 44/44/44 36/36/36
f 29/29/29 44/44/44 35/35/35
f 29/29/29 45/45/45 44/44/44
f 44/44/44 45/45/45 43/43/43
f 29/29/29 46/46/46 45/45/45
f 45/45/45 46/46/46 47/47/47
f 47/47/47 43/43/43 45/45/45
f 42/42/42 43/43/43 47/47/47
f 46/46/46 48/48/48 47/47/47
f 48/48/48 41/41/41 42/42/42
f 42/42/42 47/47/47 48/48/48
f 49/49/49 48/48/48 46/46/46
f 48/48/48 49/49/49 50/50/50
f 50/50/50 51/51/51 48/48/48
f 52/52/52 51/51/51 50/50/50
f 51/51/51 52/52/52 53/53/53
f 54/54/54 53/53/53 52/52/52
f 51/51/51 53/53/53 55/55/55
f 55/55/55 56/56/56 51/51/51
f 55/55/55 57/57/57 56/56/56
f 56/56/56 57/57/57 58/58/58
f 59/59/59 54/54/54 52/52/52
f 50/50/50 59/59/59 52/52/52
f 56/56/56 58/58/58 37/37/37
f 60/60/60 51/51/51 56/56/56
f 51/51/51 60/60/60 48/48/48
f 37/37/37 39/39/39 56/56/56
f 56/56/56 39/39/39 41/41/41
f 41/41/41 48/48/48 60/60/60
f 41/41/41 60/60/60 56/56/56
f 61/61/61 50/50/50 49/49/49
f 61/61/61 49/49/49 62/62/62
f 63/63/63 62/62/62 49/49/49
f 33/33/33 62/62/62 63/63/63
f 29/29/29 33/33/33 63/63/63
f 59/59/59 64/64/64 54/54/54
f 62/62/62 33/33/33 22/22/22
f 65/65/65 37/37/37 58/58/58
f 65/65/65 58/58/58 66/66/66
f 66/66/66 58/58/58 67/67/67
f 68/68/68 65/65/65 66/66/66
f 68/68/68 66/66/66 69/69/69
f 68/68/68 69/69/69 70/70/70
f 70/70/70 69/69/69 71/71/71
f 71/71/71 72/72/72 70/70/70
f 73/73/73 70/70/70 72/72/72
f 73/73/73 72/72/72 74/74/74
f 73/73/73 74/74/74 75/75/75
f 74/74/74 76/76/76 75/75/75
f 77/77/77 76/76/76 74/74/74
f 74/74/74 72/72/72 77/77/77
f 76/76/76 77/77/77 23/23/23
f 77/77/77 78/78/78 23/23/23
f 78/78/78 79/79/79 23/23/23
f 72/72/72 80/80/80 77/77/77
f 80/80/80 72/72/72 71/71/71
f 81/81/81 23/23/23 79/79/79
f 82/82/82 71/71/71 69/69/69
f 69/69/69 66/66/66 82/82/82
f 66/66/66 83/83/83 82/82/82
f 75/75/75 38/38/38 73/73/73
f 73/73/73 38/38/38 84/84/84
f 84/84/84 38/38/38 85/85/85
f 85/85/85 86/86/86 84/84/84
f 85/85/85 38/38/38 37/37/37
f 65/65/65 86/86/86 85/85/85
f 85/85/85 37/37/37 65/65/65
f 83/83/83 66/66/66 67/67/67
f 81/81/81 18/18/18 23/23/23
f 81/81/81 87/87/87 18/18/18
f 86/86/86 68/68/68 84/84/84
f 86/86/86 65/65/65 68/68/68
f 70/70/70 84/84/84 68/68/68
f 73/73/73 84/84/84 70/70/70
f 67/67/67 88/88/88 83/83/83
f 67/67/67 57/57/57 88/88/88
f 67/67/67 58/58/58 57/57/57
f 75/75/75 31/31/31 38/38/38
f 89/89/89 31/31/31 75/75/75
f 31/31/31 89/89/89 28/28/28
f 76/76/76 89/89/89 75/75/75
f 28/28/28 89/89/89 19/19/19
f 76/76/76 19/19/19 89/89/89
f 23/23/23 19/19/19 76/76/76
f 92/92/92 91/91/91 90/90/90
f 93/93/93 90/90/90 91/91/91
f 94/94/94 93/93/93 91/91/91
f 95/95/95 92/92/92 90/90/90
f 95/95/95 96/96/96 92/92/92
f 92/92/92 97/97/97 91/91/91
f 97/97/97 92/92/92 96/96/96
f 6/6/6 97/97/97 96/96/96
f 91/91/91 97/97/97 98/98/98
f 97/97/97 17/17/17 98/98/98
f 6/6/6 17/17/17 97/97/97
f 93/93/93 99/99/99 90/90/90
f 100/100/100 99/99/99 93/93/93
f 99/99/99 100/100/100 101/101/101
f 99/99/99 101/101/101 102/102/102
f 99/99/99 102/102/102 103/103/103
f 93/93/93 104/104/104 100/100/100
f 94/94/94 104/104/104 93/93/93
f 104/104/104 105/105/105 100/100/100
f 105/105/105 106/106/106 100/100/100
f 100/100/100 106/106/106 101/101/101
f 105/105/105 107/107/107 106/106/106
f 105/105/105 108/108/108 107/107/107
f 109/109/109 108/108/108 105/105/105
f 109/109/109 105/105/105 104/104/104
f 107/107/107 110/110/110 106/106/106
f 104/104/104 111/111/111 109/109/109
f 110/110/110 107/107/107 112/112/112
f 113/113/113 112/112/112 107/107/107
f 114/114/114 112/112/112 113/113/113
f 103/103/103 102/102/102 114/114/114
f 113/113/113 115/115/115 114/114/114
f 113/113/113 116/116/116 115/115/115
f 114/114/114 102/102/102 117/117/117
f 110/110/110 112/112/112 117/117/117
f 117/117/117 112/112/112 114/114/114
f 102/102/102 118/118/118 117/117/117
f 110/110/110 117/117/117 118/118/118
f 106/106/106 110/110/110 118/118/118
f 107/107/107 119/119/119 113/113/113
f 114/114/114 115/115/115 120/120/120
f 114/114/114 120/120/120 121/121/121
f 121/121/121 120/120/120 122/122/122
f 120/120/120 115/115/115 64/64/64
f 64/64/64 123/123/123 120/120/120
f 120/120/120 123/123/123 122/122/122
f 115/115/115 116/116/116 54/54/54
f 115/115/115 54/54/54 64/64/64
f 55/55/55 116/116/116 113/113/113
f 55/55/55 113/113/113 119/119/119
f 121/121/121 103/103/103 114/114/114
f 101/101/101 118/118/118 102/102/102
f 116/116/116 53/53/53 54/54/54
f 55/55/55 53/53/53 116/116/116
f 124/124/124 122/122/122 123/123/123
f 123/123/123 1/1/1 124/124/124
f 1/1/1 4/4/4 124/124/124
f 124/124/124 4/4/4 122/122/122
f 122/122/122 4/4/4 125/125/125
f 125/125/125 121/121/121 122/122/122
f 125/125/125 103/103/103 121/121/121
f 4/4/4 126/126/126 125/125/125
f 126/126/126 103/103/103 125/125/125
f 95/95/95 126/126/126 4/4/4
f 95/95/95 4/4/4 127/127/127
f 128/128/128 126/126/126 95/95/95
f 129/129/129 126/126/126 128/128/128
f 129/129/129 103/103/103 126/126/126
f 3/3/3 1/1/1 123/123/123
f 99/99/99 129/129/129 128/128/128
f 103/103/103 129/129/129 99/99/99
f 4/4/4 5/5/5 127/127/127
f 127/127/127 96/96/96 95/95/95
f 96/96/96 127/127/127 5/5/5
f 6/6/6 96/96/96 5/5/5
f 95/95/95 90/90/90 128/128/128
f 99/99/99 128/128/128 90/90/90
f 130/130/130 3/3/3 59/59/59
f 59/59/59 50/50/50 130/130/130
f 50/50/50 61/61/61 130/130/130
f 11/11/11 130/130/130 61/61/61
f 11/11/11 9/9/9 130/130/130
f 11/11/11 61/61/61 62/62/62
f 62/62/62 12/12/12 11/11/11
f 12/12/12 62/62/62 22/22/22
f 3/3/3 64/64/64 59/59/59
f 123/123/123 64/64/64 3/3/3
f 8/8/8 130/130/130 9/9/9
f 130/130/130 8/8/8 3/3/3
f 132/132/132 131/131/131 94/94/94
f 131/131/131 104/104/104 94/94/94
f 131/131/131 111/111/111 104/104/104
f 119/119/119 107/107/107 133/133/133
f 108/108/108 133/133/133 107/107/107
f 106/106/106 118/118/118 101/101/101
f 46/46/46 29/29/29 63/63/63
f 49/49/49 46/46/46 63/63/63
f 136/136/136 135/135/135 134/134/134
f 137/137/137 134/134/134 135/135/135
f 137/137/137 136/136/136 138/138/138
f 137/137/137 138/138/138 134/134/134
f 137/137/137 139/139/139 136/136/136
f 136/136/136 139/139/139 135/135/135
