g Tree5
v 0.3651159 0.1902119 0.2580481
v 0.2391445 0.2619314 0.1860937
v 0.3313351 0.03428039 0.223916
v 0.2280746 0.3229222 0.3813232
v 0.2461199 0.4108986 0.2751147
v 0.1623711 0.5026753 0.1477795
v 0.18725 0.4562562 -0.02875
v 0.2688467 0.09373917 0.1462695
v 0.273594 0.302092 0.06720337
v 0.4109203 0.3984694 0.02926758
v 0.4219317 0.1964902 0.007532959
v 0.5060027 0.2892738 -0.1163403
v 0.3360503 0.5054536 -0.1217993
v 0.2235992 0.4574414 -0.2147986
v 0.05487205 0.5677717 -0.2334985
v 0.01237602 0.5083082 -0.09922241
v 0.07555229 0.6056882 0.05786865
v -0.04930427 0.5769776 -0.0193042
v -0.1047578 0.4724773 -0.1814722
v 0.3610384 0.4400557 -0.2592712
v 0.4581374 0.4429224 -0.1210815
v 0.4698665 0.3121265 -0.2490002
v -0.1675201 0.450932 -0.00875122
v 0.1308892 0.4688573 -0.3562647
v -0.03972206 0.4621509 -0.3482703
v 0.2184447 0.3234553 -0.3071679
v 0.03331383 0.3018822 -0.3968762
v -0.1030393 0.3858534 -0.3247339
v 0.1918844 0.208091 -0.2434326
v -0.1190098 0.2818115 -0.4618323
v -0.2528645 0.2979346 -0.3105554
v -0.2140418 0.1174913 -0.4018176
v 0.3493209 0.2681714 -0.3162451
v -0.0460804 0.06930252 -0.4448279
v 0.05524559 0.1887707 -0.4272082
v 0.1144717 0.03727844 -0.5244763
v -0.1312023 -0.04634918 -0.1911194
v -0.3029453 0.2324165 -0.2196399
v -0.01128334 -0.09688903 -0.2727283
v 0.0399041 -0.1082332 -0.4460278
v 0.1395873 -0.1549779 -0.2750403
v 0.2061492 -0.1173758 -0.4309534
v 0.2536538 0.06779953 -0.4713208
v 0.1850683 0.189258 -0.4264868
v 0.3107116 0.09060547 -0.3524951
v 0.3057006 0.05165512 -0.2483228
v 0.2872429 -0.06814682 -0.360448
v 0.2595547 -0.09941559 -0.1846655
v 0.4330337 -0.005036621 -0.1467371
v 0.370407 -0.07143249 0.01826294
v 0.1805764 -0.2053319 -0.0409143
v 0.3258312 -0.261006 0.09055541
v 0.1470898 -0.2766252 0.1822241
v 0.2996297 -0.1900183 0.2833301
v 0.0328286 -0.1601796 0.1015881
v 0.02567131 -0.2183563 -0.1344214
v -0.1004139 -0.2950789 0.05695312
v -0.1776108 -0.2078865 -0.1442615
v 0.4010003 -0.08873764 0.1826086
v 0.184807 -0.2179945 -0.1514453
v 0.4538347 0.07152511 0.008406982
v 0.438608 0.151862 -0.1461304
v 0.3295629 0.1508896 -0.2310583
v 0.3005767 -0.0402243 0.3039917
v -0.2581199 -0.04849564 -0.1187402
v -0.3415928 -0.1157353 0.01363892
v -0.2487835 -0.2299412 -0.03812256
v -0.4626615 -0.0006236267 -0.07568725
v -0.4870689 0.03460388 0.07668579
v -0.4729238 0.1831593 0.005988769
v -0.4254616 0.2048915 0.1227747
v -0.5060027 0.3442035 0.04449219
v -0.4731866 0.3270251 -0.1274414
v -0.4029073 0.4795161 -0.03920776
v -0.3507145 0.3803845 -0.1809082
v -0.2428922 0.4829321 -0.09406982
v -0.3434591 0.4634111 0.1101196
v -0.2463349 0.3545265 0.1688074
v -0.1278695 0.4446339 0.2209192
v -0.3977772 0.3057556 0.1648718
v -0.1116965 0.5823259 0.1123853
v -0.4028936 0.02636078 0.1916467
v -0.2807094 -0.1007568 0.1022937
v -0.4187986 0.1717079 -0.1068188
v -0.2201232 0.09674484 -0.1551318
v -0.3512253 0.05319137 -0.1550452
v 0.07555229 0.6056882 0.05786865
v -0.2181127 -0.2083586 0.1033264
v -0.2322568 0.4528647 -0.2368188
v -0.1127604 0.3818306 0.3602844
v -0.1278695 0.4446339 0.2209192
v -0.007140884 0.5413705 0.3670825
v -0.2552273 0.335591 0.2894385
v -0.2463349 0.3545265 0.1688074
v 0.03655418 0.4191341 0.4836645
v 0.1771737 0.5240187 0.3258093
v 0.02689323 0.5572458 0.2235034
v -0.1116965 0.5823259 0.1123853
v -0.1498283 0.2027113 0.4085315
v -0.2358147 0.1667215 0.3035754
v -0.2648214 0.06531036 0.4195056
v -0.1118375 0.02984894 0.5232361
v 0.02649559 0.1022795 0.4263867
v -0.2775155 0.2332399 0.1718335
v -0.2549209 0.02732819 0.196521
v -0.2973609 -0.02427475 0.2766101
v -0.1356315 -0.1305861 0.1921252
v -0.2807094 -0.1007568 0.1022937
v -0.4028936 0.02636078 0.1916467
v -0.175276 -0.1609543 0.3136377
v -0.4254616 0.2048915 0.1227747
v -0.01643776 -0.1546825 0.3163745
v 0.02818169 -0.05832412 0.1907422
v 0.07472771 -0.004721832 0.3995483
v 0.1846923 -0.06609802 0.3298999
v 0.1101757 -0.1852598 0.2720105
v -0.07874244 -0.1277768 0.4619201
v -0.2599654 -0.07122131 0.4048779
v -0.1004139 -0.2950789 0.05695312
v 0.2621841 -0.02243439 0.4679736
v 0.1674889 0.0669313 0.5244763
v 0.3124743 0.1865117 0.4974133
v 0.388611 0.07839279 0.3681824
v 0.3472427 0.2445421 0.3852466
v 0.1469668 0.2009164 0.5129065
v 0.08481438 0.2520325 0.4331775
v 0.1910384 0.4279216 0.4146155
v -0.05546699 0.2671094 0.3985828
v 0.01673546 0.174854 0.3501245
v 0.354103 0.04570129 0.1196582
v -0.3977772 0.3057556 0.1648718
v -0.3434591 0.4634111 0.1101196
v -0.2181127 -0.2083586 0.1033264
v 0.04075981 -0.01542068 0.1165027
v 0.04897819 -0.6042517 0.12578
v -0.0186335 -0.01882156 -0.04674561
v 0.1171059 -0.6056882 -0.02575195
v 0.1633099 -0.01640976 -0.05483764
v -0.0116526 -0.5969346 -0.04062744
vt 0.3126165 0.9396715
vt 0.3119768 0.9457589
vt 0.3128404 0.9264758
vt 0.3027071 0.9505019
vt 0.307443 0.9573619
vt 0.3104108 0.9645343
vt 0.3325793 0.9609069
vt 0.3155461 0.9314495
vt 0.3223392 0.9488586
vt 0.3258556 0.9563906
vt 0.326892 0.9410794
vt 0.3325446 0.947857
vt 0.3358119 0.9647513
vt 0.3455077 0.9609989
vt 0.3584187 0.969621
vt 0.3618717 0.9649744
vt 0.3146285 0.9725844
vt 0.386331 0.9702668
vt 0.3759355 0.9620943
vt 0.3418247 0.9596404
vt 0.333391 0.9598644
vt 0.3385453 0.9496425
vt 0.398426 0.9603158
vt 0.3553303 0.9618912
vt 0.3661077 0.96134
vt 0.3494381 0.9505278
vt 0.3619273 0.9488057
vt 0.3714122 0.955322
vt 0.3485814 0.9415125
vt 0.370473 0.9471755
vt 0.381312 0.9483656
vt 0.3766229 0.9317924
vt 0.3443263 0.9462078
vt 0.3666432 0.9276233
vt 0.3609169 0.9384102
vt 0.3582894 0.9252709
vt 0.3790482 0.9181288
vt 0.3881286 0.9431878
vt 0.365481 0.9124953
vt 0.361857 0.9118583
vt 0.3526576 0.9089997
vt 0.352787 0.9123564
vt 0.3518295 0.9287734
vt 0.3538954 0.9390778
vt 0.3467221 0.9311327
vt 0.3430226 0.9277831
vt 0.3476491 0.9172027
vt 0.3416137 0.9147131
vt 0.3344569 0.9233301
vt 0.3256889 0.9183077
vt 0.3334118 0.9060789
vt 0.3200581 0.9021875
vt 0.3051697 0.9005348
vt 0.3083527 0.9075745
vt 0.2950502 0.9107472
vt 0.3605228 0.9022353
vt 0.4093041 0.9011399
vt 0.3855914 0.9052048
vt 0.3164601 0.9164362
vt 0.3436067 0.9040546
vt 0.3265014 0.9304636
vt 0.3346539 0.9362037
vt 0.3415512 0.9359477
vt 0.3077694 0.9203779
vt 0.3921849 0.9196027
vt 0.4044137 0.915175
vt 0.3979824 0.9047986
vt 0.3992776 0.9237624
vt 0.4077981 0.9275182
vt 0.4048668 0.9387028
vt 0.4109282 0.9413381
vt 0.4048581 0.9518968
vt 0.3967369 0.9505635
vt 0.3985832 0.9625656
vt 0.3908213 0.9547847
vt 0.3917257 0.9628496
vt 0.4081219 0.9612827
vt 0.4156095 0.9527188
vt 0.4129516 0.9584026
vt 0.4122059 0.9488648
vt 0.4038677 0.9692469
vt 0.414264 0.9268126
vt 0.4112138 0.9166783
vt 0.3979252 0.9369763
vt 0.3878804 0.9313671
vt 0.3927873 0.9280139
vt 0.3979365 0.9703927
vt 0.4112711 0.908051
vt 0.3822877 0.9605215
vt 0.2820151 0.9556354
vt 0.276616 0.9604242
vt 0.2895669 0.9675585
vt 0.2717576 0.9523585
vt 0.2658854 0.9537856
vt 0.2916155 0.9581786
vt 0.3017644 0.9662018
vt 0.2925382 0.9687989
vt 0.2701249 0.970759
vt 0.2797001 0.9422287
vt 0.2717203 0.938293
vt 0.2736725 0.9299123
vt 0.2822807 0.927125
vt 0.2893326 0.9330875
vt 0.2637978 0.9447685
vt 0.26406 0.926922
vt 0.266789 0.9217755
vt 0.2712768 0.9121655
vt 0.2573745 0.9148216
vt 0.2595914 0.9270651
vt 0.2746899 0.9096969
vt 0.2576878 0.9426427
vt 0.2860046 0.9107472
vt 0.2907023 0.9195585
vt 0.2921944 0.9242597
vt 0.3006637 0.9188197
vt 0.2974052 0.9085562
vt 0.2832668 0.9131716
vt 0.2731352 0.9177938
vt 0.2633109 0.9016259
vt 0.3006725 0.922541
vt 0.2956422 0.9304149
vt 0.3026221 0.9394172
vt 0.3087841 0.9303949
vt 0.307338 0.9444899
vt 0.2954365 0.9417
vt 0.2935833 0.9454569
vt 0.3001768 0.9586926
vt 0.2853379 0.9469091
vt 0.2893308 0.9388096
vt 0.3193533 0.9279124
vt 0.2612024 0.950159
vt 0.2606869 0.961866
vt 0.2633665 0.9099554
vt 0.3416033 0.8972285
vt 0.3416242 0.8751259
vt 0.3448263 0.8971417
vt 0.3380557 0.8746676
vt 0.3351113 0.8971356
vt 0.3448949 0.8750399
vn 0.8077043 0.3594775 -0.4673219
vn 0.9208761 0.3728934 -0.1137441
vn 0.9825141 0.1241246 -0.1387772
vn 0.6796408 0.4892712 0.5465364
vn 0.9644033 0.2442555 -0.1013193
vn 0.8119468 0.583302 -0.02238908
vn 0.5010036 0.8455603 0.184454
vn 0.8635001 0.4089396 0.2951879
vn 0.473526 0.3856538 0.7918613
vn 0.4456693 0.4286295 0.7859106
vn 0.7549063 0.09304201 0.6491992
vn 0.9867945 -0.06269486 0.1493515
vn 0.09287663 0.9874454 0.1277719
vn 0.3254938 0.8891031 -0.3217912
vn 0.04915 0.9920929 -0.115481
vn -0.0552262 0.9916892 -0.1162011
vn 0.3866821 0.9154589 -0.1114086
vn -0.3432641 0.7918916 -0.5050519
vn -0.2862635 0.9469737 -0.1459249
vn 0.2774473 0.6381782 -0.7181585
vn 0.769278 0.6386875 0.0170184
vn 0.7689744 -0.002482588 -0.6392748
vn -0.3296966 0.9380282 0.1067855
vn 0.3901017 0.4849559 -0.7827123
vn -0.3890999 0.5761834 -0.7187586
vn 0.3055678 -0.04751294 -0.9509841
vn 0.3525228 0.2556738 -0.9001992
vn -0.3517514 0.6380012 -0.6850002
vn 0.5317699 0.1824857 -0.8269944
vn -0.2764912 0.3535334 -0.8936257
vn -0.702693 0.287954 -0.650619
vn -0.7119008 -0.4685313 -0.5231401
vn 0.2393559 -0.2107038 -0.9477935
vn -0.4417416 -0.3659465 -0.8191139
vn 0.2171063 0.440946 -0.8708797
vn -0.04506741 -0.02289992 -0.9987214
vn -0.5789237 -0.539346 -0.6115171
vn -0.7734865 -0.3681476 -0.5159322
vn -0.5794507 -0.7136263 -0.3936681
vn -0.4733027 -0.6838824 -0.5552381
vn 0.07660579 -0.9507941 -0.3002037
vn 0.3449861 -0.7494883 -0.5650238
vn 0.6205986 0.1084012 -0.7765993
vn 0.3252219 0.8240604 -0.4638483
vn 0.9111056 0.3848989 -0.1474435
vn 0.888579 -0.07612641 -0.4523627
vn 0.8567404 -0.4673272 -0.2181773
vn 0.657858 -0.7091412 -0.2536567
vn 0.7725537 -0.5137412 -0.3731366
vn 0.8220135 -0.5333679 -0.1995306
vn 0.1930564 -0.951676 -0.2388349
vn 0.5323384 -0.8121375 -0.2388483
vn -0.2646495 -0.95652 0.1225973
vn 0.4591515 -0.5970027 0.6578509
vn -0.07408417 -0.9540482 0.2903507
vn 0.00850302 -0.9443521 -0.3288264
vn 0.1946788 -0.9584943 0.2082997
vn -0.2639354 -0.6256592 -0.7340904
vn 0.9707701 -0.1488751 0.1882594
vn 0.4127881 -0.8831509 -0.2228237
vn 0.9436491 -0.1192587 0.3087131
vn 0.8923188 -0.2591237 -0.3696241
vn 0.3533345 -0.2907291 -0.8891746
vn 0.7302461 -0.4622061 0.5030966
vn -0.4830192 -0.3634557 -0.7966132
vn -0.6477866 -0.7570807 -0.08486053
vn -0.604893 -0.7700034 -0.2029762
vn -0.7639479 -0.4702375 -0.4418826
vn -0.9050599 -0.3302502 0.2679573
vn -0.9969723 -0.05929242 -0.0503042
vn -0.6821163 0.06465673 0.7283796
vn -0.932341 0.2814849 0.2269501
vn -0.8167572 0.1403439 -0.5596527
vn -0.4842681 0.8646431 -0.133704
vn -0.5422273 0.4701611 -0.6963749
vn -0.06170529 0.9931269 -0.09945597
vn -0.1389125 0.8012757 0.5819455
vn -0.4075436 0.7347185 0.5423071
vn -0.6943259 0.6613186 0.2838472
vn -0.4561289 0.1582704 0.8757265
vn -0.6355097 0.742082 0.2131703
vn -0.4686816 -0.2619528 0.843634
vn -0.5106727 -0.5900536 0.62534
vn -0.6855757 -0.1973489 -0.7007421
vn -0.5836346 -0.4116926 -0.6999142
vn -0.2622973 -0.126118 -0.9567102
vn 0.3866821 0.9154589 -0.1114086
vn -0.5444406 -0.6337079 0.549544
vn -0.3434286 0.7515526 -0.5632277
vn -0.6271555 0.4153769 0.6588915
vn -0.6943259 0.6613186 0.2838472
vn -0.3237559 0.8216136 0.4691835
vn -0.7843518 0.3980094 0.4757949
vn -0.4075436 0.7347185 0.5423071
vn -0.1199807 0.2602121 0.958068
vn 0.5047895 0.8223168 0.2626455
vn -0.06638592 0.9720442 0.2252179
vn -0.6355097 0.742082 0.2131703
vn -0.3210801 0.4187468 0.8494462
vn -0.9366019 0.1523536 0.3155399
vn -0.7842987 0.2602616 0.5631514
vn -0.01260986 0.08050877 0.9966742
vn -0.05442469 0.2845714 0.9571087
vn -0.6456507 0.05653962 0.7615368
vn -0.7288692 -0.2773759 0.6259491
vn -0.9476836 -0.2302462 -0.2210938
vn -0.1406557 -0.8988077 0.4151637
vn -0.5106727 -0.5900536 0.62534
vn -0.4686816 -0.2619528 0.843634
vn -0.3888026 -0.9213198 -0.001468286
vn -0.6821163 0.06465673 0.7283796
vn 0.5460182 -0.8377688 -0.002774788
vn 0.03247897 -0.8826853 0.4688407
vn 0.1931956 -0.72821 0.6575605
vn -0.1968596 -0.7168915 0.6688145
vn -0.5276397 -0.4423668 0.7251952
vn 0.1568403 -0.658851 0.7357422
vn -0.6981388 -0.4861335 0.52562
vn 0.1946788 -0.9584943 0.2082997
vn 0.3553363 -0.6634771 0.6584332
vn -0.1555873 -0.3081001 0.9385451
vn 0.5419942 0.2343827 0.807036
vn 0.9376479 -0.2489881 0.2425311
vn 0.7825165 0.598612 0.1712644
vn -0.2120072 0.404396 0.8896723
vn -0.1941376 0.03286421 0.9804237
vn 0.5879991 0.3370469 0.7352934
vn -0.2290742 -0.175257 0.957502
vn -0.1845908 0.2480986 0.9509854
vn 0.8032439 0.2658592 0.5330274
vn -0.4561289 0.1582704 0.8757265
vn -0.1389125 0.8012757 0.5819455
vn -0.5444406 -0.6337079 0.549544
vn 0.03074848 -0.03987141 0.9987316
vn -0.04322163 0.01513495 0.9989508
vn -0.8254272 -0.04270552 -0.5628909
vn 0.954379 -0.008716951 -0.2984704
vn 0.9393839 -0.08998427 -0.3308485
vn -0.9072343 -0.01540245 -0.4203434
g Tree5_0
f 3/3/3 2/2/2 1/1/1
f 2/2/2 4/4/4 1/1/1
f 5/5/5 4/4/4 2/2/2
f 6/6/6 5/5/5 2/2/2
f 6/6/6 2/2/2 7/7/7
f 3/3/3 8/8/8 2/2/2
f 2/2/2 8/8/8 9/9/9
f 7/7/7 2/2/2 9/9/9
f 7/7/7 9/9/9 10/10/10
f 9/9/9 11/11/11 10/10/10
f 12/12/12 10/10/10 11/11/11
f 13/13/13 7/7/7 10/10/10
f 7/7/7 13/13/13 14/14/14
f 15/15/15 7/7/7 14/14/14
f 7/7/7 15/15/15 16/16/16
f 16/16/16 17/17/17 7/7/7
f 6/6/6 7/7/7 17/17/17
f 18/18/18 17/17/17 16/16/16
f 16/16/16 15/15/15 19/19/19
f 14/14/14 13/13/13 20/20/20
f 10/10/10 12/12/12 21/21/21
f 20/20/20 13/13/13 21/21/21
f 21/21/21 13/13/13 10/10/10
f 20/20/20 21/21/21 22/22/22
f 21/21/21 12/12/12 22/22/22
f 23/23/23 18/18/18 16/16/16
f 16/16/16 19/19/19 23/23/23
f 24/24/24 15/15/15 14/14/14
f 15/15/15 25/25/25 19/19/19
f 15/15/15 24/24/24 25/25/25
f 14/14/14 26/26/26 24/24/24
f 26/26/26 14/14/14 20/20/20
f 26/26/26 27/27/27 24/24/24
f 24/24/24 27/27/27 25/25/25
f 25/25/25 27/27/27 28/28/28
f 19/19/19 25/25/25 28/28/28
f 29/29/29 27/27/27 26/26/26
f 30/30/30 28/28/28 27/27/27
f 28/28/28 30/30/30 31/31/31
f 30/30/30 32/32/32 31/31/31
f 29/29/29 26/26/26 33/33/33
f 33/33/33 26/26/26 20/20/20
f 33/33/33 20/20/20 22/22/22
f 32/32/32 30/30/30 34/34/34
f 35/35/35 34/34/34 30/30/30
f 27/27/27 35/35/35 30/30/30
f 29/29/29 35/35/35 27/27/27
f 35/35/35 36/36/36 34/34/34
f 37/37/37 32/32/32 34/34/34
f 32/32/32 37/37/37 38/38/38
f 38/38/38 31/31/31 32/32/32
f 34/34/34 39/39/39 37/37/37
f 40/40/40 39/39/39 34/34/34
f 34/34/34 36/36/36 40/40/40
f 40/40/40 41/41/41 39/39/39
f 40/40/40 42/42/42 41/41/41
f 36/36/36 42/42/42 40/40/40
f 42/42/42 36/36/36 43/43/43
f 43/43/43 36/36/36 44/44/44
f 35/35/35 44/44/44 36/36/36
f 29/29/29 44/44/44 35/35/35
f 29/29/29 45/45/45 44/44/44
f 44/44/44 45/45/45 43/43/43
f 29/29/29 46/46/46 45/45/45
f 45/45/45 46/46/46 47/47/47
f 47/47/47 43/43/43 45/45/45
f 42/42/42 43/43/43 47/47/47
f 46/46/46 48/48/48 47/47/47
f 48/48/48 41/41/41 42/42/42
f 42/42/42 47/47/47 48/48/48
f 49/49/49 48/48/48 46/46/46
f 48/48/48 49/49/49 50/50/50
f 50/50/50 51/51/51 48/48/48
f 52/52/52 51/51/51 50/50/50
f 51/51/51 52/52/52 53/53/53
f 54/54/54 53/53/53 52/52/52
f 51/51/51 53/53/53 55/55/55
f 55/55/55 56/56/56 51/51/51
f 55/55/55 57/57/57 56/56/56
f 56/56/56 57/57/57 58/58/58
f 59/59/59 54/54/54 52/52/52
f 50/50/50 59/59/59 52/52/52
f 56/56/56 58/58/58 37/37/37
f 60/60/60 51/51/51 56/56/56
f 51/51/51 60/60/60 48/48/48
f 37/37/37 39/39/39 56/56/56
f 56/56/56 39/39/39 41/41/41
f 41/41/41 48/48/48 60/60/60
f 41/41/41 60/60/60 56/56/56
f 61/61/61 50/50/50 49/49/49
f 61/61/61 49/49/49 62/62/62
f 63/63/63 62/62/62 49/49/49
f 33/33/33 62/62/62 63/63/63
f 29/29/29 33/33/33 63/63/63
f 59/59/59 64/64/64 54/54/54
f 62/62/62 33/33/33 22/22/22
f 65/65/65 37/37/37 58/58/58
f 65/65/65 58/58/58 66/66/66
f 66/66/66 58/58/58 67/67/67
f 68/68/68 65/65/65 66/66/66
f 68/68/68 66/66/66 69/69/69
f 68/68/68 69/69/69 70/70/70
f 70/70/70 69/69/69 71/71/71
f 71/71/71 72/72/72 70/70/70
f 73/73/73 70/70/70 72/72/72
f 73/73/73 72/72/72 74/74/74
f 73/73/73 74/74/74 75/75/75
f 74/74/74 76/76/76 75/75/75
f 77/77/77 76/76/76 74/74/74
f 74/74/74 72/72/72 77/77/77
f 76/76/76 77/77/77 23/23/23
f 77/77/77 78/78/78 23/23/23
f 78/78/78 79/79/79 23/23/23
f 72/72/72 80/80/80 77/77/77
f 80/80/80 72/72/72 71/71/71
f 81/81/81 23/23/23 79/79/79
f 82/82/82 71/71/71 69/69/69
f 69/69/69 66/66/66 82/82/82
f 66/66/66 83/83/83 82/82/82
f 75/75/75 38/38/38 73/73/73
f 73/73/73 38/38/38 84/84/84
f 84/84/84 38/38/38 85/85/85
f 85/85/85 86/86/86 84/84/84
f 85/85/85 38/38/38 37/37/37
f 65/65/65 86/86/86 85/85/85
f 85/85/85 37/37/37 65/65/65
f 83/83/83 66/66/66 67/67/67
f 81/81/81 18/18/18 23/23/23
f 81/81/81 87/87/87 18/18/18
f 86/86/86 68/68/68 84/84/84
f 86/86/86 65/65/65 68/68/68
f 70/70/70 84/84/84 68/68/68
f 73/73/73 84/84/84 70/70/70
f 67/67/67 88/88/88 83/83/83
f 67/67/67 57/57/57 88/88/88
f 67/67/67 58/58/58 57/57/57
f 75/75/75 31/31/31 38/38/38
f 89/89/89 31/31/31 75/75/75
f 31/31/31 89/89/89 28/28/28
f 76/76/76 89/89/89 75/75/75
f 28/28/28 89/89/89 19/19/19
f 76/76/76 19/19/19 89/89/89
f 23/23/23 19/19/19 76/76/76
f 92/92/92 91/91/91 90/90/90
f 93/93/93 90/90/90 91/91/91
f 94/94/94 93/93/93 91/91/91
f 95/95/95 92/92/92 90/90/90
f 95/95/95 96/96/96 92/92/92
f 92/92/92 97/97/97 91/91/91
f 97/97/97 92/92/92 96/96/96
f 6/6/6 97/97/97 96/96/96
f 91/91/91 97/97/97 98/98/98
f 97/97/97 17/17/17 98/98/98
f 6/6/6 17/17/17 97/97/97
f 93/93/93 99/99/99 90/90/90
f 100/100/100 99/99/99 93/93/93
f 99/99/99 100/100/100 101/101/101
f 99/99/99 101/101/101 102/102/102
f 99/99/99 102/102/102 103/103/103
f 93/93/93 104/104/104 100/100/100
f 94/94/94 104/104/104 93/93/93
f 104/104/104 105/105/105 100/100/100
f 105/105/105 106/106/106 100/100/100
f 100/100/100 106/106/106 101/101/101
f 105/105/105 107/107/107 106/106/106
f 105/105/105 108/108/108 107/107/107
f 109/109/109 108/108/108 105/105/105
f 109/109/109 105/105/105 104/104/104
f 107/107/107 110/110/110 106/106/106
f 104/104/104 111/111/111 109/109/109
f 110/110/110 107/107/107 112/112/112
f 113/113/113 112/112/112 107/107/107
f 114/114/114 112/112/112 113/113/113
f 103/103/103 102/102/102 114/114/114
f 113/113/113 115/115/115 114/114/114
f 113/113/113 116/116/116 115/115/115
f 114/114/114 102/102/102 117/117/117
f 110/110/110 112/112/112 117/117/117
f 117/117/117 112/112/112 114/114/114
f 102/102/102 118/118/118 117/117/117
f 110/110/110 117/117/117 118/118/118
f 106/106/106 110/110/110 118/118/118
f 107/107/107 119/119/119 113/113/113
f 114/114/114 115/115/115 120/120/120
f 114/114/114 120/120/120 121/121/121
f 121/121/121 120/120/120 122/122/122
f 120/120/120 115/115/115 64/64/64
f 64/64/64 123/123/123 120/120/120
f 120/120/120 123/123/123 122/122/122
f 115/115/115 116/116/116 54/54/54
f 115/115/115 54/54/54 64/64/64
f 55/55/55 116/116/116 113/113/113
f 55/55/55 113/113/113 119/119/119
f 121/121/121 103/103/103 114/114/114
f 101/101/101 118/118/118 102/102/102
f 116/116/116 53/53/53 54/54/54
f 55/55/55 53/53/53 116/116/116
f 124/124/124 122/122/122 123/123/123
f 123/123/123 1/1/1 124/124/124
f 1/1/1 4/4/4 124/124/124
f 124/124/124 4/4/4 122/122/122
f 122/122/122 4/4/4 125/125/125
f 125/125/125 121/121/121 122/122/122
f 125/125/125 103/103/103 121/121/121
f 4/4/4 126/126/126 125/125/125
f 126/126/126 103/103/103 125/125/125
f 95/95/95 126/126/126 4/4/4
f 95/95/95 4/4/4 127/127/127
f 128/128/128 126/126/126 95/95/95
f 129/129/129 126/126/126 128/128/128
f 129/129/129 103/103/103 126/126/126
f 3/3/3 1/1/1 123/123/123
f 99/99/99 129/129/129 128/128/128
f 103/103/103 129/129/129 99/99/99
f 4/4/4 5/5/5 127/127/127
f 127/127/127 96/96/96 95/95/95
f 96/96/96 127/127/127 5/5/5
f 6/6/6 96/96/96 5/5/5
f 95/95/95 90/90/90 128/128/128
f 99/99/99 128/128/128 90/90/90
f 130/130/130 3/3/3 59/59/59
f 59/59/59 50/50/50 130/130/130
f 50/50/50 61/61/61 130/130/130
f 11/11/11 130/130/130 61/61/61
f 11/11/11 9/9/9 130/130/130
f 11/11/11 61/61/61 62/62/62
f 62/62/62 12/12/12 11/11/11
f 12/12/12 62/62/62 22/22/22
f 3/3/3 64/64/64 59/59/59
f 123/123/123 64/64/64 3/3/3
f 8/8/8 130/130/130 9/9/9
f 130/130/130 8/8/8 3/3/3
f 132/132/132 131/131/131 94/94/94
f 131/131/131 104/104/104 94/94/94
f 131/131/131 111/111/111 104/104/104
f 119/119/119 107/107/107 133/133/133
f 108/108/108 133/133/133 107/107/107
f 106/106/106 118/118/118 101/101/101
f 46/46/46 29/29/29 63/63/63
f 49/49/49 46/46/46 63/63/63
f 136/136/136 135/135/135 134/134/134
f 137/137/137 134/134/134 135/135/135
f 137/137/137 136/136/136 138/138/138
f 137/137/137 138/138/138 134/134/134
f 137/137/137 139/139/139 136/136/136
f 136/136/136 139/139/139 135/135/135
