g Tree9
v -0.2896442 0.1902118 0.3151861
v -0.1990509 0.2619314 0.2018768
v -0.2506934 0.03428039 0.2870978
v -0.3902099 0.3229221 0.1607074
v -0.288078 0.4108984 0.1949823
v -0.1493097 0.5026752 0.1319635
v 0.02123779 0.4562561 0.18388
v -0.1643066 0.09373901 0.2373883
v -0.08692932 0.302092 0.2543219
v -0.07071777 0.3984692 0.3958673
v -0.05095031 0.1964902 0.4101117
v 0.0584082 0.2892737 0.5123517
v 0.09012084 0.5054535 0.3452948
v 0.1994122 0.4574414 0.2486017
v 0.2440167 0.5677716 0.08480652
v 0.1179407 0.5083081 0.0220282
v -0.04703857 0.6056882 0.06011536
v 0.04853882 0.5769776 -0.05128357
v 0.2173382 0.4724771 -0.08095398
v 0.2220642 0.4400555 0.3912701
v 0.07050537 0.4429221 0.4657977
v 0.1950641 0.3121265 0.4971954
v 0.05642029 0.450932 -0.1697076
v 0.3535303 0.4688571 0.1789191
v 0.3720526 0.4621509 0.009127808
v 0.2914667 0.3234552 0.2578143
v 0.4087622 0.301882 0.0888092
v 0.358606 0.3858533 -0.05707092
v 0.2326129 0.2080908 0.2217047
v 0.4965234 0.2818115 -0.05161804
v 0.3678009 0.2979343 -0.2072845
v 0.4519501 0.1174911 -0.1547967
v 0.2801666 0.2681714 0.3885174
v 0.4684296 0.06930237 0.01779846
v 0.4353308 0.1887704 0.115174
v 0.5222546 0.03727844 0.1887482
v 0.2309643 -0.04634918 -0.1055865
v 0.2857373 0.2324164 -0.2708404
v 0.2930176 -0.09688903 0.02552429
v 0.4562994 -0.1082333 0.1029315
v 0.2719373 -0.154978 0.1749322
v 0.4156622 -0.1173758 0.264837
v 0.448186 0.06779937 0.3180194
v 0.4145142 0.1892578 0.2433185
v 0.321958 0.09060516 0.3559869
v 0.2198187 0.05165497 0.3349054
v 0.3334485 -0.06814697 0.3340338
v 0.1640753 -0.09941559 0.2794574
v 0.09973877 -0.005036926 0.4449701
v -0.05357116 -0.0714328 0.357547
v 0.03428894 -0.205332 0.1791705
v -0.118089 -0.2610061 0.3023138
v -0.1809723 -0.2766254 0.1115326
v -0.3044806 -0.1900183 0.2465741
v -0.08361389 -0.1601797 0.01113709
v 0.1506573 -0.2183566 0.04061462
v -0.01888367 -0.295079 -0.1135858
v 0.1918591 -0.2078867 -0.1586908
v -0.2206726 -0.08873779 0.3623199
v 0.1428314 -0.2179947 0.2004669
v -0.05675537 0.07152496 0.4414947
v 0.09827636 0.1518619 0.4503827
v 0.1990662 0.1508893 0.355805
v -0.3250397 -0.0402243 0.2443097
v 0.1791131 -0.04849579 -0.242182
v 0.06125854 -0.1157355 -0.3451471
v 0.09802246 -0.2299414 -0.2454425
v 0.1682556 -0.0006237793 -0.4509222
v 0.02150024 0.03460388 -0.4986322
v 0.08915405 0.1831592 -0.4737091
v -0.03357361 0.2048914 -0.4449054
v 0.05623779 0.3442035 -0.5123517
v 0.2210156 0.3270251 -0.4533063
v 0.122962 0.479516 -0.3975385
v 0.2548706 0.3803845 -0.3240314
v 0.1523822 0.4829318 -0.2309576
v -0.03377014 0.4634109 -0.361933
v -0.1067902 0.3545264 -0.275069
v -0.1766199 0.4446338 -0.1661029
v -0.07944946 0.3057556 -0.4240741
v -0.07189941 0.5823258 -0.1333173
v -0.1051086 0.02636078 -0.4332758
v -0.03575562 -0.1007571 -0.2987286
v 0.1922192 0.1717078 -0.4027679
v 0.2091815 0.09674469 -0.199007
v 0.2293982 0.05319122 -0.3285419
v -0.04703857 0.6056882 0.06011536
v -0.04646911 -0.2083588 -0.2370465
v 0.2917621 0.4528647 -0.1983441
v -0.3166437 0.3818304 -0.1727582
v -0.1766199 0.4446338 -0.1661029
v -0.3397149 0.5413705 -0.06946594
v -0.2245892 0.3355908 -0.3025348
v -0.1067902 0.3545264 -0.275069
v -0.4616583 0.4191339 -0.04435119
v -0.3274841 0.5240185 0.1190167
v -0.203139 0.5572458 -0.01360657
v -0.07189941 0.5823258 -0.1333173
v -0.3585675 0.2027112 -0.21685
v -0.2415613 0.1667215 -0.2855463
v -0.3516009 0.06531036 -0.3321551
v -0.4777722 0.02984894 -0.1970819
v -0.4035132 0.1022794 -0.04541931
v -0.1049518 0.2332397 -0.3063422
v -0.13284 0.02732819 -0.2878424
v -0.20539 -0.0242749 -0.3421735
v -0.1469702 -0.1305862 -0.1693121
v -0.03575562 -0.1007571 -0.2987286
v -0.1051086 0.02636078 -0.4332758
v -0.2608777 -0.1609543 -0.2272955
v -0.03357361 0.2048914 -0.4449054
v -0.2881799 -0.1546826 -0.07079773
v -0.1709729 -0.05832428 -0.007261352
v -0.3844684 -0.004721985 0.006387329
v -0.3326898 -0.06609802 0.1258112
v -0.2639587 -0.18526 0.06115906
v -0.4223205 -0.1277771 -0.1548895
v -0.3379028 -0.07122131 -0.3250934
v -0.01888367 -0.295079 -0.1135858
v -0.481098 -0.02243469 0.1809857
v -0.5222546 0.06693115 0.07868347
v -0.51797 0.1865115 0.2261102
v -0.4020898 0.07839264 0.3213422
v -0.4125409 0.2445419 0.2778302
v -0.5076458 0.2009161 0.0602008
v -0.4192535 0.2520322 0.01114441
v -0.4173651 0.4279214 0.1189618
v -0.363352 0.2671094 -0.1220868
v -0.3266602 0.1748538 -0.04325134
v -0.1512195 0.04570129 0.3257367
v -0.07944946 0.3057556 -0.4240741
v -0.03377014 0.4634109 -0.361933
v -0.04646911 -0.2083588 -0.2370465
v -0.09957702 -0.01542084 0.01666321
v -0.1100146 -0.6042517 0.02334534
v 0.07090027 -0.01882172 -0.01673279
v 0.02913818 -0.6056882 0.114118
v 0.05071777 -0.01640991 0.1642682
v 0.06377441 -0.5969348 -0.0107843
vt 0.3126165 0.9396715
vt 0.3119768 0.9457589
vt 0.3128404 0.9264758
vt 0.3027071 0.9505019
vt 0.307443 0.9573619
vt 0.3104108 0.9645343
vt 0.3325793 0.9609069
vt 0.3155461 0.9314495
vt 0.3223392 0.9488586
vt 0.3258556 0.9563906
vt 0.326892 0.9410794
vt 0.3325446 0.947857
vt 0.3358119 0.9647513
vt 0.3455077 0.9609989
vt 0.3584187 0.969621
vt 0.3618717 0.9649744
vt 0.3146285 0.9725844
vt 0.386331 0.9702668
vt 0.3759355 0.9620943
vt 0.3418247 0.9596404
vt 0.333391 0.9598644
vt 0.3385453 0.9496425
vt 0.398426 0.9603158
vt 0.3553303 0.9618912
vt 0.3661077 0.96134
vt 0.3494381 0.9505278
vt 0.3619273 0.9488057
vt 0.3714122 0.955322
vt 0.3485814 0.9415125
vt 0.370473 0.9471755
vt 0.381312 0.9483656
vt 0.3766229 0.9317924
vt 0.3443263 0.9462078
vt 0.3666432 0.9276233
vt 0.3609169 0.9384102
vt 0.3582894 0.9252709
vt 0.3790482 0.9181288
vt 0.3881286 0.9431878
vt 0.365481 0.9124953
vt 0.361857 0.9118583
vt 0.3526576 0.9089997
vt 0.352787 0.9123564
vt 0.3518295 0.9287734
vt 0.3538954 0.9390778
vt 0.3467221 0.9311327
vt 0.3430226 0.9277831
vt 0.3476491 0.9172027
vt 0.3416137 0.9147131
vt 0.3344569 0.9233301
vt 0.3256889 0.9183077
vt 0.3334118 0.9060789
vt 0.3200581 0.9021875
vt 0.3051697 0.9005348
vt 0.3083527 0.9075745
vt 0.2950502 0.9107472
vt 0.3605228 0.9022353
vt 0.4093041 0.9011399
vt 0.3855914 0.9052048
vt 0.3164601 0.9164362
vt 0.3436067 0.9040546
vt 0.3265014 0.9304636
vt 0.3346539 0.9362037
vt 0.3415512 0.9359477
vt 0.3077694 0.9203779
vt 0.3921849 0.9196027
vt 0.4044137 0.915175
vt 0.3979824 0.9047986
vt 0.3992776 0.9237624
vt 0.4077981 0.9275182
vt 0.4048668 0.9387028
vt 0.4109282 0.9413381
vt 0.4048581 0.9518968
vt 0.3967369 0.9505635
vt 0.3985832 0.9625656
vt 0.3908213 0.9547847
vt 0.3917257 0.9628496
vt 0.4081219 0.9612827
vt 0.4156095 0.9527188
vt 0.4129516 0.9584026
vt 0.4122059 0.9488648
vt 0.4038677 0.9692469
vt 0.414264 0.9268126
vt 0.4112138 0.9166783
vt 0.3979252 0.9369763
vt 0.3878804 0.9313671
vt 0.3927873 0.9280139
vt 0.3979365 0.9703927
vt 0.4112711 0.908051
vt 0.3822877 0.9605215
vt 0.2820151 0.9556354
vt 0.276616 0.9604242
vt 0.2895669 0.9675585
vt 0.2717576 0.9523585
vt 0.2658854 0.9537856
vt 0.2916155 0.9581786
vt 0.3017644 0.9662018
vt 0.2925382 0.9687989
vt 0.2701249 0.970759
vt 0.2797001 0.9422287
vt 0.2717203 0.938293
vt 0.2736725 0.9299123
vt 0.2822807 0.927125
vt 0.2893326 0.9330875
vt 0.2637978 0.9447685
vt 0.26406 0.926922
vt 0.266789 0.9217755
vt 0.2712768 0.9121655
vt 0.2573745 0.9148216
vt 0.2595914 0.9270651
vt 0.2746899 0.9096969
vt 0.2576878 0.9426427
vt 0.2860046 0.9107472
vt 0.2907023 0.9195585
vt 0.2921944 0.9242597
vt 0.3006637 0.9188197
vt 0.2974052 0.9085562
vt 0.2832668 0.9131716
vt 0.2731352 0.9177938
vt 0.2633109 0.9016259
vt 0.3006725 0.922541
vt 0.2956422 0.9304149
vt 0.3026221 0.9394172
vt 0.3087841 0.9303949
vt 0.307338 0.9444899
vt 0.2954365 0.9417
vt 0.2935833 0.9454569
vt 0.3001768 0.9586926
vt 0.2853379 0.9469091
vt 0.2893308 0.9388096
vt 0.3193533 0.9279124
vt 0.2612024 0.950159
vt 0.2606869 0.961866
vt 0.2633665 0.9099554
vt 0.3416033 0.8972285
vt 0.3416242 0.8751259
vt 0.3448263 0.8971417
vt 0.3380557 0.8746676
vt 0.3351113 0.8971356
vt 0.3448949 0.8750399
vn 0.336613 0.3594804 0.870325
vn -0.03023607 0.3728934 0.9273815
vn -0.0150491 0.1241246 0.9921525
vn -0.6451924 0.4892711 0.5868054
vn -0.0492557 0.2442542 0.9684595
vn -0.1036247 0.5833012 0.8056188
vn -0.2598149 0.8455608 0.4663937
vn -0.4253598 0.408939 0.8073648
vn -0.8556401 0.3856541 0.3451825
vn -0.8454494 0.4286264 0.3185821
vn -0.7582769 0.09304325 0.645259
vn -0.300364 -0.06269478 0.951762
vn -0.1406153 0.9874451 0.07196923
vn 0.2675052 0.889101 0.371403
vn 0.1064786 0.9920927 0.06644073
vn 0.1233589 0.9916881 -0.03656976
vn 0.05018187 0.9154603 0.3992672
vn 0.5521179 0.7918937 -0.2609029
vn 0.1884982 0.9469725 -0.2602143
vn 0.6665272 0.6381797 0.3853156
vn -0.1359453 0.6386895 0.7573603
vn 0.5124716 -0.002483683 0.8587006
vn -0.05443778 0.9380279 -0.3422576
vn 0.7128549 0.4849568 0.506611
vn 0.7703421 0.5761864 -0.2730974
vn 0.892191 -0.0475149 0.449152
vn 0.8347483 0.2556711 0.4876759
vn 0.7312093 0.638001 -0.2414285
vn 0.7346695 0.1824803 0.653423
vn 0.9256643 0.3535301 -0.1347665
vn 0.751589 0.2879533 -0.5934618
vn 0.6270742 -0.4685312 -0.6222993
vn 0.8992922 -0.2107032 0.3832464
vn 0.8776408 -0.3659475 -0.3095623
vn 0.8267513 0.4409476 0.349353
vn 0.9936531 -0.02289914 0.1101331
vn 0.6937935 -0.5393441 -0.4772408
vn 0.629492 -0.3681497 -0.6842555
vn 0.4786564 -0.7136273 -0.5114921
vn 0.621834 -0.6838838 -0.3816088
vn 0.2847223 -0.950793 0.1221716
vn 0.5047833 -0.7494874 0.4283252
vn 0.6711271 0.1084018 0.7333741
vn 0.4078914 0.8240612 0.3931257
vn 0.00457987 0.3849037 0.9229454
vn 0.3092977 -0.07612529 0.9479135
vn 0.08287372 -0.4673273 0.8801915
vn 0.1487197 -0.7091434 0.6892012
vn 0.248997 -0.5137402 0.8210185
vn 0.06982514 -0.533367 0.8429971
vn 0.206059 -0.9516758 0.2277122
vn 0.153531 -0.8121356 0.5629066
vn -0.08013497 -0.9565204 -0.2804412
vn -0.7210199 -0.5970027 0.3517358
vn -0.275379 -0.954048 -0.1181479
vn 0.3235475 -0.9443505 0.05932255
vn -0.2359362 -0.9584951 0.1600665
vn 0.7661083 -0.6256585 -0.1470696
vn -0.3363312 -0.1488726 0.9299023
vn 0.1562096 -0.8831518 0.4423138
vn -0.451121 -0.1192578 0.8844588
vn 0.2269854 -0.2591235 0.9387932
vn 0.8237258 -0.2907246 0.4867803
vn -0.6101162 -0.4622028 0.6435267
vn 0.8618042 -0.3634557 -0.3538266
vn 0.1841553 -0.7570783 -0.6268327
vn 0.2942019 -0.7700045 -0.566161
vn 0.5548542 -0.4702368 -0.6863047
vn -0.1245659 -0.3302505 -0.9356377
vn 0.2040848 -0.05929343 -0.9771559
vn -0.6139548 0.0646578 -0.7866886
vn -0.07982929 0.2814825 -0.9562399
vn 0.6793849 0.1403474 -0.7202351
vn 0.2070834 0.8646435 -0.4577204
vn 0.7719455 0.4701649 -0.4278376
vn 0.1078102 0.9931271 -0.0455587
vn -0.553413 0.8012752 -0.2273586
vn -0.4726533 0.7347168 -0.4866108
vn -0.1728989 0.661319 -0.7299063
vn -0.7945241 0.1582765 -0.5862424
vn -0.1121817 0.74208 -0.6608574
vn -0.7608745 -0.2619575 -0.5936736
vn -0.5387106 -0.5900525 -0.601356
vn 0.7984573 -0.1973499 -0.5687872
vn 0.7818512 -0.411694 -0.4682058
vn 0.985788 -0.1261217 -0.1109736
vn 0.05018187 0.9154603 0.3992672
vn -0.4585983 -0.6337088 -0.6229773
vn 0.6096166 0.7515529 -0.2520631
vn -0.5538217 0.4153744 -0.721627
vn -0.1728989 0.661319 -0.7299063
vn -0.413382 0.8216167 -0.3925066
vn -0.3485966 0.3980073 -0.8485697
vn -0.4726533 0.7347168 -0.4866108
vn -0.9279312 0.2602117 -0.2668962
vn -0.3376529 0.8223163 0.4580243
vn -0.2122207 0.9720443 -0.1004604
vn -0.1121817 0.74208 -0.6608574
vn -0.7894765 0.4187427 -0.4487554
vn -0.1666996 0.1523519 -0.9741664
vn -0.4349025 0.2602631 -0.8620458
vn -0.9826973 0.08051024 -0.1668052
vn -0.9371328 0.2845746 -0.2019885
vn -0.6523649 0.05654119 -0.755793
vn -0.5055218 -0.2773797 -0.8170118
vn 0.3651847 -0.2302492 -0.9020118
vn -0.3883714 -0.8988053 -0.203265
vn -0.5387106 -0.5900525 -0.601356
vn -0.7608745 -0.2619575 -0.5936736
vn 0.06166168 -0.9213185 -0.3838879
vn -0.6139548 0.0646578 -0.7866886
vn -0.08181357 -0.8377676 0.5398629
vn -0.4682124 -0.8826864 -0.04051899
vn -0.6795481 -0.7282082 0.0890347
vn -0.6302605 -0.7168905 -0.2980599
vn -0.6347347 -0.4423712 -0.6335768
vn -0.7511519 -0.6588539 0.04101386
vn -0.4111605 -0.4861332 -0.7711172
vn -0.2359362 -0.9584951 0.1600665
vn -0.7055163 -0.6634781 0.2490855
vn -0.9031302 -0.3080994 -0.2990494
vn -0.8812352 0.2343802 0.4104759
vn -0.3848109 -0.2489881 0.8887775
vn -0.2903813 0.5986097 0.7465554
vn -0.8461072 0.404401 -0.347221
vn -0.9385325 0.03286701 -0.3436228
vn -0.8174797 0.3370433 0.4670425
vn -0.9104756 -0.175257 -0.374592
vn -0.9109247 0.2480947 -0.329644
vn -0.6509911 0.265864 0.7110041
vn -0.7945241 0.1582765 -0.5862424
vn -0.553413 0.8012752 -0.2273586
vn -0.4585983 -0.6337088 -0.6229773
vn -0.9914441 -0.0398721 -0.1242941
vn -0.9802034 0.0151348 -0.1974137
vn 0.6839224 -0.04270611 -0.7283038
vn 0.147083 -0.008718862 0.9890857
vn 0.1813749 -0.08998562 0.9792884
vn 0.5557707 -0.01540392 -0.831193
g Tree9_0
f 3/3/3 2/2/2 1/1/1
f 2/2/2 4/4/4 1/1/1
f 5/5/5 4/4/4 2/2/2
f 6/6/6 5/5/5 2/2/2
f 6/6/6 2/2/2 7/7/7
f 3/3/3 8/8/8 2/2/2
f 2/2/2 8/8/8 9/9/9
f 7/7/7 2/2/2 9/9/9
f 7/7/7 9/9/9 10/10/10
f 9/9/9 11/11/11 10/10/10
f 12/12/12 10/10/10 11/11/11
f 13/13/13 7/7/7 10/10/10
f 7/7/7 13/13/13 14/14/14
f 15/15/15 7/7/7 14/14/14
f 7/7/7 15/15/15 16/16/16
f 16/16/16 17/17/17 7/7/7
f 6/6/6 7/7/7 17/17/17
f 18/18/18 17/17/17 16/16/16
f 16/16/16 15/15/15 19/19/19
f 14/14/14 13/13/13 20/20/20
f 10/10/10 12/12/12 21/21/21
f 20/20/20 13/13/13 21/21/21
f 21/21/21 13/13/13 10/10/10
f 20/20/20 21/21/21 22/22/22
f 21/21/21 12/12/12 22/22/22
f 23/23/23 18/18/18 16/16/16
f 16/16/16 19/19/19 23/23/23
f 24/24/24 15/15/15 14/14/14
f 15/15/15 25/25/25 19/19/19
f 15/15/15 24/24/24 25/25/25
f 14/14/14 26/26/26 24/24/24
f 26/26/26 14/14/14 20/20/20
f 26/26/26 27/27/27 24/24/24
f 24/24/24 27/27/27 25/25/25
f 25/25/25 27/27/27 28/28/28
f 19/19/19 25/25/25 28/28/28
f 29/29/29 27/27/27 26/26/26
f 30/30/30 28/28/28 27/27/27
f 28/28/28 30/30/30 31/31/31
f 30/30/30 32/32/32 31/31/31
f 29/29/29 26/26/26 33/33/33
f 33/33/33 26/26/26 20/20/20
f 33/33/33 20/20/20 22/22/22
f 32/32/32 30/30/30 34/34/34
f 35/35/35 34/34/34 30/30/30
f 27/27/27 35/35/35 30/30/30
f 29/29/29 35/35/35 27/27/27
f 35/35/35 36/36/36 34/34/34
f 37/37/37 32/32/32 34/34/34
f 32/32/32 37/37/37 38/38/38
f 38/38/38 31/31/31 32/32/32
f 34/34/34 39/39/39 37/37/37
f 40/40/40 39/39/39 34/34/34
f 34/34/34 36/36/36 40/40/40
f 40/40/40 41/41/41 39/39/39
f 40/40/40 42/42/42 41/41/41
f 36/36/36 42/42/42 40/40/40
f 42/42/42 36/36/36 43/43/43
f 43/43/43 36/36/36 44/44/44
f 35/35/35 44/44/44 36/36/36
f 29/29/29 44/44/44 35/35/35
f 29/29/29 45/45/45 44/44/44
f 44/44/44 45/45/45 43/43/43
f 29/29/29 46/46/46 45/45/45
f 45/45/45 46/46/46 47/47/47
f 47/47/47 43/43/43 45/45/45
f 42/42/42 43/43/43 47/47/47
f 46/46/46 48/48/48 47/47/47
f 48/48/48 41/41/41 42/42/42
f 42/42/42 47/47/47 48/48/48
f 49/49/49 48/48/48 46/46/46
f 48/48/48 49/49/49 50/50/50
f 50/50/50 51/51/51 48/48/48
f 52/52/52 51/51/51 50/50/50
f 51/51/51 52/52/52 53/53/53
f 54/54/54 53/53/53 52/52/52
f 51/51/51 53/53/53 55/55/55
f 55/55/55 56/56/56 51/51/51
f 55/55/55 57/57/57 56/56/56
f 56/56/56 57/57/57 58/58/58
f 59/59/59 54/54/54 52/52/52
f 50/50/50 59/59/59 52/52/52
f 56/56/56 58/58/58 37/37/37
f 60/60/60 51/51/51 56/56/56
f 51/51/51 60/60/60 48/48/48
f 37/37/37 39/39/39 56/56/56
f 56/56/56 39/39/39 41/41/41
f 41/41/41 48/48/48 60/60/60
f 41/41/41 60/60/60 56/56/56
f 61/61/61 50/50/50 49/49/49
f 61/61/61 49/49/49 62/62/62
f 63/63/63 62/62/62 49/49/49
f 33/33/33 62/62/62 63/63/63
f 29/29/29 33/33/33 63/63/63
f 59/59/59 64/64/64 54/54/54
f 62/62/62 33/33/33 22/22/22
f 65/65/65 37/37/37 58/58/58
f 65/65/65 58/58/58 66/66/66
f 66/66/66 58/58/58 67/67/67
f 68/68/68 65/65/65 66/66/66
f 68/68/68 66/66/66 69/69/69
f 68/68/68 69/69/69 70/70/70
f 70/70/70 69/69/69 71/71/71
f 71/71/71 72/72/72 70/70/70
f 73/73/73 70/70/70 72/72/72
f 73/73/73 72/72/72 74/74/74
f 73/73/73 74/74/74 75/75/75
f 74/74/74 76/76/76 75/75/75
f 77/77/77 76/76/76 74/74/74
f 74/74/74 72/72/72 77/77/77
f 76/76/76 77/77/77 23/23/23
f 77/77/77 78/78/78 23/23/23
f 78/78/78 79/79/79 23/23/23
f 72/72/72 80/80/80 77/77/77
f 80/80/80 72/72/72 71/71/71
f 81/81/81 23/23/23 79/79/79
f 82/82/82 71/71/71 69/69/69
f 69/69/69 66/66/66 82/82/82
f 66/66/66 83/83/83 82/82/82
f 75/75/75 38/38/38 73/73/73
f 73/73/73 38/38/38 84/84/84
f 84/84/84 38/38/38 85/85/85
f 85/85/85 86/86/86 84/84/84
f 85/85/85 38/38/38 37/37/37
f 65/65/65 86/86/86 85/85/85
f 85/85/85 37/37/37 65/65/65
f 83/83/83 66/66/66 67/67/67
f 81/81/81 18/18/18 23/23/23
f 81/81/81 87/87/87 18/18/18
f 86/86/86 68/68/68 84/84/84
f 86/86/86 65/65/65 68/68/68
f 70/70/70 84/84/84 68/68/68
f 73/73/73 84/84/84 70/70/70
f 67/67/67 88/88/88 83/83/83
f 67/67/67 57/57/57 88/88/88
f 67/67/67 58/58/58 57/57/57
f 75/75/75 31/31/31 38/38/38
f 89/89/89 31/31/31 75/75/75
f 31/31/31 89/89/89 28/28/28
f 76/76/76 89/89/89 75/75/75
f 28/28/28 89/89/89 19/19/19
f 76/76/76 19/19/19 89/89/89
f 23/23/23 19/19/19 76/76/76
f 92/92/92 91/91/91 90/90/90
f 93/93/93 90/90/90 91/91/91
f 94/94/94 93/93/93 91/91/91
f 95/95/95 92/92/92 90/90/90
f 95/95/95 96/96/96 92/92/92
f 92/92/92 97/97/97 91/91/91
f 97/97/97 92/92/92 96/96/96
f 6/6/6 97/97/97 96/96/96
f 91/91/91 97/97/97 98/98/98
f 97/97/97 17/17/17 98/98/98
f 6/6/6 17/17/17 97/97/97
f 93/93/93 99/99/99 90/90/90
f 100/100/100 99/99/99 93/93/93
f 99/99/99 100/100/100 101/101/101
f 99/99/99 101/101/101 102/102/102
f 99/99/99 102/102/102 103/103/103
f 93/93/93 104/104/104 100/100/100
f 94/94/94 104/104/104 93/93/93
f 104/104/104 105/105/105 100/100/100
f 105/105/105 106/106/106 100/100/100
f 100/100/100 106/106/106 101/101/101
f 105/105/105 107/107/107 106/106/106
f 105/105/105 108/108/108 107/107/107
f 109/109/109 108/108/108 105/105/105
f 109/109/109 105/105/105 104/104/104
f 107/107/107 110/110/110 106/106/106
f 104/104/104 111/111/111 109/109/109
f 110/110/110 107/107/107 112/112/112
f 113/113/113 112/112/112 107/107/107
f 114/114/114 112/112/112 113/113/113
f 103/103/103 102/102/102 114/114/114
f 113/113/113 115/115/115 114/114/114
f 113/113/113 116/116/116 115/115/115
f 114/114/114 102/102/102 117/117/117
f 110/110/110 112/112/112 117/117/117
f 117/117/117 112/112/112 114/114/114
f 102/102/102 118/118/118 117/117/117
f 110/110/110 117/117/117 118/118/118
f 106/106/106 110/110/110 118/118/118
f 107/107/107 119/119/119 113/113/113
f 114/114/114 115/115/115 120/120/120
f 114/114/114 120/120/120 121/121/121
f 121/121/121 120/120/120 122/122/122
f 120/120/120 115/115/115 64/64/64
f 64/64/64 123/123/123 120/120/120
f 120/120/120 123/123/123 122/122/122
f 115/115/115 116/116/116 54/54/54
f 115/115/115 54/54/54 64/64/64
f 55/55/55 116/116/116 113/113/113
f 55/55/55 113/113/113 119/119/119
f 121/121/121 103/103/103 114/114/114
f 101/101/101 118/118/118 102/102/102
f 116/116/116 53/53/53 54/54/54
f 55/55/55 53/53/53 116/116/116
f 124/124/124 122/122/122 123/123/123
f 123/123/123 1/1/1 124/124/124
f 1/1/1 4/4/4 124/124/124
f 124/124/124 4/4/4 122/122/122
f 122/122/122 4/4/4 125/125/125
f 125/125/125 121/121/121 122/122/122
f 125/125/125 103/103/103 121/121/121
f 4/4/4 126/126/126 125/125/125
f 126/126/126 103/103/103 125/125/125
f 95/95/95 126/126/126 4/4/4
f 95/95/95 4/4/4 127/127/127
f 128/128/128 126/126/126 95/95/95
f 129/129/129 126/126/126 128/128/128
f 129/129/129 103/103/103 126/126/126
f 3/3/3 1/1/1 123/123/123
f 99/99/99 129/129/129 128/128/128
f 103/103/103 129/129/129 99/99/99
f 4/4/4 5/5/5 127/127/127
f 127/127/127 96/96/96 95/95/95
f 96/96/96 127/127/127 5/5/5
f 6/6/6 96/96/96 5/5/5
f 95/95/95 90/90/90 128/128/128
f 99/99/99 128/128/128 90/90/90
f 130/130/130 3/3/3 59/59/59
f 59/59/59 50/50/50 130/130/130
f 50/50/50 61/61/61 130/130/130
f 11/11/11 130/130/130 61/61/61
f 11/11/11 9/9/9 130/130/130
f 11/11/11 61/61/61 62/62/62
f 62/62/62 12/12/12 11/11/11
f 12/12/12 62/62/62 22/22/22
f 3/3/3 64/64/64 59/59/59
f 123/123/123 64/64/64 3/3/3
f 8/8/8 130/130/130 9/9/9
f 130/130/130 8/8/8 3/3/3
f 132/132/132 131/131/131 94/94/94
f 131/131/131 104/104/104 94/94/94
f 131/131/131 111/111/111 104/104/104
f 119/119/119 107/107/107 133/133/133
f 108/108/108 133/133/133 107/107/107
f 106/106/106 118/118/118 101/101/101
f 46/46/46 29/29/29 63/63/63
f 49/49/49 46/46/46 63/63/63
f 136/136/136 135/135/135 134/134/134
f 137/137/137 134/134/134 135/135/135
f 137/137/137 136/136/136 138/138/138
f 137/137/137 138/138/138 134/134/134
f 137/137/137 139/139/139 136/136/136
f 136/136/136 139/139/139 135/135/135
