g Tree3
v -0.3169852 0.1902118 -0.2886981
v -0.2032071 0.2619314 -0.1986932
v -0.2886954 0.03428039 -0.2498932
v -0.1630307 0.3229221 -0.3900641
v -0.1967752 0.4108984 -0.2877557
v -0.1330356 0.5026752 -0.149317
v -0.1840652 0.4562564 0.02149841
v -0.2385367 0.09373932 -0.1637665
v -0.2550693 0.302092 -0.08630188
v -0.3965274 0.3984692 -0.06935485
v -0.4106692 0.1964902 -0.04951355
v -0.5123392 0.289274 0.06037537
v -0.3451199 0.5054535 0.09121887
v -0.247861 0.4574414 0.2000067
v -0.08383575 0.5677716 0.2437592
v -0.02171417 0.5083081 0.117359
v -0.06065765 0.6056882 -0.04742004
v 0.05123688 0.5769776 0.04757629
v 0.08178436 0.4724771 0.2162201
v -0.3904099 0.4400558 0.223399
v -0.4657236 0.4429224 0.07222962
v -0.4964731 0.3121265 0.1969501
v 0.1697 0.450932 0.05484314
v -0.1773776 0.4688574 0.3537604
v -0.00749237 0.4621509 0.3713995
v -0.2565951 0.3234552 0.2921076
v -0.08698273 0.301882 0.4085236
v 0.05863495 0.3858536 0.3576092
v -0.2207907 0.2080911 0.233067
v 0.05389862 0.2818115 0.4955536
v 0.2088943 0.2979346 0.3660235
v 0.1568448 0.1174915 0.4504449
v -0.387355 0.2681714 0.2814862
v -0.01566315 0.06930267 0.4678217
v -0.1132083 0.1887707 0.4352289
v -0.1863303 0.03727844 0.5225335
v 0.1064865 -0.04634918 0.2297174
v 0.272023 0.2324167 0.283631
v -0.02429962 -0.09688903 0.2924518
v -0.1008578 -0.1082333 0.4561334
v -0.1738156 -0.154978 0.2721478
v -0.2629721 -0.1173758 0.4163373
v -0.3159848 0.06779937 0.4491376
v -0.2414597 0.1892578 0.4150775
v -0.3546079 0.09060547 0.3231085
v -0.3340567 0.05165527 0.2208612
v -0.3325949 -0.06814667 0.3344855
v -0.2788998 -0.09941559 0.1648309
v -0.444744 -0.005036621 0.1013544
v -0.3581186 -0.07143249 -0.05240783
v -0.179288 -0.205332 0.03452453
v -0.3032211 -0.2610061 -0.1172113
v -0.1127695 -0.2766254 -0.1810846
v -0.2484512 -0.1900183 -0.3038898
v -0.01186981 -0.1601797 -0.08424988
v -0.0401297 -0.2183563 0.1501715
v 0.1131882 -0.295079 -0.02016785
v 0.1593875 -0.2078864 0.1903363
v -0.3637601 -0.08873779 -0.2194818
v -0.2000204 -0.2179947 0.1431757
v -0.4420816 0.07152527 -0.05515564
v -0.4501645 0.1518619 0.09992004
v -0.3550644 0.1508896 0.2002179
v -0.2462942 -0.0402243 -0.324461
v 0.2428104 -0.04849579 0.1771576
v 0.3451627 -0.1157352 0.05876892
v 0.2456497 -0.2299414 0.09605163
v 0.4514926 -0.0006237793 0.1652154
v 0.498439 0.03460388 0.0182135
v 0.4738681 0.1831592 0.0859967
v 0.4444272 0.2048914 -0.0365802
v 0.5123392 0.3442035 0.05288025
v 0.4541501 0.3270251 0.217962
v 0.3978738 0.479516 0.1201996
v 0.3250528 0.3803845 0.2524884
v 0.2314481 0.4829321 0.1504852
v 0.3614542 0.4634109 -0.03634582
v 0.2742117 0.3545264 -0.108913
v 0.1648843 0.4446338 -0.1781757
v 0.4233578 0.3057556 -0.0823468
v 0.1326431 0.5823258 -0.07328674
v 0.4324252 0.02636078 -0.1080536
v 0.29824 -0.1007568 -0.03800232
v 0.4034628 0.1717078 0.1894293
v 0.1997934 0.09674499 0.2074493
v 0.3294302 0.05319122 0.226994
v -0.06065765 0.6056882 -0.04742004
v 0.2365036 -0.2083585 -0.04839538
v 0.1995596 0.4528647 0.2900324
v 0.1708121 0.3818304 -0.3182318
v 0.1648843 0.4446338 -0.1781757
v 0.06740081 0.5413705 -0.340766
v 0.3010654 0.3355908 -0.2268536
v 0.2742117 0.3545264 -0.108913
v 0.04165374 0.4191342 -0.4625775
v -0.1210153 0.5240185 -0.3275568
v 0.0122525 0.5572458 -0.203902
v 0.1326431 0.5823258 -0.07328674
v 0.214686 0.2027115 -0.3603851
v 0.2839883 0.1667215 -0.2437372
v 0.3300259 0.06531036 -0.3540167
v 0.1942978 0.02984894 -0.4794842
v 0.04302337 0.1022797 -0.4044391
v 0.3054941 0.2332397 -0.1072369
v 0.2868503 0.02732819 -0.1350287
v 0.3408035 -0.0242749 -0.2078607
v 0.1682474 -0.1305859 -0.1485431
v 0.29824 -0.1007568 -0.03800232
v 0.4324252 0.02636078 -0.1080536
v 0.2256387 -0.1609543 -0.2627508
v 0.4444272 0.2048914 -0.0365802
v 0.06900055 -0.1546823 -0.2892389
v 0.006073914 -0.05832428 -0.1717035
v -0.008683776 -0.004721985 -0.3851251
v -0.1278372 -0.06609802 -0.3327264
v -0.06282806 -0.18526 -0.2643317
v 0.1523947 -0.1277768 -0.4238141
v 0.3230343 -0.07122131 -0.3402826
v 0.1131882 -0.295079 -0.02016785
v -0.183782 -0.02243439 -0.4808453
v -0.08169403 0.06693146 -0.5225335
v -0.2290976 0.1865115 -0.5174823
v -0.3237253 0.07839295 -0.401109
v -0.2802683 0.2445422 -0.4117865
v -0.06313568 0.2009164 -0.5080206
v -0.01362152 0.2520325 -0.4198846
v -0.1214273 0.4279214 -0.4174359
v 0.1198984 0.2671094 -0.3646759
v 0.04125458 0.1748541 -0.3275751
v -0.3268167 0.04570129 -0.1502203
v 0.4233578 0.3057556 -0.0823468
v 0.3614542 0.4634109 -0.03634582
v 0.2365036 -0.2083585 -0.04839538
v -0.01747833 -0.01542084 -0.1001837
v -0.02421478 -0.6042517 -0.1105865
v 0.01680267 -0.01882141 0.07011779
v -0.114263 -0.6056882 0.02903625
v -0.1643008 -0.01640961 0.05087585
v 0.01081696 -0.5969345 0.06302307
vt 0.3126165 0.9396715
vt 0.3119768 0.9457589
vt 0.3128404 0.9264758
vt 0.3027071 0.9505019
vt 0.307443 0.9573619
vt 0.3104108 0.9645343
vt 0.3325793 0.9609069
vt 0.3155461 0.9314495
vt 0.3223392 0.9488586
vt 0.3258556 0.9563906
vt 0.326892 0.9410794
vt 0.3325446 0.947857
vt 0.3358119 0.9647513
vt 0.3455077 0.9609989
vt 0.3584187 0.969621
vt 0.3618717 0.9649744
vt 0.3146285 0.9725844
vt 0.386331 0.9702668
vt 0.3759355 0.9620943
vt 0.3418247 0.9596404
vt 0.333391 0.9598644
vt 0.3385453 0.9496425
vt 0.398426 0.9603158
vt 0.3553303 0.9618912
vt 0.3661077 0.96134
vt 0.3494381 0.9505278
vt 0.3619273 0.9488057
vt 0.3714122 0.955322
vt 0.3485814 0.9415125
vt 0.370473 0.9471755
vt 0.381312 0.9483656
vt 0.3766229 0.9317924
vt 0.3443263 0.9462078
vt 0.3666432 0.9276233
vt 0.3609169 0.9384102
vt 0.3582894 0.9252709
vt 0.3790482 0.9181288
vt 0.3881286 0.9431878
vt 0.365481 0.9124953
vt 0.361857 0.9118583
vt 0.3526576 0.9089997
vt 0.352787 0.9123564
vt 0.3518295 0.9287734
vt 0.3538954 0.9390778
vt 0.3467221 0.9311327
vt 0.3430226 0.9277831
vt 0.3476491 0.9172027
vt 0.3416137 0.9147131
vt 0.3344569 0.9233301
vt 0.3256889 0.9183077
vt 0.3334118 0.9060789
vt 0.3200581 0.9021875
vt 0.3051697 0.9005348
vt 0.3083527 0.9075745
vt 0.2950502 0.9107472
vt 0.3605228 0.9022353
vt 0.4093041 0.9011399
vt 0.3855914 0.9052048
vt 0.3164601 0.9164362
vt 0.3436067 0.9040546
vt 0.3265014 0.9304636
vt 0.3346539 0.9362037
vt 0.3415512 0.9359477
vt 0.3077694 0.9203779
vt 0.3921849 0.9196027
vt 0.4044137 0.915175
vt 0.3979824 0.9047986
vt 0.3992776 0.9237624
vt 0.4077981 0.9275182
vt 0.4048668 0.9387028
vt 0.4109282 0.9413381
vt 0.4048581 0.9518968
vt 0.3967369 0.9505635
vt 0.3985832 0.9625656
vt 0.3908213 0.9547847
vt 0.3917257 0.9628496
vt 0.4081219 0.9612827
vt 0.4156095 0.9527188
vt 0.4129516 0.9584026
vt 0.4122059 0.9488648
vt 0.4038677 0.9692469
vt 0.414264 0.9268126
vt 0.4112138 0.9166783
vt 0.3979252 0.9369763
vt 0.3878804 0.9313671
vt 0.3927873 0.9280139
vt 0.3979365 0.9703927
vt 0.4112711 0.908051
vt 0.3822877 0.9605215
vt 0.2820151 0.9556354
vt 0.276616 0.9604242
vt 0.2895669 0.9675585
vt 0.2717576 0.9523585
vt 0.2658854 0.9537856
vt 0.2916155 0.9581786
vt 0.3017644 0.9662018
vt 0.2925382 0.9687989
vt 0.2701249 0.970759
vt 0.2797001 0.9422287
vt 0.2717203 0.938293
vt 0.2736725 0.9299123
vt 0.2822807 0.927125
vt 0.2893326 0.9330875
vt 0.2637978 0.9447685
vt 0.26406 0.926922
vt 0.266789 0.9217755
vt 0.2712768 0.9121655
vt 0.2573745 0.9148216
vt 0.2595914 0.9270651
vt 0.2746899 0.9096969
vt 0.2576878 0.9426427
vt 0.2860046 0.9107472
vt 0.2907023 0.9195585
vt 0.2921944 0.9242597
vt 0.3006637 0.9188197
vt 0.2974052 0.9085562
vt 0.2832668 0.9131716
vt 0.2731352 0.9177938
vt 0.2633109 0.9016259
vt 0.3006725 0.922541
vt 0.2956422 0.9304149
vt 0.3026221 0.9394172
vt 0.3087841 0.9303949
vt 0.307338 0.9444899
vt 0.2954365 0.9417
vt 0.2935833 0.9454569
vt 0.3001768 0.9586926
vt 0.2853379 0.9469091
vt 0.2893308 0.9388096
vt 0.3193533 0.9279124
vt 0.2612024 0.950159
vt 0.2606869 0.961866
vt 0.2633665 0.9099554
vt 0.3416033 0.8972285
vt 0.3416242 0.8751259
vt 0.3448263 0.8971417
vt 0.3380557 0.8746676
vt 0.3351113 0.8971356
vt 0.3448949 0.8750399
vn -0.8685651 0.3594831 0.3411255
vn -0.9275253 0.3728951 -0.02541741
vn -0.9922174 0.1241237 -0.009897053
vn -0.5901487 0.4892734 -0.6421341
vn -0.9687023 0.2442552 -0.04421937
vn -0.8061456 0.5833028 -0.09943296
vn -0.4677374 0.8455608 -0.2573879
vn -0.809561 0.408947 -0.4211573
vn -0.3496247 0.3856556 -0.8538339
vn -0.3229686 0.4286305 -0.8437814
vn -0.6491967 0.09304208 -0.7549085
vn -0.9533107 -0.06269321 -0.295412
vn -0.07269695 0.9874451 -0.1402405
vn -0.3700096 0.8891011 0.2694292
vn -0.0658839 0.992093 0.1068207
vn 0.03721505 0.9916885 0.1231619
vn -0.3990009 0.9154602 0.0522585
vn 0.2637716 0.7918941 0.5507526
vn 0.2611876 0.9469736 0.1871421
vn -0.3818514 0.6381784 0.6685191
vn -0.7580564 0.6386892 -0.1320098
vn -0.8560238 -0.002483299 0.5169303
vn 0.3419704 0.9380278 -0.05621598
vn -0.5028958 0.4849592 0.7154791
vn 0.2770968 0.5761844 0.7689142
vn -0.4445116 -0.04751524 0.8945119
vn -0.4833336 0.2556691 0.8372705
vn 0.2452252 0.6380019 0.729944
vn -0.649596 0.1824801 0.7380555
vn 0.1395794 0.3535343 0.9249492
vn 0.597361 0.2879544 0.7484932
vn 0.6255504 -0.4685313 0.623831
vn -0.3785621 -0.2107035 0.9012739
vn 0.3141242 -0.3659445 0.8760198
vn -0.3450549 0.4409454 0.8285555
vn -0.1049703 -0.02289964 0.9942116
vn 0.4808385 -0.5393455 0.6913036
vn 0.6875173 -0.368151 0.6259272
vn 0.5139752 -0.7136256 0.4759915
vn 0.384834 -0.6838835 0.6198436
vn -0.1206886 -0.9507932 0.2853532
vn -0.4256968 -0.7494887 0.5070001
vn -0.7298756 0.1084017 0.67493
vn -0.3910043 0.824062 0.4099239
vn -0.9229086 0.3849051 0.00936595
vn -0.9462938 -0.07612108 0.3142191
vn -0.8797508 -0.4673253 0.08743921
vn -0.6884204 -0.7091423 0.1522977
vn -0.8197133 -0.5137412 0.253259
vn -0.842622 -0.5333683 0.07420423
vn -0.2266389 -0.9516763 0.2072364
vn -0.562099 -0.8121376 0.1564522
vn 0.2800225 -0.9565199 -0.08159032
vn -0.3554768 -0.5970057 -0.7191805
vn 0.1167148 -0.9540488 -0.2759863
vn -0.05763948 -0.9443515 0.3238487
vn -0.1612904 -0.9584954 -0.2351001
vn 0.1510467 -0.6256592 0.7653335
vn -0.9316387 -0.1488816 -0.3314869
vn -0.4414986 -0.8831509 0.1585039
vn -0.8867894 -0.1192574 -0.4465221
vn -0.9376028 -0.259124 0.2318531
vn -0.4824879 -0.2907291 0.8262458
vn -0.6466932 -0.4622024 -0.6067592
vn 0.3582974 -0.3634565 0.8599548
vn 0.6277785 -0.757081 0.1808934
vn 0.5676838 -0.7700016 0.2912605
vn 0.6891764 -0.4702394 0.5512812
vn 0.9349781 -0.3302493 -0.1294269
vn 0.9782025 -0.05929245 0.199008
vn 0.7834843 0.06465761 -0.6180387
vn 0.9558123 0.2814829 -0.08479578
vn 0.7237519 0.1403463 0.6756376
vn 0.4587899 0.8646435 0.2047031
vn 0.4318468 0.4701627 0.7697113
vn 0.04612056 0.9931266 0.1075748
vn 0.2244798 0.8012738 -0.5545891
vn 0.4841466 0.7347185 -0.4751744
vn 0.7289976 0.6613193 -0.1766898
vn 0.5821031 0.1582728 -0.7975623
vn 0.6602648 0.7420803 -0.1156169
vn 0.5897071 -0.2619547 -0.7639537
vn 0.5985469 -0.5900538 -0.5418285
vn 0.572924 -0.1973472 0.7954949
vn 0.4722581 -0.4116931 0.7794107
vn 0.1160912 -0.1261207 0.9851987
vn -0.3990009 0.9154602 0.0522585
vn 0.6205876 -0.6337062 -0.4618306
vn 0.2552275 0.7515522 0.6082996
vn 0.7187404 0.415374 -0.5575632
vn 0.7289976 0.6613193 -0.1766898
vn 0.3903549 0.821616 -0.4154156
vn 0.8467486 0.3980102 -0.3529939
vn 0.4841466 0.7347185 -0.4751744
vn 0.2620743 0.2602131 -0.9293041
vn -0.4597724 0.8223171 -0.3352672
vn 0.0993538 0.9720445 -0.2127401
vn 0.6602648 0.7420803 -0.1156169
vn 0.4446488 0.418745 -0.7917954
vn 0.9732892 0.1523508 -0.1717483
vn 0.8597759 0.2602644 -0.4393723
vn 0.1616934 0.08050698 -0.9835517
vn 0.1971178 0.2845747 -0.9381694
vn 0.7523913 0.05653875 -0.6562856
vn 0.8143722 -0.277378 -0.509764
vn 0.9038974 -0.2302468 0.360494
vn 0.20124 -0.8988066 -0.3894215
vn 0.5985469 -0.5900538 -0.5418285
vn 0.5897071 -0.2619547 -0.7639537
vn 0.3841998 -0.92132 0.0596655
vn 0.7834843 0.06465761 -0.6180387
vn -0.5402809 -0.8377674 -0.07900951
vn 0.03808595 -0.8826871 -0.4684153
vn -0.09256633 -0.7282091 -0.6790751
vn 0.2947797 -0.7168935 -0.631798
vn 0.6302724 -0.4423671 -0.6380187
vn -0.04491193 -0.6588517 -0.7509311
vn 0.7689683 -0.4861309 -0.415168
vn -0.1612904 -0.9584954 -0.2351001
vn -0.2527453 -0.6634772 -0.7042143
vn 0.2943578 -0.3080975 -0.9046709
vn -0.4150527 0.2343823 -0.8790882
vn -0.890765 -0.2489878 -0.3801879
vn -0.7480557 0.5986093 -0.2864954
vn 0.342816 0.4044 -0.8479021
vn 0.3387365 0.03286409 -0.9403071
vn -0.4712831 0.3370403 -0.8150436
vn 0.3698493 -0.1752578 -0.9124123
vn 0.3249253 0.2481013 -0.9126167
vn -0.7143756 0.2658639 -0.6472897
vn 0.5821031 0.1582728 -0.7975623
vn 0.2244798 0.8012738 -0.5545891
vn 0.6205876 -0.6337062 -0.4618306
vn 0.1191421 -0.03987097 -0.9920764
vn 0.1922877 0.01513622 -0.9812219
vn 0.7318525 -0.04270393 0.6801237
vn -0.9883099 -0.008716539 0.1522095
vn -0.9783303 -0.08998638 0.1864734
vn 0.8340676 -0.01540297 0.5514473
g Tree3_0
f 3/3/3 2/2/2 1/1/1
f 2/2/2 4/4/4 1/1/1
f 5/5/5 4/4/4 2/2/2
f 6/6/6 5/5/5 2/2/2
f 6/6/6 2/2/2 7/7/7
f 3/3/3 8/8/8 2/2/2
f 2/2/2 8/8/8 9/9/9
f 7/7/7 2/2/2 9/9/9
f 7/7/7 9/9/9 10/10/10
f 9/9/9 11/11/11 10/10/10
f 12/12/12 10/10/10 11/11/11
f 13/13/13 7/7/7 10/10/10
f 7/7/7 13/13/13 14/14/14
f 15/15/15 7/7/7 14/14/14
f 7/7/7 15/15/15 16/16/16
f 16/16/16 17/17/17 7/7/7
f 6/6/6 7/7/7 17/17/17
f 18/18/18 17/17/17 16/16/16
f 16/16/16 15/15/15 19/19/19
f 14/14/14 13/13/13 20/20/20
f 10/10/10 12/12/12 21/21/21
f 20/20/20 13/13/13 21/21/21
f 21/21/21 13/13/13 10/10/10
f 20/20/20 21/21/21 22/22/22
f 21/21/21 12/12/12 22/22/22
f 23/23/23 18/18/18 16/16/16
f 16/16/16 19/19/19 23/23/23
f 24/24/24 15/15/15 14/14/14
f 15/15/15 25/25/25 19/19/19
f 15/15/15 24/24/24 25/25/25
f 14/14/14 26/26/26 24/24/24
f 26/26/26 14/14/14 20/20/20
f 26/26/26 27/27/27 24/24/24
f 24/24/24 27/27/27 25/25/25
f 25/25/25 27/27/27 28/28/28
f 19/19/19 25/25/25 28/28/28
f 29/29/29 27/27/27 26/26/26
f 30/30/30 28/28/28 27/27/27
f 28/28/28 30/30/30 31/31/31
f 30/30/30 32/32/32 31/31/31
f 29/29/29 26/26/26 33/33/33
f 33/33/33 26/26/26 20/20/20
f 33/33/33 20/20/20 22/22/22
f 32/32/32 30/30/30 34/34/34
f 35/35/35 34/34/34 30/30/30
f 27/27/27 35/35/35 30/30/30
f 29/29/29 35/35/35 27/27/27
f 35/35/35 36/36/36 34/34/34
f 37/37/37 32/32/32 34/34/34
f 32/32/32 37/37/37 38/38/38
f 38/38/38 31/31/31 32/32/32
f 34/34/34 39/39/39 37/37/37
f 40/40/40 39/39/39 34/34/34
f 34/34/34 36/36/36 40/40/40
f 40/40/40 41/41/41 39/39/39
f 40/40/40 42/42/42 41/41/41
f 36/36/36 42/42/42 40/40/40
f 42/42/42 36/36/36 43/43/43
f 43/43/43 36/36/36 44/44/44
f 35/35/35 44/44/44 36/36/36
f 29/29/29 44/44/44 35/35/35
f 29/29/29 45/45/45 44/44/44
f 44/44/44 45/45/45 43/43/43
f 29/29/29 46/46/46 45/45/45
f 45/45/45 46/46/46 47/47/47
f 47/47/47 43/43/43 45/45/45
f 42/42/42 43/43/43 47/47/47
f 46/46/46 48/48/48 47/47/47
f 48/48/48 41/41/41 42/42/42
f 42/42/42 47/47/47 48/48/48
f 49/49/49 48/48/48 46/46/46
f 48/48/48 49/49/49 50/50/50
f 50/50/50 51/51/51 48/48/48
f 52/52/52 51/51/51 50/50/50
f 51/51/51 52/52/52 53/53/53
f 54/54/54 53/53/53 52/52/52
f 51/51/51 53/53/53 55/55/55
f 55/55/55 56/56/56 51/51/51
f 55/55/55 57/57/57 56/56/56
f 56/56/56 57/57/57 58/58/58
f 59/59/59 54/54/54 52/52/52
f 50/50/50 59/59/59 52/52/52
f 56/56/56 58/58/58 37/37/37
f 60/60/60 51/51/51 56/56/56
f 51/51/51 60/60/60 48/48/48
f 37/37/37 39/39/39 56/56/56
f 56/56/56 39/39/39 41/41/41
f 41/41/41 48/48/48 60/60/60
f 41/41/41 60/60/60 56/56/56
f 61/61/61 50/50/50 49/49/49
f 61/61/61 49/49/49 62/62/62
f 63/63/63 62/62/62 49/49/49
f 33/33/33 62/62/62 63/63/63
f 29/29/29 33/33/33 63/63/63
f 59/59/59 64/64/64 54/54/54
f 62/62/62 33/33/33 22/22/22
f 65/65/65 37/37/37 58/58/58
f 65/65/65 58/58/58 66/66/66
f 66/66/66 58/58/58 67/67/67
f 68/68/68 65/65/65 66/66/66
f 68/68/68 66/66/66 69/69/69
f 68/68/68 69/69/69 70/70/70
f 70/70/70 69/69/69 71/71/71
f 71/71/71 72/72/72 70/70/70
f 73/73/73 70/70/70 72/72/72
f 73/73/73 72/72/72 74/74/74
f 73/73/73 74/74/74 75/75/75
f 74/74/74 76/76/76 75/75/75
f 77/77/77 76/76/76 74/74/74
f 74/74/74 72/72/72 77/77/77
f 76/76/76 77/77/77 23/23/23
f 77/77/77 78/78/78 23/23/23
f 78/78/78 79/79/79 23/23/23
f 72/72/72 80/80/80 77/77/77
f 80/80/80 72/72/72 71/71/71
f 81/81/81 23/23/23 79/79/79
f 82/82/82 71/71/71 69/69/69
f 69/69/69 66/66/66 82/82/82
f 66/66/66 83/83/83 82/82/82
f 75/75/75 38/38/38 73/73/73
f 73/73/73 38/38/38 84/84/84
f 84/84/84 38/38/38 85/85/85
f 85/85/85 86/86/86 84/84/84
f 85/85/85 38/38/38 37/37/37
f 65/65/65 86/86/86 85/85/85
f 85/85/85 37/37/37 65/65/65
f 83/83/83 66/66/66 67/67/67
f 81/81/81 18/18/18 23/23/23
f 81/81/81 87/87/87 18/18/18
f 86/86/86 68/68/68 84/84/84
f 86/86/86 65/65/65 68/68/68
f 70/70/70 84/84/84 68/68/68
f 73/73/73 84/84/84 70/70/70
f 67/67/67 88/88/88 83/83/83
f 67/67/67 57/57/57 88/88/88
f 67/67/67 58/58/58 57/57/57
f 75/75/75 31/31/31 38/38/38
f 89/89/89 31/31/31 75/75/75
f 31/31/31 89/89/89 28/28/28
f 76/76/76 89/89/89 75/75/75
f 28/28/28 89/89/89 19/19/19
f 76/76/76 19/19/19 89/89/89
f 23/23/23 19/19/19 76/76/76
f 92/92/92 91/91/91 90/90/90
f 93/93/93 90/90/90 91/91/91
f 94/94/94 93/93/93 91/91/91
f 95/95/95 92/92/92 90/90/90
f 95/95/95 96/96/96 92/92/92
f 92/92/92 97/97/97 91/91/91
f 97/97/97 92/92/92 96/96/96
f 6/6/6 97/97/97 96/96/96
f 91/91/91 97/97/97 98/98/98
f 97/97/97 17/17/17 98/98/98
f 6/6/6 17/17/17 97/97/97
f 93/93/93 99/99/99 90/90/90
f 100/100/100 99/99/99 93/93/93
f 99/99/99 100/100/100 101/101/101
f 99/99/99 101/101/101 102/102/102
f 99/99/99 102/102/102 103/103/103
f 93/93/93 104/104/104 100/100/100
f 94/94/94 104/104/104 93/93/93
f 104/104/104 105/105/105 100/100/100
f 105/105/105 106/106/106 100/100/100
f 100/100/100 106/106/106 101/101/101
f 105/105/105 107/107/107 106/106/106
f 105/105/105 108/108/108 107/107/107
f 109/109/109 108/108/108 105/105/105
f 109/109/109 105/105/105 104/104/104
f 107/107/107 110/110/110 106/106/106
f 104/104/104 111/111/111 109/109/109
f 110/110/110 107/107/107 112/112/112
f 113/113/113 112/112/112 107/107/107
f 114/114/114 112/112/112 113/113/113
f 103/103/103 102/102/102 114/114/114
f 113/113/113 115/115/115 114/114/114
f 113/113/113 116/116/116 115/115/115
f 114/114/114 102/102/102 117/117/117
f 110/110/110 112/112/112 117/117/117
f 117/117/117 112/112/112 114/114/114
f 102/102/102 118/118/118 117/117/117
f 110/110/110 117/117/117 118/118/118
f 106/106/106 110/110/110 118/118/118
f 107/107/107 119/119/119 113/113/113
f 114/114/114 115/115/115 120/120/120
f 114/114/114 120/120/120 121/121/121
f 121/121/121 120/120/120 122/122/122
f 120/120/120 115/115/115 64/64/64
f 64/64/64 123/123/123 120/120/120
f 120/120/120 123/123/123 122/122/122
f 115/115/115 116/116/116 54/54/54
f 115/115/115 54/54/54 64/64/64
f 55/55/55 116/116/116 113/113/113
f 55/55/55 113/113/113 119/119/119
f 121/121/121 103/103/103 114/114/114
f 101/101/101 118/118/118 102/102/102
f 116/116/116 53/53/53 54/54/54
f 55/55/55 53/53/53 116/116/116
f 124/124/124 122/122/122 123/123/123
f 123/123/123 1/1/1 124/124/124
f 1/1/1 4/4/4 124/124/124
f 124/124/124 4/4/4 122/122/122
f 122/122/122 4/4/4 125/125/125
f 125/125/125 121/121/121 122/122/122
f 125/125/125 103/103/103 121/121/121
f 4/4/4 126/126/126 125/125/125
f 126/126/126 103/103/103 125/125/125
f 95/95/95 126/126/126 4/4/4
f 95/95/95 4/4/4 127/127/127
f 128/128/128 126/126/126 95/95/95
f 129/129/129 126/126/126 128/128/128
f 129/129/129 103/103/103 126/126/126
f 3/3/3 1/1/1 123/123/123
f 99/99/99 129/129/129 128/128/128
f 103/103/103 129/129/129 99/99/99
f 4/4/4 5/5/5 127/127/127
f 127/127/127 96/96/96 95/95/95
f 96/96/96 127/127/127 5/5/5
f 6/6/6 96/96/96 5/5/5
f 95/95/95 90/90/90 128/128/128
f 99/99/99 128/128/128 90/90/90
f 130/130/130 3/3/3 59/59/59
f 59/59/59 50/50/50 130/130/130
f 50/50/50 61/61/61 130/130/130
f 11/11/11 130/130/130 61/61/61
f 11/11/11 9/9/9 130/130/130
f 11/11/11 61/61/61 62/62/62
f 62/62/62 12/12/12 11/11/11
f 12/12/12 62/62/62 22/22/22
f 3/3/3 64/64/64 59/59/59
f 123/123/123 64/64/64 3/3/3
f 8/8/8 130/130/130 9/9/9
f 130/130/130 8/8/8 3/3/3
f 132/132/132 131/131/131 94/94/94
f 131/131/131 104/104/104 94/94/94
f 131/131/131 111/111/111 104/104/104
f 119/119/119 107/107/107 133/133/133
f 108/108/108 133/133/133 107/107/107
f 106/106/106 118/118/118 101/101/101
f 46/46/46 29/29/29 63/63/63
f 49/49/49 46/46/46 63/63/63
f 136/136/136 135/135/135 134/134/134
f 137/137/137 134/134/134 135/135/135
f 137/137/137 136/136/136 138/138/138
f 137/137/137 138/138/138 134/134/134
f 137/137/137 139/139/139 136/136/136
f 136/136/136 139/139/139 135/135/135
